G04*
G04 #@! TF.GenerationSoftware,Altium Limited,Altium Designer,26.2.0 (7)*
G04*
G04 Layer_Color=128*
%FSLAX44Y44*%
%MOMM*%
G71*
G04*
G04 #@! TF.SameCoordinates,19844F2F-9C7A-401E-B90C-CCBAC662FF6E*
G04*
G04*
G04 #@! TF.FilePolarity,Positive*
G04*
G01*
G75*
G36*
X481000Y337500D02*
X475000Y343500D01*
X469000Y337500D01*
Y350500D01*
X481000D01*
Y337500D01*
D02*
G37*
G36*
Y335000D02*
Y328000D01*
X469000D01*
Y335000D01*
X475000Y341000D01*
X481000Y335000D01*
D02*
G37*
G36*
X499000Y337500D02*
X493000Y343500D01*
X487000Y337500D01*
Y350500D01*
X499000D01*
Y337500D01*
D02*
G37*
G36*
Y335000D02*
Y328000D01*
X487000D01*
Y335000D01*
X493000Y341000D01*
X499000Y335000D01*
D02*
G37*
G36*
X482000Y417000D02*
X476000Y411000D01*
X470000Y417000D01*
Y424000D01*
X482000D01*
Y417000D01*
D02*
G37*
G36*
Y401500D02*
X470000D01*
Y414500D01*
X476000Y408500D01*
X482000Y414500D01*
Y401500D01*
D02*
G37*
G36*
X500000Y417000D02*
X494000Y411000D01*
X488000Y417000D01*
Y424000D01*
X500000D01*
Y417000D01*
D02*
G37*
G36*
Y401500D02*
X488000D01*
Y414500D01*
X494000Y408500D01*
X500000Y414500D01*
Y401500D01*
D02*
G37*
M02*
