G04*
G04 #@! TF.GenerationSoftware,Altium Limited,Altium Designer,26.2.0 (7)*
G04*
G04 Layer_Color=32896*
%FSLAX44Y44*%
%MOMM*%
G71*
G04*
G04 #@! TF.SameCoordinates,96A30EBC-B4F8-4BF8-BD66-0BA623D5F1AF*
G04*
G04*
G04 #@! TF.FilePolarity,Positive*
G04*
G01*
G75*
%ADD13C,0.1500*%
D13*
X496999Y385001D02*
X497999Y384002D01*
Y382002D01*
X496999Y381003D01*
X496000D01*
X495000Y382002D01*
Y384002D01*
X494000Y385001D01*
X493001D01*
X492001Y384002D01*
Y382002D01*
X493001Y381003D01*
X497999Y387001D02*
X492001D01*
Y390000D01*
X493001Y390999D01*
X494000D01*
X495000Y390000D01*
Y387001D01*
Y390000D01*
X496000Y390999D01*
X496999D01*
X497999Y390000D01*
Y387001D01*
X492001Y395998D02*
X497999D01*
X495000Y392999D01*
Y396997D01*
X477999Y385001D02*
X478999Y384002D01*
Y382002D01*
X477999Y381003D01*
X477000D01*
X476000Y382002D01*
Y384002D01*
X475000Y385001D01*
X474001D01*
X473001Y384002D01*
Y382002D01*
X474001Y381003D01*
X478999Y387001D02*
X473001D01*
Y390000D01*
X474001Y390999D01*
X475000D01*
X476000Y390000D01*
Y387001D01*
Y390000D01*
X477000Y390999D01*
X477999D01*
X478999Y390000D01*
Y387001D01*
X477999Y392999D02*
X478999Y393998D01*
Y395998D01*
X477999Y396997D01*
X477000D01*
X476000Y395998D01*
Y394998D01*
Y395998D01*
X475000Y396997D01*
X474001D01*
X473001Y395998D01*
Y393998D01*
X474001Y392999D01*
X495999Y312001D02*
X496999Y311002D01*
Y309002D01*
X495999Y308003D01*
X495000D01*
X494000Y309002D01*
Y311002D01*
X493000Y312001D01*
X492001D01*
X491001Y311002D01*
Y309002D01*
X492001Y308003D01*
X496999Y314001D02*
X491001D01*
Y317000D01*
X492001Y317999D01*
X493000D01*
X494000Y317000D01*
Y314001D01*
Y317000D01*
X495000Y317999D01*
X495999D01*
X496999Y317000D01*
Y314001D01*
X491001Y323997D02*
Y319999D01*
X495000Y323997D01*
X495999D01*
X496999Y322998D01*
Y320998D01*
X495999Y319999D01*
X476999Y314501D02*
X477999Y313501D01*
Y311502D01*
X476999Y310502D01*
X476000D01*
X475000Y311502D01*
Y313501D01*
X474000Y314501D01*
X473001D01*
X472001Y313501D01*
Y311502D01*
X473001Y310502D01*
X477999Y316500D02*
X472001D01*
Y319499D01*
X473001Y320499D01*
X474000D01*
X475000Y319499D01*
Y316500D01*
Y319499D01*
X476000Y320499D01*
X476999D01*
X477999Y319499D01*
Y316500D01*
X472001Y322498D02*
Y324498D01*
Y323498D01*
X477999D01*
X476999Y322498D01*
M02*
