G04*
G04 #@! TF.GenerationSoftware,Altium Limited,Altium Designer,26.2.0 (7)*
G04*
G04 Layer_Physical_Order=4*
G04 Layer_Color=16711680*
%FSLAX44Y44*%
%MOMM*%
G71*
G04*
G04 #@! TF.SameCoordinates,96A30EBC-B4F8-4BF8-BD66-0BA623D5F1AF*
G04*
G04*
G04 #@! TF.FilePolarity,Positive*
G04*
G01*
G75*
%ADD88C,0.6500*%
%ADD95C,0.2500*%
G04:AMPARAMS|DCode=97|XSize=1.8mm|YSize=1mm|CornerRadius=0.25mm|HoleSize=0mm|Usage=FLASHONLY|Rotation=0.000|XOffset=0mm|YOffset=0mm|HoleType=Round|Shape=RoundedRectangle|*
%AMROUNDEDRECTD97*
21,1,1.8000,0.5000,0,0,0.0*
21,1,1.3000,1.0000,0,0,0.0*
1,1,0.5000,0.6500,-0.2500*
1,1,0.5000,-0.6500,-0.2500*
1,1,0.5000,-0.6500,0.2500*
1,1,0.5000,0.6500,0.2500*
%
%ADD97ROUNDEDRECTD97*%
%ADD98O,2.1000X1.0000*%
%ADD99C,6.0000*%
%ADD100C,1.3980*%
%ADD101C,1.1000*%
%ADD102C,1.6000*%
%ADD103R,1.3980X1.3980*%
%ADD104C,0.5000*%
%AMCUSTOMSHAPE105*
4,1,5,0.6000,-0.6500,-0.6000,-0.6500,-0.6000,0.6500,0.0000,0.0500,0.6000,0.6500,0.6000,-0.6500,0.0*%
%ADD105CUSTOMSHAPE105*%

%AMCUSTOMSHAPE106*
4,1,5,0.0000,-0.6500,0.6000,-0.0500,0.6000,0.6500,-0.6000,0.6500,-0.6000,-0.0500,0.0000,-0.6500,0.0*%
%ADD106CUSTOMSHAPE106*%

%AMCUSTOMSHAPE107*
4,1,5,0.0000,0.6500,-0.6000,0.0500,-0.6000,-0.6500,0.6000,-0.6500,0.6000,0.0500,0.0000,0.6500,0.0*%
%ADD107CUSTOMSHAPE107*%

%AMCUSTOMSHAPE108*
4,1,5,-0.6000,0.6500,0.6000,0.6500,0.6000,-0.6500,0.0000,-0.0500,-0.6000,-0.6500,-0.6000,0.6500,0.0*%
%ADD108CUSTOMSHAPE108*%

G36*
X705498Y856193D02*
X705623Y854419D01*
X705741Y853632D01*
X705895Y852911D01*
X706085Y852257D01*
X706312Y851669D01*
X706576Y851148D01*
X706876Y850693D01*
X707213Y850305D01*
X705445Y848538D01*
X705057Y848874D01*
X704602Y849174D01*
X704081Y849438D01*
X703493Y849665D01*
X702839Y849855D01*
X702118Y850009D01*
X701331Y850127D01*
X700477Y850208D01*
X698570Y850260D01*
X705490Y857180D01*
X705498Y856193D01*
D02*
G37*
G36*
X647630Y850260D02*
X646643Y850252D01*
X644869Y850127D01*
X644082Y850009D01*
X643361Y849855D01*
X642707Y849665D01*
X642119Y849438D01*
X641598Y849174D01*
X641143Y848874D01*
X640755Y848538D01*
X638988Y850305D01*
X639324Y850693D01*
X639624Y851148D01*
X639888Y851669D01*
X640115Y852257D01*
X640305Y852911D01*
X640459Y853632D01*
X640577Y854419D01*
X640658Y855273D01*
X640710Y857180D01*
X647630Y850260D01*
D02*
G37*
G36*
X720476Y850291D02*
X720123Y850273D01*
X719769Y850220D01*
X719415Y850131D01*
X719062Y850008D01*
X718708Y849848D01*
X718355Y849654D01*
X718001Y849424D01*
X717648Y849159D01*
X717294Y848859D01*
X716941Y848523D01*
X715173Y850291D01*
X715509Y850644D01*
X715809Y850998D01*
X716074Y851351D01*
X716304Y851705D01*
X716498Y852058D01*
X716658Y852412D01*
X716781Y852765D01*
X716870Y853119D01*
X716923Y853473D01*
X716941Y853826D01*
X720476Y850291D01*
D02*
G37*
G36*
X674514Y850405D02*
X673447Y850173D01*
X669995Y849182D01*
X669336Y848919D01*
X668759Y848649D01*
X668264Y848373D01*
X667850Y848091D01*
X667517Y847803D01*
X665359Y849180D01*
X665722Y849598D01*
X666024Y850069D01*
X666266Y850591D01*
X666449Y851165D01*
X666572Y851791D01*
X666634Y852469D01*
X666637Y853198D01*
X666579Y853980D01*
X666462Y854814D01*
X666284Y855699D01*
X674514Y850405D01*
D02*
G37*
G36*
X680098Y830793D02*
X680223Y829019D01*
X680341Y828232D01*
X680495Y827511D01*
X680685Y826857D01*
X680912Y826269D01*
X681176Y825748D01*
X681476Y825293D01*
X681813Y824905D01*
X680045Y823138D01*
X679657Y823474D01*
X679202Y823774D01*
X678681Y824038D01*
X678093Y824265D01*
X677439Y824455D01*
X676718Y824609D01*
X675931Y824727D01*
X675077Y824808D01*
X673170Y824860D01*
X680090Y831780D01*
X680098Y830793D01*
D02*
G37*
G36*
X654698D02*
X654823Y829019D01*
X654941Y828232D01*
X655095Y827511D01*
X655285Y826857D01*
X655512Y826269D01*
X655776Y825748D01*
X656076Y825293D01*
X656413Y824905D01*
X654645Y823138D01*
X654257Y823474D01*
X653802Y823774D01*
X653281Y824038D01*
X652693Y824265D01*
X652039Y824455D01*
X651318Y824609D01*
X650531Y824727D01*
X649677Y824808D01*
X647770Y824860D01*
X654690Y831780D01*
X654698Y830793D01*
D02*
G37*
G36*
X139630Y824860D02*
X138643Y824852D01*
X136869Y824727D01*
X136082Y824609D01*
X135361Y824455D01*
X134707Y824265D01*
X134119Y824038D01*
X133598Y823774D01*
X133143Y823474D01*
X132755Y823138D01*
X130988Y824905D01*
X131324Y825293D01*
X131624Y825748D01*
X131888Y826269D01*
X132115Y826857D01*
X132305Y827511D01*
X132459Y828232D01*
X132577Y829019D01*
X132658Y829873D01*
X132710Y831780D01*
X139630Y824860D01*
D02*
G37*
G36*
X121298Y830793D02*
X121423Y829019D01*
X121541Y828232D01*
X121695Y827511D01*
X121885Y826857D01*
X122112Y826269D01*
X122376Y825748D01*
X122676Y825293D01*
X123013Y824905D01*
X121245Y823138D01*
X120857Y823474D01*
X120402Y823774D01*
X119881Y824038D01*
X119293Y824265D01*
X118639Y824455D01*
X117918Y824609D01*
X117131Y824727D01*
X116277Y824808D01*
X114370Y824860D01*
X121290Y831780D01*
X121298Y830793D01*
D02*
G37*
G36*
X647630Y799460D02*
X646643Y799452D01*
X644869Y799327D01*
X644082Y799209D01*
X643361Y799055D01*
X642707Y798865D01*
X642119Y798638D01*
X641598Y798374D01*
X641143Y798074D01*
X640755Y797738D01*
X638988Y799505D01*
X639324Y799893D01*
X639624Y800348D01*
X639888Y800869D01*
X640115Y801457D01*
X640305Y802111D01*
X640459Y802832D01*
X640577Y803619D01*
X640658Y804473D01*
X640710Y806380D01*
X647630Y799460D01*
D02*
G37*
G36*
X408000Y479000D02*
X407729Y478994D01*
X407483Y478975D01*
X407262Y478944D01*
X407066Y478900D01*
X406896Y478844D01*
X406751Y478776D01*
X406631Y478695D01*
X406536Y478601D01*
X406466Y478495D01*
X406421Y478377D01*
X404779Y481376D01*
X407665Y481500D01*
X408000Y479000D01*
D02*
G37*
G36*
X408025Y469708D02*
X407839Y469514D01*
X407525Y469144D01*
X407398Y468967D01*
X407290Y468796D01*
X407203Y468630D01*
X407135Y468470D01*
X407087Y468316D01*
X407058Y468168D01*
X407050Y468025D01*
X404575Y470500D01*
X404718Y470508D01*
X404866Y470537D01*
X405020Y470585D01*
X405180Y470653D01*
X405346Y470740D01*
X405517Y470848D01*
X405694Y470975D01*
X405876Y471122D01*
X406258Y471475D01*
X408025Y469708D01*
D02*
G37*
G36*
X292892Y444905D02*
X293017Y444820D01*
X293160Y444745D01*
X293321Y444680D01*
X293500Y444625D01*
X293697Y444580D01*
X293912Y444545D01*
X294145Y444520D01*
X294665Y444500D01*
Y442000D01*
X294396Y441995D01*
X293912Y441955D01*
X293697Y441920D01*
X293500Y441875D01*
X293321Y441820D01*
X293160Y441755D01*
X293017Y441680D01*
X292892Y441595D01*
X292785Y441500D01*
Y445000D01*
X292892Y444905D01*
D02*
G37*
G36*
X487887Y425399D02*
X488240Y425098D01*
X488594Y424833D01*
X488947Y424603D01*
X489301Y424409D01*
X489654Y424250D01*
X490008Y424126D01*
X490361Y424038D01*
X490715Y423985D01*
X491068Y423967D01*
X488033Y419931D01*
X488015Y420285D01*
X487962Y420639D01*
X487874Y420992D01*
X487750Y421346D01*
X487591Y421699D01*
X487397Y422053D01*
X487167Y422406D01*
X486902Y422760D01*
X486601Y423114D01*
X486265Y423467D01*
X487533Y425735D01*
X487887Y425399D01*
D02*
G37*
G36*
X469887Y425399D02*
X470240Y425098D01*
X470594Y424833D01*
X470947Y424603D01*
X471301Y424409D01*
X471654Y424250D01*
X472008Y424126D01*
X472361Y424038D01*
X472715Y423985D01*
X473069Y423967D01*
X470033Y419931D01*
X470015Y420285D01*
X469962Y420639D01*
X469874Y420992D01*
X469750Y421346D01*
X469591Y421699D01*
X469397Y422053D01*
X469167Y422406D01*
X468902Y422760D01*
X468601Y423113D01*
X468265Y423467D01*
X469533Y425735D01*
X469887Y425399D01*
D02*
G37*
G36*
X292974Y410557D02*
X293097Y410466D01*
X293237Y410386D01*
X293396Y410317D01*
X293573Y410258D01*
X293768Y410210D01*
X293982Y410173D01*
X294214Y410146D01*
X294733Y410125D01*
X294588Y407625D01*
X294319Y407620D01*
X293833Y407583D01*
X293617Y407551D01*
X293419Y407509D01*
X293239Y407459D01*
X293076Y407399D01*
X292931Y407329D01*
X292805Y407251D01*
X292696Y407163D01*
X292871Y410658D01*
X292974Y410557D01*
D02*
G37*
G36*
X372521Y407091D02*
X372417Y407193D01*
X372295Y407284D01*
X372155Y407364D01*
X371996Y407433D01*
X371819Y407492D01*
X371624Y407540D01*
X371410Y407577D01*
X371178Y407604D01*
X370659Y407625D01*
X370804Y410125D01*
X371073Y410130D01*
X371559Y410167D01*
X371775Y410199D01*
X371973Y410241D01*
X372153Y410291D01*
X372316Y410351D01*
X372460Y410421D01*
X372587Y410499D01*
X372696Y410587D01*
X372521Y407091D01*
D02*
G37*
G36*
X382128Y409931D02*
X382498Y409617D01*
X382675Y409490D01*
X382846Y409382D01*
X383012Y409294D01*
X383171Y409226D01*
X383325Y409178D01*
X383474Y409150D01*
X383617Y409142D01*
X381142Y406667D01*
X381133Y406810D01*
X381105Y406958D01*
X381057Y407112D01*
X380989Y407272D01*
X380901Y407438D01*
X380794Y407609D01*
X380667Y407785D01*
X380520Y407968D01*
X380166Y408349D01*
X381934Y410117D01*
X382128Y409931D01*
D02*
G37*
G36*
X252508Y405832D02*
X252537Y405684D01*
X252585Y405530D01*
X252653Y405370D01*
X252740Y405204D01*
X252848Y405033D01*
X252975Y404856D01*
X253122Y404674D01*
X253475Y404292D01*
X251708Y402524D01*
X251514Y402711D01*
X251144Y403025D01*
X250967Y403152D01*
X250796Y403260D01*
X250630Y403347D01*
X250471Y403415D01*
X250316Y403463D01*
X250168Y403492D01*
X250025Y403500D01*
X252500Y405975D01*
X252508Y405832D01*
D02*
G37*
G36*
X495295Y401508D02*
X495083Y401433D01*
X494896Y401308D01*
X494733Y401133D01*
X494595Y400908D01*
X494483Y400633D01*
X494395Y400308D01*
X494333Y399933D01*
X494296Y399508D01*
X494283Y399033D01*
X491783D01*
X491771Y399508D01*
X491733Y399933D01*
X491670Y400308D01*
X491583Y400633D01*
X491470Y400908D01*
X491333Y401133D01*
X491171Y401308D01*
X490983Y401433D01*
X490770Y401508D01*
X490533Y401533D01*
X495533D01*
X495295Y401508D01*
D02*
G37*
G36*
X478262Y401508D02*
X478050Y401433D01*
X477863Y401308D01*
X477700Y401133D01*
X477562Y400908D01*
X477450Y400633D01*
X477363Y400308D01*
X477300Y399933D01*
X477262Y399508D01*
X477250Y399033D01*
X474750D01*
X474738Y399508D01*
X474700Y399933D01*
X474637Y400308D01*
X474550Y400633D01*
X474437Y400908D01*
X474300Y401133D01*
X474137Y401308D01*
X473950Y401433D01*
X473737Y401508D01*
X473500Y401533D01*
X478500D01*
X478262Y401508D01*
D02*
G37*
G36*
X749508Y401832D02*
X749537Y401684D01*
X749585Y401530D01*
X749653Y401370D01*
X749740Y401204D01*
X749848Y401033D01*
X749975Y400856D01*
X750122Y400674D01*
X750475Y400292D01*
X748708Y398525D01*
X748514Y398711D01*
X748144Y399025D01*
X747967Y399152D01*
X747796Y399260D01*
X747630Y399347D01*
X747470Y399415D01*
X747316Y399463D01*
X747168Y399492D01*
X747025Y399500D01*
X749500Y401975D01*
X749508Y401832D01*
D02*
G37*
G36*
X397223Y389785D02*
X397116Y389880D01*
X396991Y389965D01*
X396848Y390040D01*
X396687Y390105D01*
X396508Y390160D01*
X396311Y390205D01*
X396096Y390240D01*
X395863Y390265D01*
X395343Y390285D01*
Y392785D01*
X395612Y392790D01*
X396096Y392830D01*
X396311Y392865D01*
X396508Y392910D01*
X396687Y392965D01*
X396848Y393030D01*
X396991Y393105D01*
X397116Y393190D01*
X397223Y393285D01*
Y389785D01*
D02*
G37*
G36*
X478305Y359258D02*
X478345Y358774D01*
X478380Y358559D01*
X478425Y358362D01*
X478480Y358183D01*
X478545Y358022D01*
X478620Y357879D01*
X478705Y357755D01*
X478800Y357647D01*
X475300D01*
X475395Y357755D01*
X475480Y357879D01*
X475555Y358022D01*
X475620Y358183D01*
X475675Y358362D01*
X475720Y358559D01*
X475755Y358774D01*
X475780Y359007D01*
X475800Y359527D01*
X478300D01*
X478305Y359258D01*
D02*
G37*
G36*
X494288Y358433D02*
X494328Y357949D01*
X494363Y357734D01*
X494408Y357537D01*
X494463Y357358D01*
X494528Y357197D01*
X494603Y357054D01*
X494688Y356929D01*
X494783Y356822D01*
X491283D01*
X491378Y356929D01*
X491463Y357054D01*
X491538Y357197D01*
X491603Y357358D01*
X491658Y357537D01*
X491703Y357734D01*
X491738Y357949D01*
X491763Y358182D01*
X491783Y358702D01*
X494283D01*
X494288Y358433D01*
D02*
G37*
G36*
X494759Y353228D02*
X494663Y353122D01*
X494576Y352998D01*
X494500Y352855D01*
X494433Y352695D01*
X494377Y352516D01*
X494332Y352320D01*
X494296Y352108D01*
X494300Y352067D01*
X494362Y351692D01*
X494450Y351367D01*
X494562Y351092D01*
X494700Y350867D01*
X494863Y350692D01*
X495050Y350567D01*
X495262Y350492D01*
X495500Y350467D01*
X490500D01*
X490737Y350492D01*
X490950Y350567D01*
X491138Y350692D01*
X491300Y350867D01*
X491437Y351092D01*
X491550Y351367D01*
X491637Y351692D01*
X491700Y352067D01*
X491706Y352139D01*
X491706Y352144D01*
X491671Y352360D01*
X491627Y352557D01*
X491573Y352736D01*
X491510Y352898D01*
X491436Y353041D01*
X491353Y353167D01*
X491260Y353274D01*
X494759Y353228D01*
D02*
G37*
G36*
X478705Y353970D02*
X478620Y353845D01*
X478545Y353702D01*
X478480Y353541D01*
X478425Y353362D01*
X478380Y353165D01*
X478345Y352950D01*
X478311Y352541D01*
X478312Y352492D01*
X478350Y352067D01*
X478413Y351692D01*
X478500Y351367D01*
X478613Y351092D01*
X478750Y350867D01*
X478913Y350692D01*
X479100Y350567D01*
X479313Y350492D01*
X479550Y350467D01*
X474550D01*
X474787Y350492D01*
X475000Y350567D01*
X475187Y350692D01*
X475350Y350867D01*
X475488Y351092D01*
X475600Y351367D01*
X475687Y351692D01*
X475750Y352067D01*
X475788Y352492D01*
X475788Y352510D01*
X475780Y352717D01*
X475755Y352950D01*
X475720Y353165D01*
X475675Y353362D01*
X475620Y353541D01*
X475555Y353702D01*
X475480Y353845D01*
X475395Y353970D01*
X475300Y354077D01*
X478800D01*
X478705Y353970D01*
D02*
G37*
G36*
X423508Y352832D02*
X423537Y352684D01*
X423585Y352529D01*
X423653Y352370D01*
X423740Y352204D01*
X423848Y352033D01*
X423975Y351856D01*
X424122Y351674D01*
X424476Y351292D01*
X422708Y349524D01*
X422514Y349711D01*
X422144Y350025D01*
X421967Y350152D01*
X421796Y350260D01*
X421630Y350347D01*
X421470Y350415D01*
X421316Y350463D01*
X421168Y350492D01*
X421025Y350500D01*
X423500Y352975D01*
X423508Y352832D01*
D02*
G37*
G36*
X418857Y343538D02*
X418885Y343390D01*
X418933Y343236D01*
X419001Y343076D01*
X419089Y342910D01*
X419196Y342739D01*
X419324Y342562D01*
X419470Y342380D01*
X419824Y341998D01*
X418056Y340230D01*
X417863Y340417D01*
X417492Y340731D01*
X417315Y340858D01*
X417144Y340966D01*
X416979Y341053D01*
X416819Y341121D01*
X416665Y341169D01*
X416516Y341198D01*
X416373Y341206D01*
X418848Y343681D01*
X418857Y343538D01*
D02*
G37*
G36*
X498985Y331715D02*
X499038Y331362D01*
X499126Y331008D01*
X499250Y330654D01*
X499409Y330301D01*
X499603Y329947D01*
X499833Y329594D01*
X500098Y329240D01*
X500399Y328887D01*
X500735Y328533D01*
X499467Y326265D01*
X499114Y326601D01*
X498760Y326902D01*
X498406Y327167D01*
X498053Y327397D01*
X497699Y327591D01*
X497346Y327750D01*
X496992Y327874D01*
X496639Y327962D01*
X496285Y328015D01*
X495932Y328033D01*
X498967Y332069D01*
X498985Y331715D01*
D02*
G37*
G36*
X480985Y331240D02*
X481038Y330887D01*
X481126Y330533D01*
X481250Y330179D01*
X481409Y329826D01*
X481603Y329472D01*
X481833Y329119D01*
X482098Y328765D01*
X482399Y328412D01*
X482735Y328058D01*
X480992Y326265D01*
X480639Y326601D01*
X480285Y326902D01*
X479931Y327167D01*
X479578Y327397D01*
X479224Y327591D01*
X478871Y327750D01*
X478517Y327874D01*
X478164Y327962D01*
X477810Y328015D01*
X477457Y328033D01*
X480967Y331594D01*
X480985Y331240D01*
D02*
G37*
G36*
X753486Y208289D02*
X753856Y207975D01*
X754033Y207848D01*
X754204Y207740D01*
X754370Y207653D01*
X754529Y207585D01*
X754684Y207537D01*
X754832Y207508D01*
X754975Y207500D01*
X752500Y205025D01*
X752492Y205168D01*
X752463Y205316D01*
X752415Y205471D01*
X752347Y205630D01*
X752260Y205796D01*
X752152Y205967D01*
X752025Y206144D01*
X751878Y206326D01*
X751525Y206708D01*
X753292Y208475D01*
X753486Y208289D01*
D02*
G37*
G36*
Y195789D02*
X753856Y195475D01*
X754033Y195348D01*
X754204Y195240D01*
X754370Y195153D01*
X754529Y195085D01*
X754684Y195037D01*
X754832Y195008D01*
X754975Y195000D01*
X752500Y192525D01*
X752492Y192668D01*
X752463Y192816D01*
X752415Y192971D01*
X752347Y193130D01*
X752260Y193296D01*
X752152Y193467D01*
X752025Y193644D01*
X751878Y193826D01*
X751525Y194208D01*
X753292Y195975D01*
X753486Y195789D01*
D02*
G37*
G36*
X794000Y908000D02*
X795083D01*
X797209Y907577D01*
X799211Y906748D01*
X801012Y905544D01*
X802544Y904012D01*
X803748Y902210D01*
X804577Y900209D01*
X805000Y898083D01*
X805000Y897000D01*
X805000D01*
Y691000D01*
X805063Y689726D01*
X805560Y687226D01*
X806535Y684872D01*
X807951Y682753D01*
X809753Y680951D01*
X811872Y679535D01*
X814226Y678560D01*
X816726Y678063D01*
X818000Y678000D01*
X840182D01*
X842500Y677539D01*
X844684Y676634D01*
X846649Y675321D01*
X848321Y673650D01*
X849634Y671684D01*
X850539Y669500D01*
X851000Y667182D01*
Y666000D01*
Y-38000D01*
Y-39280D01*
X850500Y-41792D01*
X849520Y-44158D01*
X848098Y-46287D01*
X846287Y-48098D01*
X844158Y-49521D01*
X841792Y-50500D01*
X839280Y-51000D01*
X687568D01*
X685250Y-50539D01*
X683066Y-49634D01*
X681100Y-48321D01*
X679429Y-46650D01*
X678116Y-44684D01*
X677211Y-42500D01*
X676750Y-40182D01*
Y-34000D01*
X676692Y-32824D01*
X676233Y-30517D01*
X675333Y-28343D01*
X674026Y-26387D01*
X672363Y-24724D01*
X670407Y-23417D01*
X668233Y-22517D01*
X665926Y-22058D01*
X664750Y-22000D01*
X132000Y-22000D01*
X130824Y-22058D01*
X128517Y-22517D01*
X126343Y-23417D01*
X124387Y-24724D01*
X122724Y-26387D01*
X121417Y-28343D01*
X120517Y-30517D01*
X120058Y-32824D01*
X120000Y-34000D01*
X120000D01*
Y-40182D01*
X119539Y-42500D01*
X118634Y-44684D01*
X117321Y-46650D01*
X115649Y-48321D01*
X113684Y-49634D01*
X111500Y-50539D01*
X109182Y-51000D01*
X-39280D01*
X-41792Y-50500D01*
X-44158Y-49521D01*
X-46287Y-48098D01*
X-48098Y-46287D01*
X-49521Y-44158D01*
X-50500Y-41792D01*
X-51000Y-39280D01*
Y-38000D01*
Y115000D01*
Y116182D01*
X-50539Y118500D01*
X-49634Y120684D01*
X-48321Y122649D01*
X-46650Y124321D01*
X-44684Y125634D01*
X-42500Y126539D01*
X-40182Y127000D01*
X-34000Y127000D01*
X-32824Y127058D01*
X-30517Y127517D01*
X-28343Y128417D01*
X-26387Y129724D01*
X-24724Y131387D01*
X-23417Y133343D01*
X-22517Y135517D01*
X-22058Y137824D01*
X-22000Y139000D01*
X-22000D01*
X-22000Y722000D01*
X-22058Y723176D01*
X-22517Y725483D01*
X-23417Y727657D01*
X-24724Y729613D01*
X-26387Y731276D01*
X-28343Y732583D01*
X-30517Y733483D01*
X-32824Y733942D01*
X-34000Y734000D01*
Y734000D01*
X-40182D01*
X-42500Y734461D01*
X-44684Y735366D01*
X-46650Y736679D01*
X-48321Y738351D01*
X-49634Y740316D01*
X-50539Y742500D01*
X-51000Y744818D01*
Y746000D01*
Y896000D01*
Y897182D01*
X-50539Y899500D01*
X-49634Y901684D01*
X-48321Y903650D01*
X-46650Y905321D01*
X-44684Y906634D01*
X-42500Y907539D01*
X-40182Y908000D01*
X75247D01*
X75247Y857250D01*
Y854815D01*
X74611Y849987D01*
X73351Y845284D01*
X71487Y840785D01*
X69053Y836568D01*
X66088Y832705D01*
X62645Y829262D01*
X58782Y826297D01*
X54565Y823863D01*
X50066Y821999D01*
X45363Y820739D01*
X40535Y820103D01*
X38100D01*
Y820103D01*
X-8750D01*
Y820100D01*
X-10446Y820017D01*
X-13772Y819355D01*
X-16905Y818057D01*
X-19725Y816173D01*
X-22123Y813775D01*
X-24007Y810955D01*
X-25305Y807822D01*
X-25967Y804496D01*
X-26050Y802800D01*
Y771889D01*
X-26006Y770562D01*
X-25655Y767932D01*
X-24958Y765371D01*
X-23929Y762925D01*
X-22584Y760636D01*
X-20949Y758546D01*
X-19051Y756691D01*
X-16925Y755104D01*
X-15787Y754419D01*
X-15787Y754419D01*
X-13638Y753221D01*
X-9695Y750278D01*
X-6176Y746838D01*
X-3144Y742963D01*
X-652Y738721D01*
X1257Y734185D01*
X2549Y729437D01*
X3200Y724560D01*
X3200Y722100D01*
X3200D01*
X3200Y722100D01*
X3200Y542900D01*
Y318100D01*
X3200Y138900D01*
X3200Y136440D01*
X2549Y131562D01*
X1257Y126815D01*
X-652Y122279D01*
X-3144Y118037D01*
X-6176Y114162D01*
X-9695Y110722D01*
X-13638Y107779D01*
X-15787Y106581D01*
X-16925Y105896D01*
X-19051Y104309D01*
X-20949Y102454D01*
X-22584Y100364D01*
X-23928Y98075D01*
X-24958Y95629D01*
X-25655Y93068D01*
X-26006Y90438D01*
X-26050Y89111D01*
X-26050D01*
Y89111D01*
X-26050D01*
X-26050Y54450D01*
X-25952Y52465D01*
X-25178Y48572D01*
X-23659Y44904D01*
X-21453Y41603D01*
X-18647Y38797D01*
X-15346Y36591D01*
X-11678Y35072D01*
X-7785Y34297D01*
X-5800Y34200D01*
Y34200D01*
X100000Y34200D01*
X101970Y34200D01*
X105834Y33431D01*
X109473Y31924D01*
X112749Y29735D01*
X115535Y26949D01*
X117724Y23674D01*
X119231Y20034D01*
X120000Y16170D01*
Y14200D01*
X120000D01*
X120000Y14200D01*
X120000Y14198D01*
X120052Y13141D01*
X120074Y13029D01*
X120465Y11065D01*
X121275Y9109D01*
X122451Y7348D01*
X123948Y5852D01*
X125709Y4675D01*
X127665Y3865D01*
X129741Y3452D01*
X130800Y3400D01*
X669300D01*
X670359Y3452D01*
X672435Y3865D01*
X674391Y4675D01*
X676151Y5852D01*
X677648Y7348D01*
X678825Y9109D01*
X679635Y11065D01*
X680048Y13141D01*
X680100Y14200D01*
X680100Y16170D01*
X680869Y20034D01*
X682376Y23674D01*
X684565Y26949D01*
X687351Y29735D01*
X690626Y31924D01*
X694266Y33431D01*
X698130Y34200D01*
X700100D01*
Y34200D01*
X805900Y34200D01*
X807860Y34296D01*
X811706Y35061D01*
X815328Y36562D01*
X818588Y38740D01*
X821360Y41512D01*
X823538Y44772D01*
X825039Y48394D01*
X825804Y52240D01*
X825900Y54200D01*
X825900Y634331D01*
X825827Y636043D01*
X825243Y639417D01*
X824092Y642642D01*
X822408Y645623D01*
X820240Y648273D01*
X817652Y650515D01*
X814719Y652282D01*
X811528Y653523D01*
X809865Y653934D01*
X807791Y654354D01*
X803765Y655660D01*
X799914Y657418D01*
X796289Y659602D01*
X792937Y662186D01*
X789901Y665135D01*
X787221Y668411D01*
X784932Y671972D01*
X783064Y675770D01*
X781641Y679756D01*
X780683Y683879D01*
X780200Y688084D01*
Y690200D01*
Y814603D01*
X780094Y815676D01*
X779273Y817659D01*
X777756Y819176D01*
X775773Y819997D01*
X774700Y820103D01*
X772265Y820103D01*
X767438Y820739D01*
X762734Y821999D01*
X758235Y823863D01*
X754018Y826297D01*
X750155Y829262D01*
X746712Y832705D01*
X743747Y836568D01*
X741312Y840785D01*
X739449Y845284D01*
X738189Y849987D01*
X737553Y854815D01*
Y857250D01*
X737553D01*
Y908000D01*
X794000Y908000D01*
D02*
G37*
D88*
X42800Y652400D02*
D03*
Y594600D02*
D03*
D95*
X582448Y838866D02*
X589915Y846333D01*
X636783D01*
X647700Y857250D01*
X591489Y842533D02*
X660480D01*
X673100Y855153D01*
X586248Y837292D02*
X591489Y842533D01*
X530624Y480250D02*
X582448Y532074D01*
Y838866D01*
X586248Y530500D02*
Y837292D01*
X532198Y476450D02*
X586248Y530500D01*
X673100Y855153D02*
Y857250D01*
X413000Y476450D02*
X532198D01*
X404550Y468000D02*
X413000Y476450D01*
X273000Y383000D02*
X367398D01*
X250000Y406000D02*
X273000Y383000D01*
X367398D02*
X375933Y391535D01*
X399008D01*
X709290Y245336D02*
X748620Y206006D01*
X709290Y245336D02*
Y846460D01*
X713090Y246910D02*
X755000Y205000D01*
X713090Y246910D02*
Y846440D01*
X698500Y857250D02*
X709290Y846460D01*
X748620Y198880D02*
Y206006D01*
Y198880D02*
X755000Y192500D01*
X747000Y402000D02*
X785522Y363478D01*
X787522D01*
X788000Y363000D01*
X713090Y846440D02*
X723900Y857250D01*
X475000Y345774D02*
X477050Y347824D01*
Y380680D01*
X476000Y381730D02*
X477050Y380680D01*
X476000Y381730D02*
Y405871D01*
X493000Y355004D02*
X493033Y355037D01*
X493000Y344000D02*
Y355004D01*
X493033Y355037D02*
Y407033D01*
X494000Y408000D01*
X421000Y353000D02*
X466200Y307800D01*
X560548D01*
X404677Y479000D02*
X405927Y480250D01*
X404000Y479000D02*
X404677D01*
X405927Y480250D02*
X530624D01*
X643400Y385278D02*
Y721026D01*
X632000Y790750D02*
X647700Y806450D01*
X632000Y390000D02*
Y790750D01*
X557400Y315400D02*
X632000Y390000D01*
X291000Y443250D02*
X347034D01*
X383642Y406642D01*
X643400Y721026D02*
X688960Y766586D01*
X562122Y304000D02*
X643400Y385278D01*
X639600Y386852D02*
Y722600D01*
X685160Y768160D01*
X560548Y307800D02*
X639600Y386852D01*
X635800Y388426D02*
Y724174D01*
X663682Y752056D01*
X558974Y311600D02*
X635800Y388426D01*
X456054Y304000D02*
X562122D01*
X663682Y752056D02*
Y776977D01*
X688960Y769960D02*
X689000Y770000D01*
X688960Y766586D02*
Y769960D01*
X689000Y770000D02*
Y777058D01*
X685160Y768160D02*
Y809000D01*
X493000Y334500D02*
X512100Y315400D01*
X557400D01*
X497425Y311600D02*
X558974D01*
X475000Y334025D02*
X497425Y311600D01*
X674833Y819327D02*
X685160Y809000D01*
X660223Y819327D02*
X674833D01*
X647700Y831850D02*
X660223Y819327D01*
X688960Y777098D02*
Y810402D01*
X689000Y810442D01*
X673100Y831850D02*
X689000Y815950D01*
X688960Y777098D02*
X689000Y777058D01*
Y810442D02*
Y815950D01*
X416348Y343706D02*
X456054Y304000D01*
X663560Y777098D02*
Y785002D01*
Y777098D02*
X663682Y776977D01*
Y793682D02*
X669681Y799681D01*
X663682Y785123D02*
Y793682D01*
X663560Y785002D02*
X663682Y785123D01*
X669681Y799681D02*
Y799924D01*
X673100Y803344D01*
Y806450D01*
X475000Y334025D02*
Y334500D01*
X125994Y693006D02*
X386000Y433000D01*
X114300Y831850D02*
X125994Y820156D01*
Y693006D02*
Y820156D01*
X129794Y821944D02*
X139700Y831850D01*
X129794Y694580D02*
X387574Y436800D01*
X129794Y694580D02*
Y821944D01*
X387574Y436800D02*
X474700D01*
X386000Y433000D02*
X460500D01*
X474700Y436800D02*
X494000Y417500D01*
X460500Y433000D02*
X476000Y417500D01*
X291000Y409000D02*
X291125Y408875D01*
X374267D02*
X374392Y408750D01*
X291125Y408875D02*
X374267D01*
D97*
X6000Y580300D02*
D03*
Y666700D02*
D03*
D98*
X47800Y580300D02*
D03*
Y666700D02*
D03*
D99*
X0Y0D02*
D03*
X38100Y857250D02*
D03*
X800100Y0D02*
D03*
X774700Y857250D02*
D03*
X412000Y195750D02*
D03*
D100*
X342900Y831850D02*
D03*
Y857250D02*
D03*
Y781050D02*
D03*
Y806450D02*
D03*
X368300Y857250D02*
D03*
Y781050D02*
D03*
Y831850D02*
D03*
Y806450D02*
D03*
X190500Y857250D02*
D03*
X673100D02*
D03*
X165100D02*
D03*
X647700Y831850D02*
D03*
X673100D02*
D03*
X647700Y857250D02*
D03*
X165100Y806450D02*
D03*
Y781050D02*
D03*
X88900D02*
D03*
Y806450D02*
D03*
X114300Y781050D02*
D03*
X190500Y806450D02*
D03*
X241300Y781050D02*
D03*
X215900D02*
D03*
Y806450D02*
D03*
X241300D02*
D03*
X266700Y781050D02*
D03*
X317500D02*
D03*
X292100D02*
D03*
X266700Y806450D02*
D03*
X292100D02*
D03*
X190500Y781050D02*
D03*
X139700Y806450D02*
D03*
Y781050D02*
D03*
X114300Y806450D02*
D03*
X393700D02*
D03*
Y781050D02*
D03*
X317500Y806450D02*
D03*
X419100Y781050D02*
D03*
Y806450D02*
D03*
X444500Y781050D02*
D03*
X596900Y806450D02*
D03*
Y781050D02*
D03*
X546100D02*
D03*
Y806450D02*
D03*
X571500Y781050D02*
D03*
X622300D02*
D03*
Y806450D02*
D03*
X520700Y781050D02*
D03*
X571500Y806450D02*
D03*
X495300D02*
D03*
X647700Y781050D02*
D03*
X520700Y806450D02*
D03*
X673100D02*
D03*
X698500Y781050D02*
D03*
Y806450D02*
D03*
X723900Y781050D02*
D03*
X647700Y806450D02*
D03*
X673100Y781050D02*
D03*
X495300D02*
D03*
X469900Y806450D02*
D03*
Y781050D02*
D03*
X444500Y806450D02*
D03*
X88900Y831850D02*
D03*
Y857250D02*
D03*
X114300Y831850D02*
D03*
X241300D02*
D03*
X215900D02*
D03*
Y857250D02*
D03*
X241300D02*
D03*
X266700Y831850D02*
D03*
X317500D02*
D03*
X292100D02*
D03*
X266700Y857250D02*
D03*
X292100D02*
D03*
X190500Y831850D02*
D03*
X139700Y857250D02*
D03*
X165100Y831850D02*
D03*
X139700D02*
D03*
X114300Y857250D02*
D03*
X393700D02*
D03*
Y831850D02*
D03*
X317500Y857250D02*
D03*
X419100Y831850D02*
D03*
Y857250D02*
D03*
X444500Y831850D02*
D03*
X596900Y857250D02*
D03*
Y831850D02*
D03*
X546100D02*
D03*
Y857250D02*
D03*
X571500Y831850D02*
D03*
X622300D02*
D03*
Y857250D02*
D03*
X520700Y831850D02*
D03*
X571500Y857250D02*
D03*
X495300D02*
D03*
X520700D02*
D03*
X698500Y831850D02*
D03*
Y857250D02*
D03*
X723900Y831850D02*
D03*
X495300D02*
D03*
X469900Y857250D02*
D03*
Y831850D02*
D03*
X444500Y857250D02*
D03*
D101*
X352000Y397750D02*
D03*
D102*
X552000D02*
D03*
D103*
X723900Y806450D02*
D03*
Y857250D02*
D03*
D104*
X747000Y402000D02*
D03*
X755000Y192500D02*
D03*
Y205000D02*
D03*
X755500Y242000D02*
D03*
X477050Y355862D02*
D03*
X493033Y355037D02*
D03*
X796000Y352000D02*
D03*
X788000Y363000D02*
D03*
X672000Y344000D02*
D03*
X673000Y424000D02*
D03*
X807000Y299000D02*
D03*
Y455000D02*
D03*
X0Y-23000D02*
D03*
X-16260Y-16264D02*
D03*
X16260D02*
D03*
X-23000Y0D02*
D03*
X-16260Y16264D02*
D03*
X16260D02*
D03*
X0Y23000D02*
D03*
X23000Y0D02*
D03*
X38100Y834250D02*
D03*
X15100Y857250D02*
D03*
X21840Y873513D02*
D03*
Y840986D02*
D03*
X38100Y880250D02*
D03*
X54360Y840986D02*
D03*
Y873513D02*
D03*
X61100Y857250D02*
D03*
X777100Y0D02*
D03*
X783840Y16264D02*
D03*
Y-16264D02*
D03*
X800100Y23000D02*
D03*
Y-23000D02*
D03*
X816360Y16264D02*
D03*
Y-16264D02*
D03*
X823100Y0D02*
D03*
X774700Y834250D02*
D03*
X758440Y840986D02*
D03*
X790960D02*
D03*
X751700Y857250D02*
D03*
X758440Y873513D02*
D03*
X797700Y857250D02*
D03*
X774700Y880250D02*
D03*
X790960Y873513D02*
D03*
X164000Y15000D02*
D03*
X207000Y30000D02*
D03*
X216000Y396000D02*
D03*
X232000Y407000D02*
D03*
X274000Y15000D02*
D03*
X370997Y26750D02*
D03*
X317000Y30000D02*
D03*
X196250Y441000D02*
D03*
X241000Y443000D02*
D03*
X361500Y437500D02*
D03*
X110000Y580000D02*
D03*
X309000Y554500D02*
D03*
X124000Y636000D02*
D03*
X337000Y506000D02*
D03*
X371172Y555139D02*
D03*
X374520Y464068D02*
D03*
X347673Y595952D02*
D03*
X346372Y679000D02*
D03*
X420000Y630000D02*
D03*
Y600000D02*
D03*
Y615000D02*
D03*
X347000Y724500D02*
D03*
X446886Y361077D02*
D03*
X518500Y334000D02*
D03*
X530500Y355000D02*
D03*
X439500Y465500D02*
D03*
X454426Y465861D02*
D03*
X460000Y525000D02*
D03*
X469550Y466000D02*
D03*
X505000Y525000D02*
D03*
X544526Y462752D02*
D03*
X475000Y525000D02*
D03*
Y540000D02*
D03*
X490000Y525000D02*
D03*
Y540000D02*
D03*
X678745Y531000D02*
D03*
X599000Y537000D02*
D03*
X460000Y540000D02*
D03*
X505000Y555000D02*
D03*
X490000D02*
D03*
X450000Y640000D02*
D03*
X475000Y555000D02*
D03*
X465000Y640000D02*
D03*
X525000Y625000D02*
D03*
X540000Y640000D02*
D03*
X623000Y618000D02*
D03*
X540000Y625000D02*
D03*
X495000Y640000D02*
D03*
X480000D02*
D03*
X525000D02*
D03*
X510000D02*
D03*
X435000D02*
D03*
X525000Y655000D02*
D03*
X528132Y686132D02*
D03*
X540000Y655000D02*
D03*
X608000Y711000D02*
D03*
X616000Y703000D02*
D03*
Y711000D02*
D03*
X663000Y620000D02*
D03*
X651000D02*
D03*
Y632000D02*
D03*
X663000D02*
D03*
Y644000D02*
D03*
X685000Y549000D02*
D03*
X675000Y632000D02*
D03*
Y644000D02*
D03*
X680495Y578000D02*
D03*
X687000Y644000D02*
D03*
Y656000D02*
D03*
Y668000D02*
D03*
X624000Y711000D02*
D03*
X687000Y680000D02*
D03*
Y692000D02*
D03*
X78000Y592000D02*
D03*
Y585000D02*
D03*
X79000Y662000D02*
D03*
Y655000D02*
D03*
X64000Y141000D02*
D03*
X116000D02*
D03*
X90000Y123000D02*
D03*
X792000Y374000D02*
D03*
X372000Y331255D02*
D03*
X388000D02*
D03*
X541500Y334000D02*
D03*
X541500Y355000D02*
D03*
X354965Y505568D02*
D03*
X404000Y331255D02*
D03*
X358500Y362000D02*
D03*
X206000Y424000D02*
D03*
X661000Y365500D02*
D03*
X189000Y26000D02*
D03*
X299000D02*
D03*
X391000Y26750D02*
D03*
X453000Y65250D02*
D03*
X505000D02*
D03*
X545000Y560000D02*
D03*
Y552500D02*
D03*
X537500D02*
D03*
Y560000D02*
D03*
Y545000D02*
D03*
Y537500D02*
D03*
Y530000D02*
D03*
Y522500D02*
D03*
X530000D02*
D03*
Y530000D02*
D03*
X545000Y522500D02*
D03*
X521000Y668000D02*
D03*
X430000Y567500D02*
D03*
Y560000D02*
D03*
Y552500D02*
D03*
Y545000D02*
D03*
Y537500D02*
D03*
X422500D02*
D03*
X415000Y545000D02*
D03*
X422500D02*
D03*
X415000Y552500D02*
D03*
X422500D02*
D03*
X415000Y560000D02*
D03*
X422500D02*
D03*
Y567500D02*
D03*
X415000D02*
D03*
X81250Y599500D02*
D03*
X88500D02*
D03*
X95750D02*
D03*
X88500Y592250D02*
D03*
X95750D02*
D03*
X88500Y585000D02*
D03*
X95750D02*
D03*
Y662000D02*
D03*
X88500D02*
D03*
X95750Y654750D02*
D03*
X88500D02*
D03*
X95750Y647500D02*
D03*
X88500D02*
D03*
X81250D02*
D03*
X379570Y478430D02*
D03*
X291000Y443250D02*
D03*
X421000Y353000D02*
D03*
X416348Y343706D02*
D03*
X404550Y468000D02*
D03*
X404000Y479000D02*
D03*
X383642Y406642D02*
D03*
X291000Y409000D02*
D03*
X374392Y408750D02*
D03*
X399008Y391535D02*
D03*
X250000Y406000D02*
D03*
D105*
X494000Y408000D02*
D03*
X476000Y408000D02*
D03*
D106*
X494000Y417500D02*
D03*
X476000Y417500D02*
D03*
D107*
X493000Y334500D02*
D03*
X475000D02*
D03*
D108*
X493000Y344000D02*
D03*
X475000D02*
D03*
M02*
