G04*
G04 #@! TF.GenerationSoftware,Altium Limited,Altium Designer,26.2.0 (7)*
G04*
G04 Layer_Color=16776960*
%FSLAX44Y44*%
%MOMM*%
G71*
G04*
G04 #@! TF.SameCoordinates,19844F2F-9C7A-401E-B90C-CCBAC662FF6E*
G04*
G04*
G04 #@! TF.FilePolarity,Positive*
G04*
G01*
G75*
%ADD12C,0.1000*%
D12*
X230000Y896000D02*
G03*
X218000Y908000I-12000J0D01*
G01*
X230000Y891000D02*
G03*
X242000Y879000I12000J0D01*
G01*
X558000D02*
G03*
X570000Y891000I0J12000D01*
G01*
X582000Y908000D02*
G03*
X570000Y896000I0J-12000D01*
G01*
X805000Y897000D02*
G03*
X794000Y908000I-11000J0D01*
G01*
X805000Y691000D02*
G03*
X818000Y678000I13000J0D01*
G01*
X851000Y666000D02*
G03*
X839000Y678000I-12000J0D01*
G01*
X838000Y-51000D02*
G03*
X851000Y-38000I0J13000D01*
G01*
X-39000Y908000D02*
G03*
X-51000Y896000I0J-12000D01*
G01*
Y746000D02*
G03*
X-39000Y734000I12000J0D01*
G01*
X-22000Y722000D02*
G03*
X-34000Y734000I-12000J0D01*
G01*
X-51000Y-38000D02*
G03*
X-38000Y-51000I13000J0D01*
G01*
X-34000Y127000D02*
G03*
X-22000Y139000I0J12000D01*
G01*
X-39000Y127000D02*
G03*
X-51000Y115000I0J-12000D01*
G01*
X108000Y-51000D02*
G03*
X120000Y-39000I0J12000D01*
G01*
X132000Y-22000D02*
G03*
X120000Y-34000I0J-12000D01*
G01*
X676750Y-34000D02*
G03*
X664750Y-22000I-12000J0D01*
G01*
X676750Y-39000D02*
G03*
X688750Y-51000I12000J0D01*
G01*
X230000Y891000D02*
Y896000D01*
X570000Y891000D02*
Y896000D01*
X242000Y879000D02*
X558000Y879000D01*
X582000Y908000D02*
X794000Y908000D01*
X805000Y691000D02*
Y897000D01*
X818000Y678000D02*
X839000D01*
X851000Y-38000D02*
Y666000D01*
X-39000Y908000D02*
X218000D01*
X-51000Y746000D02*
Y896000D01*
X-22000Y139000D02*
X-22000Y722000D01*
X-39000Y734000D02*
X-34000D01*
X-51000Y-38000D02*
Y115000D01*
X-39000Y127000D02*
X-34000D01*
X120000Y-39000D02*
Y-34000D01*
X-38000Y-51000D02*
X108000D01*
X676750Y-39000D02*
Y-34000D01*
X688750Y-51000D02*
X838000D01*
X132000Y-22000D02*
X664750Y-22000D01*
M02*
