G04*
G04 #@! TF.GenerationSoftware,Altium Limited,Altium Designer,26.2.0 (7)*
G04*
G04 Layer_Color=16711935*
%FSLAX44Y44*%
%MOMM*%
G71*
G04*
G04 #@! TF.SameCoordinates,19844F2F-9C7A-401E-B90C-CCBAC662FF6E*
G04*
G04*
G04 #@! TF.FilePolarity,Negative*
G04*
G01*
G75*
%ADD80C,0.7500*%
G04:AMPARAMS|DCode=81|XSize=1.9mm|YSize=1.1mm|CornerRadius=0.3mm|HoleSize=0mm|Usage=FLASHONLY|Rotation=0.000|XOffset=0mm|YOffset=0mm|HoleType=Round|Shape=RoundedRectangle|*
%AMROUNDEDRECTD81*
21,1,1.9000,0.5000,0,0,0.0*
21,1,1.3000,1.1000,0,0,0.0*
1,1,0.6000,0.6500,-0.2500*
1,1,0.6000,-0.6500,-0.2500*
1,1,0.6000,-0.6500,0.2500*
1,1,0.6000,0.6500,0.2500*
%
%ADD81ROUNDEDRECTD81*%
%ADD82O,2.2000X1.1000*%
%ADD83C,6.1500*%
%ADD84C,1.4980*%
%ADD85C,1.2000*%
%ADD86C,1.7000*%
%ADD87R,1.4980X1.4980*%
%ADD88C,0.6500*%
%ADD109R,1.3500X2.4000*%
G36*
X75247Y857250D02*
Y854815D01*
X74611Y849987D01*
X73351Y845284D01*
X71487Y840785D01*
X69053Y836568D01*
X66088Y832705D01*
X62645Y829262D01*
X58782Y826297D01*
X54565Y823863D01*
X50066Y821999D01*
X45363Y820739D01*
X40535Y820103D01*
X38100D01*
Y820103D01*
X-8750D01*
Y820100D01*
X-10446Y820017D01*
X-13772Y819355D01*
X-16905Y818057D01*
X-19725Y816173D01*
X-22123Y813775D01*
X-24007Y810955D01*
X-25305Y807822D01*
X-25967Y804496D01*
X-26050Y802800D01*
Y771889D01*
X-26006Y770562D01*
X-25655Y767932D01*
X-24958Y765371D01*
X-23929Y762925D01*
X-22584Y760636D01*
X-20949Y758546D01*
X-19051Y756691D01*
X-16925Y755104D01*
X-15787Y754419D01*
X-15787Y754419D01*
X-13638Y753221D01*
X-9695Y750278D01*
X-6176Y746838D01*
X-3144Y742963D01*
X-652Y738721D01*
X1257Y734185D01*
X2549Y729437D01*
X3200Y724560D01*
X3200Y722100D01*
X3200D01*
X3200Y722100D01*
Y675808D01*
X-22000D01*
X-22000Y722000D01*
X-22058Y723176D01*
X-22517Y725483D01*
X-23417Y727657D01*
X-24724Y729613D01*
X-26387Y731276D01*
X-28343Y732583D01*
X-30517Y733483D01*
X-32824Y733942D01*
X-34000Y734000D01*
Y734000D01*
X-40182D01*
X-42500Y734461D01*
X-44684Y735366D01*
X-46650Y736679D01*
X-48321Y738351D01*
X-49634Y740316D01*
X-50539Y742500D01*
X-51000Y744818D01*
Y746000D01*
Y896000D01*
Y897182D01*
X-50539Y899500D01*
X-49634Y901684D01*
X-48321Y903650D01*
X-46650Y905321D01*
X-44684Y906634D01*
X-42500Y907539D01*
X-40182Y908000D01*
X75247D01*
X75247Y857250D01*
D02*
G37*
G36*
X794010Y908504D02*
X795143Y908503D01*
X797364Y908059D01*
X799455Y907191D01*
X801338Y905932D01*
X802938Y904330D01*
X804196Y902446D01*
X805062Y900354D01*
X805495Y898176D01*
X805504Y897004D01*
Y897000D01*
X805504D01*
X805504Y897000D01*
Y691000D01*
X805564Y689775D01*
X806042Y687373D01*
X806979Y685109D01*
X808340Y683073D01*
X810072Y681340D01*
X812109Y679979D01*
X814372Y679042D01*
X816775Y678564D01*
X818000Y678504D01*
X840231Y678504D01*
X842647Y678023D01*
X844923Y677081D01*
X846971Y675712D01*
X848712Y673971D01*
X850081Y671923D01*
X851023Y669647D01*
X851504Y667232D01*
Y666000D01*
X851504D01*
Y-38000D01*
Y-39330D01*
X850985Y-41939D01*
X849967Y-44397D01*
X848489Y-46608D01*
X846608Y-48489D01*
X844396Y-49967D01*
X841939Y-50985D01*
X839330Y-51504D01*
X838000D01*
X688750Y-51504D01*
X687518D01*
X685103Y-51023D01*
X682827Y-50081D01*
X680779Y-48712D01*
X679038Y-46971D01*
X677669Y-44923D01*
X676727Y-42647D01*
X676246Y-40231D01*
Y-39000D01*
X676246D01*
X676246Y-34000D01*
X676191Y-32873D01*
X675751Y-30663D01*
X674889Y-28581D01*
X673637Y-26707D01*
X672043Y-25113D01*
X670169Y-23861D01*
X668087Y-22999D01*
X665877Y-22559D01*
X664750Y-22504D01*
Y-22504D01*
X132000D01*
X130873Y-22559D01*
X128663Y-22999D01*
X126581Y-23861D01*
X124707Y-25113D01*
X123113Y-26707D01*
X121861Y-28581D01*
X120999Y-30663D01*
X120559Y-32873D01*
X120504Y-34000D01*
X120504Y-40231D01*
X120023Y-42647D01*
X119081Y-44923D01*
X117712Y-46971D01*
X115971Y-48712D01*
X113923Y-50081D01*
X111647Y-51023D01*
X109232Y-51504D01*
X108000D01*
Y-51504D01*
X-39330D01*
X-41939Y-50985D01*
X-44397Y-49967D01*
X-46608Y-48489D01*
X-48489Y-46608D01*
X-49967Y-44397D01*
X-50985Y-41939D01*
X-51504Y-39330D01*
Y-38000D01*
X-51504Y115000D01*
Y116231D01*
X-51023Y118647D01*
X-50081Y120923D01*
X-48712Y122971D01*
X-46971Y124712D01*
X-44923Y126081D01*
X-42647Y127023D01*
X-40231Y127504D01*
X-39000D01*
Y127504D01*
X-34000D01*
X-32873Y127559D01*
X-30663Y127999D01*
X-28581Y128861D01*
X-26707Y130113D01*
X-25113Y131707D01*
X-23861Y133581D01*
X-22999Y135663D01*
X-22568Y137827D01*
X-22559Y137873D01*
X-22504Y139000D01*
X-22504Y139000D01*
X-22504Y140173D01*
Y570634D01*
X-21442Y571695D01*
X3200D01*
X3704Y571192D01*
Y532356D01*
X3704Y524900D01*
X3704D01*
X3704Y524900D01*
Y318100D01*
X3704Y138900D01*
X3704Y136406D01*
X3043Y131463D01*
X1734Y126650D01*
X-200Y122053D01*
X-2727Y117753D01*
X-5800Y113825D01*
X-9367Y110338D01*
X-13363Y107355D01*
X-15542Y106141D01*
X-15542Y106141D01*
X-15542Y106141D01*
X-15546Y106138D01*
X-16654Y105471D01*
X-18727Y103923D01*
X-20576Y102115D01*
X-22169Y100078D01*
X-23479Y97848D01*
X-24482Y95464D01*
X-25161Y92968D01*
X-25503Y90404D01*
X-25546Y89111D01*
X-25546Y89111D01*
X-25546Y89111D01*
Y54450D01*
X-25451Y52515D01*
X-24696Y48718D01*
X-23215Y45142D01*
X-21064Y41923D01*
X-18327Y39186D01*
X-15108Y37035D01*
X-11532Y35554D01*
X-7735Y34799D01*
X-5800Y34704D01*
X100000Y34704D01*
X102019Y34704D01*
X105981Y33916D01*
X109712Y32370D01*
X113070Y30126D01*
X115926Y27270D01*
X118170Y23912D01*
X119716Y20181D01*
X120504Y16219D01*
Y14200D01*
X120504D01*
X120504Y14200D01*
X120504Y14198D01*
X120553Y13191D01*
X120588Y13018D01*
X120947Y11211D01*
X121720Y9346D01*
X122841Y7668D01*
X124268Y6241D01*
X125946Y5120D01*
X127811Y4347D01*
X129791Y3953D01*
X130800Y3904D01*
Y3904D01*
X669300Y3904D01*
X670309Y3953D01*
X672289Y4347D01*
X674154Y5120D01*
X675832Y6241D01*
X677259Y7668D01*
X678380Y9346D01*
X679153Y11211D01*
X679547Y13191D01*
X679596Y14200D01*
X679596D01*
Y16219D01*
X680384Y20181D01*
X681930Y23912D01*
X684174Y27270D01*
X687030Y30126D01*
X690388Y32370D01*
X694119Y33916D01*
X698081Y34704D01*
X700100D01*
Y34704D01*
X805900Y34704D01*
X807811Y34798D01*
X811559Y35543D01*
X815090Y37006D01*
X818268Y39129D01*
X820971Y41832D01*
X823094Y45009D01*
X824557Y48541D01*
X825302Y52289D01*
X825396Y54200D01*
X825396Y54200D01*
X825396Y55373D01*
X825396Y634331D01*
X825325Y636000D01*
X824755Y639289D01*
X823633Y642432D01*
X821992Y645338D01*
X819879Y647922D01*
X817356Y650107D01*
X814497Y651830D01*
X811386Y653039D01*
X809765Y653440D01*
Y653440D01*
X807663Y653866D01*
X803582Y655190D01*
X799679Y656971D01*
X796004Y659186D01*
X792606Y661805D01*
X789529Y664794D01*
X786813Y668115D01*
X784493Y671724D01*
X782599Y675573D01*
X781157Y679614D01*
X780185Y683793D01*
X779696Y688055D01*
Y690200D01*
X779696Y814603D01*
X779600Y815578D01*
X778854Y817379D01*
X777476Y818757D01*
X775675Y819503D01*
X774700Y819599D01*
Y819599D01*
X772232D01*
X767339Y820244D01*
X762572Y821521D01*
X758012Y823410D01*
X753737Y825877D01*
X749822Y828882D01*
X746332Y832372D01*
X743327Y836288D01*
X740860Y840562D01*
X738971Y845122D01*
X737693Y849889D01*
X737049Y854782D01*
Y857250D01*
X737049D01*
Y908000D01*
X737553Y908504D01*
X794000D01*
X794010Y908504D01*
D02*
G37*
D80*
X42800Y652400D02*
D03*
Y594600D02*
D03*
D81*
X6000Y580300D02*
D03*
Y666700D02*
D03*
D82*
X47800Y580300D02*
D03*
Y666700D02*
D03*
D83*
X0Y0D02*
D03*
X38100Y857250D02*
D03*
X800100Y0D02*
D03*
X774700Y857250D02*
D03*
X412000Y195750D02*
D03*
D84*
X342900Y831850D02*
D03*
Y857250D02*
D03*
Y781050D02*
D03*
Y806450D02*
D03*
X368300Y857250D02*
D03*
Y781050D02*
D03*
Y831850D02*
D03*
Y806450D02*
D03*
X190500Y857250D02*
D03*
X673100D02*
D03*
X165100D02*
D03*
X647700Y831850D02*
D03*
X673100D02*
D03*
X647700Y857250D02*
D03*
X165100Y806450D02*
D03*
Y781050D02*
D03*
X88900D02*
D03*
Y806450D02*
D03*
X114300Y781050D02*
D03*
X190500Y806450D02*
D03*
X241300Y781050D02*
D03*
X215900D02*
D03*
Y806450D02*
D03*
X241300D02*
D03*
X266700Y781050D02*
D03*
X317500D02*
D03*
X292100D02*
D03*
X266700Y806450D02*
D03*
X292100D02*
D03*
X190500Y781050D02*
D03*
X139700Y806450D02*
D03*
Y781050D02*
D03*
X114300Y806450D02*
D03*
X393700D02*
D03*
Y781050D02*
D03*
X317500Y806450D02*
D03*
X419100Y781050D02*
D03*
Y806450D02*
D03*
X444500Y781050D02*
D03*
X596900Y806450D02*
D03*
Y781050D02*
D03*
X546100D02*
D03*
Y806450D02*
D03*
X571500Y781050D02*
D03*
X622300D02*
D03*
Y806450D02*
D03*
X520700Y781050D02*
D03*
X571500Y806450D02*
D03*
X495300D02*
D03*
X647700Y781050D02*
D03*
X520700Y806450D02*
D03*
X673100D02*
D03*
X698500Y781050D02*
D03*
Y806450D02*
D03*
X723900Y781050D02*
D03*
X647700Y806450D02*
D03*
X673100Y781050D02*
D03*
X495300D02*
D03*
X469900Y806450D02*
D03*
Y781050D02*
D03*
X444500Y806450D02*
D03*
X88900Y831850D02*
D03*
Y857250D02*
D03*
X114300Y831850D02*
D03*
X241300D02*
D03*
X215900D02*
D03*
Y857250D02*
D03*
X241300D02*
D03*
X266700Y831850D02*
D03*
X317500D02*
D03*
X292100D02*
D03*
X266700Y857250D02*
D03*
X292100D02*
D03*
X190500Y831850D02*
D03*
X139700Y857250D02*
D03*
X165100Y831850D02*
D03*
X139700D02*
D03*
X114300Y857250D02*
D03*
X393700D02*
D03*
Y831850D02*
D03*
X317500Y857250D02*
D03*
X419100Y831850D02*
D03*
Y857250D02*
D03*
X444500Y831850D02*
D03*
X596900Y857250D02*
D03*
Y831850D02*
D03*
X546100D02*
D03*
Y857250D02*
D03*
X571500Y831850D02*
D03*
X622300D02*
D03*
Y857250D02*
D03*
X520700Y831850D02*
D03*
X571500Y857250D02*
D03*
X495300D02*
D03*
X520700D02*
D03*
X698500Y831850D02*
D03*
Y857250D02*
D03*
X723900Y831850D02*
D03*
X495300D02*
D03*
X469900Y857250D02*
D03*
Y831850D02*
D03*
X444500Y857250D02*
D03*
D85*
X352000Y397750D02*
D03*
D86*
X552000D02*
D03*
D87*
X723900Y806450D02*
D03*
Y857250D02*
D03*
D88*
X0Y-23000D02*
D03*
X-16260Y-16264D02*
D03*
X16260D02*
D03*
X-23000Y0D02*
D03*
X-16260Y16264D02*
D03*
X16260D02*
D03*
X0Y23000D02*
D03*
X23000Y0D02*
D03*
X38100Y834250D02*
D03*
X15100Y857250D02*
D03*
X21840Y873513D02*
D03*
Y840986D02*
D03*
X38100Y880250D02*
D03*
X54360Y840986D02*
D03*
Y873513D02*
D03*
X61100Y857250D02*
D03*
X777100Y0D02*
D03*
X783840Y16264D02*
D03*
Y-16264D02*
D03*
X800100Y23000D02*
D03*
Y-23000D02*
D03*
X816360Y16264D02*
D03*
Y-16264D02*
D03*
X823100Y0D02*
D03*
X774700Y834250D02*
D03*
X758440Y840986D02*
D03*
X790960D02*
D03*
X751700Y857250D02*
D03*
X758440Y873513D02*
D03*
X797700Y857250D02*
D03*
X774700Y880250D02*
D03*
X790960Y873513D02*
D03*
D109*
X494000Y412751D02*
D03*
X476000Y412759D02*
D03*
X492997Y339252D02*
D03*
X475000Y339249D02*
D03*
M02*
