G04*
G04 #@! TF.GenerationSoftware,Altium Limited,Altium Designer,26.2.0 (7)*
G04*
G04 Layer_Color=65535*
%FSLAX44Y44*%
%MOMM*%
G71*
G04*
G04 #@! TF.SameCoordinates,19844F2F-9C7A-401E-B90C-CCBAC662FF6E*
G04*
G04*
G04 #@! TF.FilePolarity,Positive*
G04*
G01*
G75*
%ADD10C,0.2000*%
%ADD11C,0.2540*%
%ADD12C,0.1000*%
%ADD13C,0.1500*%
%ADD14C,0.1270*%
G36*
X624062Y199897D02*
X629180D01*
Y199431D01*
X632437D01*
Y198966D01*
X634764D01*
Y198501D01*
X636625D01*
Y198035D01*
X638486D01*
Y197570D01*
X640347D01*
Y197105D01*
X642208D01*
Y196640D01*
X643604D01*
Y196174D01*
X644535D01*
Y195709D01*
X645931D01*
Y195244D01*
X646861D01*
Y194778D01*
X648257D01*
Y194313D01*
X649653D01*
Y193848D01*
X650583D01*
Y193383D01*
X651049D01*
Y192917D01*
X651979D01*
Y192452D01*
X653375D01*
Y191987D01*
X654306D01*
Y191521D01*
X655236D01*
Y191056D01*
X656167D01*
Y190591D01*
X656632D01*
Y190126D01*
X657563D01*
Y189660D01*
X658028D01*
Y189195D01*
X658959D01*
Y188730D01*
X659889D01*
Y188264D01*
X660355D01*
Y187799D01*
X661285D01*
Y187334D01*
X661750D01*
Y186868D01*
X662681D01*
Y186403D01*
X663146D01*
Y185938D01*
X663612D01*
Y185473D01*
X664077D01*
Y185007D01*
X665007D01*
Y184542D01*
X665473D01*
Y184077D01*
X666403D01*
Y183612D01*
X666869D01*
Y182681D01*
X667799D01*
Y182216D01*
X668264D01*
Y181750D01*
X668730D01*
Y181285D01*
X669195D01*
Y180820D01*
X669660D01*
Y180354D01*
X670126D01*
Y179889D01*
X671056D01*
Y179424D01*
X671521D01*
Y178959D01*
X671987D01*
Y178028D01*
X672452D01*
Y177563D01*
X672917D01*
Y177097D01*
X673383D01*
Y176632D01*
X673848D01*
Y176167D01*
X674313D01*
Y175702D01*
X674778D01*
Y175236D01*
X675244D01*
Y174771D01*
X675709D01*
Y174306D01*
X676174D01*
Y173841D01*
X676640D01*
Y172910D01*
X677105D01*
Y172445D01*
X677570D01*
Y171979D01*
X678035D01*
Y171514D01*
X678501D01*
Y171049D01*
X678966D01*
Y170118D01*
X679431D01*
Y169653D01*
X679897D01*
Y168722D01*
X680362D01*
Y168257D01*
X680827D01*
Y167326D01*
X681292D01*
Y166861D01*
X681758D01*
Y165931D01*
X682223D01*
Y165465D01*
X682688D01*
Y164535D01*
X683154D01*
Y164069D01*
X683619D01*
Y162673D01*
X684084D01*
Y162208D01*
X684549D01*
Y161278D01*
X685015D01*
Y160347D01*
X685480D01*
Y159882D01*
X685945D01*
Y158951D01*
X686411D01*
Y157555D01*
X686876D01*
Y156625D01*
X687341D01*
Y155694D01*
X687806D01*
Y154764D01*
X688272D01*
Y153833D01*
X688737D01*
Y152437D01*
X689202D01*
Y151041D01*
X689668D01*
Y149646D01*
X690133D01*
Y148715D01*
X690598D01*
Y147319D01*
X691064D01*
Y145458D01*
X691529D01*
Y144062D01*
X691994D01*
Y142666D01*
X692459D01*
Y140805D01*
X692925D01*
Y137548D01*
X693390D01*
Y134756D01*
X693855D01*
Y130103D01*
X694321D01*
Y118006D01*
X693855D01*
Y112888D01*
X693390D01*
Y109631D01*
X692925D01*
Y107304D01*
X692459D01*
Y105443D01*
X691994D01*
Y104047D01*
X691529D01*
Y102186D01*
X691064D01*
Y100790D01*
X690598D01*
Y98929D01*
X690133D01*
Y97999D01*
X689668D01*
Y96603D01*
X689202D01*
Y95672D01*
X688737D01*
Y93811D01*
X688272D01*
Y92880D01*
X687806D01*
Y91950D01*
X687341D01*
Y91019D01*
X686876D01*
Y90554D01*
X686411D01*
Y89158D01*
X685945D01*
Y88228D01*
X685480D01*
Y87297D01*
X685015D01*
Y86366D01*
X684549D01*
Y85901D01*
X684084D01*
Y84970D01*
X683619D01*
Y84040D01*
X683154D01*
Y83575D01*
X682688D01*
Y82644D01*
X682223D01*
Y82179D01*
X681758D01*
Y81248D01*
X681292D01*
Y80783D01*
X680827D01*
Y79852D01*
X680362D01*
Y79387D01*
X679897D01*
Y78456D01*
X679431D01*
Y77991D01*
X678966D01*
Y77061D01*
X678501D01*
Y76595D01*
X678035D01*
Y76130D01*
X677570D01*
Y75665D01*
X677105D01*
Y75199D01*
X676640D01*
Y74269D01*
X676174D01*
Y73804D01*
X675709D01*
Y73338D01*
X675244D01*
Y72873D01*
X674778D01*
Y72408D01*
X674313D01*
Y71942D01*
X673848D01*
Y71012D01*
X673383D01*
Y70546D01*
X672452D01*
Y70081D01*
X671987D01*
Y69616D01*
X671521D01*
Y68685D01*
X671056D01*
Y68220D01*
X670126D01*
Y67755D01*
X669660D01*
Y67290D01*
X669195D01*
Y66824D01*
X668730D01*
Y66359D01*
X668264D01*
Y65894D01*
X667799D01*
Y65428D01*
X666869D01*
Y64963D01*
X666403D01*
Y64498D01*
X665938D01*
Y64033D01*
X665473D01*
Y63567D01*
X665007D01*
Y63102D01*
X664077D01*
Y62637D01*
X663612D01*
Y62171D01*
X663146D01*
Y61706D01*
X662681D01*
Y61241D01*
X661750D01*
Y60775D01*
X660820D01*
Y60310D01*
X660355D01*
Y59845D01*
X659424D01*
Y59380D01*
X658959D01*
Y58914D01*
X658028D01*
Y58449D01*
X657097D01*
Y57984D01*
X656632D01*
Y57519D01*
X655702D01*
Y57053D01*
X655236D01*
Y56588D01*
X654306D01*
Y56123D01*
X653375D01*
Y55657D01*
X651979D01*
Y55192D01*
X651049D01*
Y54727D01*
X650118D01*
Y54261D01*
X649188D01*
Y53796D01*
X648257D01*
Y53331D01*
X647326D01*
Y52866D01*
X645931D01*
Y52400D01*
X644535D01*
Y51935D01*
X643604D01*
Y51470D01*
X642208D01*
Y51004D01*
X640812D01*
Y50539D01*
X639417D01*
Y50074D01*
X637090D01*
Y49609D01*
X634764D01*
Y49143D01*
X633368D01*
Y48678D01*
X630576D01*
Y48213D01*
X627319D01*
Y47747D01*
X612430D01*
Y48213D01*
X608708D01*
Y48678D01*
X605916D01*
Y49143D01*
X604520D01*
Y49609D01*
X602193D01*
Y50074D01*
X600332D01*
Y50539D01*
X598471D01*
Y51004D01*
X597075D01*
Y51470D01*
X596145D01*
Y51935D01*
X594749D01*
Y52400D01*
X593818D01*
Y52866D01*
X592422D01*
Y53331D01*
X591027D01*
Y53796D01*
X590096D01*
Y54261D01*
X589165D01*
Y54727D01*
X588235D01*
Y55192D01*
X587304D01*
Y55657D01*
X585908D01*
Y56123D01*
X584978D01*
Y56588D01*
X584047D01*
Y57053D01*
X583582D01*
Y57519D01*
X582651D01*
Y57984D01*
X581721D01*
Y58449D01*
X581255D01*
Y58914D01*
X580325D01*
Y59380D01*
X579860D01*
Y59845D01*
X578929D01*
Y60310D01*
X577999D01*
Y60775D01*
X577533D01*
Y61241D01*
X577068D01*
Y61706D01*
X576137D01*
Y62171D01*
X575672D01*
Y62637D01*
X575207D01*
Y63102D01*
X574276D01*
Y63567D01*
X573811D01*
Y64033D01*
X573346D01*
Y64498D01*
X572880D01*
Y64963D01*
X572415D01*
Y65428D01*
X571950D01*
Y65894D01*
X571019D01*
Y66359D01*
X570554D01*
Y66824D01*
X570089D01*
Y67290D01*
X569623D01*
Y67755D01*
X569158D01*
Y68220D01*
X568228D01*
Y68685D01*
X567762D01*
Y69616D01*
X567297D01*
Y70081D01*
X566832D01*
Y70546D01*
X566366D01*
Y71012D01*
X565901D01*
Y71477D01*
X565436D01*
Y71942D01*
X564970D01*
Y72408D01*
X564505D01*
Y72873D01*
X564040D01*
Y73338D01*
X563575D01*
Y73804D01*
X563109D01*
Y74269D01*
X562644D01*
Y75199D01*
X562179D01*
Y75665D01*
X561713D01*
Y76130D01*
X561248D01*
Y76595D01*
X560783D01*
Y77526D01*
X560318D01*
Y77991D01*
X559852D01*
Y78922D01*
X559387D01*
Y79387D01*
X558922D01*
Y79852D01*
X558456D01*
Y80783D01*
X557991D01*
Y81248D01*
X557526D01*
Y82179D01*
X557061D01*
Y83109D01*
X556595D01*
Y83575D01*
X556130D01*
Y84040D01*
X555665D01*
Y84970D01*
X555199D01*
Y85901D01*
X554734D01*
Y86832D01*
X554269D01*
Y87297D01*
X553803D01*
Y88228D01*
X553338D01*
Y89158D01*
X552873D01*
Y90554D01*
X552408D01*
Y91484D01*
X551942D01*
Y92415D01*
X551477D01*
Y93346D01*
X551012D01*
Y94276D01*
X550546D01*
Y95672D01*
X550081D01*
Y97068D01*
X549616D01*
Y98464D01*
X549151D01*
Y99394D01*
X548685D01*
Y100790D01*
X548220D01*
Y102186D01*
X547755D01*
Y104047D01*
X547290D01*
Y106374D01*
X546824D01*
Y107770D01*
X546359D01*
Y110096D01*
X545894D01*
Y113353D01*
X545428D01*
Y118471D01*
X544963D01*
Y129173D01*
X545428D01*
Y134291D01*
X545894D01*
Y137548D01*
X546359D01*
Y139874D01*
X546824D01*
Y141736D01*
X547290D01*
Y144062D01*
X547755D01*
Y145458D01*
X548220D01*
Y146854D01*
X548685D01*
Y148715D01*
X549151D01*
Y150576D01*
X548685D01*
Y153368D01*
X548220D01*
Y153833D01*
X547290D01*
Y158021D01*
X547755D01*
Y158486D01*
X548685D01*
Y158951D01*
X551477D01*
Y159417D01*
X552873D01*
Y163604D01*
X554734D01*
Y164069D01*
X556130D01*
Y164535D01*
X556595D01*
Y165000D01*
X557061D01*
Y165931D01*
X557526D01*
Y166861D01*
X557991D01*
Y167326D01*
X558456D01*
Y168257D01*
X558922D01*
Y168722D01*
X559387D01*
Y169188D01*
X559852D01*
Y170118D01*
X560318D01*
Y170583D01*
X560783D01*
Y171514D01*
X561248D01*
Y171979D01*
X561713D01*
Y172445D01*
X562179D01*
Y172910D01*
X562644D01*
Y173841D01*
X563109D01*
Y174306D01*
X563575D01*
Y174771D01*
X564040D01*
Y175236D01*
X564505D01*
Y175702D01*
X564970D01*
Y176167D01*
X565436D01*
Y176632D01*
X565901D01*
Y177097D01*
X566366D01*
Y177563D01*
X566832D01*
Y178028D01*
X567297D01*
Y178959D01*
X567762D01*
Y179424D01*
X568228D01*
Y179889D01*
X569158D01*
Y180354D01*
X569623D01*
Y180820D01*
X570089D01*
Y181285D01*
X570554D01*
Y181750D01*
X571019D01*
Y182216D01*
X571950D01*
Y182681D01*
X572415D01*
Y183146D01*
X572880D01*
Y183612D01*
X573346D01*
Y184077D01*
X573811D01*
Y184542D01*
X574276D01*
Y185007D01*
X575207D01*
Y185473D01*
X575672D01*
Y185938D01*
X576137D01*
Y186403D01*
X577068D01*
Y186868D01*
X577533D01*
Y187334D01*
X578464D01*
Y187799D01*
X578929D01*
Y188264D01*
X579394D01*
Y188730D01*
X580325D01*
Y189195D01*
X581255D01*
Y189660D01*
X581721D01*
Y190126D01*
X582651D01*
Y190591D01*
X583117D01*
Y191056D01*
X584047D01*
Y191521D01*
X584978D01*
Y191987D01*
X586374D01*
Y192452D01*
X587304D01*
Y192917D01*
X588235D01*
Y193383D01*
X589165D01*
Y193848D01*
X590096D01*
Y194313D01*
X591027D01*
Y194778D01*
X592422D01*
Y195244D01*
X593818D01*
Y195709D01*
X594749D01*
Y196174D01*
X595680D01*
Y196640D01*
X597075D01*
Y197105D01*
X598937D01*
Y197570D01*
X600798D01*
Y198035D01*
X603124D01*
Y198501D01*
X604520D01*
Y198966D01*
X607312D01*
Y199431D01*
X610103D01*
Y199897D01*
X615687D01*
Y200362D01*
X624062D01*
Y199897D01*
D02*
G37*
%LPC*%
G36*
X631041Y196174D02*
X629180D01*
Y195244D01*
X628715D01*
Y193383D01*
X628250D01*
Y191056D01*
X627784D01*
Y188730D01*
X627319D01*
Y185938D01*
X629180D01*
Y185473D01*
X631041D01*
Y185007D01*
X633368D01*
Y184542D01*
X636625D01*
Y185473D01*
X637090D01*
Y185938D01*
X636625D01*
Y186403D01*
X634298D01*
Y186868D01*
X631972D01*
Y187334D01*
X630111D01*
Y187799D01*
X629646D01*
Y189195D01*
X630111D01*
Y189660D01*
X632437D01*
Y189195D01*
X635229D01*
Y188730D01*
X636160D01*
Y190591D01*
X635229D01*
Y191056D01*
X632902D01*
Y191521D01*
X630576D01*
Y193383D01*
X631041D01*
Y193848D01*
X632437D01*
Y193383D01*
X634298D01*
Y192917D01*
X636625D01*
Y192452D01*
X638486D01*
Y194313D01*
X637555D01*
Y194778D01*
X634764D01*
Y195244D01*
X632437D01*
Y195709D01*
X631041D01*
Y196174D01*
D02*
G37*
G36*
X624527Y196640D02*
X622201D01*
Y196174D01*
X621736D01*
Y195709D01*
X621270D01*
Y195244D01*
X620805D01*
Y194778D01*
X620340D01*
Y193848D01*
X619874D01*
Y193383D01*
X619409D01*
Y192917D01*
X618944D01*
Y192452D01*
X617083D01*
Y192917D01*
X616617D01*
Y196640D01*
X614756D01*
Y196174D01*
X614291D01*
Y186403D01*
X616617D01*
Y190126D01*
X617083D01*
Y190591D01*
X619409D01*
Y190126D01*
X619874D01*
Y189195D01*
X620340D01*
Y188730D01*
X620805D01*
Y187799D01*
X621736D01*
Y187334D01*
X622201D01*
Y186868D01*
X622666D01*
Y186403D01*
X624993D01*
Y186868D01*
X624527D01*
Y187799D01*
X624062D01*
Y188264D01*
X623597D01*
Y188730D01*
X623131D01*
Y189195D01*
X622666D01*
Y189660D01*
X622201D01*
Y190591D01*
X621736D01*
Y191056D01*
X621270D01*
Y192452D01*
X621736D01*
Y192917D01*
X622201D01*
Y193848D01*
X622666D01*
Y194313D01*
X623131D01*
Y194778D01*
X623597D01*
Y195244D01*
X624062D01*
Y195709D01*
X624527D01*
Y196640D01*
D02*
G37*
G36*
X610103Y196174D02*
X608242D01*
Y195709D01*
X606381D01*
Y195244D01*
X604520D01*
Y194778D01*
X602193D01*
Y194313D01*
X601263D01*
Y193848D01*
X600798D01*
Y192452D01*
X600332D01*
Y191987D01*
X600798D01*
Y190126D01*
X601263D01*
Y187334D01*
X601728D01*
Y186403D01*
X602193D01*
Y185007D01*
X603124D01*
Y184542D01*
X605451D01*
Y185007D01*
X607777D01*
Y185473D01*
X610103D01*
Y185938D01*
X611964D01*
Y187799D01*
X611499D01*
Y188264D01*
X611034D01*
Y187799D01*
X609638D01*
Y187334D01*
X607312D01*
Y186868D01*
X604520D01*
Y186403D01*
X604055D01*
Y187334D01*
X603589D01*
Y189660D01*
X603124D01*
Y191056D01*
X602659D01*
Y192452D01*
X603124D01*
Y192917D01*
X604985D01*
Y193383D01*
X606846D01*
Y193848D01*
X608708D01*
Y194313D01*
X610103D01*
Y196174D01*
D02*
G37*
G36*
X596145Y191987D02*
X592888D01*
Y191521D01*
X591957D01*
Y191056D01*
X591027D01*
Y190591D01*
X590096D01*
Y190126D01*
X589165D01*
Y189660D01*
X588235D01*
Y189195D01*
X587304D01*
Y188730D01*
X586839D01*
Y186403D01*
X587304D01*
Y185007D01*
X587770D01*
Y184077D01*
X588235D01*
Y182681D01*
X588700D01*
Y181750D01*
X589165D01*
Y181285D01*
X589631D01*
Y180354D01*
X590096D01*
Y179889D01*
X592422D01*
Y180354D01*
X593818D01*
Y180820D01*
X594749D01*
Y181285D01*
X595680D01*
Y181750D01*
X596610D01*
Y182216D01*
X597541D01*
Y182681D01*
X598471D01*
Y183146D01*
X598937D01*
Y184077D01*
X599402D01*
Y185007D01*
X598937D01*
Y186403D01*
X598471D01*
Y187334D01*
X598006D01*
Y188264D01*
X597541D01*
Y189660D01*
X597075D01*
Y190591D01*
X596610D01*
Y191521D01*
X596145D01*
Y191987D01*
D02*
G37*
G36*
X643604Y192917D02*
X643139D01*
Y192452D01*
X642674D01*
Y191987D01*
X642208D01*
Y191056D01*
X641743D01*
Y189660D01*
X641278D01*
Y188730D01*
X640812D01*
Y187334D01*
X640347D01*
Y186868D01*
X639882D01*
Y185473D01*
X639417D01*
Y184542D01*
X638951D01*
Y183612D01*
X639417D01*
Y183146D01*
X640347D01*
Y182681D01*
X640812D01*
Y183146D01*
X641278D01*
Y184077D01*
X641743D01*
Y185473D01*
X642208D01*
Y185938D01*
X643139D01*
Y185473D01*
X644069D01*
Y185007D01*
X645000D01*
Y184542D01*
X645465D01*
Y182216D01*
X645931D01*
Y180354D01*
X646861D01*
Y179889D01*
X647792D01*
Y179424D01*
X648722D01*
Y179889D01*
X648257D01*
Y181285D01*
X647792D01*
Y183612D01*
X649653D01*
Y184077D01*
X650583D01*
Y185007D01*
X651049D01*
Y185938D01*
X651514D01*
Y187334D01*
X651979D01*
Y187799D01*
X651514D01*
Y189195D01*
X651049D01*
Y189660D01*
X650118D01*
Y190126D01*
X649188D01*
Y190591D01*
X648257D01*
Y191056D01*
X646861D01*
Y191521D01*
X645931D01*
Y191987D01*
X645000D01*
Y192452D01*
X643604D01*
Y192917D01*
D02*
G37*
G36*
X653375Y183146D02*
X652910D01*
Y182681D01*
X652445D01*
Y181750D01*
X651979D01*
Y181285D01*
X652910D01*
Y180820D01*
X653375D01*
Y180354D01*
X654306D01*
Y179889D01*
X655236D01*
Y179424D01*
X656167D01*
Y178959D01*
X656632D01*
Y178493D01*
X657097D01*
Y178959D01*
X657563D01*
Y180354D01*
X657097D01*
Y180820D01*
X656632D01*
Y181285D01*
X656167D01*
Y181750D01*
X655236D01*
Y182216D01*
X654306D01*
Y182681D01*
X653375D01*
Y183146D01*
D02*
G37*
G36*
X613360Y174306D02*
X612895D01*
Y173841D01*
X613360D01*
Y174306D01*
D02*
G37*
G36*
X665007Y180820D02*
X661750D01*
Y180354D01*
X660820D01*
Y179889D01*
X661285D01*
Y179424D01*
X661750D01*
Y178959D01*
X662216D01*
Y178028D01*
X661750D01*
Y177097D01*
X661285D01*
Y176632D01*
X660820D01*
Y176167D01*
X660355D01*
Y175702D01*
X659889D01*
Y175236D01*
X659424D01*
Y174306D01*
X658959D01*
Y173841D01*
X658493D01*
Y173375D01*
X658028D01*
Y172910D01*
X658493D01*
Y172445D01*
X658959D01*
Y171979D01*
X659424D01*
Y171514D01*
X659889D01*
Y171979D01*
X660355D01*
Y172445D01*
X660820D01*
Y173375D01*
X661285D01*
Y173841D01*
X661750D01*
Y174771D01*
X662681D01*
Y175702D01*
X663146D01*
Y176167D01*
X663612D01*
Y176632D01*
X664077D01*
Y177563D01*
X664542D01*
Y178028D01*
X665007D01*
Y178493D01*
X665473D01*
Y178959D01*
X665938D01*
Y179889D01*
X665473D01*
Y180354D01*
X665007D01*
Y180820D01*
D02*
G37*
G36*
X582651Y185007D02*
X580325D01*
Y184542D01*
X579394D01*
Y184077D01*
X578929D01*
Y183612D01*
X577999D01*
Y183146D01*
X577533D01*
Y182681D01*
X577068D01*
Y182216D01*
X576603D01*
Y181750D01*
X575672D01*
Y181285D01*
X575207D01*
Y180820D01*
X574742D01*
Y180354D01*
X574276D01*
Y179889D01*
X573811D01*
Y178959D01*
X574276D01*
Y178493D01*
X574742D01*
Y177563D01*
X575207D01*
Y177097D01*
X575672D01*
Y176167D01*
X576137D01*
Y175702D01*
X576603D01*
Y175236D01*
X577068D01*
Y174771D01*
X577533D01*
Y173841D01*
X577999D01*
Y173375D01*
X578464D01*
Y172445D01*
X578929D01*
Y171979D01*
X579394D01*
Y171514D01*
X580325D01*
Y171979D01*
X580790D01*
Y172445D01*
X581255D01*
Y172910D01*
X582186D01*
Y173375D01*
X582651D01*
Y173841D01*
X583117D01*
Y174306D01*
X583582D01*
Y174771D01*
X584512D01*
Y175236D01*
X584978D01*
Y175702D01*
X585443D01*
Y176167D01*
X585908D01*
Y176632D01*
X586374D01*
Y177097D01*
X586839D01*
Y177563D01*
X587304D01*
Y178959D01*
X586839D01*
Y179889D01*
X586374D01*
Y180354D01*
X585908D01*
Y180820D01*
X585443D01*
Y181750D01*
X584978D01*
Y182216D01*
X584512D01*
Y183146D01*
X584047D01*
Y183612D01*
X583582D01*
Y184077D01*
X583117D01*
Y184542D01*
X582651D01*
Y185007D01*
D02*
G37*
G36*
X636160Y171049D02*
X635694D01*
Y170583D01*
Y170118D01*
X636160D01*
Y171049D01*
D02*
G37*
G36*
X604055Y167792D02*
X603589D01*
Y167326D01*
X603124D01*
Y166861D01*
X603589D01*
Y166396D01*
X604055D01*
Y166861D01*
X604520D01*
Y167326D01*
X604055D01*
Y167792D01*
D02*
G37*
G36*
X645000Y165000D02*
X643604D01*
Y164535D01*
Y164069D01*
Y163604D01*
X644535D01*
Y164069D01*
X645000D01*
Y165000D01*
D02*
G37*
G36*
X577533Y163604D02*
X575672D01*
Y163139D01*
X577533D01*
Y163604D01*
D02*
G37*
G36*
X579394Y163139D02*
X578464D01*
Y162673D01*
X579394D01*
Y163139D01*
D02*
G37*
G36*
X575672D02*
X574276D01*
Y162673D01*
X575672D01*
Y163139D01*
D02*
G37*
G36*
X557061Y162673D02*
X556130D01*
Y162208D01*
X557061D01*
Y162673D01*
D02*
G37*
G36*
X583582Y162208D02*
X581721D01*
Y161743D01*
X581255D01*
Y161278D01*
X582186D01*
Y161743D01*
X583582D01*
Y162208D01*
D02*
G37*
G36*
X588235Y161278D02*
X587770D01*
Y160812D01*
X588235D01*
Y161278D01*
D02*
G37*
G36*
X579394D02*
X578929D01*
Y160812D01*
X579394D01*
Y161278D01*
D02*
G37*
G36*
X566366D02*
X565436D01*
Y160812D01*
X566366D01*
Y161278D01*
D02*
G37*
G36*
X577999Y160812D02*
X577068D01*
Y160347D01*
X577999D01*
Y160812D01*
D02*
G37*
G36*
X564970D02*
X563575D01*
Y160347D01*
X564970D01*
Y160812D01*
D02*
G37*
G36*
X590561D02*
X588700D01*
Y160347D01*
X588235D01*
Y159882D01*
X591492D01*
Y160347D01*
X590561D01*
Y160812D01*
D02*
G37*
G36*
X576137Y160347D02*
X575672D01*
Y159882D01*
X576137D01*
Y160347D01*
D02*
G37*
G36*
X563109D02*
X562644D01*
Y159882D01*
X563109D01*
Y160347D01*
D02*
G37*
G36*
X557991Y161278D02*
X557061D01*
Y160812D01*
Y159882D01*
X556595D01*
Y160347D01*
X554734D01*
Y159882D01*
X555199D01*
Y158951D01*
X557526D01*
Y159417D01*
X557991D01*
Y161278D01*
D02*
G37*
G36*
X593818Y159882D02*
X593353D01*
Y159417D01*
X593818D01*
Y159882D01*
D02*
G37*
G36*
X555199Y158951D02*
X554734D01*
Y158486D01*
X555199D01*
Y158951D01*
D02*
G37*
G36*
X579860Y158021D02*
X578464D01*
Y157555D01*
X579860D01*
Y158021D01*
D02*
G37*
G36*
X565901D02*
X564970D01*
Y157555D01*
X565901D01*
Y158021D01*
D02*
G37*
G36*
X554734Y158486D02*
X553803D01*
Y158021D01*
X554734D01*
Y157555D01*
X555665D01*
Y158021D01*
X554734D01*
Y158486D01*
D02*
G37*
G36*
X578464Y157555D02*
X577068D01*
Y157090D01*
X578464D01*
Y157555D01*
D02*
G37*
G36*
X564040D02*
X563109D01*
Y157090D01*
X564040D01*
Y157555D01*
D02*
G37*
G36*
X556595D02*
X556130D01*
Y157090D01*
X556595D01*
Y157555D01*
D02*
G37*
G36*
X576137Y157090D02*
X575207D01*
Y156625D01*
X576137D01*
Y157090D01*
D02*
G37*
G36*
X558456D02*
X557526D01*
Y156625D01*
X558456D01*
Y157090D01*
D02*
G37*
G36*
X608708Y156625D02*
X607777D01*
Y156159D01*
X608708D01*
Y156625D01*
D02*
G37*
G36*
X574276D02*
X573346D01*
Y156159D01*
X574276D01*
Y156625D01*
D02*
G37*
G36*
X678501Y158021D02*
X677570D01*
Y155694D01*
X678035D01*
Y156625D01*
X678501D01*
Y157090D01*
X678966D01*
Y157555D01*
X678501D01*
Y158021D01*
D02*
G37*
G36*
X562179Y157090D02*
X559852D01*
Y156625D01*
X559387D01*
Y156159D01*
X561248D01*
Y155694D01*
X562179D01*
Y156159D01*
X561248D01*
Y156625D01*
X562179D01*
Y157090D01*
D02*
G37*
G36*
X591492Y157555D02*
X590096D01*
Y157090D01*
X588235D01*
Y156625D01*
X585908D01*
Y156159D01*
X586839D01*
Y155694D01*
X588235D01*
Y155229D01*
X590561D01*
Y155694D01*
X592422D01*
Y156159D01*
X594284D01*
Y156625D01*
X593353D01*
Y157090D01*
X591492D01*
Y157555D01*
D02*
G37*
G36*
X569623Y155694D02*
X569158D01*
Y155229D01*
X569623D01*
Y155694D01*
D02*
G37*
G36*
X617083Y154764D02*
X616152D01*
Y154298D01*
X617083D01*
Y154764D01*
D02*
G37*
G36*
X613360Y155694D02*
X612430D01*
Y154298D01*
X614756D01*
Y155229D01*
X613360D01*
Y155694D01*
D02*
G37*
G36*
X596145Y159417D02*
X595680D01*
Y158951D01*
X596145D01*
Y158486D01*
X595680D01*
Y158021D01*
X594284D01*
Y157555D01*
X595214D01*
Y157090D01*
X596145D01*
Y155694D01*
X596610D01*
Y155229D01*
X596145D01*
Y154764D01*
X595680D01*
Y154298D01*
X597541D01*
Y154764D01*
X599402D01*
Y155229D01*
X600798D01*
Y155694D01*
X602659D01*
Y156159D01*
X604985D01*
Y156625D01*
X606381D01*
Y157090D01*
X604520D01*
Y157555D01*
X603589D01*
Y158021D01*
X600798D01*
Y158486D01*
X598471D01*
Y158951D01*
X596145D01*
Y159417D01*
D02*
G37*
G36*
X619409Y154298D02*
X618479D01*
Y153833D01*
X619409D01*
Y154298D01*
D02*
G37*
G36*
X611964D02*
X611499D01*
Y153833D01*
X611964D01*
Y154298D01*
D02*
G37*
G36*
X564040Y155694D02*
X563109D01*
Y155229D01*
X564040D01*
Y154764D01*
X565901D01*
Y154298D01*
X567762D01*
Y153833D01*
X568693D01*
Y154298D01*
X567762D01*
Y154764D01*
X568228D01*
Y155229D01*
X566366D01*
Y154764D01*
X565901D01*
Y155229D01*
X564040D01*
Y155694D01*
D02*
G37*
G36*
X550081D02*
X549151D01*
Y154764D01*
X549616D01*
Y155229D01*
X550081Y154764D01*
Y154298D01*
X551477D01*
Y153833D01*
X553338D01*
Y154298D01*
X552408D01*
Y154764D01*
X551942D01*
Y155229D01*
X551477D01*
Y154764D01*
X551012D01*
Y155229D01*
X550081D01*
Y155694D01*
D02*
G37*
G36*
X610569Y153833D02*
X609638D01*
Y153368D01*
X610569D01*
Y153833D01*
D02*
G37*
G36*
X595680Y154298D02*
X593353D01*
Y153833D01*
X591957D01*
Y153368D01*
X593818D01*
Y153833D01*
X595680D01*
Y154298D01*
D02*
G37*
G36*
X570089Y153833D02*
X569158D01*
Y153368D01*
X570089D01*
Y153833D01*
D02*
G37*
G36*
X677570Y155229D02*
X677105D01*
Y154298D01*
X676640D01*
Y152902D01*
X677105D01*
Y153368D01*
Y153833D01*
X677570D01*
Y155229D01*
D02*
G37*
G36*
X609173Y153368D02*
X607777D01*
Y152902D01*
X609173D01*
Y153368D01*
D02*
G37*
G36*
X584047Y154764D02*
X581721D01*
Y154298D01*
X579394D01*
Y153833D01*
X577533D01*
Y153368D01*
X574276D01*
Y152902D01*
X571950D01*
Y153368D01*
X571019D01*
Y152902D01*
X571950D01*
Y152437D01*
X573811D01*
Y151972D01*
X575207D01*
Y151507D01*
X577068D01*
Y151041D01*
X578929D01*
Y150576D01*
X579860D01*
Y150111D01*
X581255D01*
Y149646D01*
X582651D01*
Y150111D01*
X582186D01*
Y150576D01*
X583117D01*
Y151041D01*
X584978D01*
Y151507D01*
X586839D01*
Y151972D01*
X589165D01*
Y152437D01*
X590561D01*
Y152902D01*
X591957D01*
Y153368D01*
X586839D01*
Y153833D01*
X584978D01*
Y154298D01*
X584047D01*
Y154764D01*
D02*
G37*
G36*
X607777Y152902D02*
X606381D01*
Y152437D01*
X607777D01*
Y152902D01*
D02*
G37*
G36*
X625923Y183146D02*
X613360D01*
Y182681D01*
X610103D01*
Y182216D01*
X607312D01*
Y181750D01*
X604985D01*
Y181285D01*
X603589D01*
Y180820D01*
X602193D01*
Y180354D01*
X601263D01*
Y179889D01*
X599402D01*
Y179424D01*
X598006D01*
Y178959D01*
X597075D01*
Y178493D01*
X595680D01*
Y178028D01*
X595214D01*
Y177563D01*
X594284D01*
Y177097D01*
X593353D01*
Y176632D01*
X592422D01*
Y176167D01*
X591492D01*
Y175702D01*
X590561D01*
Y175236D01*
X590096D01*
Y174771D01*
X589165D01*
Y174306D01*
X588235D01*
Y173841D01*
X587770D01*
Y173375D01*
X586839D01*
Y172910D01*
X586374D01*
Y172445D01*
X585908D01*
Y171979D01*
X585443D01*
Y171514D01*
X584512D01*
Y171049D01*
X583582D01*
Y170583D01*
X583117D01*
Y170118D01*
X582651D01*
Y169653D01*
X582186D01*
Y169188D01*
X581721D01*
Y168722D01*
X581255D01*
Y168257D01*
X580790D01*
Y167792D01*
X580325D01*
Y167326D01*
X579860D01*
Y166861D01*
X579394D01*
Y166396D01*
X578929D01*
Y165931D01*
X577999D01*
Y165000D01*
X578929D01*
Y164535D01*
X579394D01*
Y165000D01*
X579860D01*
Y165465D01*
X580325D01*
Y165931D01*
X580790D01*
Y166396D01*
X581255D01*
Y166861D01*
X581721D01*
Y167326D01*
X582651D01*
Y167792D01*
X583117D01*
Y168722D01*
X584047D01*
Y169188D01*
X584512D01*
Y169653D01*
X584978D01*
Y170118D01*
X585908D01*
Y170583D01*
X586374D01*
Y171049D01*
X586839D01*
Y171514D01*
X587770D01*
Y171979D01*
X588235D01*
Y172445D01*
X589165D01*
Y172910D01*
X589631D01*
Y173375D01*
X590096D01*
Y173841D01*
X591027D01*
Y174306D01*
X591957D01*
Y174771D01*
X592888D01*
Y175236D01*
X593818D01*
Y175702D01*
X594749D01*
Y176167D01*
X595214D01*
Y176632D01*
X596610D01*
Y177097D01*
X597541D01*
Y177563D01*
X598937D01*
Y178028D01*
X599867D01*
Y178493D01*
X601263D01*
Y178959D01*
X602193D01*
Y179424D01*
X604055D01*
Y179889D01*
X605916D01*
Y180354D01*
X608242D01*
Y180820D01*
X610103D01*
Y181285D01*
X613826D01*
Y181750D01*
X625923D01*
Y181285D01*
X629180D01*
Y180820D01*
X631041D01*
Y180354D01*
X633368D01*
Y179889D01*
X635229D01*
Y179424D01*
X637090D01*
Y178959D01*
X638486D01*
Y178493D01*
X639417D01*
Y178028D01*
X640347D01*
Y177563D01*
X641743D01*
Y177097D01*
X642674D01*
Y176632D01*
X644069D01*
Y176167D01*
X644535D01*
Y175702D01*
X645465D01*
Y175236D01*
X646396D01*
Y174771D01*
X647326D01*
Y174306D01*
X648257D01*
Y173841D01*
X649188D01*
Y173375D01*
X649653D01*
Y172910D01*
X650118D01*
Y172445D01*
X651049D01*
Y171979D01*
X651979D01*
Y171514D01*
X652445D01*
Y171049D01*
X652910D01*
Y170583D01*
X653375D01*
Y170118D01*
X654306D01*
Y169653D01*
X654771D01*
Y169188D01*
X655236D01*
Y168722D01*
X656167D01*
Y168257D01*
X656632D01*
Y167792D01*
X657097D01*
Y167326D01*
X657563D01*
Y166861D01*
X658028D01*
Y166396D01*
X658493D01*
Y165931D01*
X658959D01*
Y165465D01*
X659424D01*
Y165000D01*
X659889D01*
Y164535D01*
X660355D01*
Y164069D01*
X660820D01*
Y163604D01*
X661285D01*
Y163139D01*
X661750D01*
Y162673D01*
X662216D01*
Y161743D01*
X662681D01*
Y161278D01*
X663146D01*
Y160812D01*
X663612D01*
Y160347D01*
X664077D01*
Y159417D01*
X664542D01*
Y158951D01*
X665007D01*
Y158486D01*
X665473D01*
Y158021D01*
X665938D01*
Y157090D01*
X666403D01*
Y156625D01*
X666869D01*
Y155694D01*
X667334D01*
Y155229D01*
X667799D01*
Y154298D01*
X668264D01*
Y153833D01*
X668730D01*
Y152437D01*
X669195D01*
Y151972D01*
X671056D01*
Y152437D01*
X670591D01*
Y153368D01*
X670126D01*
Y154298D01*
X669660D01*
Y154764D01*
X669195D01*
Y155694D01*
X668730D01*
Y156159D01*
X668264D01*
Y157090D01*
X667799D01*
Y157555D01*
X667334D01*
Y158486D01*
X666869D01*
Y158951D01*
X666403D01*
Y159882D01*
X665938D01*
Y160347D01*
X665473D01*
Y160812D01*
X665007D01*
Y161278D01*
X664542D01*
Y161743D01*
X664077D01*
Y162673D01*
X663612D01*
Y163139D01*
X663146D01*
Y163604D01*
X662681D01*
Y164069D01*
X662216D01*
Y164535D01*
X661750D01*
Y165000D01*
X661285D01*
Y165931D01*
X660820D01*
Y166396D01*
X660355D01*
Y166861D01*
X659424D01*
Y167326D01*
X658959D01*
Y168257D01*
X658493D01*
Y168722D01*
X657563D01*
Y169188D01*
X657097D01*
Y169653D01*
X656632D01*
Y170118D01*
X656167D01*
Y170583D01*
X655702D01*
Y171049D01*
X654771D01*
Y171514D01*
X654306D01*
Y171979D01*
X653375D01*
Y172445D01*
X652910D01*
Y172910D01*
X652445D01*
Y173375D01*
X651514D01*
Y173841D01*
X651049D01*
Y174306D01*
X650118D01*
Y174771D01*
X649188D01*
Y175236D01*
X648722D01*
Y175702D01*
X647792D01*
Y176167D01*
X646861D01*
Y176632D01*
X646396D01*
Y177097D01*
X645000D01*
Y177563D01*
X644069D01*
Y178028D01*
X643139D01*
Y178493D01*
X642208D01*
Y178959D01*
X640812D01*
Y179424D01*
X639417D01*
Y179889D01*
X638021D01*
Y180354D01*
X637090D01*
Y180820D01*
X636160D01*
Y181285D01*
X634298D01*
Y181750D01*
X631972D01*
Y182216D01*
X629180D01*
Y182681D01*
X625923D01*
Y183146D01*
D02*
G37*
G36*
X663146Y154298D02*
X662216D01*
Y153368D01*
X662681D01*
Y152902D01*
Y152437D01*
Y151972D01*
X663612D01*
Y153833D01*
X663146D01*
Y154298D01*
D02*
G37*
G36*
X621736Y153833D02*
X620340D01*
Y153368D01*
X621736D01*
Y151972D01*
X622201D01*
Y152437D01*
X625458D01*
Y152902D01*
X624062D01*
Y153368D01*
X621736D01*
Y153833D01*
D02*
G37*
G36*
X559852Y152902D02*
X558922D01*
Y152437D01*
X559387D01*
Y151972D01*
X558922D01*
Y152437D01*
X558456D01*
Y152902D01*
X557991D01*
Y151972D01*
X558922D01*
Y151507D01*
X559852D01*
Y151972D01*
X560783D01*
Y152437D01*
X559852D01*
Y152902D01*
D02*
G37*
G36*
X551477D02*
X550546D01*
Y152437D01*
X551012D01*
Y151972D01*
X552408D01*
Y152437D01*
X551477D01*
Y152902D01*
D02*
G37*
G36*
X684084Y153368D02*
X683154D01*
Y151507D01*
X683619D01*
Y151972D01*
X684084D01*
Y152437D01*
Y152902D01*
Y153368D01*
D02*
G37*
G36*
X676640Y152437D02*
X676174D01*
Y151972D01*
Y151507D01*
X676640D01*
Y152437D01*
D02*
G37*
G36*
X562179Y151972D02*
X561713D01*
Y151507D01*
X562179D01*
Y151972D01*
D02*
G37*
G36*
X553803D02*
X552873D01*
Y151507D01*
X553803D01*
Y151972D01*
D02*
G37*
G36*
X660820Y153833D02*
X660355D01*
Y153368D01*
X659889D01*
Y152902D01*
X659424D01*
Y151972D01*
X659889D01*
Y151041D01*
X660355D01*
Y151507D01*
X661750D01*
Y151972D01*
X661285D01*
Y153368D01*
X660820D01*
Y153833D01*
D02*
G37*
G36*
X561248Y151507D02*
X560318D01*
Y151041D01*
X561248D01*
Y151507D01*
D02*
G37*
G36*
X617083Y151041D02*
X616152D01*
Y150576D01*
X617083D01*
Y151041D01*
D02*
G37*
G36*
X599867D02*
X598937D01*
Y150576D01*
X599867D01*
Y151041D01*
D02*
G37*
G36*
X682688Y150576D02*
X682223D01*
Y150111D01*
X682688D01*
Y150576D01*
D02*
G37*
G36*
X676174Y151041D02*
X675709D01*
Y150111D01*
X676174D01*
Y150576D01*
Y151041D01*
D02*
G37*
G36*
X663612Y150576D02*
X662681D01*
Y150111D01*
X663612D01*
Y150576D01*
D02*
G37*
G36*
X662681Y150111D02*
X661285D01*
Y149646D01*
X662681D01*
Y150111D01*
D02*
G37*
G36*
X658493Y151507D02*
X657097D01*
Y151041D01*
X656167D01*
Y150576D01*
X655236D01*
Y150111D01*
X655702D01*
Y149646D01*
X656167D01*
Y150111D01*
X657097D01*
Y150576D01*
X658493D01*
Y151507D01*
D02*
G37*
G36*
X636625Y150576D02*
X636160D01*
Y149646D01*
X638021D01*
Y150111D01*
X636625D01*
Y150576D01*
D02*
G37*
G36*
X631507Y151507D02*
X631041D01*
Y149646D01*
X632437D01*
Y150111D01*
X633833D01*
Y150576D01*
X634298D01*
Y151041D01*
X631507D01*
Y151507D01*
D02*
G37*
G36*
X616152Y150576D02*
X614756D01*
Y150111D01*
X613360D01*
Y149646D01*
X614756D01*
X615222Y150111D01*
X616152D01*
Y150576D01*
D02*
G37*
G36*
X598937D02*
X597541D01*
Y150111D01*
X596610D01*
Y149646D01*
X597541D01*
X598006Y150111D01*
X598937D01*
Y150576D01*
D02*
G37*
G36*
X568693Y150111D02*
X568228D01*
Y149646D01*
X568693D01*
Y150111D01*
D02*
G37*
G36*
X682223D02*
X681758D01*
Y149180D01*
X682223D01*
Y150111D01*
D02*
G37*
G36*
X661285Y149646D02*
X660355D01*
Y149180D01*
X661285D01*
Y149646D01*
D02*
G37*
G36*
X631041D02*
X630111D01*
Y149180D01*
X631041D01*
Y149646D01*
D02*
G37*
G36*
X612430D02*
X611964D01*
Y149180D01*
X612430D01*
Y149646D01*
D02*
G37*
G36*
X595214D02*
X594749D01*
Y149180D01*
X595214D01*
Y149646D01*
D02*
G37*
G36*
X584047D02*
X583117D01*
Y149180D01*
X584047D01*
Y149646D01*
D02*
G37*
G36*
X555199Y151507D02*
X554269D01*
Y151041D01*
X555199D01*
Y150576D01*
X555665D01*
Y150111D01*
Y148715D01*
X556130D01*
Y149180D01*
X556595D01*
Y149646D01*
X556130D01*
Y150111D01*
X556595D01*
Y149646D01*
X557061D01*
Y150111D01*
X558456D01*
Y149646D01*
X560318D01*
Y149180D01*
X561248D01*
Y149646D01*
X560318D01*
Y150111D01*
X558922D01*
Y150576D01*
X557526D01*
Y151041D01*
X555199D01*
Y151507D01*
D02*
G37*
G36*
X681758Y149180D02*
X681292D01*
Y148715D01*
X681758D01*
Y149180D01*
D02*
G37*
G36*
X653375Y151041D02*
X652445D01*
Y150576D01*
X651979D01*
Y150111D01*
X650583D01*
Y149646D01*
X649653D01*
Y149180D01*
X648257D01*
Y148715D01*
X647326D01*
Y148250D01*
X645931D01*
Y147784D01*
X645465D01*
Y147319D01*
X644069D01*
Y146854D01*
X642674D01*
Y146389D01*
X641743D01*
Y145923D01*
X640347D01*
Y145458D01*
X639417D01*
Y144993D01*
X638486D01*
Y144527D01*
X637090D01*
Y144062D01*
X636625D01*
Y143597D01*
X635229D01*
Y143131D01*
X634764D01*
Y141736D01*
X635229D01*
Y141270D01*
X635694D01*
Y141736D01*
X636160D01*
Y142201D01*
X637555D01*
Y141736D01*
X638021D01*
Y142666D01*
X638486D01*
Y143131D01*
X639417D01*
Y143597D01*
X640812D01*
Y144062D01*
X642674D01*
Y143131D01*
X643604D01*
Y143597D01*
X643139D01*
Y144062D01*
X642674D01*
Y144527D01*
X644069D01*
Y144062D01*
X645465D01*
Y144527D01*
X644069D01*
Y144993D01*
X644535D01*
Y145458D01*
X645465D01*
Y145923D01*
X646861D01*
Y146389D01*
X647792D01*
Y146854D01*
X649188D01*
Y147319D01*
X650583D01*
Y147784D01*
X651514D01*
Y148715D01*
X651979D01*
Y149180D01*
X652445D01*
Y148715D01*
X653375D01*
Y151041D01*
D02*
G37*
G36*
X611034Y149180D02*
X610569D01*
Y148715D01*
X611034D01*
Y149180D01*
D02*
G37*
G36*
X593818D02*
X592888D01*
Y148715D01*
X593818D01*
Y149180D01*
D02*
G37*
G36*
X585908D02*
X584512D01*
Y148715D01*
X585908D01*
Y149180D01*
D02*
G37*
G36*
X571484D02*
X571019D01*
Y148715D01*
X571484D01*
Y149180D01*
D02*
G37*
G36*
X562644D02*
X561713D01*
Y148715D01*
X562644D01*
Y149180D01*
D02*
G37*
G36*
X675709Y149646D02*
X675244D01*
Y148250D01*
X675709D01*
Y148715D01*
Y149180D01*
Y149646D01*
D02*
G37*
G36*
X587770Y148715D02*
X586374D01*
Y148250D01*
X587770D01*
Y148715D01*
D02*
G37*
G36*
X572880D02*
X572415D01*
Y148250D01*
X572880D01*
Y148715D01*
D02*
G37*
G36*
X571019D02*
X569623D01*
Y148250D01*
X571019D01*
Y148715D01*
D02*
G37*
G36*
X564040D02*
X563109D01*
Y148250D01*
X564040D01*
Y148715D01*
D02*
G37*
G36*
X625923Y148250D02*
X624993D01*
Y147784D01*
X625923D01*
Y148250D01*
D02*
G37*
G36*
X681292D02*
X680827D01*
Y147784D01*
Y147319D01*
X681292D01*
Y148250D01*
D02*
G37*
G36*
X653840Y147784D02*
X653375D01*
Y147319D01*
X653840D01*
Y147784D01*
D02*
G37*
G36*
X624993D02*
X623597D01*
Y147319D01*
X624993D01*
Y147784D01*
D02*
G37*
G36*
X605916D02*
X605451D01*
Y147319D01*
X605916D01*
Y147784D01*
D02*
G37*
G36*
X651979Y147319D02*
X651049D01*
Y146854D01*
X651979D01*
Y147319D01*
D02*
G37*
G36*
X622666D02*
X622201D01*
Y146854D01*
X622666D01*
Y147319D01*
D02*
G37*
G36*
X604055D02*
X603124D01*
Y146854D01*
X604055D01*
Y147319D01*
D02*
G37*
G36*
X591027Y148715D02*
X590096D01*
Y148250D01*
X588235D01*
Y147784D01*
X589165D01*
Y147319D01*
X591027D01*
Y146854D01*
X592422D01*
Y147319D01*
X591027D01*
Y147784D01*
Y148715D01*
D02*
G37*
G36*
X574276Y147319D02*
X573811D01*
Y146854D01*
X574276D01*
Y147319D01*
D02*
G37*
G36*
X680827Y146854D02*
X680362D01*
Y146389D01*
X680827D01*
Y146854D01*
D02*
G37*
G36*
X651049D02*
X650583D01*
Y146389D01*
X651049D01*
Y146854D01*
D02*
G37*
G36*
X650118D02*
X649653D01*
Y146389D01*
X650118D01*
Y146854D01*
D02*
G37*
G36*
X639417Y149180D02*
X638021D01*
Y148715D01*
X637555D01*
Y146389D01*
X638951D01*
Y146854D01*
X639417D01*
Y148715D01*
Y149180D01*
D02*
G37*
G36*
X621270Y146854D02*
X620340D01*
Y146389D01*
X621270D01*
Y146854D01*
D02*
G37*
G36*
X602659D02*
X601263D01*
Y146389D01*
X602659D01*
Y146854D01*
D02*
G37*
G36*
X579860D02*
X579394D01*
Y146389D01*
X579860D01*
Y146854D01*
D02*
G37*
G36*
X566366Y148250D02*
X564970D01*
Y147784D01*
X565901D01*
Y147319D01*
X566832D01*
Y146854D01*
X568228D01*
Y146389D01*
X570089D01*
Y146854D01*
X568693D01*
Y147319D01*
X566832D01*
Y147784D01*
X566366D01*
Y148250D01*
D02*
G37*
G36*
X563109Y146854D02*
X562644D01*
Y146389D01*
X563109D01*
Y146854D01*
D02*
G37*
G36*
X680362Y146389D02*
X679897D01*
Y145923D01*
X680362D01*
Y146389D01*
D02*
G37*
G36*
X619409D02*
X618944D01*
Y145923D01*
X619409D01*
Y146389D01*
D02*
G37*
G36*
X600798D02*
X599867D01*
Y145923D01*
X598471D01*
Y146389D01*
X598006D01*
Y145923D01*
X596145D01*
Y145458D01*
X597075D01*
Y144993D01*
X598937D01*
Y144527D01*
X599867D01*
Y144993D01*
X599402D01*
Y145458D01*
X599867D01*
X600332Y145923D01*
X600798D01*
Y146389D01*
D02*
G37*
G36*
X594284Y146854D02*
X592888D01*
Y146389D01*
X594284D01*
Y145923D01*
X595680D01*
Y146389D01*
X594284D01*
Y146854D01*
D02*
G37*
G36*
X674778Y146389D02*
X674313D01*
Y145923D01*
Y145458D01*
X674778D01*
Y146389D01*
D02*
G37*
G36*
X581255D02*
X580790D01*
Y145923D01*
X581255D01*
Y145458D01*
X582651D01*
Y145923D01*
X581255D01*
Y146389D01*
D02*
G37*
G36*
X679897Y145458D02*
X679431D01*
Y144993D01*
X679897D01*
Y145458D01*
D02*
G37*
G36*
X618013Y145923D02*
X617083D01*
X616617Y145458D01*
X615687D01*
Y144993D01*
X617083D01*
Y145458D01*
X618013D01*
Y145923D01*
D02*
G37*
G36*
X584047Y145458D02*
X583117D01*
Y144993D01*
X584047D01*
Y145458D01*
D02*
G37*
G36*
X563109Y145923D02*
X562644D01*
Y144993D01*
X563109D01*
Y145923D01*
D02*
G37*
G36*
X645931Y144993D02*
X645465D01*
Y144527D01*
X645931D01*
Y144993D01*
D02*
G37*
G36*
X580790Y145458D02*
X579860D01*
Y144993D01*
X580790D01*
Y144527D01*
X582186D01*
Y144993D01*
X581255D01*
X580790Y145458D01*
D02*
G37*
G36*
X687341D02*
X686876D01*
Y144993D01*
X686411D01*
Y144062D01*
X687806D01*
Y144993D01*
X687341D01*
Y145458D01*
D02*
G37*
G36*
X674313Y144993D02*
X673848D01*
Y144527D01*
Y144062D01*
X674313D01*
Y144993D01*
D02*
G37*
G36*
X612895Y144527D02*
X612430D01*
Y144062D01*
X612895D01*
Y144527D01*
D02*
G37*
G36*
X601263D02*
X600798D01*
Y144062D01*
X601263D01*
Y144527D01*
D02*
G37*
G36*
X611964Y144062D02*
X610569D01*
Y143597D01*
X611964D01*
Y144062D01*
D02*
G37*
G36*
X603589D02*
X602193D01*
Y143597D01*
X603589D01*
Y144062D01*
D02*
G37*
G36*
X642208Y143597D02*
X641743D01*
Y143131D01*
X642208D01*
Y143597D01*
D02*
G37*
G36*
X585908D02*
X585443D01*
Y143131D01*
X585908D01*
Y143597D01*
D02*
G37*
G36*
X685945Y143131D02*
X685480D01*
Y142666D01*
X685945D01*
Y143131D01*
D02*
G37*
G36*
X673848Y143597D02*
X673383D01*
Y142666D01*
X673848D01*
Y143131D01*
Y143597D01*
D02*
G37*
G36*
X635229Y149180D02*
X633833D01*
Y148715D01*
X631972D01*
Y148250D01*
X630576D01*
Y147784D01*
X629180D01*
Y147319D01*
X627319D01*
Y146854D01*
X625923D01*
Y146389D01*
X624527D01*
Y145923D01*
X622666D01*
Y145458D01*
X621736D01*
Y144993D01*
X619874D01*
Y144527D01*
X618013D01*
Y144062D01*
X616617D01*
Y143597D01*
X614756D01*
Y143131D01*
X613826D01*
Y142666D01*
X612430D01*
Y142201D01*
X610569D01*
Y141736D01*
X609638D01*
Y141270D01*
X610569D01*
Y140805D01*
X611034D01*
Y138944D01*
X611499D01*
Y136152D01*
X611034D01*
Y135687D01*
X610569D01*
Y135222D01*
X609173D01*
Y134756D01*
X607777D01*
Y134291D01*
X606846D01*
Y130569D01*
X607312D01*
Y124520D01*
X607777D01*
Y118471D01*
X608242D01*
Y113818D01*
X608708D01*
Y107770D01*
X609173D01*
Y102186D01*
X609638D01*
Y99860D01*
X610103D01*
Y100325D01*
X611499D01*
Y100790D01*
X613360D01*
Y100325D01*
X614756D01*
Y99394D01*
X615222D01*
Y97999D01*
X615687D01*
Y98464D01*
X617083D01*
Y98929D01*
X618013D01*
Y99394D01*
X619409D01*
Y99860D01*
X620340D01*
Y100325D01*
X621270D01*
Y100790D01*
X622201D01*
Y101256D01*
X621736D01*
Y101721D01*
X618944D01*
Y102186D01*
X618013D01*
Y102651D01*
X617548D01*
Y103582D01*
X617083D01*
Y104513D01*
X616617D01*
Y104978D01*
X615687D01*
Y105443D01*
X614756D01*
Y105908D01*
X614291D01*
Y106374D01*
X613826D01*
Y106839D01*
X613360D01*
Y107304D01*
X612895D01*
Y108235D01*
X612430D01*
Y108700D01*
X611964D01*
Y109165D01*
X611499D01*
Y110096D01*
X611034D01*
Y111027D01*
X610569D01*
Y111492D01*
X610103D01*
Y112888D01*
X609638D01*
Y114284D01*
X609173D01*
Y117075D01*
X608708D01*
Y124520D01*
X609173D01*
Y127312D01*
X609638D01*
Y129173D01*
X610103D01*
Y130569D01*
X610569D01*
Y131499D01*
X611034D01*
Y132430D01*
X611499D01*
Y133360D01*
X611964D01*
Y134291D01*
X612430D01*
Y135222D01*
X612895D01*
Y136152D01*
X613360D01*
Y136617D01*
X613826D01*
Y137083D01*
X614291D01*
Y137548D01*
X614756D01*
Y138479D01*
X615222D01*
Y138944D01*
X615687D01*
Y139409D01*
X616617D01*
Y139874D01*
X617083D01*
Y140340D01*
X617548D01*
Y140805D01*
X618013D01*
Y141270D01*
X618479D01*
Y141736D01*
X619409D01*
Y142201D01*
X620340D01*
Y142666D01*
X621736D01*
Y143131D01*
X622201D01*
Y143597D01*
X624062D01*
Y144062D01*
X629646D01*
Y143597D01*
X631972D01*
Y143131D01*
X632902D01*
Y142666D01*
X633368D01*
Y143131D01*
X633833D01*
Y144062D01*
X634298D01*
Y144527D01*
X634764D01*
Y144993D01*
X635229D01*
Y149180D01*
D02*
G37*
G36*
X625458Y143131D02*
X624993D01*
Y142666D01*
X625458D01*
Y143131D01*
D02*
G37*
G36*
X592422D02*
X591957D01*
Y142666D01*
X592422D01*
Y143131D01*
D02*
G37*
G36*
X685480Y142666D02*
X685015D01*
Y142201D01*
X685480D01*
Y142666D01*
D02*
G37*
G36*
X678501D02*
X678035D01*
Y142201D01*
X678501D01*
Y142666D01*
D02*
G37*
G36*
X624527D02*
X623131D01*
Y142201D01*
X624527D01*
Y142666D01*
D02*
G37*
G36*
X610103Y143597D02*
X604055D01*
Y143131D01*
X604985D01*
Y142666D01*
X606846D01*
Y142201D01*
X607312D01*
Y142666D01*
X609173D01*
Y143131D01*
X610103D01*
Y143597D01*
D02*
G37*
G36*
X551942Y143131D02*
X551477D01*
Y142666D01*
Y142201D01*
X551942D01*
Y143131D01*
D02*
G37*
G36*
X685015Y142201D02*
X684549D01*
Y141736D01*
X685015D01*
Y142201D01*
D02*
G37*
G36*
X576603Y142666D02*
X576137D01*
Y141736D01*
X576603D01*
Y142201D01*
Y142666D01*
D02*
G37*
G36*
X571019D02*
X570554D01*
Y141736D01*
X571019D01*
Y142666D01*
D02*
G37*
G36*
X684549Y141736D02*
X684084D01*
Y141270D01*
X684549D01*
Y141736D01*
D02*
G37*
G36*
X678035Y142201D02*
X677570D01*
Y141270D01*
X678035D01*
Y142201D01*
D02*
G37*
G36*
X638951Y141736D02*
X638486D01*
Y141270D01*
X638951D01*
Y141736D01*
D02*
G37*
G36*
X684084Y141270D02*
X683619D01*
Y140805D01*
X684084D01*
Y141270D01*
D02*
G37*
G36*
X677570D02*
X677105D01*
Y140805D01*
X677570D01*
Y141270D01*
D02*
G37*
G36*
X673383Y141736D02*
X672917D01*
Y140805D01*
X673383D01*
Y141270D01*
Y141736D01*
D02*
G37*
G36*
X643604Y141270D02*
X643139D01*
Y140805D01*
X643604D01*
Y141270D01*
D02*
G37*
G36*
X633833Y141736D02*
X633368D01*
Y141270D01*
X632437D01*
Y140805D01*
X631507D01*
Y141270D01*
X631041D01*
Y140340D01*
X631507D01*
Y139874D01*
X632437D01*
Y140340D01*
X632902D01*
Y140805D01*
X633833D01*
Y141736D01*
D02*
G37*
G36*
X576603Y141270D02*
X576137D01*
Y140805D01*
X576603D01*
Y141270D01*
D02*
G37*
G36*
X683619Y140805D02*
X683154D01*
Y140340D01*
X683619D01*
Y140805D01*
D02*
G37*
G36*
X677105D02*
X676640D01*
Y140340D01*
X677105D01*
Y140805D01*
D02*
G37*
G36*
X584047D02*
X583582D01*
Y140340D01*
X584047D01*
Y140805D01*
D02*
G37*
G36*
X573346Y144062D02*
X572415D01*
Y140805D01*
X573346D01*
Y140340D01*
X574742D01*
Y140805D01*
Y141270D01*
X574276D01*
Y143597D01*
X573346D01*
Y144062D01*
D02*
G37*
G36*
X672917Y140805D02*
X672452D01*
Y139874D01*
X672917D01*
Y140805D01*
D02*
G37*
G36*
X551942Y157555D02*
X550546D01*
Y156625D01*
X551942D01*
Y156159D01*
X553803D01*
Y155694D01*
X555199D01*
Y155229D01*
X556595D01*
Y154764D01*
X557991D01*
Y154298D01*
X559852D01*
Y153833D01*
X561248D01*
Y153368D01*
X563109D01*
Y152902D01*
X564040D01*
Y152437D01*
X565436D01*
Y151972D01*
X567297D01*
Y151507D01*
X569158D01*
Y151041D01*
X570554D01*
Y150576D01*
X571950D01*
Y150111D01*
X572880D01*
Y149646D01*
X574742D01*
Y149180D01*
X576603D01*
Y148715D01*
X577999D01*
Y148250D01*
X579860D01*
Y147784D01*
X580790D01*
Y147319D01*
X582186D01*
Y146854D01*
X584047D01*
Y146389D01*
X585443D01*
Y145923D01*
X587304D01*
Y145458D01*
X588235D01*
Y144993D01*
X590096D01*
Y144527D01*
X591492D01*
Y144062D01*
X593353D01*
Y143597D01*
X594749D01*
Y143131D01*
X596145D01*
Y142666D01*
X597541D01*
Y142201D01*
X598937D01*
Y141736D01*
X600798D01*
Y141270D01*
X602659D01*
Y140805D01*
X604055D01*
Y140340D01*
X605451D01*
Y139874D01*
X606381D01*
Y139409D01*
X607312D01*
Y139874D01*
X608708D01*
Y140340D01*
X609173D01*
Y140805D01*
X607312D01*
Y141270D01*
X605451D01*
Y141736D01*
X603589D01*
Y142201D01*
X602193D01*
Y142666D01*
X600798D01*
Y143131D01*
X599402D01*
Y143597D01*
X597541D01*
Y144062D01*
X596145D01*
Y144527D01*
X594284D01*
Y144993D01*
X592888D01*
Y145458D01*
X591492D01*
Y145923D01*
X590096D01*
Y146389D01*
X588235D01*
Y146854D01*
X586839D01*
Y147319D01*
X584978D01*
Y147784D01*
X584047D01*
Y148250D01*
X582186D01*
Y148715D01*
X580325D01*
Y149180D01*
X578929D01*
Y149646D01*
X577068D01*
Y150111D01*
X575672D01*
Y150576D01*
X574742D01*
Y151041D01*
X572880D01*
Y151507D01*
X570554D01*
Y151972D01*
X569158D01*
Y152437D01*
X567762D01*
Y152902D01*
X566366D01*
Y153368D01*
X564970D01*
Y153833D01*
X563109D01*
Y154298D01*
X561713D01*
Y154764D01*
X559852D01*
Y155229D01*
X558456D01*
Y155694D01*
X557061D01*
Y156159D01*
X555199D01*
Y156625D01*
X553338D01*
Y157090D01*
X551942D01*
Y157555D01*
D02*
G37*
G36*
X600332Y140340D02*
X599867D01*
Y139874D01*
X600332D01*
Y139409D01*
X601263D01*
Y139874D01*
X600332D01*
Y140340D01*
D02*
G37*
G36*
X571484Y141270D02*
X570554D01*
Y140340D01*
Y139874D01*
X571484D01*
Y139409D01*
X571950D01*
Y139874D01*
X571484D01*
Y141270D01*
D02*
G37*
G36*
X683154Y140340D02*
X682688D01*
Y139874D01*
X682223D01*
Y139409D01*
X681758D01*
Y138944D01*
X682223D01*
X682688Y139409D01*
X683154D01*
Y140340D01*
D02*
G37*
G36*
X676640Y139874D02*
X676174D01*
Y138944D01*
X676640D01*
Y139874D01*
D02*
G37*
G36*
X629646Y140805D02*
X626854D01*
Y140340D01*
X626389D01*
Y139409D01*
X627319D01*
Y138944D01*
X627784D01*
Y139409D01*
X629646D01*
Y140805D01*
D02*
G37*
G36*
X599867Y139409D02*
X598937D01*
Y138944D01*
X599867D01*
Y139409D01*
D02*
G37*
G36*
X681758Y138944D02*
X681292D01*
Y138479D01*
X681758D01*
Y138944D01*
D02*
G37*
G36*
X676174D02*
X675709D01*
Y138479D01*
X676174D01*
Y138944D01*
D02*
G37*
G36*
X672452D02*
X671987D01*
Y138479D01*
X672452D01*
Y138944D01*
D02*
G37*
G36*
X646396Y140805D02*
X645465D01*
Y140340D01*
X645000D01*
Y139874D01*
X644535D01*
Y139409D01*
X646861D01*
Y138944D01*
X647326D01*
Y138479D01*
X647792D01*
Y138944D01*
X648257D01*
Y139409D01*
X647792D01*
Y139874D01*
X647326D01*
Y140340D01*
X646396D01*
Y140805D01*
D02*
G37*
G36*
X631507Y139874D02*
X631041D01*
Y138479D01*
X631507D01*
Y139874D01*
D02*
G37*
G36*
X572880Y139409D02*
X572415D01*
Y138479D01*
X572880D01*
Y139409D01*
D02*
G37*
G36*
X571484D02*
X571019D01*
Y138479D01*
X571484D01*
Y139409D01*
D02*
G37*
G36*
X631041Y138479D02*
X630576D01*
Y138013D01*
X631041D01*
Y138479D01*
D02*
G37*
G36*
X675709Y138013D02*
X675244D01*
Y137548D01*
X675709D01*
Y138013D01*
D02*
G37*
G36*
X671987D02*
X671521D01*
Y137548D01*
X671987D01*
Y138013D01*
D02*
G37*
G36*
X658959Y138944D02*
X658028D01*
Y138479D01*
X657563D01*
Y138013D01*
X658028D01*
Y137548D01*
X658959D01*
Y138013D01*
Y138944D01*
D02*
G37*
G36*
X639882Y139874D02*
X638486D01*
Y139409D01*
X638021D01*
Y138944D01*
X638951D01*
Y138013D01*
X639417D01*
Y137548D01*
X639882D01*
Y139874D01*
D02*
G37*
G36*
X630111Y138013D02*
X628715D01*
Y137548D01*
X630111D01*
Y138013D01*
D02*
G37*
G36*
X680827D02*
X680362D01*
Y137083D01*
X680827D01*
Y137548D01*
Y138013D01*
D02*
G37*
G36*
X646396D02*
X645931D01*
Y137548D01*
X646396D01*
Y137083D01*
X646861D01*
Y137548D01*
X646396D01*
Y138013D01*
D02*
G37*
G36*
X604520Y137548D02*
X604055D01*
Y137083D01*
X604520D01*
Y137548D01*
D02*
G37*
G36*
X680362Y137083D02*
X679897D01*
Y136617D01*
X680362D01*
Y137083D01*
D02*
G37*
G36*
X675244D02*
X674778D01*
Y136617D01*
X675244D01*
Y137083D01*
D02*
G37*
G36*
X575672D02*
X575207D01*
Y136617D01*
X575672D01*
Y137083D01*
D02*
G37*
G36*
X571484D02*
X571019D01*
Y136617D01*
X571484D01*
Y137083D01*
D02*
G37*
G36*
X688737D02*
X687341D01*
Y136152D01*
X688737D01*
Y137083D01*
D02*
G37*
G36*
X635694Y139409D02*
X633833D01*
Y138944D01*
X632902D01*
Y138479D01*
X633833D01*
Y138013D01*
X634298D01*
Y137548D01*
X634764D01*
Y137083D01*
X635229D01*
Y136617D01*
X635694D01*
Y136152D01*
X637090D01*
Y136617D01*
X638486D01*
Y137548D01*
X638021D01*
Y138013D01*
X637555D01*
Y138479D01*
X637090D01*
Y138944D01*
X635694D01*
Y139409D01*
D02*
G37*
G36*
X619874Y137083D02*
X619409D01*
Y136152D01*
X619874D01*
Y137083D01*
D02*
G37*
G36*
X610103Y139409D02*
X608242D01*
Y138944D01*
X607312D01*
Y138479D01*
X607777D01*
Y136152D01*
X609173D01*
Y136617D01*
X610103D01*
Y137083D01*
Y137548D01*
Y139409D01*
D02*
G37*
G36*
X687341Y136152D02*
X686411D01*
Y135687D01*
X687341D01*
Y136152D01*
D02*
G37*
G36*
X674778Y136617D02*
X674313D01*
Y135687D01*
X674778D01*
Y136617D01*
D02*
G37*
G36*
X676640Y147319D02*
X675709D01*
Y145923D01*
X675244D01*
Y144527D01*
X674778D01*
Y143597D01*
X674313D01*
Y141736D01*
X673848D01*
Y141270D01*
Y140805D01*
Y139874D01*
X673383D01*
Y138479D01*
X672917D01*
Y137548D01*
X672452D01*
Y135687D01*
X673383D01*
Y136152D01*
X673848D01*
Y137083D01*
X674313D01*
Y138013D01*
X674778D01*
Y138944D01*
X675244D01*
Y139409D01*
X675709D01*
Y140340D01*
X676174D01*
Y141270D01*
X676640D01*
Y142201D01*
X677105D01*
Y142666D01*
X677570D01*
Y143597D01*
X678035D01*
Y144527D01*
X678501D01*
Y145458D01*
X678035D01*
Y145923D01*
X677570D01*
Y146389D01*
X677105D01*
Y146854D01*
X676640D01*
Y147319D01*
D02*
G37*
G36*
X645465Y137083D02*
X643139D01*
Y136617D01*
X642674D01*
Y136152D01*
X644535D01*
Y135687D01*
X645465D01*
Y137083D01*
D02*
G37*
G36*
X629180Y136152D02*
X628715D01*
Y135687D01*
X629180D01*
Y136152D01*
D02*
G37*
G36*
X625923Y136617D02*
X624993D01*
Y136152D01*
X625923D01*
Y135687D01*
X626854D01*
Y136152D01*
X625923D01*
Y136617D01*
D02*
G37*
G36*
X571950Y136152D02*
X571484D01*
Y135687D01*
X571950D01*
Y136152D01*
D02*
G37*
G36*
X686411Y135687D02*
X685945D01*
Y135222D01*
X686411D01*
Y135687D01*
D02*
G37*
G36*
X678966D02*
X678501D01*
Y135222D01*
X678966D01*
Y135687D01*
D02*
G37*
G36*
X671521Y136152D02*
X671056D01*
Y135222D01*
X671521D01*
Y135687D01*
Y136152D01*
D02*
G37*
G36*
X632902Y135687D02*
X632437D01*
Y135222D01*
X632902D01*
Y135687D01*
D02*
G37*
G36*
X629180Y142201D02*
X625458D01*
Y141736D01*
X624062D01*
Y141270D01*
X623131D01*
Y140805D01*
X622201D01*
Y140340D01*
X621736D01*
Y139874D01*
X620805D01*
Y139409D01*
X620340D01*
Y138944D01*
X619874D01*
Y138479D01*
X619409D01*
Y138013D01*
X620340D01*
Y137548D01*
X620805D01*
Y135687D01*
X619874D01*
Y135222D01*
X619409D01*
Y135687D01*
X618944D01*
Y136152D01*
X618479D01*
Y136617D01*
X618944D01*
Y137548D01*
X619409D01*
Y138013D01*
X618479D01*
Y137083D01*
X618013D01*
Y136617D01*
X617548D01*
Y136152D01*
X617083D01*
Y135687D01*
X616617D01*
Y134756D01*
X616152D01*
Y134291D01*
X615687D01*
Y133826D01*
X615222D01*
Y132895D01*
X614756D01*
Y131965D01*
X614291D01*
Y130569D01*
X613826D01*
Y129638D01*
X613360D01*
Y128708D01*
X612895D01*
Y126846D01*
X612430D01*
Y124985D01*
X611964D01*
Y116145D01*
X612430D01*
Y113818D01*
X612895D01*
Y111957D01*
X613360D01*
Y111027D01*
X613826D01*
Y110561D01*
X614291D01*
Y111492D01*
X614756D01*
Y110561D01*
X615687D01*
Y111492D01*
X614756D01*
Y111957D01*
X615222D01*
Y112422D01*
X616152D01*
Y111957D01*
X616617D01*
Y112888D01*
X616152D01*
Y113818D01*
X615687D01*
Y115214D01*
X615222D01*
Y117075D01*
X614756D01*
Y124520D01*
X615222D01*
Y125916D01*
X614756D01*
Y125450D01*
X613360D01*
Y125916D01*
X612895D01*
Y126381D01*
X613360D01*
Y127777D01*
X613826D01*
Y128242D01*
X614756D01*
Y127777D01*
X615222D01*
Y126846D01*
X615687D01*
Y128242D01*
X616152D01*
Y129173D01*
X615687D01*
Y130103D01*
X615222D01*
Y131965D01*
X615687D01*
Y132430D01*
X616152D01*
Y132895D01*
X616617D01*
Y133360D01*
X617548D01*
Y133826D01*
X619409D01*
Y134291D01*
X619874D01*
Y134756D01*
X620340D01*
Y135222D01*
X620805D01*
Y135687D01*
X621270D01*
Y136152D01*
X621736D01*
Y136617D01*
X622201D01*
Y137083D01*
X623131D01*
Y137548D01*
X623597D01*
Y138013D01*
X624527D01*
Y138479D01*
X625458D01*
Y138944D01*
X625923D01*
Y141736D01*
X629180D01*
Y142201D01*
D02*
G37*
G36*
X685945Y135222D02*
X685480D01*
Y134756D01*
X685945D01*
Y135222D01*
D02*
G37*
G36*
X678501D02*
X678035D01*
Y134756D01*
X678501D01*
Y135222D01*
D02*
G37*
G36*
X674313Y135687D02*
X673848D01*
Y134756D01*
X674313D01*
Y135687D01*
D02*
G37*
G36*
X659424Y136617D02*
X658959D01*
Y136152D01*
X659424D01*
Y135222D01*
X659889D01*
Y134756D01*
X660355D01*
Y135687D01*
X659889D01*
Y136152D01*
X659424D01*
Y136617D01*
D02*
G37*
G36*
X627784Y135687D02*
X627319D01*
Y135222D01*
X627784D01*
Y134756D01*
X628250D01*
Y135222D01*
X627784Y135687D01*
D02*
G37*
G36*
X678035Y134756D02*
X677570D01*
Y134291D01*
X678035D01*
Y134756D01*
D02*
G37*
G36*
X671056Y150111D02*
X665473D01*
Y149646D01*
X663612D01*
Y149180D01*
X662681D01*
Y148715D01*
X661750D01*
Y148250D01*
X660820D01*
Y147784D01*
X660355D01*
Y147319D01*
X659424D01*
Y146854D01*
X658959D01*
Y146389D01*
X658493D01*
Y145923D01*
X657563D01*
Y145458D01*
X657097D01*
Y144993D01*
X656632D01*
Y144527D01*
X656167D01*
Y144062D01*
X655702D01*
Y143597D01*
X655236D01*
Y142666D01*
X654771D01*
Y142201D01*
X654306D01*
Y141270D01*
X653840D01*
Y140805D01*
X653375D01*
Y140340D01*
X652910D01*
Y139409D01*
X652445D01*
Y138944D01*
X651979D01*
Y138013D01*
X651514D01*
Y137083D01*
X651049D01*
Y136152D01*
X650583D01*
Y134756D01*
X650118D01*
Y133826D01*
X649653D01*
Y132895D01*
X649188D01*
Y131499D01*
X648722D01*
Y129638D01*
X648257D01*
Y128242D01*
X647792D01*
Y125916D01*
X647326D01*
Y122193D01*
X646861D01*
Y115679D01*
X647326D01*
Y111492D01*
X647792D01*
Y110096D01*
X648257D01*
Y108235D01*
X648722D01*
Y106839D01*
X649188D01*
Y105443D01*
X649653D01*
Y104513D01*
X650118D01*
Y104978D01*
X650583D01*
Y105443D01*
X651049D01*
Y104513D01*
X651514D01*
Y105443D01*
X651979D01*
Y105908D01*
X651514D01*
Y106839D01*
X651979D01*
Y107304D01*
X652445D01*
Y107770D01*
X652910D01*
Y108235D01*
X653375D01*
Y108700D01*
X653840D01*
Y109165D01*
X654306D01*
Y110096D01*
X654771D01*
Y110561D01*
X655236D01*
Y111027D01*
X655702D01*
Y111492D01*
X656167D01*
Y111957D01*
X656632D01*
Y112422D01*
X657097D01*
Y113353D01*
X657563D01*
Y114749D01*
X657097D01*
Y116145D01*
X656632D01*
Y125450D01*
X657097D01*
Y126846D01*
X657563D01*
Y128708D01*
X657097D01*
Y129173D01*
X656167D01*
Y129638D01*
X655702D01*
Y130103D01*
X655236D01*
Y130569D01*
X653375D01*
Y131034D01*
X652910D01*
Y132895D01*
X653375D01*
Y133360D01*
X655236D01*
Y132895D01*
X655702D01*
Y131965D01*
X656167D01*
Y131034D01*
X657097D01*
Y130569D01*
X657563D01*
Y130103D01*
X658959D01*
Y129173D01*
X659424D01*
Y128708D01*
X660355D01*
Y128242D01*
X660820D01*
Y127777D01*
X661285D01*
Y127312D01*
X661750D01*
Y126846D01*
X662681D01*
Y126381D01*
X663612D01*
Y125916D01*
X664077D01*
Y126846D01*
X663612D01*
Y127312D01*
X663146D01*
Y128242D01*
X662681D01*
Y129173D01*
X662216D01*
Y129638D01*
X661750D01*
Y131034D01*
X661285D01*
Y131965D01*
X660355D01*
Y131499D01*
X659889D01*
Y131034D01*
X659424D01*
Y131965D01*
X659889D01*
Y132430D01*
X660355D01*
Y133360D01*
X659889D01*
Y134291D01*
X659424D01*
Y134756D01*
X658959D01*
Y135687D01*
X658493D01*
Y136617D01*
X658028D01*
Y137083D01*
X657097D01*
Y138013D01*
X656632D01*
Y138944D01*
X657097D01*
Y139409D01*
X657563D01*
Y139874D01*
X658959D01*
Y139409D01*
X659424D01*
Y137083D01*
X659889D01*
Y136617D01*
X660355D01*
Y135687D01*
X660820D01*
Y134756D01*
X661285D01*
Y134291D01*
X661750D01*
Y134756D01*
X662681D01*
Y135687D01*
X663612D01*
Y136152D01*
X664542D01*
Y136617D01*
X665938D01*
Y137083D01*
X671056D01*
Y138479D01*
X671521D01*
Y140340D01*
X671987D01*
Y141736D01*
X672452D01*
Y143131D01*
X672917D01*
Y144062D01*
X673383D01*
Y145458D01*
X673848D01*
Y147319D01*
X674313D01*
Y148715D01*
X673848D01*
Y149180D01*
X672452D01*
Y149646D01*
X671056D01*
Y150111D01*
D02*
G37*
G36*
X641278Y135222D02*
X640812D01*
Y134756D01*
X640347D01*
Y134291D01*
X641278D01*
Y135222D01*
D02*
G37*
G36*
X624527Y134756D02*
X624062D01*
Y134291D01*
X624527D01*
Y134756D01*
D02*
G37*
G36*
X622666D02*
X622201D01*
Y134291D01*
X622666D01*
Y134756D01*
D02*
G37*
G36*
X577068Y144527D02*
X575672D01*
Y144062D01*
X577068D01*
Y143597D01*
X577999D01*
Y143131D01*
X580325D01*
Y142666D01*
X581255D01*
Y142201D01*
X582651D01*
Y141736D01*
X584047D01*
Y141270D01*
X585443D01*
Y140805D01*
X584512D01*
Y140340D01*
X584978D01*
Y139874D01*
X583582D01*
Y138944D01*
X584047D01*
Y138479D01*
X585443D01*
Y139409D01*
X585908D01*
Y139874D01*
X585443D01*
Y140805D01*
X585908D01*
Y140340D01*
Y139874D01*
X586374D01*
Y140340D01*
X587304D01*
Y139874D01*
X588235D01*
Y140340D01*
X588700D01*
Y139874D01*
X589631D01*
Y139409D01*
X591492D01*
Y138944D01*
X592888D01*
Y138479D01*
X593818D01*
Y137548D01*
X593353D01*
Y137083D01*
X594284D01*
Y136617D01*
X594749D01*
Y137083D01*
X594284D01*
Y138013D01*
X595214D01*
Y137548D01*
X596610D01*
Y137083D01*
X597541D01*
Y136617D01*
X599867D01*
Y136152D01*
X601263D01*
Y135687D01*
X601728D01*
Y135222D01*
X601263D01*
Y134291D01*
X601728D01*
Y133826D01*
X602659D01*
Y134756D01*
X602193D01*
Y135687D01*
X602659D01*
Y135222D01*
X603124D01*
Y134291D01*
X603589D01*
Y135687D01*
X603124D01*
Y136152D01*
X601728D01*
Y136617D01*
X599867D01*
Y137083D01*
X598471D01*
Y137548D01*
X597541D01*
Y138013D01*
X595680D01*
Y138479D01*
X594284D01*
Y138944D01*
X592888D01*
Y139409D01*
X591492D01*
Y139874D01*
X590561D01*
Y140340D01*
X589165D01*
Y140805D01*
X586839D01*
Y141270D01*
X585443D01*
Y141736D01*
X584047D01*
Y142201D01*
X582651D01*
Y142666D01*
X581721D01*
Y143131D01*
X580325D01*
Y143597D01*
X578929D01*
Y144062D01*
X577068D01*
Y144527D01*
D02*
G37*
G36*
Y136152D02*
X575672D01*
Y135687D01*
X575207D01*
Y135222D01*
X576603D01*
Y134291D01*
X577068D01*
Y136152D01*
D02*
G37*
G36*
X677570Y134291D02*
X677105D01*
Y133826D01*
X677570D01*
Y134291D01*
D02*
G37*
G36*
X673848Y134756D02*
X673383D01*
Y133826D01*
X673848D01*
Y134756D01*
D02*
G37*
G36*
X671056Y134291D02*
X670591D01*
Y133826D01*
X671056D01*
Y134291D01*
D02*
G37*
G36*
X645000D02*
X644535D01*
Y133826D01*
X645000D01*
Y134291D01*
D02*
G37*
G36*
X625923Y134756D02*
X625458D01*
Y134291D01*
X625923D01*
Y133826D01*
X626389D01*
Y134291D01*
X625923D01*
Y134756D01*
D02*
G37*
G36*
X622201Y134291D02*
X621736D01*
Y133826D01*
X622201D01*
Y134291D01*
D02*
G37*
G36*
X677105Y133826D02*
X676640D01*
Y133360D01*
X677105D01*
Y133826D01*
D02*
G37*
G36*
X679897Y143597D02*
X679431D01*
Y142666D01*
X678966D01*
Y141736D01*
X678501D01*
Y140805D01*
X678035D01*
Y140340D01*
X677570D01*
Y139409D01*
X677105D01*
Y138479D01*
X676640D01*
Y137548D01*
X676174D01*
Y136617D01*
X675709D01*
Y135687D01*
X675244D01*
Y135222D01*
X674778D01*
Y134291D01*
X674313D01*
Y133826D01*
X674778D01*
Y133360D01*
X675709D01*
Y133826D01*
X676174D01*
Y134291D01*
X676640D01*
Y134756D01*
X677105D01*
Y135222D01*
X677570D01*
Y135687D01*
X678035D01*
Y136152D01*
X678501D01*
Y136617D01*
X678966D01*
Y137083D01*
X679431D01*
Y138013D01*
X679897D01*
Y138479D01*
X680827D01*
Y139409D01*
X681292D01*
Y139874D01*
X681758D01*
Y140340D01*
X681292D01*
Y141270D01*
X680827D01*
Y142201D01*
X680362D01*
Y142666D01*
X679897D01*
Y143131D01*
Y143597D01*
D02*
G37*
G36*
X673383Y133826D02*
X672917D01*
Y133360D01*
X673383D01*
Y133826D01*
D02*
G37*
G36*
X621270D02*
X620805D01*
Y133360D01*
X621270D01*
Y133826D01*
D02*
G37*
G36*
X676640Y133360D02*
X676174D01*
Y132895D01*
X676640D01*
Y133360D01*
D02*
G37*
G36*
X672452Y135222D02*
X671987D01*
Y134756D01*
X671521D01*
Y133360D01*
Y132895D01*
X671987D01*
Y133826D01*
X672452D01*
Y135222D01*
D02*
G37*
G36*
X624062Y133360D02*
X623131D01*
Y132895D01*
X624062D01*
Y133360D01*
D02*
G37*
G36*
X682223Y132895D02*
X681758D01*
Y132430D01*
X682223D01*
Y132895D01*
D02*
G37*
G36*
X676174D02*
X675709D01*
Y132430D01*
X676174D01*
Y132895D01*
D02*
G37*
G36*
X672917Y133360D02*
X672452D01*
Y132430D01*
X672917D01*
Y133360D01*
D02*
G37*
G36*
X638486Y132895D02*
X638021D01*
Y132430D01*
X638486D01*
Y132895D01*
D02*
G37*
G36*
X622201D02*
X621736D01*
Y132430D01*
X622201D01*
Y132895D01*
D02*
G37*
G36*
X571950D02*
X571484D01*
Y132430D01*
X571950D01*
Y132895D01*
D02*
G37*
G36*
X681292Y132430D02*
X680827D01*
Y131965D01*
X681292D01*
Y132430D01*
D02*
G37*
G36*
X670591Y133360D02*
X670126D01*
Y131965D01*
X670591D01*
Y133360D01*
D02*
G37*
G36*
X638021Y135222D02*
X637090D01*
Y134756D01*
X635694D01*
Y134291D01*
X634298D01*
Y133826D01*
X632437D01*
Y133360D01*
X631041D01*
Y132895D01*
X629646D01*
Y132430D01*
X628250D01*
Y131965D01*
X627319D01*
Y131499D01*
X626854D01*
Y130569D01*
X627319D01*
Y130103D01*
X628250D01*
Y129638D01*
X627784D01*
Y129173D01*
X628715D01*
Y129638D01*
X629180D01*
Y129173D01*
X629646D01*
Y129638D01*
X631041D01*
Y130103D01*
X631972D01*
Y130569D01*
X630576D01*
Y130103D01*
X630111D01*
Y130569D01*
X630576D01*
Y131034D01*
X631507D01*
Y131499D01*
X632902D01*
Y131965D01*
X634764D01*
Y132430D01*
X635694D01*
Y131965D01*
X636625D01*
Y132430D01*
X637090D01*
Y131965D01*
X637555D01*
Y132430D01*
X637090D01*
Y132895D01*
X637555D01*
Y133360D01*
X638021D01*
Y135222D01*
D02*
G37*
G36*
X680827Y131965D02*
X680362D01*
Y131499D01*
X680827D01*
Y131965D01*
D02*
G37*
G36*
X675709D02*
X675244D01*
Y131499D01*
X675709D01*
Y131965D01*
D02*
G37*
G36*
X672452Y132430D02*
X671987D01*
Y131499D01*
X672452D01*
Y132430D01*
D02*
G37*
G36*
X662216Y131965D02*
X661750D01*
Y131499D01*
X662216D01*
Y131965D01*
D02*
G37*
G36*
X654306Y132895D02*
X653840D01*
Y131499D01*
X655236D01*
Y131965D01*
Y132430D01*
X654306D01*
Y132895D01*
D02*
G37*
G36*
X605916Y131499D02*
X605451D01*
Y131034D01*
X605916D01*
Y131499D01*
D02*
G37*
G36*
X576603Y131965D02*
X576137D01*
Y131034D01*
X576603D01*
Y131965D01*
D02*
G37*
G36*
X674778Y131034D02*
X674313D01*
Y130569D01*
X674778D01*
Y131034D01*
D02*
G37*
G36*
X674313Y133360D02*
X673848D01*
Y132430D01*
X673383D01*
Y131499D01*
X672917D01*
Y131034D01*
Y130569D01*
X673383D01*
Y131034D01*
X673848D01*
Y131965D01*
X674313D01*
Y133360D01*
D02*
G37*
G36*
X671987Y131499D02*
X671521D01*
Y130569D01*
X671987D01*
Y131499D01*
D02*
G37*
G36*
X670126Y131965D02*
X669660D01*
Y130569D01*
X670126D01*
Y131965D01*
D02*
G37*
G36*
X632902Y131034D02*
X631972D01*
Y130569D01*
X632902D01*
Y131034D01*
D02*
G37*
G36*
X678501Y130569D02*
X678035D01*
Y130103D01*
X678501D01*
Y130569D01*
D02*
G37*
G36*
X682223Y138013D02*
X681758D01*
Y137548D01*
X681292D01*
Y136617D01*
X680827D01*
Y136152D01*
X680362D01*
Y135687D01*
X679897D01*
Y135222D01*
X679431D01*
Y134756D01*
X678966D01*
Y134291D01*
X678501D01*
Y133826D01*
X678035D01*
Y133360D01*
X677570D01*
Y132895D01*
X677105D01*
Y131965D01*
X676640D01*
Y131499D01*
X676174D01*
Y130103D01*
X676640D01*
Y130569D01*
X677570D01*
Y131034D01*
X678501D01*
Y131499D01*
X678966D01*
Y131965D01*
X679897D01*
Y132430D01*
X680362D01*
Y132895D01*
X681292D01*
Y133360D01*
X681758D01*
Y133826D01*
X682688D01*
Y134291D01*
X683154D01*
Y136617D01*
X682688D01*
Y137548D01*
X682223D01*
Y138013D01*
D02*
G37*
G36*
X674313Y130569D02*
X673848D01*
Y130103D01*
X674313D01*
Y130569D01*
D02*
G37*
G36*
X618479D02*
X618013D01*
Y130103D01*
X618479D01*
Y130569D01*
D02*
G37*
G36*
X678035Y130103D02*
X677570D01*
Y129638D01*
X678035D01*
Y130103D01*
D02*
G37*
G36*
X673848D02*
X673383D01*
Y129638D01*
X673848D01*
Y130103D01*
D02*
G37*
G36*
X671521Y130569D02*
X671056D01*
Y129638D01*
X671521D01*
Y130569D01*
D02*
G37*
G36*
X669660D02*
X669195D01*
Y129638D01*
X669660D01*
Y130569D01*
D02*
G37*
G36*
X656632D02*
X656167D01*
Y130103D01*
X656632D01*
Y129638D01*
X657097D01*
Y130103D01*
X656632D01*
Y130569D01*
D02*
G37*
G36*
X619874Y132430D02*
X618944D01*
Y131965D01*
X619409D01*
Y131499D01*
X619874Y131034D01*
Y130103D01*
X620340D01*
Y129638D01*
X620805D01*
Y131034D01*
X620340D01*
Y131499D01*
X619874D01*
Y132430D01*
D02*
G37*
G36*
X623131Y142201D02*
X621736D01*
Y141736D01*
X620805D01*
Y141270D01*
X619874D01*
Y140805D01*
X618944D01*
Y140340D01*
X618479D01*
Y139874D01*
X618013D01*
Y139409D01*
X617083D01*
Y138944D01*
X616617D01*
Y138479D01*
X616152D01*
Y138013D01*
X615687D01*
Y137083D01*
X615222D01*
Y136617D01*
X614756D01*
Y136152D01*
X614291D01*
Y135687D01*
X613826D01*
Y134756D01*
X613360D01*
Y133826D01*
X612895D01*
Y133360D01*
X612430D01*
Y132895D01*
Y132430D01*
Y131965D01*
X611964D01*
Y131034D01*
X611499D01*
Y129638D01*
X612430D01*
Y130103D01*
X612895D01*
Y131034D01*
X613360D01*
Y131965D01*
X613826D01*
Y132895D01*
X614291D01*
Y133826D01*
X614756D01*
Y134291D01*
X615222D01*
Y135222D01*
X615687D01*
Y135687D01*
X616152D01*
Y136617D01*
X616617D01*
Y137083D01*
X617083D01*
Y137548D01*
X617548D01*
Y138013D01*
X618013D01*
Y138479D01*
X618479D01*
Y138944D01*
X618944D01*
Y139409D01*
X619409D01*
Y139874D01*
X619874D01*
Y140340D01*
X620340D01*
Y140805D01*
X621270D01*
Y141270D01*
X622201D01*
Y141736D01*
X623131D01*
Y142201D01*
D02*
G37*
G36*
X594284Y131965D02*
X593818D01*
Y129638D01*
X594284D01*
Y130103D01*
Y130569D01*
Y131965D01*
D02*
G37*
G36*
X677570Y129638D02*
X676640D01*
Y129173D01*
X677570D01*
Y129638D01*
D02*
G37*
G36*
X673383D02*
X672917D01*
Y129173D01*
X673383D01*
Y129638D01*
D02*
G37*
G36*
X676640Y129173D02*
X676174D01*
Y128708D01*
X676640D01*
Y129173D01*
D02*
G37*
G36*
X675709Y130569D02*
X675244D01*
Y130103D01*
X674778D01*
Y129638D01*
X674313D01*
Y129173D01*
X673848D01*
Y128708D01*
X674778D01*
Y129173D01*
X675709D01*
Y130569D01*
D02*
G37*
G36*
X672917Y129173D02*
X672452D01*
Y128708D01*
X672917D01*
Y129173D01*
D02*
G37*
G36*
X658028Y129638D02*
X657563D01*
Y129173D01*
X658028Y128708D01*
X658493D01*
Y129173D01*
X658028D01*
Y129638D01*
D02*
G37*
G36*
X624993Y130569D02*
X624527D01*
Y130103D01*
X623597D01*
Y129173D01*
X624062D01*
Y128708D01*
X624993D01*
Y129173D01*
X624527D01*
Y129638D01*
X624993D01*
Y130569D01*
D02*
G37*
G36*
X618013Y130103D02*
X617548D01*
Y129638D01*
X618013D01*
Y129173D01*
X618479D01*
Y128708D01*
X618944D01*
Y129173D01*
X618479D01*
Y129638D01*
X618013D01*
Y130103D01*
D02*
G37*
G36*
X605916Y129173D02*
X605451D01*
Y128708D01*
X605916D01*
Y129173D01*
D02*
G37*
G36*
X676174Y128708D02*
X675244D01*
Y128242D01*
X676174D01*
Y128708D01*
D02*
G37*
G36*
X673848D02*
X673383D01*
Y128242D01*
X673848D01*
Y128708D01*
D02*
G37*
G36*
X672452D02*
X671987D01*
Y128242D01*
X672452D01*
Y128708D01*
D02*
G37*
G36*
X669195Y129173D02*
X668730D01*
Y128242D01*
X669195D01*
Y129173D01*
D02*
G37*
G36*
X659889Y128242D02*
X659424D01*
Y127777D01*
X659889D01*
Y128242D01*
D02*
G37*
G36*
X643139Y130569D02*
X642674D01*
Y130103D01*
X642208D01*
Y129638D01*
Y129173D01*
Y127777D01*
X642674D01*
Y128708D01*
X643139D01*
Y129173D01*
X643604D01*
Y130103D01*
X643139D01*
Y130569D01*
D02*
G37*
G36*
X620340Y129638D02*
X619874D01*
Y129173D01*
X619409D01*
Y128242D01*
X619874D01*
Y127777D01*
X621270D01*
Y128242D01*
X620805D01*
Y129173D01*
X620340D01*
Y129638D01*
D02*
G37*
G36*
X675244Y128242D02*
X674313D01*
Y127777D01*
X673848D01*
Y127312D01*
X674778D01*
Y127777D01*
X675244D01*
Y128242D01*
D02*
G37*
G36*
X670126Y136617D02*
X666403D01*
Y136152D01*
X665007D01*
Y135687D01*
X664077D01*
Y135222D01*
X663612D01*
Y134756D01*
X663146D01*
Y134291D01*
X662216D01*
Y133826D01*
X661750D01*
Y133360D01*
X662216D01*
Y132430D01*
X662681D01*
Y131499D01*
X663146D01*
Y131034D01*
X663612D01*
Y130103D01*
X664077D01*
Y129173D01*
X664542D01*
Y128242D01*
X665007D01*
Y127312D01*
X666403D01*
Y127777D01*
X666869D01*
Y128242D01*
X668264D01*
Y130103D01*
X668730D01*
Y131499D01*
X669195D01*
Y133360D01*
X669660D01*
Y134291D01*
X670126D01*
Y135687D01*
X670591D01*
Y136152D01*
X670126D01*
Y136617D01*
D02*
G37*
G36*
X671987Y128242D02*
X671521D01*
Y127777D01*
X671056D01*
Y126846D01*
X671521D01*
Y127312D01*
X671987D01*
Y128242D01*
D02*
G37*
G36*
X642208Y127312D02*
X641743D01*
Y126846D01*
X642208D01*
Y127312D01*
D02*
G37*
G36*
X611499D02*
X611034D01*
Y126846D01*
X611499D01*
Y127312D01*
D02*
G37*
G36*
X673383Y126846D02*
X672452D01*
Y126381D01*
X673383D01*
Y126846D01*
D02*
G37*
G36*
X661750D02*
X661285D01*
Y126381D01*
X661750D01*
Y126846D01*
D02*
G37*
G36*
X672452Y126381D02*
X671987D01*
Y125916D01*
X672452D01*
Y126381D01*
D02*
G37*
G36*
X621736D02*
X621270D01*
Y125916D01*
X621736D01*
Y126381D01*
D02*
G37*
G36*
X614756Y127312D02*
X613826D01*
Y125916D01*
X614291D01*
Y126381D01*
X614756D01*
Y126846D01*
Y127312D01*
D02*
G37*
G36*
X604055Y131499D02*
X603124D01*
Y130103D01*
X603589D01*
Y125916D01*
X604055D01*
Y127312D01*
Y127777D01*
Y131499D01*
D02*
G37*
G36*
X641743Y125916D02*
X641278D01*
Y125450D01*
X641743D01*
Y125916D01*
D02*
G37*
G36*
X577999D02*
X577533D01*
Y125450D01*
X577999D01*
Y125916D01*
D02*
G37*
G36*
X671987D02*
X671056D01*
Y125450D01*
X670591D01*
Y124985D01*
X671521D01*
Y125450D01*
X671987D01*
Y125916D01*
D02*
G37*
G36*
X641278Y131499D02*
X640812D01*
Y131034D01*
X639417D01*
Y130569D01*
X638951D01*
Y129173D01*
X639417D01*
Y124985D01*
X640347D01*
Y125916D01*
X640812D01*
Y126381D01*
X641278D01*
Y128242D01*
X641743D01*
Y129173D01*
X641278D01*
Y131499D01*
D02*
G37*
G36*
X662681Y131034D02*
X662216D01*
Y130569D01*
X662681D01*
Y129638D01*
X663146D01*
Y128708D01*
X663612D01*
Y127777D01*
X664077D01*
Y127312D01*
X664542D01*
Y126381D01*
X665007D01*
Y125450D01*
X665473D01*
Y124520D01*
X665938D01*
Y124055D01*
X665007D01*
Y124520D01*
X664077D01*
Y124985D01*
X663612D01*
Y125450D01*
X663146D01*
Y125916D01*
X662681D01*
Y126381D01*
X661750D01*
Y125916D01*
X662216D01*
Y125450D01*
X663146D01*
Y124985D01*
X663612D01*
Y124520D01*
X664077D01*
Y124055D01*
X665007D01*
Y123589D01*
X665473D01*
Y123124D01*
X665938D01*
Y122659D01*
X666403D01*
Y122193D01*
X665938D01*
Y121728D01*
X665473D01*
Y121263D01*
X665007D01*
Y120798D01*
X664542D01*
Y119867D01*
X664077D01*
Y119402D01*
X664542D01*
Y118006D01*
X665938D01*
Y118937D01*
X666403D01*
Y120332D01*
X666869D01*
Y120798D01*
X667334D01*
Y119867D01*
X667799D01*
Y118471D01*
X668264D01*
Y117541D01*
X668730D01*
Y118471D01*
X668264D01*
Y118937D01*
X669195D01*
Y118471D01*
X669660D01*
Y117541D01*
X670126D01*
Y116610D01*
X670591D01*
Y116145D01*
X671056D01*
Y116610D01*
X670591D01*
Y117541D01*
X670126D01*
Y118471D01*
X669660D01*
Y118937D01*
X669195D01*
Y119867D01*
X668730D01*
Y120798D01*
X668264D01*
Y121728D01*
X668730D01*
Y121263D01*
X670126D01*
Y121728D01*
X668730D01*
Y122193D01*
X668264D01*
Y123589D01*
X669195D01*
Y124055D01*
X670126D01*
Y124520D01*
X670591D01*
Y124985D01*
X670126D01*
Y125916D01*
X670591D01*
Y126381D01*
X671056D01*
Y126846D01*
X670126D01*
Y126381D01*
X669660D01*
Y126846D01*
X670126D01*
Y127777D01*
X670591D01*
Y128708D01*
X671056D01*
Y129638D01*
X670591D01*
Y129173D01*
X670126D01*
Y128242D01*
X669660D01*
Y127312D01*
X669195D01*
Y126846D01*
X668730D01*
Y127777D01*
X668264D01*
Y126381D01*
X667799D01*
Y124985D01*
X667334D01*
Y124055D01*
X666403D01*
Y124985D01*
X665938D01*
Y125916D01*
X665473D01*
Y126381D01*
X665007D01*
Y127312D01*
X664542D01*
Y127777D01*
X664077D01*
Y128708D01*
X663612D01*
Y129638D01*
X663146D01*
Y130569D01*
X662681D01*
Y131034D01*
D02*
G37*
G36*
X586374Y126381D02*
X585908D01*
Y125450D01*
Y124985D01*
Y124055D01*
X586374D01*
Y126381D01*
D02*
G37*
G36*
X554269D02*
X553803D01*
Y125916D01*
X554269D01*
Y125450D01*
Y124985D01*
X554734D01*
Y124520D01*
X555199D01*
Y124055D01*
X555665D01*
Y124520D01*
X555199D01*
Y124985D01*
X554734D01*
Y125916D01*
X554269D01*
Y126381D01*
D02*
G37*
G36*
X642208Y124055D02*
X641743D01*
Y123589D01*
X642208D01*
Y124055D01*
D02*
G37*
G36*
X559387Y124985D02*
X558922D01*
Y124520D01*
Y123589D01*
X559387D01*
Y124985D01*
D02*
G37*
G36*
X641743Y123589D02*
X641278D01*
Y123124D01*
X641743D01*
Y123589D01*
D02*
G37*
G36*
X637555D02*
X637090D01*
Y123124D01*
X636625D01*
Y122659D01*
X637555D01*
Y123589D01*
D02*
G37*
G36*
X636160Y122659D02*
X635694D01*
Y122193D01*
X636160D01*
Y122659D01*
D02*
G37*
G36*
X554734D02*
X554269D01*
Y122193D01*
X554734D01*
Y122659D01*
D02*
G37*
G36*
X641278Y123124D02*
X640812D01*
Y122659D01*
X640347D01*
Y121728D01*
X641278D01*
Y123124D01*
D02*
G37*
G36*
X559852D02*
X559387D01*
Y122659D01*
X559852Y122193D01*
X560318D01*
Y121728D01*
X560783D01*
Y122193D01*
X560318D01*
Y122659D01*
X559852D01*
Y123124D01*
D02*
G37*
G36*
X555665Y122193D02*
X555199D01*
Y121728D01*
X555665D01*
Y122193D01*
D02*
G37*
G36*
X643139Y121728D02*
X642208D01*
Y121263D01*
X643139D01*
Y121728D01*
D02*
G37*
G36*
X624993D02*
X624527D01*
Y121263D01*
X624993D01*
Y121728D01*
D02*
G37*
G36*
X684084Y132430D02*
X682688D01*
Y131965D01*
X682223D01*
Y131499D01*
X681292D01*
Y131034D01*
X680827D01*
Y130569D01*
X679897D01*
Y130103D01*
X679431D01*
Y129638D01*
X678501D01*
Y129173D01*
X678035D01*
Y128708D01*
X677105D01*
Y128242D01*
X676640D01*
Y127777D01*
X677105D01*
Y120798D01*
X676640D01*
Y119402D01*
X678501D01*
Y120332D01*
X678966D01*
Y120798D01*
X679431D01*
Y121263D01*
X678966D01*
Y123124D01*
X679897D01*
Y122659D01*
X679431D01*
Y121728D01*
X679897D01*
Y122193D01*
X680362D01*
Y122659D01*
X680827D01*
Y123124D01*
X681758D01*
Y122659D01*
X682223D01*
Y121263D01*
X681758D01*
Y120798D01*
X681292D01*
Y122193D01*
X680827D01*
Y121263D01*
X679897D01*
Y120798D01*
X680827D01*
Y120332D01*
X681758D01*
Y118471D01*
X681292D01*
Y117541D01*
X682223D01*
Y117075D01*
X683154D01*
Y118006D01*
X683619D01*
Y120332D01*
X684084D01*
Y125450D01*
X684549D01*
Y127312D01*
X684084D01*
Y132430D01*
D02*
G37*
G36*
X671056Y121263D02*
X670591D01*
Y120798D01*
X671056D01*
Y121263D01*
D02*
G37*
G36*
X642208D02*
X641743D01*
Y120798D01*
X642208D01*
Y121263D01*
D02*
G37*
G36*
X641743Y120798D02*
X641278D01*
Y120332D01*
X641743D01*
Y120798D01*
D02*
G37*
G36*
X676174Y127312D02*
X675244D01*
Y126846D01*
X674313D01*
Y126381D01*
X673848D01*
Y125916D01*
X673383D01*
Y125450D01*
X672452D01*
Y124985D01*
X671987D01*
Y124520D01*
X671056D01*
Y121728D01*
X671987D01*
Y121263D01*
X673383D01*
Y120798D01*
X674778D01*
Y120332D01*
X675709D01*
Y119867D01*
X676174D01*
Y121728D01*
X676640D01*
Y122193D01*
Y122659D01*
Y126846D01*
X676174D01*
Y127312D01*
D02*
G37*
G36*
X574742Y125450D02*
X573811D01*
Y124055D01*
X574276D01*
Y123124D01*
X574742D01*
Y121728D01*
X575207D01*
Y120332D01*
X575672D01*
Y119867D01*
X576603D01*
Y123124D01*
X577068D01*
Y124055D01*
X576603D01*
Y124520D01*
X575207D01*
Y124985D01*
X574742D01*
Y125450D01*
D02*
G37*
G36*
X673848Y120332D02*
X672917D01*
Y119867D01*
X673848D01*
Y119402D01*
X674778D01*
Y119867D01*
X673848D01*
Y120332D01*
D02*
G37*
G36*
X566832Y119867D02*
X566366D01*
Y119402D01*
X565901D01*
Y119867D01*
X565436D01*
Y119402D01*
X565901D01*
Y118937D01*
X566832D01*
Y119867D01*
D02*
G37*
G36*
X680827D02*
X679431D01*
Y118937D01*
X680827D01*
Y119867D01*
D02*
G37*
G36*
X664077Y119402D02*
X663612D01*
Y118937D01*
X664077D01*
Y119402D01*
D02*
G37*
G36*
X643139D02*
X642208D01*
Y118937D01*
X643139D01*
Y119402D01*
D02*
G37*
G36*
X604520Y121263D02*
X604055D01*
Y119867D01*
Y119402D01*
Y118937D01*
X604520D01*
Y121263D01*
D02*
G37*
G36*
X676174Y119402D02*
X675244D01*
Y118937D01*
X676174D01*
Y118471D01*
X677105D01*
Y118937D01*
X676174D01*
Y119402D01*
D02*
G37*
G36*
X663612Y118937D02*
X663146D01*
Y118471D01*
X663612D01*
Y118937D01*
D02*
G37*
G36*
X578464Y121728D02*
X577999D01*
Y118471D01*
X578929D01*
Y120798D01*
X578464D01*
Y121728D01*
D02*
G37*
G36*
X678501Y118471D02*
X677570D01*
Y118006D01*
X678501D01*
Y118471D01*
D02*
G37*
G36*
X606846Y120332D02*
X606381D01*
Y118006D01*
X606846D01*
Y120332D01*
D02*
G37*
G36*
X573346Y120798D02*
X572880D01*
Y119867D01*
Y119402D01*
Y118937D01*
X573346D01*
Y118006D01*
X573811D01*
Y118471D01*
X575207D01*
Y118937D01*
X573811D01*
Y119867D01*
X573346D01*
Y120798D01*
D02*
G37*
G36*
X569158Y118471D02*
X568693D01*
Y118006D01*
X569158D01*
Y118471D01*
D02*
G37*
G36*
X564505D02*
X563575D01*
Y118006D01*
X564505D01*
Y118471D01*
D02*
G37*
G36*
X679431Y118006D02*
X678966D01*
Y117541D01*
X679431D01*
Y118006D01*
D02*
G37*
G36*
X660355Y149180D02*
X659424D01*
Y148715D01*
X658493D01*
Y148250D01*
X658028D01*
Y147784D01*
X657097D01*
Y147319D01*
X656632D01*
Y146854D01*
X656167D01*
Y146389D01*
X655236D01*
Y145923D01*
X654771D01*
Y145458D01*
X654306D01*
Y144993D01*
X653840D01*
Y144062D01*
X652910D01*
Y143131D01*
X652445D01*
Y142666D01*
X651979D01*
Y142201D01*
X651514D01*
Y141270D01*
X651049D01*
Y140805D01*
X650583D01*
Y139874D01*
X650118D01*
Y139409D01*
X649653D01*
Y138479D01*
X649188D01*
Y137548D01*
X648722D01*
Y136152D01*
X648257D01*
Y135687D01*
X647792D01*
Y134291D01*
X647326D01*
Y133360D01*
X646861D01*
Y132895D01*
Y131499D01*
X646396D01*
Y129638D01*
X645931D01*
Y128242D01*
X645465D01*
Y125450D01*
X645000D01*
Y117541D01*
X645931D01*
Y123589D01*
X646396D01*
Y126846D01*
X646861D01*
Y129173D01*
X647326D01*
Y130103D01*
X647792D01*
Y131499D01*
X648257D01*
Y132895D01*
X648722D01*
Y133826D01*
X649188D01*
Y135222D01*
X649653D01*
Y136617D01*
X650118D01*
Y137083D01*
X650583D01*
Y138013D01*
X651049D01*
Y138944D01*
X651514D01*
Y139874D01*
X651979D01*
Y140805D01*
X652445D01*
Y141270D01*
X652910D01*
Y141736D01*
X653375D01*
Y142666D01*
X653840D01*
Y143131D01*
X654306D01*
Y143597D01*
X654771D01*
Y144062D01*
X655236D01*
Y144527D01*
X655702D01*
Y144993D01*
X656167D01*
Y145923D01*
X656632D01*
Y146389D01*
X657563D01*
Y146854D01*
X658028D01*
Y147319D01*
X658493D01*
Y147784D01*
X658959D01*
Y148250D01*
X659889D01*
Y148715D01*
X660355D01*
Y149180D01*
D02*
G37*
G36*
X680362Y117541D02*
X679897D01*
Y117075D01*
X680362D01*
Y117541D01*
D02*
G37*
G36*
X664542Y118006D02*
X664077D01*
Y117075D01*
X664542D01*
Y118006D01*
D02*
G37*
G36*
X611034Y126846D02*
X610569D01*
Y124985D01*
X610103D01*
Y117075D01*
X610569D01*
Y117541D01*
X611034D01*
Y118006D01*
X610569D01*
Y121728D01*
Y122193D01*
Y124055D01*
X611034D01*
Y125450D01*
X611499D01*
Y125916D01*
X611034D01*
Y126846D01*
D02*
G37*
G36*
X570089Y118006D02*
X569623D01*
Y117541D01*
X570089D01*
Y117075D01*
X570554D01*
Y117541D01*
X570089D01*
Y118006D01*
D02*
G37*
G36*
X665473Y117075D02*
X665007D01*
Y116610D01*
X665473D01*
Y117075D01*
D02*
G37*
G36*
X663146Y118471D02*
X662681D01*
Y118006D01*
X662216D01*
Y117541D01*
X661750D01*
Y116610D01*
X662216D01*
Y117075D01*
X662681D01*
Y117541D01*
X663146D01*
Y118471D01*
D02*
G37*
G36*
X640347Y121728D02*
X639882D01*
Y120798D01*
X639417D01*
Y119867D01*
X638951D01*
Y118937D01*
X638486D01*
Y118471D01*
X638021D01*
Y117541D01*
X638486D01*
Y116610D01*
X638951D01*
Y115679D01*
X639417D01*
Y114284D01*
X639882D01*
Y113818D01*
Y113353D01*
X640347D01*
Y112888D01*
X640812D01*
Y113353D01*
X640347D01*
Y114749D01*
X639882D01*
Y116145D01*
X640347D01*
Y115679D01*
X640812D01*
Y115214D01*
X641278D01*
Y114749D01*
X641743D01*
Y114284D01*
X642208D01*
Y113818D01*
X643139D01*
Y113353D01*
X643604D01*
Y113818D01*
X643139D01*
Y114284D01*
X642674D01*
Y114749D01*
X642208D01*
Y115214D01*
X641743D01*
Y115679D01*
X641278D01*
Y116145D01*
X640812D01*
Y116610D01*
X639882D01*
Y117075D01*
X641743D01*
Y116610D01*
X643139D01*
Y117075D01*
X641743D01*
Y117541D01*
X640347D01*
Y118471D01*
X642208D01*
Y118937D01*
X639882D01*
Y119402D01*
X640812D01*
Y119867D01*
X641278D01*
Y120332D01*
X640347D01*
Y121728D01*
D02*
G37*
G36*
X683154Y116610D02*
X682688D01*
Y116145D01*
X683154D01*
Y116610D01*
D02*
G37*
G36*
X664077Y117075D02*
X663612D01*
Y116145D01*
X664077D01*
Y117075D01*
D02*
G37*
G36*
X661750Y116610D02*
X661285D01*
Y116145D01*
X661750D01*
Y116610D01*
D02*
G37*
G36*
X616617D02*
X616152D01*
Y116145D01*
X616617D01*
Y116610D01*
D02*
G37*
G36*
X606846Y117075D02*
X606381D01*
Y116145D01*
X606846D01*
Y116610D01*
Y117075D01*
D02*
G37*
G36*
X575672D02*
X575207D01*
Y116610D01*
X574276D01*
Y116145D01*
X575672D01*
Y117075D01*
D02*
G37*
G36*
X684084Y116145D02*
X683619D01*
Y115679D01*
X684084D01*
Y116145D01*
D02*
G37*
G36*
X669195Y117075D02*
X668730D01*
Y115679D01*
X669195D01*
Y117075D01*
D02*
G37*
G36*
X661285Y116145D02*
X660820D01*
Y115679D01*
X661285D01*
Y116145D01*
D02*
G37*
G36*
X587304D02*
X586839D01*
Y115679D01*
X587304D01*
Y116145D01*
D02*
G37*
G36*
X565901Y118006D02*
X564970D01*
Y117541D01*
X565436D01*
Y117075D01*
X565901D01*
Y116610D01*
X566832D01*
Y116145D01*
X567762D01*
Y115679D01*
X568693D01*
Y116145D01*
X567762D01*
Y116610D01*
X567297D01*
Y117075D01*
X566832D01*
Y117541D01*
X565901D01*
Y118006D01*
D02*
G37*
G36*
X660820Y115679D02*
X660355D01*
Y115214D01*
X660820D01*
Y115679D01*
D02*
G37*
G36*
X574276Y116145D02*
X572880D01*
Y115679D01*
X572415D01*
Y115214D01*
X572880D01*
X573346Y115679D01*
X574276D01*
Y116145D01*
D02*
G37*
G36*
X570089Y115679D02*
X569623D01*
Y115214D01*
X570089D01*
Y115679D01*
D02*
G37*
G36*
X665007Y116145D02*
X664542D01*
Y114749D01*
X665007D01*
Y116145D01*
D02*
G37*
G36*
X663612D02*
X663146D01*
Y115679D01*
X662681D01*
Y114749D01*
X663146D01*
Y115214D01*
X663612D01*
Y116145D01*
D02*
G37*
G36*
X660355Y115214D02*
X659889D01*
Y114749D01*
X660355D01*
Y115214D01*
D02*
G37*
G36*
X658959Y127777D02*
X658028D01*
Y125916D01*
X657563D01*
Y124520D01*
X657097D01*
Y121728D01*
Y121263D01*
Y117075D01*
X657563D01*
Y116145D01*
X658028D01*
Y114749D01*
X658959D01*
Y115214D01*
X659424D01*
Y115679D01*
X659889D01*
Y116145D01*
X660355D01*
Y116610D01*
X660820D01*
Y117075D01*
X661285D01*
Y118006D01*
X661750D01*
Y118471D01*
X662216D01*
Y118937D01*
X662681D01*
Y119402D01*
X663146D01*
Y119867D01*
X663612D01*
Y120798D01*
X663146D01*
Y122659D01*
X663612D01*
Y124055D01*
X663146D01*
Y124520D01*
X662216D01*
Y124985D01*
X661750D01*
Y125450D01*
X661285D01*
Y125916D01*
X660820D01*
Y126381D01*
X659889D01*
Y126846D01*
X659424D01*
Y127312D01*
X658959D01*
Y127777D01*
D02*
G37*
G36*
X579394Y116145D02*
X578929D01*
Y114749D01*
X579394D01*
Y116145D01*
D02*
G37*
G36*
X685480Y115679D02*
X684549D01*
Y115214D01*
X685480D01*
Y114749D01*
X686411D01*
Y114284D01*
X687341D01*
Y114749D01*
X686411D01*
Y115214D01*
X685480D01*
Y115679D01*
D02*
G37*
G36*
X659889Y114749D02*
X659424D01*
Y114284D01*
X659889D01*
Y114749D01*
D02*
G37*
G36*
X577068Y115214D02*
X576603D01*
Y114749D01*
X575672D01*
Y114284D01*
X577068D01*
Y114749D01*
Y115214D01*
D02*
G37*
G36*
X671056Y120332D02*
X670126D01*
Y118937D01*
X670591D01*
Y118471D01*
X671056D01*
Y117075D01*
X671521D01*
Y116610D01*
X671987D01*
Y115679D01*
X672452D01*
Y115214D01*
X672917D01*
Y114284D01*
X673383D01*
Y113818D01*
X673848D01*
Y114284D01*
Y114749D01*
X674313D01*
Y115679D01*
X674778D01*
Y116610D01*
X675244D01*
Y117541D01*
X675709D01*
Y118471D01*
X674313D01*
Y118937D01*
X673383D01*
Y119402D01*
X671987D01*
Y119867D01*
X671056D01*
Y120332D01*
D02*
G37*
G36*
X664542Y114749D02*
X664077D01*
Y114284D01*
Y113818D01*
X664542D01*
Y114749D01*
D02*
G37*
G36*
X662681D02*
X662216D01*
Y113818D01*
X662681D01*
Y114749D01*
D02*
G37*
G36*
X661285Y114284D02*
X660820D01*
Y113818D01*
X661285D01*
Y114284D01*
D02*
G37*
G36*
X659424D02*
X658959D01*
Y113818D01*
X659424D01*
Y114284D01*
D02*
G37*
G36*
X662216Y113818D02*
X661750D01*
Y113353D01*
X662216D01*
Y113818D01*
D02*
G37*
G36*
X604985Y115679D02*
X604520D01*
Y115214D01*
Y113353D01*
X604985D01*
Y115679D01*
D02*
G37*
G36*
X573346Y113818D02*
X572880D01*
Y113353D01*
X573346D01*
Y113818D01*
D02*
G37*
G36*
X690133Y114284D02*
X687806D01*
Y113818D01*
X688737D01*
Y113353D01*
X689202D01*
Y112888D01*
X689668D01*
Y113353D01*
X690133D01*
Y114284D01*
D02*
G37*
G36*
X669660Y115214D02*
X669195D01*
Y114284D01*
X669660D01*
Y112888D01*
X670126D01*
Y114284D01*
X669660D01*
Y115214D01*
D02*
G37*
G36*
X579394Y114284D02*
X578464D01*
Y113818D01*
X578929D01*
Y113353D01*
X579394D01*
Y112888D01*
X579860D01*
Y113353D01*
X579394D01*
Y114284D01*
D02*
G37*
G36*
X672452D02*
X671987D01*
Y113818D01*
X672452D01*
Y113353D01*
X672917D01*
Y112422D01*
X673383D01*
Y112888D01*
Y113353D01*
X672917D01*
Y113818D01*
X672452D01*
Y114284D01*
D02*
G37*
G36*
X663146Y113353D02*
X662681D01*
Y112422D01*
X663146D01*
Y113353D01*
D02*
G37*
G36*
X661750D02*
X661285D01*
Y112422D01*
X661750D01*
Y113353D01*
D02*
G37*
G36*
X658959D02*
X658493D01*
Y112888D01*
X658028D01*
Y112422D01*
X658493D01*
X658959Y112888D01*
Y113353D01*
D02*
G37*
G36*
X596145Y112888D02*
X595680D01*
Y112422D01*
X596145D01*
Y112888D01*
D02*
G37*
G36*
X576603D02*
X575672D01*
Y112422D01*
X576603D01*
Y112888D01*
D02*
G37*
G36*
X574276Y113818D02*
X573811D01*
Y113353D01*
X574276D01*
Y112888D01*
X574742D01*
Y112422D01*
X575207D01*
Y113353D01*
X574276D01*
Y113818D01*
D02*
G37*
G36*
X660820D02*
X660355D01*
Y113353D01*
X659889D01*
Y112888D01*
X659424D01*
Y111957D01*
X660355D01*
Y112888D01*
X660820D01*
Y113818D01*
D02*
G37*
G36*
X658028Y112422D02*
X657563D01*
Y111957D01*
X658028D01*
Y112422D01*
D02*
G37*
G36*
X581721D02*
X581255D01*
Y111957D01*
X581721D01*
Y112422D01*
D02*
G37*
G36*
X577533D02*
X577068D01*
Y111957D01*
X577533D01*
Y112422D01*
D02*
G37*
G36*
X661285D02*
X660820D01*
Y111492D01*
X661285D01*
Y112422D01*
D02*
G37*
G36*
X657563Y111957D02*
X657097D01*
Y111492D01*
X657563D01*
Y111957D01*
D02*
G37*
G36*
X642674Y112422D02*
X642208D01*
Y111957D01*
Y111492D01*
X643139D01*
Y111957D01*
X642674D01*
Y112422D01*
D02*
G37*
G36*
X587770Y111957D02*
X587304D01*
Y111492D01*
X587770D01*
Y111957D01*
D02*
G37*
G36*
X577068D02*
X576137D01*
Y111492D01*
X577068D01*
Y111957D01*
D02*
G37*
G36*
X657097Y111492D02*
X656632D01*
Y111027D01*
X657097D01*
Y111492D01*
D02*
G37*
G36*
X624527D02*
X624062D01*
Y111027D01*
X624527D01*
Y111492D01*
D02*
G37*
G36*
X579860D02*
X578929D01*
Y111027D01*
X579860D01*
Y111492D01*
D02*
G37*
G36*
X577999D02*
X577533D01*
Y111027D01*
X577999D01*
Y111492D01*
D02*
G37*
G36*
X670591Y112422D02*
X670126D01*
Y111027D01*
X670591D01*
Y110561D01*
X671056D01*
Y111027D01*
X670591Y111492D01*
Y112422D01*
D02*
G37*
G36*
X660820Y111492D02*
X660355D01*
Y110561D01*
X660820D01*
Y111492D01*
D02*
G37*
G36*
X656632Y111027D02*
X656167D01*
Y110561D01*
X656632D01*
Y111027D01*
D02*
G37*
G36*
X641278Y112422D02*
X640812D01*
Y111957D01*
Y111492D01*
X641278D01*
Y110561D01*
X641743D01*
Y111492D01*
X641278D01*
Y112422D01*
D02*
G37*
G36*
X623597Y127312D02*
X622201D01*
Y126846D01*
X621736D01*
Y126381D01*
X622666D01*
Y125916D01*
X622201D01*
Y124985D01*
X621736D01*
Y124520D01*
X622201D01*
Y124055D01*
X622666D01*
Y124520D01*
X623597D01*
Y124055D01*
X624062D01*
Y123589D01*
X624527D01*
Y122659D01*
X624993D01*
Y122193D01*
X625458D01*
Y120798D01*
X624993D01*
Y120332D01*
X625458D01*
Y119867D01*
X625923D01*
Y119402D01*
X626854D01*
Y118937D01*
X627319D01*
Y118471D01*
X627784D01*
Y118937D01*
X627319D01*
Y119402D01*
X626854D01*
Y119867D01*
X626389D01*
Y120332D01*
X626854D01*
Y119867D01*
X627319D01*
Y119402D01*
X627784D01*
Y118937D01*
X628250D01*
Y118471D01*
X628715D01*
Y118006D01*
X629180D01*
Y117075D01*
X629646D01*
Y116610D01*
X628715D01*
Y116145D01*
X629180D01*
Y115679D01*
X629646D01*
Y114749D01*
X630111D01*
Y115214D01*
X630576D01*
Y115679D01*
X631041D01*
Y115214D01*
X631507D01*
Y114749D01*
X631972D01*
Y113818D01*
X632437D01*
Y113353D01*
X632902D01*
Y112888D01*
X633368D01*
Y112422D01*
X633833D01*
Y111957D01*
X634298D01*
Y111492D01*
X634764D01*
Y111027D01*
X635229D01*
Y110561D01*
X636160D01*
Y111027D01*
X637090D01*
Y111492D01*
X636625D01*
Y111957D01*
X636160D01*
Y112888D01*
X635694D01*
Y113353D01*
X635229D01*
Y113818D01*
X634764D01*
Y114284D01*
X634298D01*
Y115214D01*
X633833D01*
Y115679D01*
X633368D01*
Y116145D01*
X632902D01*
Y116610D01*
X632437D01*
Y117075D01*
X631972D01*
Y118006D01*
X631507D01*
Y118471D01*
X631041D01*
Y118937D01*
X630576D01*
Y119402D01*
X630111D01*
Y119867D01*
X629646D01*
Y120798D01*
X629180D01*
Y121263D01*
X628715D01*
Y121728D01*
X628250D01*
Y122193D01*
X627784D01*
Y123124D01*
X627319D01*
Y123589D01*
X626854D01*
Y124055D01*
X626389D01*
Y124520D01*
X625923D01*
Y124985D01*
X625458D01*
Y125450D01*
X624993D01*
Y125916D01*
X624527D01*
Y126381D01*
X624062D01*
Y126846D01*
X623597D01*
Y127312D01*
D02*
G37*
G36*
X664077Y113353D02*
X663612D01*
Y111957D01*
Y111492D01*
X663146D01*
Y110096D01*
X663612D01*
Y111027D01*
X664077Y111492D01*
Y113353D01*
D02*
G37*
G36*
X662681Y112422D02*
X662216D01*
Y111957D01*
X661750D01*
Y111492D01*
Y111027D01*
X661285D01*
Y110096D01*
X662216D01*
Y111027D01*
X662681D01*
Y112422D01*
D02*
G37*
G36*
X638021Y110561D02*
X637555D01*
Y110096D01*
X638021D01*
Y110561D01*
D02*
G37*
G36*
X586839D02*
X586374D01*
Y110096D01*
X586839D01*
Y110561D01*
D02*
G37*
G36*
X674313Y111492D02*
X673848D01*
Y111027D01*
X674313D01*
Y110096D01*
X674778D01*
Y109631D01*
X675244D01*
Y110096D01*
X674778D01*
Y110561D01*
Y111027D01*
X674313D01*
Y111492D01*
D02*
G37*
G36*
X656167Y110561D02*
X655702D01*
Y109631D01*
X656167D01*
Y110561D01*
D02*
G37*
G36*
X642208Y110096D02*
X641743D01*
Y109631D01*
X642208D01*
Y110096D01*
D02*
G37*
G36*
X630576D02*
X630111D01*
Y109631D01*
X630576D01*
Y110096D01*
D02*
G37*
G36*
X624527D02*
X624062D01*
Y109631D01*
X624527D01*
Y110096D01*
D02*
G37*
G36*
X617083Y111492D02*
X616617D01*
Y110561D01*
X616152D01*
Y109631D01*
X614756D01*
Y110096D01*
X614291D01*
Y109631D01*
X614756D01*
Y108700D01*
X615222D01*
Y108235D01*
X615687D01*
Y107770D01*
X616152D01*
Y106839D01*
X617083D01*
Y107304D01*
X617548D01*
Y108235D01*
X618479D01*
Y108700D01*
X619409D01*
Y109165D01*
X618944D01*
Y109631D01*
X618479D01*
Y110096D01*
X618013D01*
Y110561D01*
X617548D01*
Y111027D01*
X617083D01*
Y111492D01*
D02*
G37*
G36*
X588235Y111027D02*
X587304D01*
Y109631D01*
X588700D01*
Y110096D01*
X587770D01*
Y110561D01*
X588235D01*
Y111027D01*
D02*
G37*
G36*
X677105Y110561D02*
X675709D01*
Y110096D01*
Y109631D01*
X676174D01*
Y109165D01*
X677105D01*
Y110561D01*
D02*
G37*
G36*
X660355D02*
X659889D01*
Y110096D01*
X659424D01*
Y109165D01*
X659889D01*
Y109631D01*
X660355D01*
Y110561D01*
D02*
G37*
G36*
X675709Y109165D02*
X675244D01*
Y108700D01*
X675709D01*
Y109165D01*
D02*
G37*
G36*
X667799Y117075D02*
X666403D01*
Y116610D01*
X665938D01*
Y115214D01*
X665473D01*
Y114284D01*
X665007D01*
Y112422D01*
X664542D01*
Y111027D01*
X664077D01*
Y109165D01*
X665007D01*
Y108700D01*
X666869D01*
Y109165D01*
X668264D01*
Y109631D01*
X669195D01*
Y110096D01*
X669660D01*
Y111492D01*
X669195D01*
Y113353D01*
X668730D01*
Y114749D01*
X668264D01*
Y116610D01*
X667799D01*
Y117075D01*
D02*
G37*
G36*
X663146Y110096D02*
X662681D01*
Y108700D01*
X663146D01*
Y110096D01*
D02*
G37*
G36*
X659424Y109165D02*
X658959D01*
Y108700D01*
X659424D01*
Y109165D01*
D02*
G37*
G36*
X655236D02*
X654771D01*
Y108700D01*
X655236D01*
Y109165D01*
D02*
G37*
G36*
X644069Y110561D02*
X642674D01*
Y110096D01*
X643139D01*
Y108700D01*
X644069D01*
Y110096D01*
Y110561D01*
D02*
G37*
G36*
X640812D02*
X639417D01*
Y108700D01*
X640347D01*
Y109165D01*
X640812D01*
Y110561D01*
D02*
G37*
G36*
X658959Y108235D02*
X658493D01*
Y107770D01*
X658959D01*
Y108235D01*
D02*
G37*
G36*
X654306D02*
X653840D01*
Y107770D01*
X654306D01*
Y108235D01*
D02*
G37*
G36*
X605451Y110096D02*
X604985D01*
Y107770D01*
X605451D01*
Y109165D01*
Y109631D01*
Y110096D01*
D02*
G37*
G36*
X591957Y107770D02*
X591492D01*
Y107304D01*
X591957D01*
Y107770D01*
D02*
G37*
G36*
X582651Y109631D02*
X581721D01*
Y109165D01*
X582186D01*
Y108700D01*
X583117D01*
Y108235D01*
X584047D01*
Y108700D01*
X584512D01*
Y108235D01*
X584978D01*
Y107770D01*
X585443D01*
Y107304D01*
X586374D01*
Y107770D01*
X585443D01*
Y108235D01*
X584978D01*
Y108700D01*
X584512D01*
Y109165D01*
X582651D01*
Y109631D01*
D02*
G37*
G36*
X671987Y107770D02*
X671521D01*
Y106839D01*
X671987D01*
Y107770D01*
D02*
G37*
G36*
X662681Y108700D02*
X662216D01*
Y106839D01*
X662681D01*
Y108700D01*
D02*
G37*
G36*
X658493Y107304D02*
X658028D01*
Y106839D01*
X658493D01*
Y107304D01*
D02*
G37*
G36*
X658028Y106839D02*
X657563D01*
Y106374D01*
X658028D01*
Y106839D01*
D02*
G37*
G36*
X623597Y107304D02*
X622666D01*
Y106374D01*
X623131D01*
Y106839D01*
X623597D01*
Y107304D01*
D02*
G37*
G36*
X596610Y109165D02*
X596145D01*
Y107770D01*
Y107304D01*
X595680D01*
Y106374D01*
X596610D01*
Y107304D01*
X597075D01*
Y107770D01*
X596610D01*
Y109165D01*
D02*
G37*
G36*
X676640Y118006D02*
X676174D01*
Y117075D01*
X675709D01*
Y116145D01*
X675244D01*
Y115214D01*
X674778D01*
Y114284D01*
X674313D01*
Y113353D01*
X673848D01*
Y112888D01*
X674313D01*
Y111957D01*
X674778D01*
Y111027D01*
X675709D01*
Y111492D01*
X676640D01*
Y111027D01*
X677570D01*
Y110096D01*
X678035D01*
Y109165D01*
X677570D01*
Y108235D01*
X677105D01*
Y107304D01*
X677570D01*
Y106374D01*
X678035D01*
Y105908D01*
X678501D01*
Y106374D01*
X678966D01*
Y107304D01*
X679431D01*
Y107770D01*
X679897D01*
Y108700D01*
X680362D01*
Y109631D01*
X680827D01*
Y110561D01*
X681292D01*
Y111957D01*
X681758D01*
Y113353D01*
X682223D01*
Y114749D01*
X682688D01*
Y115679D01*
X681758D01*
Y116145D01*
X680827D01*
Y115214D01*
X679897D01*
Y115679D01*
X678966D01*
Y116145D01*
X678501D01*
Y116610D01*
X678035D01*
Y117075D01*
X677570D01*
Y117541D01*
X676640D01*
Y118006D01*
D02*
G37*
G36*
X645465Y114749D02*
X645000D01*
Y114284D01*
Y113353D01*
X645465D01*
Y110561D01*
X645931D01*
Y109165D01*
X646396D01*
Y107770D01*
X646861D01*
Y106839D01*
X647326D01*
Y105908D01*
X647792D01*
Y106839D01*
X647326D01*
Y107770D01*
X646861D01*
Y109165D01*
X646396D01*
Y111027D01*
X645931D01*
Y113818D01*
X645465D01*
Y114749D01*
D02*
G37*
G36*
X642674Y109165D02*
X642208D01*
Y108235D01*
X642674D01*
Y106374D01*
X643139D01*
Y105908D01*
X643604D01*
Y106374D01*
X644069D01*
Y107304D01*
X643139D01*
Y107770D01*
Y108235D01*
X642674D01*
Y109165D01*
D02*
G37*
G36*
X634764Y106839D02*
X633833D01*
Y106374D01*
X633368D01*
Y105908D01*
X634764D01*
Y106839D01*
D02*
G37*
G36*
X595680Y106374D02*
X595214D01*
Y105908D01*
X595680D01*
Y106374D01*
D02*
G37*
G36*
X588700D02*
X588235D01*
Y105908D01*
X588700D01*
Y106374D01*
D02*
G37*
G36*
X672452D02*
X671987D01*
Y105443D01*
X672452D01*
Y106374D01*
D02*
G37*
G36*
X657563Y105908D02*
X657097D01*
Y105443D01*
X657563D01*
Y105908D01*
D02*
G37*
G36*
X633368D02*
X632437D01*
Y105443D01*
X633368D01*
Y105908D01*
D02*
G37*
G36*
X632437Y109631D02*
X631972D01*
Y109165D01*
X631041D01*
Y108700D01*
X630111D01*
Y108235D01*
X629180D01*
Y107770D01*
X627784D01*
Y107304D01*
X626389D01*
Y106839D01*
X624527D01*
Y106374D01*
X625923D01*
Y105908D01*
X627784D01*
Y105443D01*
X630576D01*
Y105908D01*
X631507D01*
Y106374D01*
X631972D01*
Y106839D01*
X632902D01*
Y107304D01*
X633368D01*
Y108700D01*
X632902D01*
Y109165D01*
X632437D01*
Y109631D01*
D02*
G37*
G36*
X676640Y107304D02*
X676174D01*
Y106839D01*
X676640D01*
Y106374D01*
X677105D01*
Y105443D01*
X677570D01*
Y104978D01*
X678035D01*
Y105443D01*
X677570D01*
Y106374D01*
X677105D01*
Y106839D01*
X676640D01*
Y107304D01*
D02*
G37*
G36*
X648257Y105443D02*
X647792D01*
Y104978D01*
X648257D01*
Y105443D01*
D02*
G37*
G36*
X619409D02*
X618479D01*
Y104978D01*
X619409D01*
Y105443D01*
D02*
G37*
G36*
X661750D02*
X661285D01*
Y104513D01*
X661750D01*
Y104978D01*
Y105443D01*
D02*
G37*
G36*
X620805Y107304D02*
X618944D01*
Y106839D01*
X620340D01*
Y106374D01*
X620805D01*
Y104978D01*
Y104513D01*
X621736D01*
Y106374D01*
X621270D01*
Y106839D01*
X620805D01*
Y107304D01*
D02*
G37*
G36*
X592888Y104978D02*
X592422D01*
Y104513D01*
X592888D01*
Y104978D01*
D02*
G37*
G36*
X590561Y105908D02*
X589631D01*
Y105443D01*
X590096D01*
Y104978D01*
X591027D01*
Y104513D01*
X591492D01*
Y104978D01*
X591027D01*
Y105443D01*
X590561D01*
Y105908D01*
D02*
G37*
G36*
X672917Y104978D02*
X672452D01*
Y104513D01*
Y104047D01*
X672917D01*
Y104978D01*
D02*
G37*
G36*
X651049Y104513D02*
X650583D01*
Y104047D01*
X651049D01*
Y104513D01*
D02*
G37*
G36*
X648722D02*
X648257D01*
Y104047D01*
X648722D01*
Y104513D01*
D02*
G37*
G36*
X605916Y107304D02*
X605451D01*
Y106374D01*
Y105908D01*
Y104978D01*
X604985D01*
Y104047D01*
X605451D01*
Y104513D01*
X605916D01*
Y107304D01*
D02*
G37*
G36*
X598937Y104513D02*
X598471D01*
Y104047D01*
X598937D01*
Y104513D01*
D02*
G37*
G36*
X656632Y104047D02*
X656167D01*
Y103582D01*
X656632D01*
Y104047D01*
D02*
G37*
G36*
X650583D02*
X650118D01*
Y103582D01*
X650583D01*
Y104047D01*
D02*
G37*
G36*
X650118Y103582D02*
X649653D01*
Y103117D01*
X650118D01*
Y103582D01*
D02*
G37*
G36*
X638021Y108700D02*
X637555D01*
Y107304D01*
X638021D01*
Y106839D01*
X638951D01*
Y105908D01*
X639417D01*
Y105443D01*
X639882D01*
Y104978D01*
X640347D01*
Y104047D01*
X640812D01*
Y103582D01*
X641278D01*
Y103117D01*
X642208D01*
Y103582D01*
X641743D01*
Y104513D01*
X641278D01*
Y104978D01*
X640812D01*
Y105443D01*
X640347D01*
Y105908D01*
X639882D01*
Y106374D01*
X639417D01*
Y106839D01*
X638951D01*
Y107770D01*
X638486D01*
Y108235D01*
X638021D01*
Y108700D01*
D02*
G37*
G36*
X620805Y103582D02*
X620340D01*
Y103117D01*
X620805D01*
Y103582D01*
D02*
G37*
G36*
X604520D02*
X604055D01*
Y103117D01*
X604520D01*
Y103582D01*
D02*
G37*
G36*
X601263D02*
X600798D01*
Y103117D01*
X601263D01*
Y103582D01*
D02*
G37*
G36*
X673383D02*
X672917D01*
Y102651D01*
X673383D01*
Y103582D01*
D02*
G37*
G36*
X649653Y103117D02*
X649188D01*
Y102651D01*
X649653D01*
Y103117D01*
D02*
G37*
G36*
X605451D02*
X604985D01*
Y102651D01*
X605451D01*
Y103117D01*
D02*
G37*
G36*
X602193D02*
X601728D01*
Y102651D01*
X602193D01*
Y103117D01*
D02*
G37*
G36*
X679897Y102186D02*
X679431D01*
Y101721D01*
X679897D01*
Y102186D01*
D02*
G37*
G36*
X656167Y103582D02*
X655236D01*
Y103117D01*
Y102651D01*
X654771D01*
Y102186D01*
X655236D01*
Y101721D01*
X656167D01*
Y103582D01*
D02*
G37*
G36*
X649188Y102651D02*
X648722D01*
Y101721D01*
X649188D01*
Y102651D01*
D02*
G37*
G36*
X626854Y102186D02*
X626389D01*
Y101721D01*
X626854D01*
Y102186D01*
D02*
G37*
G36*
X604055Y102651D02*
X603589D01*
Y102186D01*
X604055Y101721D01*
X604520D01*
Y102186D01*
X604055D01*
Y102651D01*
D02*
G37*
G36*
X598006D02*
X597541D01*
Y102186D01*
X598006D01*
Y101721D01*
X598937D01*
Y102186D01*
X598006D01*
Y102651D01*
D02*
G37*
G36*
X596610D02*
X596145D01*
Y102186D01*
X596610D01*
Y101721D01*
X597541D01*
Y102186D01*
X596610D01*
Y102651D01*
D02*
G37*
G36*
X670591Y115679D02*
X670126D01*
Y114749D01*
X670591D01*
Y113353D01*
X671056D01*
Y111492D01*
X671987D01*
Y111027D01*
X671521D01*
Y109631D01*
X671987D01*
Y108700D01*
X672452D01*
Y106839D01*
X672917D01*
Y105908D01*
X673383D01*
Y104513D01*
X673848D01*
Y102651D01*
X674313D01*
Y101256D01*
X675244D01*
Y101721D01*
X675709D01*
Y102651D01*
X676174D01*
Y103117D01*
X676640D01*
Y103582D01*
X677105D01*
Y104047D01*
X677570D01*
Y104513D01*
X677105D01*
Y104978D01*
X676640D01*
Y105908D01*
X676174D01*
Y106839D01*
X675709D01*
Y107304D01*
X675244D01*
Y108235D01*
X674778D01*
Y108700D01*
X674313D01*
Y109631D01*
X673848D01*
Y110561D01*
X673383D01*
Y111027D01*
X672917D01*
Y111492D01*
X671987D01*
Y111957D01*
X672452D01*
Y112422D01*
X671987D01*
Y113353D01*
X671521D01*
Y114284D01*
X671056D01*
Y115214D01*
X670591D01*
Y115679D01*
D02*
G37*
G36*
X673848Y102186D02*
X673383D01*
Y101721D01*
Y101256D01*
X673848D01*
Y102186D01*
D02*
G37*
G36*
X648722Y101721D02*
X648257D01*
Y101256D01*
X648722D01*
Y101721D01*
D02*
G37*
G36*
X644535Y102651D02*
X642674D01*
Y102186D01*
X642208D01*
Y101721D01*
Y101256D01*
X642674D01*
Y101721D01*
X643604D01*
Y102186D01*
X644535D01*
Y102651D01*
D02*
G37*
G36*
X626389Y101721D02*
X625923D01*
Y101256D01*
X626389D01*
Y101721D01*
D02*
G37*
G36*
X680362Y101256D02*
X679897D01*
Y100790D01*
X680362D01*
Y101256D01*
D02*
G37*
G36*
X660820Y102186D02*
X660355D01*
Y100790D01*
X660820D01*
Y102186D01*
D02*
G37*
G36*
X645465Y101721D02*
X645000D01*
Y100790D01*
X645931D01*
Y101256D01*
X645465D01*
Y101721D01*
D02*
G37*
G36*
X600332Y101256D02*
X599867D01*
Y100790D01*
X600332D01*
Y101256D01*
D02*
G37*
G36*
X599402D02*
X598937D01*
Y100790D01*
X599402D01*
Y101256D01*
D02*
G37*
G36*
X648257D02*
X646861D01*
Y99860D01*
X647792D01*
Y100325D01*
X648257D01*
Y101256D01*
D02*
G37*
G36*
X633368Y99394D02*
X632902D01*
Y98929D01*
X633368D01*
Y99394D01*
D02*
G37*
G36*
X608242D02*
X607777D01*
Y98929D01*
X608242D01*
Y99394D01*
D02*
G37*
G36*
X681292Y100325D02*
X680827D01*
Y98929D01*
X681292D01*
Y98464D01*
X681758D01*
Y98929D01*
X682223D01*
Y99394D01*
X681758D01*
Y99860D01*
X681292D01*
Y100325D01*
D02*
G37*
G36*
X644069Y100790D02*
X643139D01*
Y99394D01*
X643604D01*
Y98929D01*
X644069D01*
Y98464D01*
X644535D01*
Y98929D01*
X645000D01*
Y99394D01*
X644535D01*
Y100325D01*
X644069D01*
Y100790D01*
D02*
G37*
G36*
X624993Y105443D02*
X623597D01*
Y104978D01*
X623131D01*
Y104047D01*
X622666D01*
Y103117D01*
X623131D01*
Y102651D01*
X623597D01*
Y102186D01*
X624527D01*
Y101721D01*
X624993D01*
Y102186D01*
X625458D01*
Y101721D01*
X625923D01*
Y102186D01*
X625458D01*
Y102651D01*
X625923D01*
Y102186D01*
X626389D01*
Y102651D01*
X627319D01*
Y102186D01*
X628250D01*
Y101721D01*
X628715D01*
Y101256D01*
X630576D01*
Y100790D01*
X629180D01*
Y100325D01*
X629646D01*
Y99860D01*
X631041D01*
Y99394D01*
X632437D01*
Y99860D01*
X633368D01*
Y99394D01*
X633833D01*
Y99860D01*
X634298D01*
Y99394D01*
X635694D01*
Y98929D01*
X636625D01*
Y98464D01*
X637555D01*
Y98929D01*
X638021D01*
Y99394D01*
X638486D01*
Y100790D01*
X637090D01*
Y101256D01*
X635694D01*
Y101721D01*
X634298D01*
Y102186D01*
X633368D01*
Y102651D01*
X631507D01*
Y103117D01*
X630111D01*
Y103582D01*
X628715D01*
Y104047D01*
X627319D01*
Y104513D01*
X626389D01*
Y104978D01*
X624993D01*
Y105443D01*
D02*
G37*
G36*
X635229Y98929D02*
X634764D01*
Y98464D01*
X635229D01*
Y98929D01*
D02*
G37*
G36*
X612895Y99860D02*
X611964D01*
Y99394D01*
X611034D01*
Y98929D01*
X610569D01*
Y98464D01*
X611499D01*
Y98929D01*
X612895D01*
Y99860D01*
D02*
G37*
G36*
X605916Y98929D02*
X605451D01*
Y98464D01*
X605916D01*
Y98929D01*
D02*
G37*
G36*
X674778D02*
X674313D01*
Y97999D01*
X674778D01*
Y98464D01*
Y98929D01*
D02*
G37*
G36*
X660355Y100790D02*
X659889D01*
Y99394D01*
X659424D01*
Y97999D01*
X659889D01*
Y98929D01*
X660355D01*
Y100790D01*
D02*
G37*
G36*
X647792Y98464D02*
X647326D01*
Y97533D01*
X647792D01*
Y98464D01*
D02*
G37*
G36*
X645465Y97999D02*
X645000D01*
Y97533D01*
X645465D01*
Y97999D01*
D02*
G37*
G36*
X605916D02*
X605451D01*
Y97533D01*
X605916D01*
Y97999D01*
D02*
G37*
G36*
X638951D02*
X638486D01*
Y97068D01*
X638951D01*
Y97533D01*
Y97999D01*
D02*
G37*
G36*
X610103Y97533D02*
X609638D01*
Y97068D01*
X610103D01*
Y97533D01*
D02*
G37*
G36*
X607777Y98929D02*
X606846D01*
Y97533D01*
X607312D01*
Y97068D01*
X607777D01*
Y97533D01*
X607312D01*
Y98464D01*
X607777D01*
Y98929D01*
D02*
G37*
G36*
X659424Y97999D02*
X658959D01*
Y97533D01*
Y97068D01*
Y96603D01*
X659424D01*
Y97999D01*
D02*
G37*
G36*
X640812Y98464D02*
X640347D01*
Y97533D01*
X640812D01*
Y97068D01*
X642208D01*
Y96603D01*
X643604D01*
Y97068D01*
X643139D01*
Y97533D01*
X642208D01*
Y97999D01*
X640812D01*
Y98464D01*
D02*
G37*
G36*
X658959Y111957D02*
X658493D01*
Y111492D01*
X658028D01*
Y111027D01*
X657563D01*
Y110561D01*
X657097D01*
Y110096D01*
X656632D01*
Y109165D01*
X656167D01*
Y108700D01*
X655702D01*
Y108235D01*
X655236D01*
Y107770D01*
X654771D01*
Y107304D01*
X654306D01*
Y106839D01*
X653840D01*
Y106374D01*
X653375D01*
Y105908D01*
X652910D01*
Y105443D01*
X652445D01*
Y104513D01*
X651979D01*
Y104047D01*
X651514D01*
Y103582D01*
X651049D01*
Y102186D01*
X651514D01*
Y101256D01*
X651979D01*
Y100790D01*
X652445D01*
Y100325D01*
X652910D01*
Y99394D01*
X653840D01*
Y98464D01*
X654306D01*
Y97999D01*
X655236D01*
Y97533D01*
X655702D01*
Y97068D01*
X656167D01*
Y96603D01*
X657097D01*
Y96137D01*
X658028D01*
Y96603D01*
X658493D01*
Y98464D01*
X658959D01*
Y100325D01*
X659424D01*
Y101721D01*
X659889D01*
Y102186D01*
Y103117D01*
X660355D01*
Y104513D01*
X660820D01*
Y105908D01*
X661285D01*
Y108235D01*
X661750D01*
Y109165D01*
X661285D01*
Y109631D01*
X660820D01*
Y109165D01*
X660355D01*
Y108700D01*
X659889D01*
Y107770D01*
X659424D01*
Y106839D01*
X658959D01*
Y106374D01*
X658493D01*
Y105443D01*
X658028D01*
Y104513D01*
X657563D01*
Y104047D01*
X657097D01*
Y101721D01*
X656632D01*
Y101256D01*
X655702D01*
Y100790D01*
X655236D01*
Y101256D01*
X654306D01*
Y103582D01*
X654771D01*
Y104047D01*
X655702D01*
Y104513D01*
X656167D01*
Y105443D01*
X656632D01*
Y106374D01*
X657097D01*
Y107304D01*
X657563D01*
Y107770D01*
X658028D01*
Y108700D01*
X658493D01*
Y109631D01*
X658959D01*
Y110561D01*
X659424D01*
Y111492D01*
X658959D01*
Y111957D01*
D02*
G37*
G36*
X670126Y109165D02*
X668730D01*
Y108700D01*
X667334D01*
Y108235D01*
X663612D01*
Y107770D01*
X663146D01*
Y106374D01*
X662681D01*
Y104978D01*
X662216D01*
Y103582D01*
X661750D01*
Y101721D01*
X661285D01*
Y99860D01*
X660820D01*
Y98464D01*
X660355D01*
Y96603D01*
X659889D01*
Y95672D01*
X660820D01*
Y95207D01*
X664542D01*
Y95672D01*
X666869D01*
Y96137D01*
X668264D01*
Y96603D01*
X669195D01*
Y97068D01*
X670126D01*
Y97533D01*
X670591D01*
Y97999D01*
X671521D01*
Y98464D01*
X671987D01*
Y98929D01*
X672452D01*
Y99394D01*
X673383D01*
Y100325D01*
X672917D01*
Y101721D01*
X672452D01*
Y103117D01*
X671987D01*
Y104513D01*
X671521D01*
Y106374D01*
X671056D01*
Y107770D01*
X670591D01*
Y108700D01*
X670126D01*
Y109165D01*
D02*
G37*
G36*
X658959Y95672D02*
X658493D01*
Y95207D01*
X658959D01*
Y95672D01*
D02*
G37*
G36*
X646861D02*
X646396D01*
Y95207D01*
X646861D01*
Y95672D01*
D02*
G37*
G36*
X613826Y98464D02*
X612895D01*
Y97999D01*
X611499D01*
Y95207D01*
X612895D01*
Y95672D01*
X613826D01*
Y96137D01*
X614291D01*
Y97999D01*
X613826D01*
Y98464D01*
D02*
G37*
G36*
X653840Y96137D02*
X652910D01*
Y95207D01*
X653840D01*
Y94741D01*
X654306D01*
Y95672D01*
X653840D01*
Y96137D01*
D02*
G37*
G36*
X675709D02*
X675244D01*
Y95672D01*
Y95207D01*
Y94276D01*
X676640D01*
Y95207D01*
X676174D01*
Y95672D01*
X675709D01*
Y96137D01*
D02*
G37*
G36*
X658493Y94276D02*
X658028D01*
Y93811D01*
X658493D01*
Y94276D01*
D02*
G37*
G36*
X583117Y95672D02*
X582651D01*
Y95207D01*
X582186D01*
Y94741D01*
X581721D01*
Y94276D01*
X582651D01*
Y93346D01*
X583117D01*
Y94276D01*
X584047D01*
Y95207D01*
X583117D01*
Y95672D01*
D02*
G37*
G36*
X650583Y96137D02*
X648722D01*
Y93811D01*
X649653D01*
Y93346D01*
X650118D01*
Y93811D01*
X650583D01*
Y93346D01*
X651514D01*
Y92880D01*
X652445D01*
Y92415D01*
X652910D01*
Y92880D01*
X653375D01*
Y92415D01*
X654306D01*
Y93346D01*
X652910D01*
Y93811D01*
X651979D01*
Y94276D01*
X651514D01*
Y95672D01*
X650583D01*
Y96137D01*
D02*
G37*
G36*
X657563Y91484D02*
X657097D01*
Y91019D01*
Y90554D01*
X657563D01*
Y91484D01*
D02*
G37*
G36*
X657097Y89623D02*
X656632D01*
Y88693D01*
X657097D01*
Y89623D01*
D02*
G37*
G36*
X656632Y88693D02*
X656167D01*
Y87297D01*
X655236D01*
Y85901D01*
X656632D01*
Y88693D01*
D02*
G37*
G36*
X566366Y90554D02*
X565436D01*
Y90089D01*
X564970D01*
Y89623D01*
X564040D01*
Y89158D01*
X563109D01*
Y88693D01*
X562644D01*
Y88228D01*
X561713D01*
Y87762D01*
X560783D01*
Y87297D01*
X560318D01*
Y86832D01*
X559852D01*
Y86366D01*
X559387D01*
Y85901D01*
X559852D01*
Y85436D01*
X560318D01*
Y84505D01*
X560783D01*
Y83575D01*
X561248D01*
Y83109D01*
X561713D01*
Y82179D01*
X562644D01*
Y82644D01*
X563109D01*
Y83575D01*
X562644D01*
Y84040D01*
X562179D01*
Y84970D01*
X561713D01*
Y85436D01*
X561248D01*
Y86366D01*
X562179D01*
Y86832D01*
X563109D01*
Y86366D01*
X563575D01*
Y85436D01*
X564040D01*
Y84970D01*
X564505D01*
Y84505D01*
X564970D01*
Y84970D01*
X565436D01*
Y85901D01*
X564970D01*
Y86366D01*
X564505D01*
Y87762D01*
X564040D01*
Y88228D01*
X564970D01*
Y88693D01*
X565901D01*
Y88228D01*
X566366D01*
Y87297D01*
X566832D01*
Y86832D01*
X567297D01*
Y85901D01*
X568228D01*
Y86366D01*
X568693D01*
Y86832D01*
X568228D01*
Y87762D01*
X567762D01*
Y88228D01*
X567297D01*
Y89158D01*
X566832D01*
Y90089D01*
X566366D01*
Y90554D01*
D02*
G37*
G36*
X674778Y90089D02*
X672917D01*
Y89623D01*
X672452D01*
Y89158D01*
X671987D01*
Y88228D01*
X671521D01*
Y87762D01*
X671056D01*
Y86832D01*
X670591D01*
Y85436D01*
X671056D01*
Y84970D01*
X671521D01*
Y84505D01*
X671987D01*
Y84040D01*
X672452D01*
Y83575D01*
X673383D01*
Y83109D01*
X673848D01*
Y82644D01*
X674778D01*
Y82179D01*
X675244D01*
Y81713D01*
X677105D01*
Y82179D01*
X677570D01*
Y82644D01*
X678035D01*
Y83575D01*
X678501D01*
Y84040D01*
X678966D01*
Y85436D01*
X679431D01*
Y86366D01*
X678966D01*
Y87297D01*
X678035D01*
Y87762D01*
X677570D01*
Y88228D01*
X676640D01*
Y88693D01*
X676174D01*
Y87762D01*
X675709D01*
Y87297D01*
X675244D01*
Y85901D01*
X676174D01*
Y86366D01*
X677570D01*
Y85901D01*
X678035D01*
Y85436D01*
X677570D01*
Y84505D01*
X677105D01*
Y84040D01*
X676640D01*
Y83575D01*
X675244D01*
Y84040D01*
X674313D01*
Y84505D01*
X673848D01*
Y84970D01*
X673383D01*
Y85436D01*
X672452D01*
Y85901D01*
X671987D01*
Y86366D01*
X672452D01*
Y87297D01*
X672917D01*
Y88228D01*
X673383D01*
Y88693D01*
X674778D01*
Y89158D01*
X675244D01*
Y89623D01*
X674778D01*
Y90089D01*
D02*
G37*
G36*
X669195Y84040D02*
X668730D01*
Y83575D01*
X668264D01*
Y82644D01*
X668730D01*
Y82179D01*
X669195D01*
Y81713D01*
X669660D01*
Y81248D01*
X670126D01*
Y80783D01*
X671056D01*
Y80318D01*
X671521D01*
Y79387D01*
X671056D01*
Y79852D01*
X669195D01*
Y80318D01*
X666869D01*
Y80783D01*
X665938D01*
Y80318D01*
X665473D01*
Y79852D01*
X665007D01*
Y78922D01*
X665473D01*
Y78456D01*
X665938D01*
Y77991D01*
X666403D01*
Y77526D01*
X666869D01*
Y77061D01*
X667334D01*
Y76595D01*
X667799D01*
Y76130D01*
X668730D01*
Y75665D01*
X669195D01*
Y74734D01*
X669660D01*
Y74269D01*
X671056D01*
Y74734D01*
X671521D01*
Y75199D01*
X671056D01*
Y75665D01*
X670591D01*
Y76130D01*
X670126D01*
Y76595D01*
X669195D01*
Y77526D01*
X668264D01*
Y77991D01*
X667799D01*
Y78456D01*
X668264D01*
Y78922D01*
X668730D01*
Y78456D01*
X671056D01*
Y77991D01*
X674313D01*
Y78456D01*
X674778D01*
Y78922D01*
X674313D01*
Y79852D01*
X673848D01*
Y80318D01*
X672917D01*
Y80783D01*
X672452D01*
Y81248D01*
X671987D01*
Y81713D01*
X671521D01*
Y82179D01*
X671056D01*
Y82644D01*
X670591D01*
Y83109D01*
X670126D01*
Y83575D01*
X669195D01*
Y84040D01*
D02*
G37*
G36*
X569623Y85436D02*
X569158D01*
Y84970D01*
X568693D01*
Y84040D01*
X568228D01*
Y83575D01*
Y83109D01*
X567762D01*
Y82644D01*
X567297D01*
Y81713D01*
X566832D01*
Y81248D01*
X566366D01*
Y80783D01*
X565901D01*
Y79852D01*
X565436D01*
Y78922D01*
X564970D01*
Y77991D01*
X565436D01*
Y77526D01*
X567297D01*
Y77991D01*
X568228D01*
Y78456D01*
X570089D01*
Y78922D01*
X571019D01*
Y79387D01*
X572415D01*
Y79852D01*
X573346D01*
Y80783D01*
X572880D01*
Y81248D01*
X571950D01*
Y80783D01*
X570554D01*
Y80318D01*
X569158D01*
Y79852D01*
X568228D01*
Y79387D01*
X567297D01*
Y80318D01*
X567762D01*
Y80783D01*
X568228D01*
Y81713D01*
X568693D01*
Y82179D01*
X569158D01*
Y82644D01*
X569623D01*
Y83109D01*
X570089D01*
Y84970D01*
X569623D01*
Y85436D01*
D02*
G37*
G36*
X575207Y78922D02*
X574276D01*
Y78456D01*
X573811D01*
Y77991D01*
X572880D01*
Y77061D01*
X572415D01*
Y76595D01*
X571950D01*
Y76130D01*
X571484D01*
Y75665D01*
X571019D01*
Y75199D01*
X570554D01*
Y74734D01*
X570089D01*
Y74269D01*
X569623D01*
Y73804D01*
X569158D01*
Y73338D01*
X569623D01*
Y72873D01*
X570089D01*
Y72408D01*
X570554D01*
Y71942D01*
X571019D01*
Y71477D01*
X571484D01*
Y71012D01*
X571950D01*
Y70546D01*
X572415D01*
Y70081D01*
X573346D01*
Y70546D01*
X573811D01*
Y71012D01*
X573346D01*
Y71477D01*
X572880D01*
Y71942D01*
X572415D01*
Y72408D01*
X571950D01*
Y72873D01*
X571484D01*
Y73338D01*
X571019D01*
Y73804D01*
X571484D01*
Y74269D01*
X571950D01*
Y74734D01*
X572880D01*
Y74269D01*
X573346D01*
Y73804D01*
X573811D01*
Y73338D01*
X574742D01*
Y72873D01*
X575207D01*
Y74269D01*
X574742D01*
Y75199D01*
X574276D01*
Y75665D01*
X573811D01*
Y76595D01*
X574276D01*
Y77061D01*
X575207D01*
Y76595D01*
X575672D01*
Y76130D01*
X576137D01*
Y75665D01*
X577068D01*
Y74734D01*
X577999D01*
Y76130D01*
X577533D01*
Y76595D01*
X577068D01*
Y77526D01*
X576603D01*
Y77991D01*
X575672D01*
Y78456D01*
X575207D01*
Y78922D01*
D02*
G37*
G36*
X663612Y77526D02*
X662216D01*
Y76595D01*
X662681D01*
Y76130D01*
X663146D01*
Y75665D01*
X663612D01*
Y75199D01*
X664077D01*
Y74269D01*
X664542D01*
Y73804D01*
X665007D01*
Y73338D01*
X665473D01*
Y72873D01*
X665938D01*
Y72408D01*
X666403D01*
Y71942D01*
X666869D01*
Y71477D01*
X667334D01*
Y71012D01*
X667799D01*
Y71477D01*
X668264D01*
Y71942D01*
X668730D01*
Y72408D01*
X668264D01*
Y72873D01*
X667799D01*
Y73338D01*
X667334D01*
Y73804D01*
X666869D01*
Y74269D01*
X666403D01*
Y74734D01*
X665938D01*
Y75199D01*
X665473D01*
Y75665D01*
X665007D01*
Y76130D01*
X664542D01*
Y76595D01*
X664077D01*
Y77061D01*
X663612D01*
Y77526D01*
D02*
G37*
G36*
X660820Y75665D02*
X660355D01*
Y75199D01*
X659889D01*
Y71012D01*
X659424D01*
Y70546D01*
X659889D01*
Y70081D01*
X658959D01*
Y70546D01*
X658493D01*
Y71477D01*
X658028D01*
Y71942D01*
X657563D01*
Y72408D01*
X656632D01*
Y71942D01*
X656167D01*
Y71477D01*
X656632D01*
Y70546D01*
X657097D01*
Y70081D01*
X657563D01*
Y69616D01*
X658028D01*
Y69151D01*
X658493D01*
Y68685D01*
X658959D01*
Y67755D01*
X659424D01*
Y67290D01*
X659889D01*
Y66359D01*
X660355D01*
Y65894D01*
X661750D01*
Y67290D01*
X661285D01*
Y67755D01*
X660820D01*
Y70081D01*
X662216D01*
Y69616D01*
X663146D01*
Y69151D01*
X664077D01*
Y68685D01*
X665007D01*
Y69151D01*
X665938D01*
Y70081D01*
X664542D01*
Y70546D01*
X663612D01*
Y71012D01*
X662216D01*
Y71477D01*
X661285D01*
Y72408D01*
X660820D01*
Y75665D01*
D02*
G37*
G36*
X654306Y70546D02*
X653840D01*
Y70081D01*
X652910D01*
Y69616D01*
X651979D01*
Y69151D01*
X651514D01*
Y68685D01*
X651049D01*
Y68220D01*
X650583D01*
Y67755D01*
X650118D01*
Y67290D01*
X650583D01*
Y65894D01*
X651049D01*
Y65428D01*
X651514D01*
Y64033D01*
X651979D01*
Y63102D01*
X652445D01*
Y62637D01*
X652910D01*
Y61706D01*
X653840D01*
Y61241D01*
X654771D01*
Y61706D01*
X656167D01*
Y62171D01*
X656632D01*
Y62637D01*
X657097D01*
Y63102D01*
X658028D01*
Y64033D01*
X658493D01*
Y64963D01*
X658028D01*
Y65894D01*
X657563D01*
Y66359D01*
X657097D01*
Y65894D01*
X656632D01*
Y64033D01*
X656167D01*
Y63567D01*
X655702D01*
Y63102D01*
X654306D01*
Y63567D01*
X653840D01*
Y64033D01*
X653375D01*
Y64963D01*
X652910D01*
Y65894D01*
X652445D01*
Y66359D01*
X651979D01*
Y67755D01*
X652445D01*
Y68220D01*
X653375D01*
Y68685D01*
X654306D01*
Y68220D01*
X656167D01*
Y69151D01*
X655702D01*
Y69616D01*
X655236D01*
Y70081D01*
X654306D01*
Y70546D01*
D02*
G37*
G36*
X586374Y70081D02*
X585908D01*
Y69616D01*
X585443D01*
Y68685D01*
X585908D01*
Y68220D01*
X586839D01*
Y67290D01*
X586374D01*
Y66359D01*
X585908D01*
Y65428D01*
X585443D01*
Y64963D01*
X584978D01*
Y63567D01*
X584512D01*
Y63102D01*
X584047D01*
Y62637D01*
X583582D01*
Y61706D01*
X584512D01*
Y61241D01*
X584978D01*
Y62171D01*
X585443D01*
Y62637D01*
X585908D01*
Y63567D01*
X586374D01*
Y64033D01*
X586839D01*
Y64963D01*
X587304D01*
Y65894D01*
X587770D01*
Y66359D01*
X588235D01*
Y66824D01*
X588700D01*
Y66359D01*
X589631D01*
Y65894D01*
X590561D01*
Y67290D01*
X590096D01*
Y67755D01*
X589165D01*
Y68220D01*
X588235D01*
Y68685D01*
X587304D01*
Y69151D01*
X586839D01*
Y69616D01*
X586374D01*
Y70081D01*
D02*
G37*
G36*
X580325Y74269D02*
X579394D01*
Y73804D01*
X578929D01*
Y73338D01*
X578464D01*
Y72873D01*
X577999D01*
Y72408D01*
X577533D01*
Y71477D01*
X577068D01*
Y71012D01*
X576603D01*
Y70546D01*
X576137D01*
Y70081D01*
X575672D01*
Y69151D01*
X575207D01*
Y68685D01*
X574742D01*
Y68220D01*
X575207D01*
Y67755D01*
X576137D01*
Y68220D01*
X576603D01*
Y68685D01*
X577068D01*
Y69151D01*
X577533D01*
Y69616D01*
X577999D01*
Y70546D01*
X578464D01*
Y71012D01*
X578929D01*
Y66824D01*
X578464D01*
Y65428D01*
X578929D01*
Y64963D01*
X579394D01*
Y64498D01*
X579860D01*
Y64963D01*
X580325D01*
Y65428D01*
X580790D01*
Y65894D01*
X581255D01*
Y66359D01*
X581721D01*
Y67290D01*
X582186D01*
Y67755D01*
X582651D01*
Y68220D01*
X583117D01*
Y69151D01*
X583582D01*
Y69616D01*
X584047D01*
Y70081D01*
X584512D01*
Y71012D01*
X584047D01*
Y71477D01*
X583117D01*
Y70546D01*
X582651D01*
Y70081D01*
X582186D01*
Y69616D01*
X581721D01*
Y68685D01*
X581255D01*
Y68220D01*
X580790D01*
Y67755D01*
X580325D01*
Y70546D01*
X580790D01*
Y73804D01*
X580325D01*
Y74269D01*
D02*
G37*
G36*
X562644Y116610D02*
X561248D01*
Y115679D01*
X561713D01*
Y113353D01*
X562179D01*
Y110561D01*
X562644D01*
Y108700D01*
X563109D01*
Y106839D01*
X563575D01*
Y105443D01*
X564040D01*
Y104047D01*
X564505D01*
Y103117D01*
X564970D01*
Y101256D01*
X565436D01*
Y100325D01*
X565901D01*
Y98929D01*
X566366D01*
Y97999D01*
X566832D01*
Y97533D01*
X567297D01*
Y96603D01*
X567762D01*
Y95672D01*
X568228D01*
Y94276D01*
X568693D01*
Y93811D01*
X569158D01*
Y92880D01*
X569623D01*
Y91950D01*
X570089D01*
Y91484D01*
X570554D01*
Y90554D01*
X571019D01*
Y89623D01*
X571484D01*
Y89158D01*
X571950D01*
Y88693D01*
X572415D01*
Y88228D01*
X572880D01*
Y87297D01*
X573346D01*
Y86832D01*
X573811D01*
Y86366D01*
X574276D01*
Y85901D01*
X574742D01*
Y84970D01*
X575207D01*
Y84505D01*
X575672D01*
Y83575D01*
X576603D01*
Y83109D01*
X577068D01*
Y82644D01*
X577533D01*
Y82179D01*
X577999D01*
Y81248D01*
X578464D01*
Y80783D01*
X579394D01*
Y80318D01*
X579860D01*
Y79387D01*
X580790D01*
Y78922D01*
X581255D01*
Y78456D01*
X581721D01*
Y77991D01*
X582186D01*
Y77526D01*
X582651D01*
Y77061D01*
X583117D01*
Y76595D01*
X584047D01*
Y76130D01*
X584512D01*
Y75665D01*
X585443D01*
Y75199D01*
X585908D01*
Y74734D01*
X586374D01*
Y74269D01*
X587304D01*
Y73804D01*
X587770D01*
Y73338D01*
X588700D01*
Y72873D01*
X589631D01*
Y72408D01*
X590096D01*
Y71942D01*
X591027D01*
Y71477D01*
X591957D01*
Y71012D01*
X592422D01*
Y70546D01*
X593353D01*
Y70081D01*
X594749D01*
Y69616D01*
X595214D01*
Y69151D01*
X596145D01*
Y68685D01*
X597541D01*
Y68220D01*
X598937D01*
Y67755D01*
X600332D01*
Y67290D01*
X601263D01*
Y66824D01*
X602193D01*
Y66359D01*
X603589D01*
Y65894D01*
X605916D01*
Y65428D01*
X608242D01*
Y64963D01*
X610569D01*
Y64498D01*
X612895D01*
Y64033D01*
X626854D01*
Y64498D01*
X629180D01*
Y64963D01*
X631507D01*
Y65428D01*
X633833D01*
Y65894D01*
X635694D01*
Y66359D01*
X637090D01*
Y66824D01*
X638021D01*
Y67290D01*
X638951D01*
Y67755D01*
X640347D01*
Y68220D01*
X641743D01*
Y68685D01*
X643139D01*
Y69151D01*
X644069D01*
Y69616D01*
X645000D01*
Y70081D01*
X645931D01*
Y70546D01*
X646861D01*
Y71012D01*
X647326D01*
Y71477D01*
X648722D01*
Y71942D01*
X649188D01*
Y72408D01*
X649653D01*
Y72873D01*
X650583D01*
Y73338D01*
X651514D01*
Y73804D01*
X651979D01*
Y74269D01*
X652910D01*
Y74734D01*
X653375D01*
Y75199D01*
X653840D01*
Y75665D01*
X654771D01*
Y76130D01*
X655702D01*
Y76595D01*
X656167D01*
Y77061D01*
X656632D01*
Y77526D01*
X657097D01*
Y77991D01*
X657563D01*
Y78456D01*
X658028D01*
Y78922D01*
X658959D01*
Y79387D01*
X659424D01*
Y80318D01*
X660355D01*
Y80783D01*
X660820D01*
Y81248D01*
X661285D01*
Y81713D01*
X661750D01*
Y82644D01*
X662216D01*
Y83109D01*
X663146D01*
Y83575D01*
X663612D01*
Y84505D01*
X664077D01*
Y85436D01*
X664542D01*
Y85901D01*
X665007D01*
Y86366D01*
X665473D01*
Y86832D01*
X665938D01*
Y87297D01*
X666403D01*
Y88228D01*
X666869D01*
Y88693D01*
X667334D01*
Y89158D01*
X667799D01*
Y90089D01*
X668264D01*
Y90554D01*
X668730D01*
Y91484D01*
X669195D01*
Y91950D01*
X669660D01*
Y92880D01*
X670126D01*
Y93811D01*
X670591D01*
Y94276D01*
X671056D01*
Y95207D01*
X671521D01*
Y96137D01*
X671056D01*
Y95672D01*
X670126D01*
Y95207D01*
X669195D01*
Y94276D01*
X668730D01*
Y93346D01*
X668264D01*
Y92415D01*
X667799D01*
Y91950D01*
X667334D01*
Y91019D01*
X666869D01*
Y90554D01*
X666403D01*
Y89623D01*
X665938D01*
Y89158D01*
X665473D01*
Y88693D01*
X665007D01*
Y87762D01*
X664542D01*
Y87297D01*
X664077D01*
Y86832D01*
X663612D01*
Y85901D01*
X663146D01*
Y85436D01*
X662681D01*
Y84970D01*
X661750D01*
Y84040D01*
X661285D01*
Y83575D01*
X660820D01*
Y83109D01*
X660355D01*
Y82644D01*
X659889D01*
Y82179D01*
X659424D01*
Y81713D01*
X658959D01*
Y81248D01*
X658493D01*
Y80783D01*
X658028D01*
Y80318D01*
X657097D01*
Y79852D01*
X656632D01*
Y79387D01*
X656167D01*
Y78922D01*
X654306D01*
Y79387D01*
X652910D01*
Y79852D01*
X651514D01*
Y80318D01*
X649653D01*
Y80783D01*
X647792D01*
Y81248D01*
X645931D01*
Y81713D01*
X643139D01*
Y82179D01*
X641278D01*
Y82644D01*
X638021D01*
Y83109D01*
X635229D01*
Y83575D01*
X630111D01*
Y84040D01*
X609638D01*
Y83575D01*
X604520D01*
Y83109D01*
X600798D01*
Y82644D01*
X598006D01*
Y82179D01*
X596610D01*
Y81713D01*
X593818D01*
Y81248D01*
X591492D01*
Y80783D01*
X589631D01*
Y80318D01*
X587770D01*
Y79852D01*
X586374D01*
Y79387D01*
X584978D01*
Y78922D01*
X583117D01*
Y79387D01*
X582651D01*
Y79852D01*
X582186D01*
Y80318D01*
X581255D01*
Y80783D01*
X580790D01*
Y81248D01*
X580325D01*
Y81713D01*
X579860D01*
Y82179D01*
X579394D01*
Y82644D01*
X578929D01*
Y83109D01*
X578464D01*
Y83575D01*
X577999D01*
Y84040D01*
X577533D01*
Y84970D01*
X577068D01*
Y85436D01*
X576603D01*
Y85901D01*
X576137D01*
Y86366D01*
X575672D01*
Y86832D01*
X575207D01*
Y87297D01*
X574742D01*
Y88228D01*
X574276D01*
Y88693D01*
X573811D01*
Y89158D01*
X573346D01*
Y90089D01*
X572880D01*
Y90554D01*
X572415D01*
Y91484D01*
X571950D01*
Y91950D01*
X571484D01*
Y92880D01*
X571019D01*
Y93346D01*
X570554D01*
Y94276D01*
X570089D01*
Y95207D01*
X569623D01*
Y96137D01*
X569158D01*
Y96603D01*
X568693D01*
Y97533D01*
X568228D01*
Y98464D01*
X567762D01*
Y99860D01*
X567297D01*
Y100790D01*
X566832D01*
Y102186D01*
X566366D01*
Y103117D01*
X565901D01*
Y104513D01*
X565436D01*
Y105908D01*
X564970D01*
Y107304D01*
X564505D01*
Y109165D01*
X564040D01*
Y110561D01*
X563575D01*
Y112888D01*
X563109D01*
Y116145D01*
X562644D01*
Y116610D01*
D02*
G37*
G36*
X589631Y63567D02*
X589165D01*
Y63102D01*
X588700D01*
Y62171D01*
X589631D01*
Y61706D01*
X590561D01*
Y61241D01*
X591957D01*
Y61706D01*
X592422D01*
Y62171D01*
X591957D01*
Y62637D01*
X591027D01*
Y63102D01*
X589631D01*
Y63567D01*
D02*
G37*
G36*
X614291Y60310D02*
X610103D01*
Y59380D01*
X609638D01*
Y56588D01*
X610103D01*
Y56123D01*
X611034D01*
Y55657D01*
X612430D01*
Y55192D01*
X613360D01*
Y54727D01*
X613826D01*
Y53796D01*
X613360D01*
Y53331D01*
X611034D01*
Y53796D01*
X610569D01*
Y54727D01*
X609173D01*
Y53331D01*
X609638D01*
Y52400D01*
X611964D01*
Y51935D01*
X614291D01*
Y52400D01*
X614756D01*
Y53331D01*
X615222D01*
Y55657D01*
X614756D01*
Y56123D01*
X613826D01*
Y56588D01*
X612895D01*
Y57053D01*
X611499D01*
Y57519D01*
X611034D01*
Y58914D01*
X613360D01*
Y58449D01*
X613826D01*
Y57984D01*
X615222D01*
Y59380D01*
X614756D01*
Y59845D01*
X614291D01*
Y60310D01*
D02*
G37*
G36*
X648257Y66359D02*
X646396D01*
Y65894D01*
X645465D01*
Y65428D01*
X644535D01*
Y64963D01*
X643604D01*
Y64498D01*
X643139D01*
Y62637D01*
X643604D01*
Y62171D01*
X644069D01*
Y60775D01*
X644535D01*
Y59380D01*
X645000D01*
Y58449D01*
X645465D01*
Y57984D01*
X645931D01*
Y57519D01*
X647326D01*
Y57984D01*
X648722D01*
Y58449D01*
X649653D01*
Y58914D01*
X650583D01*
Y59380D01*
X651049D01*
Y61706D01*
X650583D01*
Y62637D01*
X650118D01*
Y63102D01*
X649653D01*
Y64498D01*
X649188D01*
Y65428D01*
X648722D01*
Y65894D01*
X648257D01*
Y66359D01*
D02*
G37*
G36*
X596610Y64498D02*
X595214D01*
Y63102D01*
X594749D01*
Y61706D01*
X594284D01*
Y60775D01*
X593818D01*
Y59845D01*
X593353D01*
Y58449D01*
X592888D01*
Y57053D01*
X593353D01*
Y56588D01*
X594749D01*
Y56123D01*
X596145D01*
Y55657D01*
X598471D01*
Y56588D01*
X598937D01*
Y57519D01*
X599402D01*
Y58914D01*
X598937D01*
Y59380D01*
X599867D01*
Y60310D01*
X600332D01*
Y62637D01*
X599867D01*
Y63102D01*
X599402D01*
Y63567D01*
X598006D01*
Y64033D01*
X596610D01*
Y64498D01*
D02*
G37*
G36*
X641278Y63102D02*
X638486D01*
Y62637D01*
X636625D01*
Y62171D01*
X635694D01*
Y61706D01*
X635229D01*
Y60775D01*
X635694D01*
Y59380D01*
X636160D01*
Y58449D01*
X636625D01*
Y57053D01*
X637090D01*
Y55657D01*
X637555D01*
Y54261D01*
X638951D01*
Y54727D01*
X640347D01*
Y55192D01*
X641743D01*
Y55657D01*
X642674D01*
Y56123D01*
X643139D01*
Y58449D01*
X642674D01*
Y59380D01*
X642208D01*
Y60775D01*
X641743D01*
Y62171D01*
X641278D01*
Y63102D01*
D02*
G37*
G36*
X604985Y61706D02*
X604520D01*
Y61241D01*
X604055D01*
Y60775D01*
X603589D01*
Y60310D01*
X603124D01*
Y59380D01*
X602659D01*
Y58449D01*
X602193D01*
Y57519D01*
X601728D01*
Y57053D01*
X601263D01*
Y56123D01*
X600798D01*
Y55657D01*
X600332D01*
Y55192D01*
Y54727D01*
Y54261D01*
X601728D01*
Y55192D01*
X602193D01*
Y55657D01*
X604055D01*
Y55192D01*
X605451D01*
Y53331D01*
X605916D01*
Y52866D01*
X607312D01*
Y54261D01*
X606846D01*
Y59380D01*
X606381D01*
Y61241D01*
X604985D01*
Y61706D01*
D02*
G37*
G36*
X630111Y60310D02*
X624993D01*
Y59845D01*
X624527D01*
Y56123D01*
X624993D01*
Y52400D01*
X625458D01*
Y51935D01*
X627319D01*
Y52400D01*
X630111D01*
Y52866D01*
X631041D01*
Y57519D01*
X630576D01*
Y58914D01*
Y59380D01*
Y59845D01*
X630111D01*
Y60310D01*
D02*
G37*
G36*
X622666Y59845D02*
X617548D01*
Y51935D01*
X618013D01*
Y51470D01*
X622666D01*
Y52866D01*
X619409D01*
Y53331D01*
X618944D01*
Y55192D01*
X622201D01*
Y56123D01*
X621736D01*
Y56588D01*
X618944D01*
Y58449D01*
X622666D01*
Y59845D01*
D02*
G37*
%LPD*%
G36*
X594749Y189660D02*
X595214D01*
Y188264D01*
X595680D01*
Y186868D01*
X596145D01*
Y185938D01*
X596610D01*
Y185007D01*
X597075D01*
Y184077D01*
X596145D01*
Y183612D01*
X594749D01*
Y183146D01*
X593818D01*
Y182681D01*
X592888D01*
Y182216D01*
X591957D01*
Y181750D01*
X591492D01*
Y182216D01*
X591027D01*
Y183146D01*
X590561D01*
Y184077D01*
X590096D01*
Y184542D01*
Y185007D01*
X589631D01*
Y186403D01*
X589165D01*
Y187799D01*
X589631D01*
Y188264D01*
X590561D01*
Y188730D01*
X591492D01*
Y189195D01*
X592888D01*
Y189660D01*
X593818D01*
Y190126D01*
X594749D01*
Y189660D01*
D02*
G37*
G36*
X645465D02*
X646396D01*
Y189195D01*
X647792D01*
Y188730D01*
X648722D01*
Y188264D01*
X649188D01*
Y187799D01*
X649653D01*
Y187334D01*
X649188D01*
Y185938D01*
X648722D01*
Y185473D01*
X647792D01*
Y185938D01*
X646861D01*
Y186403D01*
X645465D01*
Y186868D01*
X644535D01*
Y187334D01*
X643604D01*
Y187799D01*
X643139D01*
Y188730D01*
X643604D01*
Y189660D01*
X644069D01*
Y190126D01*
X645465D01*
Y189660D01*
D02*
G37*
G36*
X582186Y181750D02*
X582651D01*
Y181285D01*
X583117D01*
Y180354D01*
X583582D01*
Y179889D01*
X584047D01*
Y179424D01*
X584512D01*
Y178959D01*
X584978D01*
Y177563D01*
X584047D01*
Y177097D01*
X583582D01*
Y176632D01*
X583117D01*
Y176167D01*
X582186D01*
Y175702D01*
X581721D01*
Y175236D01*
X581255D01*
Y174771D01*
X579860D01*
Y175236D01*
X579394D01*
Y175702D01*
X578929D01*
Y176167D01*
X578464D01*
Y176632D01*
X577999D01*
Y177563D01*
X577533D01*
Y178493D01*
X577068D01*
Y178959D01*
X576603D01*
Y179889D01*
X577533D01*
Y180354D01*
X577999D01*
Y180820D01*
X578464D01*
Y181285D01*
X578929D01*
Y181750D01*
X579860D01*
Y182216D01*
X580325D01*
Y182681D01*
X582186D01*
Y181750D01*
D02*
G37*
G36*
X556130Y159417D02*
X555665D01*
Y159882D01*
X556130D01*
Y159417D01*
D02*
G37*
G36*
X665938Y145923D02*
X666403D01*
Y138013D01*
X665938D01*
Y140805D01*
Y141270D01*
Y143131D01*
X665473D01*
Y148715D01*
X665938D01*
Y145923D01*
D02*
G37*
G36*
X659424Y130569D02*
Y130103D01*
X658959D01*
Y131034D01*
X659424D01*
Y130569D01*
D02*
G37*
G36*
X655702Y119402D02*
X655236D01*
Y119867D01*
X655702D01*
Y119402D01*
D02*
G37*
G36*
X655236Y118937D02*
X653840D01*
Y118471D01*
X652445D01*
Y118006D01*
X650583D01*
Y117541D01*
X649188D01*
Y117075D01*
X648257D01*
Y117541D01*
Y118006D01*
X649653D01*
Y118471D01*
X651514D01*
Y118937D01*
X653375D01*
Y119402D01*
X655236D01*
Y118937D01*
D02*
G37*
G36*
X656167Y118006D02*
X655702D01*
Y116610D01*
Y116145D01*
Y115214D01*
X655236D01*
Y117541D01*
X654306D01*
Y115679D01*
X654771D01*
Y114749D01*
X653375D01*
Y114284D01*
X652445D01*
Y114749D01*
X651979D01*
Y114284D01*
X651514D01*
Y114749D01*
X651049D01*
Y115214D01*
X650583D01*
Y114749D01*
X651049D01*
Y113818D01*
X650118D01*
Y114284D01*
X649653D01*
Y113353D01*
X649188D01*
Y115679D01*
X648722D01*
Y113353D01*
X648257D01*
Y116145D01*
X648722D01*
Y116610D01*
X649188D01*
Y116145D01*
Y115679D01*
X649653D01*
Y116610D01*
X650118D01*
Y115679D01*
X650583D01*
Y116610D01*
X651049D01*
Y117075D01*
X651514D01*
Y116610D01*
X651979D01*
Y117075D01*
X652445D01*
Y117541D01*
X653840D01*
Y118006D01*
X655236D01*
Y118471D01*
X656167D01*
Y118006D01*
D02*
G37*
G36*
X651514Y105443D02*
X651049D01*
Y105908D01*
X651514D01*
Y105443D01*
D02*
G37*
%LPC*%
G36*
X653375Y116610D02*
X652445D01*
Y115214D01*
X653375D01*
Y115679D01*
X652910D01*
Y116145D01*
X653375D01*
Y116610D01*
D02*
G37*
G36*
X651979Y115679D02*
X651514D01*
Y115214D01*
X651979D01*
Y115679D01*
D02*
G37*
%LPD*%
G36*
X585443Y139409D02*
X584978D01*
Y139874D01*
X585443D01*
Y139409D01*
D02*
G37*
G36*
X584978Y138944D02*
X584512D01*
Y139409D01*
X584978D01*
Y138944D01*
D02*
G37*
G36*
X636625Y132430D02*
X635694D01*
Y132895D01*
X636625D01*
Y132430D01*
D02*
G37*
G36*
X666869Y129173D02*
X666403D01*
Y130569D01*
Y131034D01*
Y132895D01*
X665938D01*
Y135222D01*
X666869D01*
Y129173D01*
D02*
G37*
G36*
X669660Y125916D02*
X669195D01*
Y126381D01*
X669660D01*
Y125916D01*
D02*
G37*
G36*
X665007Y119402D02*
X664542D01*
Y119867D01*
X665007D01*
Y119402D01*
D02*
G37*
G36*
X665473Y118471D02*
X665007D01*
Y118937D01*
X665473D01*
Y118471D01*
D02*
G37*
G36*
X683154Y126846D02*
X682688D01*
Y126381D01*
X680362D01*
Y125916D01*
X678035D01*
Y126381D01*
X679897D01*
Y126846D01*
X681758D01*
Y127312D01*
X683154D01*
Y126846D01*
D02*
G37*
G36*
X675709Y124520D02*
X674313D01*
Y124055D01*
X672452D01*
Y123589D01*
X671987D01*
Y124520D01*
X673383D01*
Y124985D01*
X674778D01*
Y125450D01*
X675709D01*
Y124520D01*
D02*
G37*
G36*
X576137Y122659D02*
Y122193D01*
X575672D01*
Y123124D01*
X576137D01*
Y122659D01*
D02*
G37*
G36*
X640347Y119867D02*
X639882D01*
Y120332D01*
X640347D01*
Y119867D01*
D02*
G37*
G36*
X662216Y120798D02*
X660820D01*
Y120332D01*
X658959D01*
Y119867D01*
X657563D01*
Y120332D01*
X658028D01*
Y120798D01*
X659889D01*
Y121263D01*
X662216D01*
Y120798D01*
D02*
G37*
G36*
X622666Y124520D02*
X622201D01*
Y124985D01*
X622666D01*
Y124520D01*
D02*
G37*
G36*
X630111Y115679D02*
X629646D01*
Y116145D01*
X630111D01*
Y115679D01*
D02*
G37*
G36*
X667799Y111027D02*
Y110561D01*
Y110096D01*
X667334D01*
Y111027D01*
X666869D01*
Y115679D01*
X667799D01*
Y111027D01*
D02*
G37*
G36*
X678501Y115214D02*
X678966D01*
Y114749D01*
X679897D01*
Y114284D01*
X680362D01*
Y113818D01*
X678966D01*
Y113353D01*
X679431D01*
Y112888D01*
X679897D01*
Y112422D01*
X678966D01*
Y112888D01*
X678035D01*
Y113353D01*
X677105D01*
Y113818D01*
X676640D01*
Y114284D01*
X677105D01*
Y115214D01*
X677570D01*
Y115679D01*
X678501D01*
Y115214D01*
D02*
G37*
G36*
X678035Y111957D02*
Y111492D01*
X677570D01*
Y112422D01*
X678035D01*
Y111957D01*
D02*
G37*
%LPC*%
G36*
X678501Y114749D02*
X677570D01*
Y113818D01*
X678035D01*
Y114284D01*
X678501D01*
Y114749D01*
D02*
G37*
%LPD*%
G36*
X624062Y103117D02*
X623131D01*
Y103582D01*
X624062D01*
Y103117D01*
D02*
G37*
G36*
X624993Y102651D02*
X624527D01*
Y103117D01*
X624993D01*
Y102651D01*
D02*
G37*
G36*
X631507Y99860D02*
X631041D01*
Y100325D01*
X631507D01*
Y99860D01*
D02*
G37*
G36*
X667799Y106839D02*
X668264D01*
Y97999D01*
X667799D01*
Y98929D01*
X667334D01*
Y100790D01*
X667799D01*
Y101721D01*
X667334D01*
Y107304D01*
X667799D01*
Y106839D01*
D02*
G37*
G36*
X629646Y82179D02*
X634764D01*
Y81713D01*
X638021D01*
Y81248D01*
X640812D01*
Y80783D01*
X643604D01*
Y80318D01*
X646861D01*
Y79852D01*
X648722D01*
Y79387D01*
X650118D01*
Y78922D01*
X651979D01*
Y78456D01*
X653375D01*
Y77991D01*
X654306D01*
Y77526D01*
X653840D01*
Y77061D01*
X653375D01*
Y76595D01*
X652910D01*
Y76130D01*
X651979D01*
Y75665D01*
X651514D01*
Y75199D01*
X650583D01*
Y74734D01*
X650118D01*
Y74269D01*
X649188D01*
Y73804D01*
X648722D01*
Y73338D01*
X647792D01*
Y72873D01*
X646861D01*
Y72408D01*
X645931D01*
Y71942D01*
X645465D01*
Y71477D01*
X644535D01*
Y71012D01*
X643139D01*
Y70546D01*
X642208D01*
Y70081D01*
X641278D01*
Y69616D01*
X639882D01*
Y69151D01*
X638951D01*
Y68685D01*
X638021D01*
Y68220D01*
X636625D01*
Y67755D01*
X634764D01*
Y67290D01*
X632437D01*
Y66824D01*
X631507D01*
Y66359D01*
X628715D01*
Y65894D01*
X624993D01*
Y65428D01*
X614756D01*
Y65894D01*
X610569D01*
Y66359D01*
X608242D01*
Y66824D01*
X607312D01*
Y67290D01*
X604985D01*
Y67755D01*
X603124D01*
Y68220D01*
X601728D01*
Y68685D01*
X600332D01*
Y69151D01*
X599402D01*
Y69616D01*
X598006D01*
Y70081D01*
X597075D01*
Y70546D01*
X595680D01*
Y71012D01*
X594749D01*
Y71477D01*
X593818D01*
Y71942D01*
X593353D01*
Y72408D01*
X592422D01*
Y72873D01*
X591492D01*
Y73338D01*
X590561D01*
Y73804D01*
X589631D01*
Y74734D01*
X588700D01*
Y75199D01*
X588235D01*
Y75665D01*
X587770D01*
Y76130D01*
X586839D01*
Y76595D01*
X585908D01*
Y77061D01*
X585443D01*
Y77526D01*
X584978D01*
Y77991D01*
X585443D01*
Y78456D01*
X587770D01*
Y78922D01*
X589631D01*
Y79387D01*
X590561D01*
Y79852D01*
X592422D01*
Y80318D01*
X595680D01*
Y80783D01*
X598937D01*
Y81248D01*
X602193D01*
Y81713D01*
X604985D01*
Y82179D01*
X608708D01*
Y82644D01*
X629646D01*
Y82179D01*
D02*
G37*
%LPC*%
G36*
X627784Y77526D02*
X626854D01*
Y77061D01*
X626389D01*
Y76595D01*
X625458D01*
Y76130D01*
X624993D01*
Y75199D01*
X625458D01*
Y75665D01*
X626389D01*
Y76130D01*
X627319D01*
Y76595D01*
X627784D01*
Y77526D01*
D02*
G37*
G36*
X621736Y75199D02*
X621270D01*
Y74734D01*
X620805D01*
Y74269D01*
X620340D01*
Y73804D01*
Y73338D01*
X620805D01*
Y72873D01*
X621736D01*
Y73338D01*
X625458D01*
Y74269D01*
X621736D01*
Y75199D01*
D02*
G37*
G36*
X631041Y76595D02*
X630576D01*
Y75665D01*
X631041D01*
Y75199D01*
X631507D01*
Y74734D01*
Y74269D01*
Y72408D01*
X631041D01*
Y71942D01*
X630576D01*
Y71012D01*
X631041D01*
Y71477D01*
X631507D01*
Y71942D01*
X633368D01*
Y72408D01*
X633833D01*
Y75199D01*
X633368D01*
Y75665D01*
X631507D01*
Y76130D01*
X631041D01*
Y76595D01*
D02*
G37*
G36*
X625458Y72408D02*
X624527D01*
Y71942D01*
X624993D01*
Y71477D01*
X625458D01*
Y71012D01*
X626389D01*
Y70546D01*
X626854D01*
Y70081D01*
X627784D01*
Y70546D01*
X627319D01*
Y71012D01*
X626854D01*
Y71477D01*
X626389D01*
Y71942D01*
X625458D01*
Y72408D01*
D02*
G37*
G36*
X613826Y78456D02*
X610103D01*
Y77526D01*
X609638D01*
Y77061D01*
X607312D01*
Y76595D01*
X606846D01*
Y70081D01*
X617083D01*
Y74734D01*
X617548D01*
Y75665D01*
X617083D01*
Y76595D01*
X616617D01*
Y77061D01*
X614756D01*
Y77526D01*
X614291D01*
Y77991D01*
X613826D01*
Y78456D01*
D02*
G37*
G36*
X629646D02*
X628715D01*
Y73804D01*
Y73338D01*
Y69151D01*
X629646D01*
Y78456D01*
D02*
G37*
%LPD*%
G36*
X616617Y75199D02*
X615222D01*
Y75665D01*
Y76130D01*
X616617D01*
Y75199D01*
D02*
G37*
G36*
X613826Y75665D02*
X614291D01*
Y75199D01*
X614756D01*
Y72408D01*
X614291D01*
Y71477D01*
X613826D01*
Y71012D01*
X612430D01*
Y70546D01*
X611964D01*
Y71012D01*
X610569D01*
Y71477D01*
X610103D01*
Y71942D01*
X609638D01*
Y72873D01*
X609173D01*
Y74269D01*
X609638D01*
Y75665D01*
X610569D01*
Y76130D01*
X613826D01*
Y75665D01*
D02*
G37*
%LPC*%
G36*
X613360Y75199D02*
X611034D01*
Y74734D01*
X610569D01*
Y73804D01*
X610103D01*
Y73338D01*
X610569D01*
Y72408D01*
X611034D01*
Y71942D01*
X612895D01*
Y72408D01*
X613360D01*
Y72873D01*
X613826D01*
Y74269D01*
X613360D01*
Y75199D01*
D02*
G37*
%LPD*%
G36*
X647326Y64498D02*
X647792D01*
Y63567D01*
X648257D01*
Y62637D01*
X648722D01*
Y61706D01*
X649188D01*
Y60775D01*
X649653D01*
Y60310D01*
X649188D01*
Y59845D01*
X648257D01*
Y59380D01*
X647792D01*
Y58914D01*
X646861D01*
Y59380D01*
X646396D01*
Y60310D01*
X645931D01*
Y60775D01*
Y61241D01*
X645465D01*
Y62637D01*
X645000D01*
Y63102D01*
X644535D01*
Y63567D01*
X645000D01*
Y64033D01*
X645931D01*
Y64498D01*
X646396D01*
Y64963D01*
X647326D01*
Y64498D01*
D02*
G37*
G36*
X597075Y62637D02*
X598471D01*
Y62171D01*
X598937D01*
Y60775D01*
X598471D01*
Y60310D01*
X597075D01*
Y60775D01*
X596145D01*
Y61241D01*
X595680D01*
Y61706D01*
X596145D01*
Y63102D01*
X597075D01*
Y62637D01*
D02*
G37*
G36*
X596610Y59380D02*
X597541D01*
Y58914D01*
X598006D01*
Y57984D01*
X597541D01*
Y57053D01*
X596145D01*
Y57519D01*
X595214D01*
Y57984D01*
X594749D01*
Y58449D01*
Y58914D01*
Y59380D01*
X595214D01*
Y59845D01*
X596610D01*
Y59380D01*
D02*
G37*
G36*
X640347Y60310D02*
X640812D01*
Y58914D01*
X641278D01*
Y57053D01*
Y56588D01*
X640347D01*
Y56123D01*
X638486D01*
Y57519D01*
X638021D01*
Y58914D01*
X637555D01*
Y60310D01*
X637090D01*
Y60775D01*
X637555D01*
Y61241D01*
X638486D01*
Y61706D01*
X640347D01*
Y60310D01*
D02*
G37*
G36*
X605451Y56588D02*
X603589D01*
Y57053D01*
X603124D01*
Y57519D01*
X603589D01*
Y58449D01*
X604055D01*
Y58914D01*
X604520D01*
Y59845D01*
X605451D01*
Y56588D01*
D02*
G37*
G36*
X629180D02*
X629646D01*
Y53796D01*
X628250D01*
Y53331D01*
X626854D01*
Y53796D01*
X626389D01*
Y55192D01*
Y55657D01*
Y57519D01*
X625923D01*
Y58449D01*
X626389D01*
Y58914D01*
X629180D01*
Y56588D01*
D02*
G37*
D10*
X360500Y465250D02*
G03*
X360500Y465250I-1000J0D01*
G01*
X635900Y550885D02*
G03*
X635900Y550885I-1000J0D01*
G01*
X425000Y623000D02*
G03*
X425000Y623000I-1000J0D01*
G01*
X364997Y28000D02*
X376997D01*
X467000Y64000D02*
X479000D01*
X519000D02*
X531000D01*
D11*
X581750Y691132D02*
G03*
X581750Y691132I-250J0D01*
G01*
X316500Y519000D02*
G03*
X316500Y519000I-500J0D01*
G01*
X337500Y690250D02*
G03*
X337500Y690250I-500J0D01*
G01*
D12*
X268500Y412250D02*
G03*
X268500Y412250I-500J0D01*
G01*
X321000Y534000D02*
Y564000D01*
X371000Y534000D02*
Y564000D01*
X487500Y567500D02*
Y579900D01*
X452500Y567500D02*
X487500D01*
Y620100D02*
Y632500D01*
X452500D02*
X487500D01*
X332000Y706250D02*
Y718750D01*
X362000Y706250D02*
Y718750D01*
D13*
X777250Y249200D02*
Y257750D01*
X782000D01*
X821000Y210750D02*
Y257750D01*
X818500D02*
X821000D01*
Y163750D02*
Y210750D01*
X818500Y163750D02*
X821000D01*
X777250D02*
Y172300D01*
Y163750D02*
X782000D01*
X54695Y402750D02*
X65000D01*
X54695Y363000D02*
Y402750D01*
X20750Y363000D02*
X54695D01*
X10000Y352250D02*
X20750Y363000D01*
X10000Y277000D02*
Y352250D01*
X54695Y151250D02*
Y191000D01*
X20750D02*
X54695D01*
X10000Y201750D02*
X20750Y191000D01*
X10000Y201750D02*
Y277000D01*
X125305Y363000D02*
Y402750D01*
Y363000D02*
X170000D01*
Y277000D02*
Y363000D01*
X125305Y151250D02*
Y191000D01*
X159250D01*
X170000Y201750D01*
Y277000D01*
X115000Y402750D02*
X125305D01*
X115000Y151250D02*
X125305D01*
X54695D02*
X65000D01*
X765598Y293583D02*
X763598D01*
X764598D01*
Y288585D01*
X763598Y287585D01*
X762599D01*
X761599Y288585D01*
X767597Y292583D02*
X768597Y293583D01*
X770596D01*
X771596Y292583D01*
Y291584D01*
X770596Y290584D01*
X769596D01*
X770596D01*
X771596Y289584D01*
Y288585D01*
X770596Y287585D01*
X768597D01*
X767597Y288585D01*
X622498Y664633D02*
Y669632D01*
X621499Y670631D01*
X619499D01*
X618500Y669632D01*
Y664633D01*
X612502D02*
X614501Y665633D01*
X616500Y667632D01*
Y669632D01*
X615501Y670631D01*
X613501D01*
X612502Y669632D01*
Y668632D01*
X613501Y667632D01*
X616500D01*
X562499Y522001D02*
X563498Y521001D01*
X565498D01*
X566497Y522001D01*
Y523000D01*
X565498Y524000D01*
X563498D01*
X562499Y525000D01*
Y525999D01*
X563498Y526999D01*
X565498D01*
X566497Y525999D01*
X560499Y521001D02*
Y526999D01*
X557500D01*
X556501Y525999D01*
Y525000D01*
X557500Y524000D01*
X560499D01*
X557500D01*
X556501Y523000D01*
Y522001D01*
X557500Y521001D01*
X560499D01*
X550503D02*
X554501D01*
Y524000D01*
X552502Y523000D01*
X551502D01*
X550503Y524000D01*
Y525999D01*
X551502Y526999D01*
X553502D01*
X554501Y525999D01*
X272000Y70749D02*
X271001Y71749D01*
X269001D01*
X268002Y70749D01*
Y69750D01*
X269001Y68750D01*
X271001D01*
X272000Y67750D01*
Y66751D01*
X271001Y65751D01*
X269001D01*
X268002Y66751D01*
X277998Y65751D02*
X274000D01*
X277998Y69750D01*
Y70749D01*
X276999Y71749D01*
X274999D01*
X274000Y70749D01*
X507003Y664001D02*
Y669999D01*
X510002D01*
X511001Y668999D01*
Y667000D01*
X510002Y666000D01*
X507003D01*
X509002D02*
X511001Y664001D01*
X516999D02*
X513001D01*
X516999Y668000D01*
Y668999D01*
X516000Y669999D01*
X514000D01*
X513001Y668999D01*
X522997Y669999D02*
X520998Y668999D01*
X518999Y667000D01*
Y665001D01*
X519998Y664001D01*
X521998D01*
X522997Y665001D01*
Y666000D01*
X521998Y667000D01*
X518999D01*
X691497Y677631D02*
Y671633D01*
X688498D01*
X687499Y672633D01*
Y674632D01*
X688498Y675632D01*
X691497D01*
X689498D02*
X687499Y677631D01*
X681501D02*
X685499D01*
X681501Y673632D01*
Y672633D01*
X682500Y671633D01*
X684500D01*
X685499Y672633D01*
X675503Y671633D02*
X679501D01*
Y674632D01*
X677502Y673632D01*
X676502D01*
X675503Y674632D01*
Y676631D01*
X676502Y677631D01*
X678502D01*
X679501Y676631D01*
X514003Y683001D02*
Y688999D01*
X517002D01*
X518001Y687999D01*
Y686000D01*
X517002Y685000D01*
X514003D01*
X516002D02*
X518001Y683001D01*
X523999D02*
X520001D01*
X523999Y687000D01*
Y687999D01*
X523000Y688999D01*
X521000D01*
X520001Y687999D01*
X528998Y683001D02*
Y688999D01*
X525999Y686000D01*
X529997D01*
X553001Y619742D02*
X558999D01*
Y616743D01*
X557999Y615744D01*
X556000D01*
X555000Y616743D01*
Y619742D01*
Y617743D02*
X553001Y615744D01*
Y609746D02*
Y613744D01*
X557000Y609746D01*
X557999D01*
X558999Y610745D01*
Y612745D01*
X557999Y613744D01*
Y607746D02*
X558999Y606747D01*
Y604747D01*
X557999Y603748D01*
X557000D01*
X556000Y604747D01*
Y605747D01*
Y604747D01*
X555000Y603748D01*
X554001D01*
X553001Y604747D01*
Y606747D01*
X554001Y607746D01*
X513003Y698001D02*
Y703999D01*
X516002D01*
X517001Y702999D01*
Y701000D01*
X516002Y700000D01*
X513003D01*
X515002D02*
X517001Y698001D01*
X522999D02*
X519001D01*
X522999Y702000D01*
Y702999D01*
X522000Y703999D01*
X520000D01*
X519001Y702999D01*
X528997Y698001D02*
X524999D01*
X528997Y702000D01*
Y702999D01*
X527998Y703999D01*
X525998D01*
X524999Y702999D01*
X567376Y621513D02*
X573374D01*
Y618514D01*
X572374Y617514D01*
X570375D01*
X569375Y618514D01*
Y621513D01*
Y619513D02*
X567376Y617514D01*
Y611516D02*
Y615515D01*
X571375Y611516D01*
X572374D01*
X573374Y612516D01*
Y614515D01*
X572374Y615515D01*
X567376Y609517D02*
Y607517D01*
Y608517D01*
X573374D01*
X572374Y609517D01*
X369001Y322997D02*
X374999D01*
Y319998D01*
X373999Y318999D01*
X372000D01*
X371000Y319998D01*
Y322997D01*
Y320998D02*
X369001Y318999D01*
Y313001D02*
Y316999D01*
X373000Y313001D01*
X373999D01*
X374999Y314000D01*
Y316000D01*
X373999Y316999D01*
Y311001D02*
X374999Y310002D01*
Y308002D01*
X373999Y307003D01*
X370001D01*
X369001Y308002D01*
Y310002D01*
X370001Y311001D01*
X373999D01*
X533503Y723001D02*
Y728999D01*
X536502D01*
X537501Y727999D01*
Y726000D01*
X536502Y725000D01*
X533503D01*
X535502D02*
X537501Y723001D01*
X539501D02*
X541500D01*
X540500D01*
Y728999D01*
X539501Y727999D01*
X544499Y724001D02*
X545499Y723001D01*
X547498D01*
X548498Y724001D01*
Y727999D01*
X547498Y728999D01*
X545499D01*
X544499Y727999D01*
Y727000D01*
X545499Y726000D01*
X548498D01*
X292502Y66001D02*
Y71999D01*
X295501D01*
X296501Y70999D01*
Y69000D01*
X295501Y68000D01*
X292502D01*
X294501D02*
X296501Y66001D01*
X298500D02*
X300500D01*
X299500D01*
Y71999D01*
X298500Y70999D01*
X303499Y66001D02*
X305498D01*
X304498D01*
Y71999D01*
X303499Y70999D01*
X385001Y322998D02*
X390999D01*
Y319999D01*
X389999Y319000D01*
X388000D01*
X387000Y319999D01*
Y322998D01*
Y320999D02*
X385001Y319000D01*
X390999Y317000D02*
Y313002D01*
X389999D01*
X386001Y317000D01*
X385001D01*
X410985Y317029D02*
Y311031D01*
X407986D01*
X406986Y312031D01*
Y314030D01*
X407986Y315030D01*
X410985D01*
X408986D02*
X406986Y317029D01*
X400988Y311031D02*
X402988Y312031D01*
X404987Y314030D01*
Y316029D01*
X403987Y317029D01*
X401988D01*
X400988Y316029D01*
Y315030D01*
X401988Y314030D01*
X404987D01*
X696499Y691633D02*
X697498Y690633D01*
X699498D01*
X700497Y691633D01*
Y695631D01*
X699498Y696631D01*
X697498D01*
X696499Y695631D01*
X690501Y696631D02*
X694499D01*
X690501Y692633D01*
Y691633D01*
X691500Y690633D01*
X693500D01*
X694499Y691633D01*
X688501D02*
X687502Y690633D01*
X685502D01*
X684503Y691633D01*
Y692633D01*
X685502Y693632D01*
X686502D01*
X685502D01*
X684503Y694632D01*
Y695631D01*
X685502Y696631D01*
X687502D01*
X688501Y695631D01*
X688499Y655633D02*
X689498Y654633D01*
X691498D01*
X692497Y655633D01*
Y659631D01*
X691498Y660631D01*
X689498D01*
X688499Y659631D01*
X682501Y660631D02*
X686499D01*
X682501Y656632D01*
Y655633D01*
X683500Y654633D01*
X685500D01*
X686499Y655633D01*
X676503Y660631D02*
X680501D01*
X676503Y656632D01*
Y655633D01*
X677502Y654633D01*
X679502D01*
X680501Y655633D01*
X636001Y631999D02*
X635001Y632999D01*
X633002D01*
X632002Y631999D01*
Y628001D01*
X633002Y627001D01*
X635001D01*
X636001Y628001D01*
X641999Y627001D02*
X638000D01*
X641999Y631000D01*
Y631999D01*
X640999Y632999D01*
X639000D01*
X638000Y631999D01*
X643998Y627001D02*
X645998D01*
X644998D01*
Y632999D01*
X643998Y631999D01*
X616501Y703999D02*
X615502Y704999D01*
X613502D01*
X612503Y703999D01*
Y700001D01*
X613502Y699001D01*
X615502D01*
X616501Y700001D01*
X618501Y699001D02*
X620500D01*
X619500D01*
Y704999D01*
X618501Y703999D01*
X627498Y699001D02*
X623499D01*
X627498Y703000D01*
Y703999D01*
X626498Y704999D01*
X624498D01*
X623499Y703999D01*
X632501Y724999D02*
X631501Y725999D01*
X629502D01*
X628502Y724999D01*
Y721001D01*
X629502Y720001D01*
X631501D01*
X632501Y721001D01*
X634500Y720001D02*
X636499D01*
X635500D01*
Y725999D01*
X634500Y724999D01*
X639498Y720001D02*
X641498D01*
X640498D01*
Y725999D01*
X639498Y724999D01*
X314501Y71249D02*
X313501Y72249D01*
X311502D01*
X310502Y71249D01*
Y67251D01*
X311502Y66251D01*
X313501D01*
X314501Y67251D01*
X316500Y66251D02*
X318500D01*
X317500D01*
Y72249D01*
X316500Y71249D01*
X321499D02*
X322499Y72249D01*
X324498D01*
X325498Y71249D01*
Y67251D01*
X324498Y66251D01*
X322499D01*
X321499Y67251D01*
Y71249D01*
X231001Y399000D02*
X230001Y398001D01*
Y396001D01*
X231001Y395002D01*
X234999D01*
X235999Y396001D01*
Y398001D01*
X234999Y399000D01*
X231001Y401000D02*
X230001Y401999D01*
Y403999D01*
X231001Y404998D01*
X232000D01*
X233000Y403999D01*
Y402999D01*
Y403999D01*
X234000Y404998D01*
X234999D01*
X235999Y403999D01*
Y401999D01*
X234999Y401000D01*
X418001Y601501D02*
X417001Y600502D01*
Y598502D01*
X418001Y597502D01*
X421999D01*
X422999Y598502D01*
Y600502D01*
X421999Y601501D01*
X422999Y603501D02*
Y605500D01*
Y604500D01*
X417001D01*
X418001Y603501D01*
Y608499D02*
X417001Y609498D01*
Y611498D01*
X418001Y612498D01*
X419000D01*
X420000Y611498D01*
X421000Y612498D01*
X421999D01*
X422999Y611498D01*
Y609498D01*
X421999Y608499D01*
X421000D01*
X420000Y609498D01*
X419000Y608499D01*
X418001D01*
X420000Y609498D02*
Y611498D01*
X78001Y590501D02*
X77001Y589501D01*
Y587502D01*
X78001Y586502D01*
X81999D01*
X82999Y587502D01*
Y589501D01*
X81999Y590501D01*
X82999Y592500D02*
Y594500D01*
Y593500D01*
X77001D01*
X78001Y592500D01*
X77001Y597499D02*
Y601498D01*
X78001D01*
X81999Y597499D01*
X82999D01*
X493002Y630999D02*
Y626001D01*
X494001Y625001D01*
X496001D01*
X497000Y626001D01*
Y630999D01*
X502998D02*
X499000D01*
Y628000D01*
X500999Y629000D01*
X501999D01*
X502998Y628000D01*
Y626001D01*
X501999Y625001D01*
X499999D01*
X499000Y626001D01*
X556002Y588999D02*
Y584001D01*
X557001Y583001D01*
X559001D01*
X560000Y584001D01*
Y588999D01*
X564999Y583001D02*
Y588999D01*
X562000Y586000D01*
X565998D01*
X383503Y65001D02*
Y70999D01*
X386502D01*
X387501Y69999D01*
Y68000D01*
X386502Y67000D01*
X383503D01*
X385502D02*
X387501Y65001D01*
X389501D02*
X391500D01*
X390500D01*
Y70999D01*
X389501Y69999D01*
X397498Y65001D02*
Y70999D01*
X394499Y68000D01*
X398498D01*
X676252Y526736D02*
Y532734D01*
X679251D01*
X680251Y531734D01*
Y529735D01*
X679251Y528735D01*
X676252D01*
X678252D02*
X680251Y526736D01*
X682251D02*
X684250D01*
X683250D01*
Y532734D01*
X682251Y531734D01*
X691248Y532734D02*
X687249D01*
Y529735D01*
X689248Y530734D01*
X690248D01*
X691248Y529735D01*
Y527735D01*
X690248Y526736D01*
X688249D01*
X687249Y527735D01*
X678257Y573736D02*
Y579734D01*
X681256D01*
X682256Y578734D01*
Y576735D01*
X681256Y575735D01*
X678257D01*
X680257D02*
X682256Y573736D01*
X684256D02*
X686255D01*
X685255D01*
Y579734D01*
X684256Y578734D01*
X689254D02*
X690254Y579734D01*
X692253D01*
X693253Y578734D01*
Y577734D01*
X692253Y576735D01*
X693253Y575735D01*
Y574735D01*
X692253Y573736D01*
X690254D01*
X689254Y574735D01*
Y575735D01*
X690254Y576735D01*
X689254Y577734D01*
Y578734D01*
X690254Y576735D02*
X692253D01*
X622998Y539999D02*
Y534001D01*
X619999D01*
X618999Y535001D01*
Y537000D01*
X619999Y538000D01*
X622998D01*
X620998D02*
X618999Y539999D01*
X617000D02*
X615000D01*
X616000D01*
Y534001D01*
X617000Y535001D01*
X612001Y534001D02*
X608002D01*
Y535001D01*
X612001Y538999D01*
Y539999D01*
X682752Y545736D02*
Y551734D01*
X685751D01*
X686751Y550734D01*
Y548735D01*
X685751Y547735D01*
X682752D01*
X684752D02*
X686751Y545736D01*
X688751D02*
X690750D01*
X689750D01*
Y551734D01*
X688751Y550734D01*
X697748Y551734D02*
X695748Y550734D01*
X693749Y548735D01*
Y546735D01*
X694749Y545736D01*
X696748D01*
X697748Y546735D01*
Y547735D01*
X696748Y548735D01*
X693749D01*
X365002Y72000D02*
Y66002D01*
X368001D01*
X369000Y67002D01*
Y71000D01*
X368001Y72000D01*
X365002D01*
X373999Y66002D02*
Y72000D01*
X371000Y69001D01*
X374998D01*
X376500Y597999D02*
X375501Y598999D01*
X373501D01*
X372502Y597999D01*
Y594001D01*
X373501Y593001D01*
X375501D01*
X376500Y594001D01*
X382498Y598999D02*
X380499Y597999D01*
X378500Y596000D01*
Y594001D01*
X379499Y593001D01*
X381499D01*
X382498Y594001D01*
Y595000D01*
X381499Y596000D01*
X378500D01*
X315000Y597999D02*
X314001Y598999D01*
X312001D01*
X311002Y597999D01*
Y594001D01*
X312001Y593001D01*
X314001D01*
X315000Y594001D01*
X320998Y598999D02*
X317000D01*
Y596000D01*
X318999Y597000D01*
X319999D01*
X320998Y596000D01*
Y594001D01*
X319999Y593001D01*
X317999D01*
X317000Y594001D01*
X484707Y544348D02*
X483708Y545347D01*
X481708D01*
X480709Y544348D01*
Y540349D01*
X481708Y539349D01*
X483708D01*
X484707Y540349D01*
X486707Y539349D02*
X488706D01*
X487706D01*
Y545347D01*
X486707Y544348D01*
X494704Y539349D02*
Y545347D01*
X491705Y542348D01*
X495704D01*
X501001Y560999D02*
X500001Y561999D01*
X498002D01*
X497002Y560999D01*
Y557001D01*
X498002Y556001D01*
X500001D01*
X501001Y557001D01*
X503000Y556001D02*
X505000D01*
X504000D01*
Y561999D01*
X503000Y560999D01*
X507999D02*
X508998Y561999D01*
X510998D01*
X511998Y560999D01*
Y560000D01*
X510998Y559000D01*
X509998D01*
X510998D01*
X511998Y558000D01*
Y557001D01*
X510998Y556001D01*
X508998D01*
X507999Y557001D01*
X523999Y632999D02*
X524999Y633998D01*
Y635998D01*
X523999Y636997D01*
X520001D01*
X519001Y635998D01*
Y633998D01*
X520001Y632999D01*
X519001Y627001D02*
Y630999D01*
X523000Y627001D01*
X523999D01*
X524999Y628000D01*
Y630000D01*
X523999Y630999D01*
Y625001D02*
X524999Y624002D01*
Y622002D01*
X523999Y621003D01*
X520001D01*
X519001Y622002D01*
Y624002D01*
X520001Y625001D01*
X523999D01*
X539001Y593001D02*
X538001Y592001D01*
Y590002D01*
X539001Y589002D01*
X542999D01*
X543999Y590002D01*
Y592001D01*
X542999Y593001D01*
X543999Y595000D02*
Y597000D01*
Y596000D01*
X538001D01*
X539001Y595000D01*
X542999Y599999D02*
X543999Y600998D01*
Y602998D01*
X542999Y603997D01*
X539001D01*
X538001Y602998D01*
Y600998D01*
X539001Y599999D01*
X540000D01*
X541000Y600998D01*
Y603997D01*
X79001Y649501D02*
X78001Y648501D01*
Y646502D01*
X79001Y645502D01*
X82999D01*
X83999Y646502D01*
Y648501D01*
X82999Y649501D01*
X83999Y651500D02*
Y653500D01*
Y652500D01*
X78001D01*
X79001Y651500D01*
X78001Y660498D02*
X79001Y658498D01*
X81000Y656499D01*
X82999D01*
X83999Y657498D01*
Y659498D01*
X82999Y660498D01*
X82000D01*
X81000Y659498D01*
Y656499D01*
X439501Y538999D02*
X438502Y539999D01*
X436502D01*
X435503Y538999D01*
Y535001D01*
X436502Y534001D01*
X438502D01*
X439501Y535001D01*
X441501Y534001D02*
X443500D01*
X442500D01*
Y539999D01*
X441501Y538999D01*
X450498Y539999D02*
X446499D01*
Y537000D01*
X448498Y538000D01*
X449498D01*
X450498Y537000D01*
Y535001D01*
X449498Y534001D01*
X447499D01*
X446499Y535001D01*
X261001Y456999D02*
Y455999D01*
X263001Y454000D01*
X265000Y455999D01*
Y456999D01*
X263001Y454000D02*
Y451001D01*
X266999D02*
X268999D01*
X267999D01*
Y456999D01*
X266999Y455999D01*
X662111Y302229D02*
X667109D01*
X668109Y303229D01*
Y305228D01*
X667109Y306228D01*
X662111D01*
X668109Y312226D02*
Y308227D01*
X664110Y312226D01*
X663111D01*
X662111Y311226D01*
Y309227D01*
X663111Y308227D01*
X374002Y521999D02*
Y517001D01*
X375001Y516001D01*
X377001D01*
X378000Y517001D01*
Y521999D01*
X380000Y520999D02*
X380999Y521999D01*
X382999D01*
X383998Y520999D01*
Y520000D01*
X382999Y519000D01*
X381999D01*
X382999D01*
X383998Y518000D01*
Y517001D01*
X382999Y516001D01*
X380999D01*
X380000Y517001D01*
X340875Y479835D02*
Y474837D01*
X341875Y473837D01*
X343874D01*
X344874Y474837D01*
Y479835D01*
X346873Y473837D02*
X348872D01*
X347873D01*
Y479835D01*
X346873Y478835D01*
X164000Y70749D02*
X163000Y71749D01*
X161001D01*
X160001Y70749D01*
Y69750D01*
X161001Y68750D01*
X163000D01*
X164000Y67750D01*
Y66751D01*
X163000Y65751D01*
X161001D01*
X160001Y66751D01*
X165999Y65751D02*
X167999D01*
X166999D01*
Y71749D01*
X165999Y70749D01*
X667518Y359473D02*
Y353475D01*
X664519D01*
X663519Y354475D01*
Y356474D01*
X664519Y357474D01*
X667518D01*
X665518D02*
X663519Y359473D01*
X661520D02*
X659520D01*
X660520D01*
Y353475D01*
X661520Y354475D01*
X383999Y674002D02*
X378001D01*
Y677001D01*
X379001Y678000D01*
X381000D01*
X382000Y677001D01*
Y674002D01*
Y676001D02*
X383999Y678000D01*
X378001Y683998D02*
Y680000D01*
X381000D01*
X380000Y681999D01*
Y682999D01*
X381000Y683998D01*
X382999D01*
X383999Y682999D01*
Y680999D01*
X382999Y680000D01*
X288002Y573001D02*
Y578999D01*
X291001D01*
X292000Y577999D01*
Y576000D01*
X291001Y575000D01*
X288002D01*
X290001D02*
X292000Y573001D01*
X296999D02*
Y578999D01*
X294000Y576000D01*
X297998D01*
X395002Y574001D02*
Y579999D01*
X398001D01*
X399000Y578999D01*
Y577000D01*
X398001Y576000D01*
X395002D01*
X397001D02*
X399000Y574001D01*
X401000Y578999D02*
X401999Y579999D01*
X403999D01*
X404998Y578999D01*
Y578000D01*
X403999Y577000D01*
X402999D01*
X403999D01*
X404998Y576000D01*
Y575001D01*
X403999Y574001D01*
X401999D01*
X401000Y575001D01*
X313999Y675002D02*
X308001D01*
Y678001D01*
X309001Y679000D01*
X311000D01*
X312000Y678001D01*
Y675002D01*
Y677001D02*
X313999Y679000D01*
Y684998D02*
Y681000D01*
X310000Y684998D01*
X309001D01*
X308001Y683999D01*
Y681999D01*
X309001Y681000D01*
X124502Y633001D02*
Y638999D01*
X127501D01*
X128501Y637999D01*
Y636000D01*
X127501Y635000D01*
X124502D01*
X126502D02*
X128501Y633001D01*
X130500D02*
X132500D01*
X131500D01*
Y638999D01*
X130500Y637999D01*
X135499D02*
X136498Y638999D01*
X138498D01*
X139498Y637999D01*
Y637000D01*
X138498Y636000D01*
X137498D01*
X138498D01*
X139498Y635000D01*
Y634001D01*
X138498Y633001D01*
X136498D01*
X135499Y634001D01*
X112999Y565502D02*
X107001D01*
Y568502D01*
X108001Y569501D01*
X110000D01*
X111000Y568502D01*
Y565502D01*
Y567502D02*
X112999Y569501D01*
Y571501D02*
Y573500D01*
Y572500D01*
X107001D01*
X108001Y571501D01*
X112999Y580498D02*
Y576499D01*
X109000Y580498D01*
X108001D01*
X107001Y579498D01*
Y577499D01*
X108001Y576499D01*
X446502Y20001D02*
Y25999D01*
X449501D01*
X450501Y24999D01*
Y23000D01*
X449501Y22000D01*
X446502D01*
X448502D02*
X450501Y20001D01*
X452500D02*
X454500D01*
X453500D01*
Y25999D01*
X452500Y24999D01*
X457499D02*
X458498Y25999D01*
X460498D01*
X461498Y24999D01*
Y21001D01*
X460498Y20001D01*
X458498D01*
X457499Y21001D01*
Y24999D01*
X509998Y25999D02*
Y20001D01*
X506999D01*
X506000Y21001D01*
Y23000D01*
X506999Y24000D01*
X509998D01*
X507999D02*
X506000Y25999D01*
X504000Y24999D02*
X503001Y25999D01*
X501001D01*
X500002Y24999D01*
Y21001D01*
X501001Y20001D01*
X503001D01*
X504000Y21001D01*
Y22000D01*
X503001Y23000D01*
X500002D01*
X183002Y65501D02*
Y71499D01*
X186001D01*
X187000Y70499D01*
Y68500D01*
X186001Y67500D01*
X183002D01*
X185001D02*
X187000Y65501D01*
X189000Y70499D02*
X189999Y71499D01*
X191999D01*
X192998Y70499D01*
Y69500D01*
X191999Y68500D01*
X192998Y67500D01*
Y66501D01*
X191999Y65501D01*
X189999D01*
X189000Y66501D01*
Y67500D01*
X189999Y68500D01*
X189000Y69500D01*
Y70499D01*
X189999Y68500D02*
X191999D01*
X316501Y658749D02*
Y652751D01*
X320500D01*
X322499D02*
X324499D01*
X323499D01*
Y658749D01*
X322499Y657749D01*
X-6000Y565001D02*
X-4001D01*
X-5000D01*
Y569999D01*
X-4001Y570999D01*
X-3001D01*
X-2001Y569999D01*
X-7999Y570999D02*
X-9999D01*
X-8999D01*
Y565001D01*
X-7999Y566001D01*
X323001Y721001D02*
X328999D01*
Y724000D01*
X327999Y725000D01*
X324001D01*
X323001Y724000D01*
Y721001D01*
X328999Y726999D02*
Y728999D01*
Y727999D01*
X323001D01*
X324001Y726999D01*
X468002Y25999D02*
Y20001D01*
X471001D01*
X472000Y21001D01*
Y24999D01*
X471001Y25999D01*
X468002D01*
X474000Y24999D02*
X474999Y25999D01*
X476999D01*
X477998Y24999D01*
Y24000D01*
X476999Y23000D01*
X475999D01*
X476999D01*
X477998Y22000D01*
Y21001D01*
X476999Y20001D01*
X474999D01*
X474000Y21001D01*
X529998Y20001D02*
Y25999D01*
X526999D01*
X526000Y24999D01*
Y21001D01*
X526999Y20001D01*
X529998D01*
X520002Y25999D02*
X524000D01*
X520002Y22000D01*
Y21001D01*
X521001Y20001D01*
X523001D01*
X524000Y21001D01*
X192000Y442999D02*
X191001Y443999D01*
X189001D01*
X188002Y442999D01*
Y439001D01*
X189001Y438001D01*
X191001D01*
X192000Y439001D01*
X194000Y442999D02*
X194999Y443999D01*
X196999D01*
X197998Y442999D01*
Y442000D01*
X196999Y441000D01*
X197998Y440000D01*
Y439001D01*
X196999Y438001D01*
X194999D01*
X194000Y439001D01*
Y440000D01*
X194999Y441000D01*
X194000Y442000D01*
Y442999D01*
X194999Y441000D02*
X196999D01*
X213001Y390500D02*
X212001Y389501D01*
Y387501D01*
X213001Y386502D01*
X216999D01*
X217999Y387501D01*
Y389501D01*
X216999Y390500D01*
X212001Y392500D02*
Y396498D01*
X213001D01*
X216999Y392500D01*
X217999D01*
X369000Y507999D02*
X368000Y508999D01*
X366001D01*
X365001Y507999D01*
Y504001D01*
X366001Y503001D01*
X368000D01*
X369000Y504001D01*
X370999Y503001D02*
X372999D01*
X371999D01*
Y508999D01*
X370999Y507999D01*
X206000Y70249D02*
X205001Y71249D01*
X203001D01*
X202002Y70249D01*
Y66251D01*
X203001Y65251D01*
X205001D01*
X206000Y66251D01*
X208000D02*
X208999Y65251D01*
X210999D01*
X211998Y66251D01*
Y70249D01*
X210999Y71249D01*
X208999D01*
X208000Y70249D01*
Y69250D01*
X208999Y68250D01*
X211998D01*
X557000Y335999D02*
X556001Y336999D01*
X554001D01*
X553002Y335999D01*
Y332001D01*
X554001Y331001D01*
X556001D01*
X557000Y332001D01*
X561999Y331001D02*
Y336999D01*
X559000Y334000D01*
X562998D01*
X520000Y354001D02*
X520999Y353001D01*
X522999D01*
X523998Y354001D01*
Y357999D01*
X522999Y358999D01*
X520999D01*
X520000Y357999D01*
X514002Y358999D02*
X518000D01*
X514002Y355000D01*
Y354001D01*
X515001Y353001D01*
X517001D01*
X518000Y354001D01*
X136001Y179999D02*
Y174001D01*
X139000D01*
X140000Y175001D01*
Y176000D01*
X139000Y177000D01*
X136001D01*
X139000D01*
X140000Y178000D01*
Y178999D01*
X139000Y179999D01*
X136001D01*
X141999Y174001D02*
X143999D01*
X142999D01*
Y179999D01*
X141999Y178999D01*
D14*
X678000Y432000D02*
Y446000D01*
Y308000D02*
Y326740D01*
Y446000D02*
X790500D01*
X678000Y308000D02*
X790500D01*
X90000Y117000D02*
Y127000D01*
X85000Y432000D02*
X95000D01*
X90000Y427000D02*
Y437000D01*
X568500Y579735D02*
X612500D01*
X568500Y549735D02*
X612500D01*
X331500Y623250D02*
Y648250D01*
X363500Y623250D02*
Y648250D01*
X343000Y613250D02*
X352000D01*
X343000Y658250D02*
X352000D01*
M02*
