G04*
G04 #@! TF.GenerationSoftware,Altium Limited,Altium Designer,26.2.0 (7)*
G04*
G04 Layer_Physical_Order=2*
G04 Layer_Color=36540*
%FSLAX44Y44*%
%MOMM*%
G71*
G04*
G04 #@! TF.SameCoordinates,96A30EBC-B4F8-4BF8-BD66-0BA623D5F1AF*
G04*
G04*
G04 #@! TF.FilePolarity,Positive*
G04*
G01*
G75*
%ADD88C,0.6500*%
G04:AMPARAMS|DCode=97|XSize=1.8mm|YSize=1mm|CornerRadius=0.25mm|HoleSize=0mm|Usage=FLASHONLY|Rotation=0.000|XOffset=0mm|YOffset=0mm|HoleType=Round|Shape=RoundedRectangle|*
%AMROUNDEDRECTD97*
21,1,1.8000,0.5000,0,0,0.0*
21,1,1.3000,1.0000,0,0,0.0*
1,1,0.5000,0.6500,-0.2500*
1,1,0.5000,-0.6500,-0.2500*
1,1,0.5000,-0.6500,0.2500*
1,1,0.5000,0.6500,0.2500*
%
%ADD97ROUNDEDRECTD97*%
%ADD98O,2.1000X1.0000*%
%ADD99C,6.0000*%
%ADD100C,1.3980*%
%ADD101C,1.1000*%
%ADD102C,1.6000*%
%ADD103R,1.3980X1.3980*%
%ADD104C,0.5000*%
G36*
X794000Y903922D02*
X794682D01*
X796019Y903656D01*
X797279Y903134D01*
X798412Y902376D01*
X799377Y901412D01*
X800134Y900279D01*
X800656Y899019D01*
X800922Y897682D01*
X800922Y897000D01*
Y691000D01*
X800942Y690900D01*
X800927Y690800D01*
X800989Y689526D01*
X801063Y689232D01*
Y688930D01*
X801560Y686431D01*
X801714Y686060D01*
X801792Y685666D01*
X802767Y683311D01*
X802990Y682977D01*
X803144Y682606D01*
X804560Y680487D01*
X804844Y680203D01*
X805067Y679869D01*
X806869Y678067D01*
X807203Y677844D01*
X807487Y677560D01*
X809606Y676144D01*
X809977Y675990D01*
X810311Y675767D01*
X812666Y674792D01*
X813060Y674714D01*
X813431Y674560D01*
X815930Y674063D01*
X816232D01*
X816526Y673989D01*
X817800Y673927D01*
X817900Y673942D01*
X818000Y673922D01*
X839780D01*
X841311Y673617D01*
X842752Y673020D01*
X844050Y672153D01*
X845153Y671050D01*
X846020Y669752D01*
X846617Y668311D01*
X846922Y666780D01*
Y666000D01*
Y-38000D01*
Y-38879D01*
X846579Y-40602D01*
X845906Y-42226D01*
X844930Y-43687D01*
X843687Y-44930D01*
X842226Y-45906D01*
X840602Y-46579D01*
X838879Y-46922D01*
X687970D01*
X686439Y-46617D01*
X684998Y-46020D01*
X683700Y-45153D01*
X682597Y-44050D01*
X681730Y-42752D01*
X681133Y-41311D01*
X680828Y-39780D01*
Y-34000D01*
X680808Y-33900D01*
X680823Y-33800D01*
X680766Y-32624D01*
X680692Y-32330D01*
Y-32028D01*
X680233Y-29721D01*
X680079Y-29350D01*
X680001Y-28956D01*
X679101Y-26783D01*
X678878Y-26449D01*
X678724Y-26077D01*
X677417Y-24122D01*
X677133Y-23838D01*
X676910Y-23503D01*
X675247Y-21840D01*
X674912Y-21617D01*
X674628Y-21333D01*
X672673Y-20026D01*
X672301Y-19872D01*
X671967Y-19649D01*
X669794Y-18749D01*
X669400Y-18671D01*
X669029Y-18517D01*
X666722Y-18058D01*
X666420D01*
X666126Y-17984D01*
X664950Y-17927D01*
X664850Y-17942D01*
X664750Y-17922D01*
X132000Y-17922D01*
X131900Y-17942D01*
X131800Y-17927D01*
X130624Y-17984D01*
X130330Y-18058D01*
X130028D01*
X127721Y-18517D01*
X127350Y-18671D01*
X126956Y-18749D01*
X124783Y-19649D01*
X124448Y-19872D01*
X124078Y-20026D01*
X122121Y-21333D01*
X121838Y-21617D01*
X121503Y-21840D01*
X119840Y-23503D01*
X119617Y-23838D01*
X119333Y-24122D01*
X118026Y-26077D01*
X117872Y-26449D01*
X117649Y-26783D01*
X116749Y-28956D01*
X116671Y-29350D01*
X116517Y-29721D01*
X116058Y-32028D01*
Y-32331D01*
X115984Y-32624D01*
X115927Y-33800D01*
X115942Y-33900D01*
X115922Y-34000D01*
Y-39780D01*
X115617Y-41311D01*
X115020Y-42752D01*
X114153Y-44050D01*
X113050Y-45153D01*
X111752Y-46020D01*
X110311Y-46617D01*
X108780Y-46922D01*
X-38879D01*
X-40602Y-46579D01*
X-42226Y-45906D01*
X-43687Y-44930D01*
X-44930Y-43687D01*
X-45906Y-42226D01*
X-46579Y-40602D01*
X-46922Y-38879D01*
Y-38000D01*
Y115000D01*
Y115780D01*
X-46617Y117311D01*
X-46020Y118752D01*
X-45153Y120050D01*
X-44050Y121153D01*
X-42752Y122020D01*
X-41311Y122617D01*
X-39780Y122922D01*
X-34000Y122922D01*
X-33900Y122942D01*
X-33800Y122927D01*
X-32624Y122984D01*
X-32331Y123058D01*
X-32028D01*
X-29721Y123517D01*
X-29350Y123671D01*
X-28956Y123749D01*
X-26783Y124649D01*
X-26449Y124872D01*
X-26077Y125026D01*
X-24122Y126333D01*
X-23838Y126617D01*
X-23504Y126840D01*
X-21840Y128504D01*
X-21617Y128837D01*
X-21333Y129122D01*
X-20026Y131077D01*
X-19872Y131449D01*
X-19649Y131783D01*
X-18749Y133956D01*
X-18671Y134350D01*
X-18517Y134721D01*
X-18058Y137028D01*
Y137330D01*
X-17984Y137624D01*
X-17927Y138800D01*
X-17942Y138900D01*
X-17922Y139000D01*
X-17922Y722000D01*
X-17942Y722100D01*
X-17927Y722200D01*
X-17984Y723376D01*
X-18058Y723670D01*
Y723972D01*
X-18517Y726279D01*
X-18671Y726650D01*
X-18749Y727044D01*
X-19649Y729217D01*
X-19872Y729551D01*
X-20026Y729922D01*
X-21333Y731878D01*
X-21617Y732162D01*
X-21840Y732496D01*
X-23504Y734160D01*
X-23838Y734383D01*
X-24122Y734667D01*
X-26077Y735974D01*
X-26449Y736128D01*
X-26783Y736351D01*
X-28956Y737251D01*
X-29350Y737329D01*
X-29721Y737483D01*
X-32028Y737942D01*
X-32331D01*
X-32624Y738016D01*
X-33800Y738073D01*
X-33900Y738058D01*
X-34000Y738078D01*
X-39780D01*
X-41311Y738383D01*
X-42752Y738980D01*
X-44050Y739847D01*
X-45153Y740950D01*
X-46020Y742248D01*
X-46617Y743689D01*
X-46922Y745220D01*
Y746000D01*
Y896000D01*
Y896780D01*
X-46617Y898311D01*
X-46020Y899752D01*
X-45153Y901050D01*
X-44050Y902153D01*
X-42752Y903020D01*
X-41311Y903617D01*
X-39780Y903922D01*
X218780D01*
X220311Y903617D01*
X221752Y903020D01*
X223050Y902153D01*
X224153Y901050D01*
X225020Y899752D01*
X225617Y898311D01*
X225922Y896780D01*
X225922Y891000D01*
X225942Y890900D01*
X225927Y890800D01*
X225984Y889624D01*
X226058Y889331D01*
Y889028D01*
X226517Y886721D01*
X226671Y886350D01*
X226749Y885956D01*
X227649Y883783D01*
X227872Y883449D01*
X228026Y883077D01*
X229333Y881122D01*
X229617Y880838D01*
X229840Y880503D01*
X231504Y878840D01*
X231838Y878617D01*
X232122Y878333D01*
X234077Y877026D01*
X234449Y876872D01*
X234783Y876649D01*
X236956Y875749D01*
X237350Y875671D01*
X237721Y875517D01*
X240028Y875058D01*
X240330D01*
X240624Y874985D01*
X241800Y874927D01*
X241900Y874942D01*
X242000Y874922D01*
X558000Y874922D01*
X558100Y874942D01*
X558200Y874927D01*
X559376Y874985D01*
X559669Y875058D01*
X559972D01*
X562279Y875517D01*
X562650Y875671D01*
X563044Y875749D01*
X565217Y876649D01*
X565551Y876872D01*
X565923Y877026D01*
X567878Y878333D01*
X568162Y878617D01*
X568496Y878840D01*
X570160Y880503D01*
X570383Y880838D01*
X570667Y881122D01*
X571974Y883077D01*
X572128Y883449D01*
X572351Y883783D01*
X573251Y885956D01*
X573329Y886350D01*
X573483Y886721D01*
X573942Y889028D01*
Y889331D01*
X574016Y889624D01*
X574073Y890800D01*
X574058Y890900D01*
X574078Y891000D01*
Y896780D01*
X574383Y898311D01*
X574980Y899752D01*
X575847Y901050D01*
X576950Y902153D01*
X578248Y903020D01*
X579689Y903617D01*
X581220Y903922D01*
X582000D01*
X794000Y903922D01*
D02*
G37*
%LPC*%
G36*
X732390Y865740D02*
X715410D01*
Y848760D01*
X732390D01*
Y865740D01*
D02*
G37*
G36*
X699618D02*
X697382D01*
X695223Y865161D01*
X693287Y864044D01*
X691706Y862463D01*
X690589Y860527D01*
X690010Y858368D01*
Y856132D01*
X690589Y853973D01*
X691706Y852037D01*
X693287Y850456D01*
X695223Y849339D01*
X697382Y848760D01*
X699618D01*
X701777Y849339D01*
X703713Y850456D01*
X705294Y852037D01*
X706411Y853973D01*
X706990Y856132D01*
Y858368D01*
X706411Y860527D01*
X705294Y862463D01*
X703713Y864044D01*
X701777Y865161D01*
X699618Y865740D01*
D02*
G37*
G36*
X674218D02*
X671982D01*
X669823Y865161D01*
X667887Y864044D01*
X666306Y862463D01*
X665189Y860527D01*
X664610Y858368D01*
Y856132D01*
X665189Y853973D01*
X666306Y852037D01*
X667887Y850456D01*
X669823Y849339D01*
X671982Y848760D01*
X674218D01*
X676377Y849339D01*
X678313Y850456D01*
X679894Y852037D01*
X681011Y853973D01*
X681590Y856132D01*
Y858368D01*
X681011Y860527D01*
X679894Y862463D01*
X678313Y864044D01*
X676377Y865161D01*
X674218Y865740D01*
D02*
G37*
G36*
X648818D02*
X646582D01*
X644423Y865161D01*
X642487Y864044D01*
X640906Y862463D01*
X639789Y860527D01*
X639210Y858368D01*
Y856132D01*
X639789Y853973D01*
X640906Y852037D01*
X642487Y850456D01*
X644423Y849339D01*
X646582Y848760D01*
X648818D01*
X650977Y849339D01*
X652913Y850456D01*
X654494Y852037D01*
X655611Y853973D01*
X656190Y856132D01*
Y858368D01*
X655611Y860527D01*
X654494Y862463D01*
X652913Y864044D01*
X650977Y865161D01*
X648818Y865740D01*
D02*
G37*
G36*
X623418D02*
X621182D01*
X619023Y865161D01*
X617087Y864044D01*
X615506Y862463D01*
X614389Y860527D01*
X613810Y858368D01*
Y856132D01*
X614389Y853973D01*
X615506Y852037D01*
X617087Y850456D01*
X619023Y849339D01*
X621182Y848760D01*
X623418D01*
X625577Y849339D01*
X627513Y850456D01*
X629094Y852037D01*
X630211Y853973D01*
X630790Y856132D01*
Y858368D01*
X630211Y860527D01*
X629094Y862463D01*
X627513Y864044D01*
X625577Y865161D01*
X623418Y865740D01*
D02*
G37*
G36*
X598018D02*
X595782D01*
X593623Y865161D01*
X591687Y864044D01*
X590106Y862463D01*
X588989Y860527D01*
X588410Y858368D01*
Y856132D01*
X588989Y853973D01*
X590106Y852037D01*
X591687Y850456D01*
X593623Y849339D01*
X595782Y848760D01*
X598018D01*
X600177Y849339D01*
X602113Y850456D01*
X603694Y852037D01*
X604811Y853973D01*
X605390Y856132D01*
Y858368D01*
X604811Y860527D01*
X603694Y862463D01*
X602113Y864044D01*
X600177Y865161D01*
X598018Y865740D01*
D02*
G37*
G36*
X572618D02*
X570382D01*
X568223Y865161D01*
X566287Y864044D01*
X564706Y862463D01*
X563589Y860527D01*
X563010Y858368D01*
Y856132D01*
X563589Y853973D01*
X564706Y852037D01*
X566287Y850456D01*
X568223Y849339D01*
X570382Y848760D01*
X572618D01*
X574777Y849339D01*
X576713Y850456D01*
X578294Y852037D01*
X579411Y853973D01*
X579990Y856132D01*
Y858368D01*
X579411Y860527D01*
X578294Y862463D01*
X576713Y864044D01*
X574777Y865161D01*
X572618Y865740D01*
D02*
G37*
G36*
X547218D02*
X544982D01*
X542823Y865161D01*
X540887Y864044D01*
X539306Y862463D01*
X538189Y860527D01*
X537610Y858368D01*
Y856132D01*
X538189Y853973D01*
X539306Y852037D01*
X540887Y850456D01*
X542823Y849339D01*
X544982Y848760D01*
X547218D01*
X549377Y849339D01*
X551313Y850456D01*
X552894Y852037D01*
X554011Y853973D01*
X554590Y856132D01*
Y858368D01*
X554011Y860527D01*
X552894Y862463D01*
X551313Y864044D01*
X549377Y865161D01*
X547218Y865740D01*
D02*
G37*
G36*
X521818D02*
X519582D01*
X517423Y865161D01*
X515487Y864044D01*
X513906Y862463D01*
X512789Y860527D01*
X512210Y858368D01*
Y856132D01*
X512789Y853973D01*
X513906Y852037D01*
X515487Y850456D01*
X517423Y849339D01*
X519582Y848760D01*
X521818D01*
X523977Y849339D01*
X525913Y850456D01*
X527494Y852037D01*
X528611Y853973D01*
X529190Y856132D01*
Y858368D01*
X528611Y860527D01*
X527494Y862463D01*
X525913Y864044D01*
X523977Y865161D01*
X521818Y865740D01*
D02*
G37*
G36*
X496418D02*
X494182D01*
X492023Y865161D01*
X490087Y864044D01*
X488506Y862463D01*
X487389Y860527D01*
X486810Y858368D01*
Y856132D01*
X487389Y853973D01*
X488506Y852037D01*
X490087Y850456D01*
X492023Y849339D01*
X494182Y848760D01*
X496418D01*
X498577Y849339D01*
X500513Y850456D01*
X502094Y852037D01*
X503211Y853973D01*
X503790Y856132D01*
Y858368D01*
X503211Y860527D01*
X502094Y862463D01*
X500513Y864044D01*
X498577Y865161D01*
X496418Y865740D01*
D02*
G37*
G36*
X471018D02*
X468782D01*
X466623Y865161D01*
X464687Y864044D01*
X463106Y862463D01*
X461989Y860527D01*
X461410Y858368D01*
Y856132D01*
X461989Y853973D01*
X463106Y852037D01*
X464687Y850456D01*
X466623Y849339D01*
X468782Y848760D01*
X471018D01*
X473177Y849339D01*
X475113Y850456D01*
X476694Y852037D01*
X477811Y853973D01*
X478390Y856132D01*
Y858368D01*
X477811Y860527D01*
X476694Y862463D01*
X475113Y864044D01*
X473177Y865161D01*
X471018Y865740D01*
D02*
G37*
G36*
X445618D02*
X443382D01*
X441223Y865161D01*
X439287Y864044D01*
X437706Y862463D01*
X436589Y860527D01*
X436010Y858368D01*
Y856132D01*
X436589Y853973D01*
X437706Y852037D01*
X439287Y850456D01*
X441223Y849339D01*
X443382Y848760D01*
X445618D01*
X447777Y849339D01*
X449713Y850456D01*
X451294Y852037D01*
X452411Y853973D01*
X452990Y856132D01*
Y858368D01*
X452411Y860527D01*
X451294Y862463D01*
X449713Y864044D01*
X447777Y865161D01*
X445618Y865740D01*
D02*
G37*
G36*
X420218D02*
X417982D01*
X415823Y865161D01*
X413887Y864044D01*
X412306Y862463D01*
X411189Y860527D01*
X410610Y858368D01*
Y856132D01*
X411189Y853973D01*
X412306Y852037D01*
X413887Y850456D01*
X415823Y849339D01*
X417982Y848760D01*
X420218D01*
X422377Y849339D01*
X424313Y850456D01*
X425894Y852037D01*
X427011Y853973D01*
X427590Y856132D01*
Y858368D01*
X427011Y860527D01*
X425894Y862463D01*
X424313Y864044D01*
X422377Y865161D01*
X420218Y865740D01*
D02*
G37*
G36*
X394818D02*
X392582D01*
X390423Y865161D01*
X388487Y864044D01*
X386906Y862463D01*
X385789Y860527D01*
X385210Y858368D01*
Y856132D01*
X385789Y853973D01*
X386906Y852037D01*
X388487Y850456D01*
X390423Y849339D01*
X392582Y848760D01*
X394818D01*
X396977Y849339D01*
X398913Y850456D01*
X400494Y852037D01*
X401611Y853973D01*
X402190Y856132D01*
Y858368D01*
X401611Y860527D01*
X400494Y862463D01*
X398913Y864044D01*
X396977Y865161D01*
X394818Y865740D01*
D02*
G37*
G36*
X318618D02*
X316382D01*
X314223Y865161D01*
X312287Y864044D01*
X310706Y862463D01*
X309589Y860527D01*
X309010Y858368D01*
Y856132D01*
X309589Y853973D01*
X310706Y852037D01*
X312287Y850456D01*
X314223Y849339D01*
X316382Y848760D01*
X318618D01*
X320777Y849339D01*
X322713Y850456D01*
X324294Y852037D01*
X325411Y853973D01*
X325990Y856132D01*
Y858368D01*
X325411Y860527D01*
X324294Y862463D01*
X322713Y864044D01*
X320777Y865161D01*
X318618Y865740D01*
D02*
G37*
G36*
X293218D02*
X290982D01*
X288823Y865161D01*
X286887Y864044D01*
X285306Y862463D01*
X284189Y860527D01*
X283610Y858368D01*
Y856132D01*
X284189Y853973D01*
X285306Y852037D01*
X286887Y850456D01*
X288823Y849339D01*
X290982Y848760D01*
X293218D01*
X295377Y849339D01*
X297313Y850456D01*
X298894Y852037D01*
X300011Y853973D01*
X300590Y856132D01*
Y858368D01*
X300011Y860527D01*
X298894Y862463D01*
X297313Y864044D01*
X295377Y865161D01*
X293218Y865740D01*
D02*
G37*
G36*
X267818D02*
X265582D01*
X263423Y865161D01*
X261487Y864044D01*
X259906Y862463D01*
X258789Y860527D01*
X258210Y858368D01*
Y856132D01*
X258789Y853973D01*
X259906Y852037D01*
X261487Y850456D01*
X263423Y849339D01*
X265582Y848760D01*
X267818D01*
X269977Y849339D01*
X271913Y850456D01*
X273494Y852037D01*
X274611Y853973D01*
X275190Y856132D01*
Y858368D01*
X274611Y860527D01*
X273494Y862463D01*
X271913Y864044D01*
X269977Y865161D01*
X267818Y865740D01*
D02*
G37*
G36*
X242418D02*
X240182D01*
X238023Y865161D01*
X236087Y864044D01*
X234506Y862463D01*
X233389Y860527D01*
X232810Y858368D01*
Y856132D01*
X233389Y853973D01*
X234506Y852037D01*
X236087Y850456D01*
X238023Y849339D01*
X240182Y848760D01*
X242418D01*
X244577Y849339D01*
X246513Y850456D01*
X248094Y852037D01*
X249211Y853973D01*
X249790Y856132D01*
Y858368D01*
X249211Y860527D01*
X248094Y862463D01*
X246513Y864044D01*
X244577Y865161D01*
X242418Y865740D01*
D02*
G37*
G36*
X217018D02*
X214782D01*
X212623Y865161D01*
X210687Y864044D01*
X209106Y862463D01*
X207989Y860527D01*
X207410Y858368D01*
Y856132D01*
X207989Y853973D01*
X209106Y852037D01*
X210687Y850456D01*
X212623Y849339D01*
X214782Y848760D01*
X217018D01*
X219177Y849339D01*
X221113Y850456D01*
X222694Y852037D01*
X223811Y853973D01*
X224390Y856132D01*
Y858368D01*
X223811Y860527D01*
X222694Y862463D01*
X221113Y864044D01*
X219177Y865161D01*
X217018Y865740D01*
D02*
G37*
G36*
X191618D02*
X189382D01*
X187223Y865161D01*
X185287Y864044D01*
X183706Y862463D01*
X182589Y860527D01*
X182010Y858368D01*
Y856132D01*
X182589Y853973D01*
X183706Y852037D01*
X185287Y850456D01*
X187223Y849339D01*
X189382Y848760D01*
X191618D01*
X193777Y849339D01*
X195713Y850456D01*
X197294Y852037D01*
X198411Y853973D01*
X198990Y856132D01*
Y858368D01*
X198411Y860527D01*
X197294Y862463D01*
X195713Y864044D01*
X193777Y865161D01*
X191618Y865740D01*
D02*
G37*
G36*
X166218D02*
X163982D01*
X161823Y865161D01*
X159887Y864044D01*
X158306Y862463D01*
X157189Y860527D01*
X156610Y858368D01*
Y856132D01*
X157189Y853973D01*
X158306Y852037D01*
X159887Y850456D01*
X161823Y849339D01*
X163982Y848760D01*
X166218D01*
X168377Y849339D01*
X170313Y850456D01*
X171894Y852037D01*
X173011Y853973D01*
X173590Y856132D01*
Y858368D01*
X173011Y860527D01*
X171894Y862463D01*
X170313Y864044D01*
X168377Y865161D01*
X166218Y865740D01*
D02*
G37*
G36*
X140818D02*
X138582D01*
X136423Y865161D01*
X134487Y864044D01*
X132906Y862463D01*
X131789Y860527D01*
X131210Y858368D01*
Y856132D01*
X131789Y853973D01*
X132906Y852037D01*
X134487Y850456D01*
X136423Y849339D01*
X138582Y848760D01*
X140818D01*
X142977Y849339D01*
X144913Y850456D01*
X146494Y852037D01*
X147611Y853973D01*
X148190Y856132D01*
Y858368D01*
X147611Y860527D01*
X146494Y862463D01*
X144913Y864044D01*
X142977Y865161D01*
X140818Y865740D01*
D02*
G37*
G36*
X115418D02*
X113182D01*
X111023Y865161D01*
X109087Y864044D01*
X107506Y862463D01*
X106389Y860527D01*
X105810Y858368D01*
Y856132D01*
X106389Y853973D01*
X107506Y852037D01*
X109087Y850456D01*
X111023Y849339D01*
X113182Y848760D01*
X115418D01*
X117577Y849339D01*
X119513Y850456D01*
X121094Y852037D01*
X122211Y853973D01*
X122790Y856132D01*
Y858368D01*
X122211Y860527D01*
X121094Y862463D01*
X119513Y864044D01*
X117577Y865161D01*
X115418Y865740D01*
D02*
G37*
G36*
X90018D02*
X87782D01*
X85623Y865161D01*
X83687Y864044D01*
X82106Y862463D01*
X80989Y860527D01*
X80410Y858368D01*
Y856132D01*
X80989Y853973D01*
X82106Y852037D01*
X83687Y850456D01*
X85623Y849339D01*
X87782Y848760D01*
X90018D01*
X92177Y849339D01*
X94113Y850456D01*
X95694Y852037D01*
X96811Y853973D01*
X97390Y856132D01*
Y858368D01*
X96811Y860527D01*
X95694Y862463D01*
X94113Y864044D01*
X92177Y865161D01*
X90018Y865740D01*
D02*
G37*
G36*
X725018Y840340D02*
X722782D01*
X720623Y839761D01*
X718687Y838644D01*
X717106Y837063D01*
X715989Y835127D01*
X715410Y832968D01*
Y830732D01*
X715989Y828573D01*
X717106Y826637D01*
X718687Y825056D01*
X720623Y823939D01*
X722782Y823360D01*
X725018D01*
X727177Y823939D01*
X729113Y825056D01*
X730694Y826637D01*
X731811Y828573D01*
X732390Y830732D01*
Y832968D01*
X731811Y835127D01*
X730694Y837063D01*
X729113Y838644D01*
X727177Y839761D01*
X725018Y840340D01*
D02*
G37*
G36*
X699618D02*
X697382D01*
X695223Y839761D01*
X693287Y838644D01*
X691706Y837063D01*
X690589Y835127D01*
X690010Y832968D01*
Y830732D01*
X690589Y828573D01*
X691706Y826637D01*
X693287Y825056D01*
X695223Y823939D01*
X697382Y823360D01*
X699618D01*
X701777Y823939D01*
X703713Y825056D01*
X705294Y826637D01*
X706411Y828573D01*
X706990Y830732D01*
Y832968D01*
X706411Y835127D01*
X705294Y837063D01*
X703713Y838644D01*
X701777Y839761D01*
X699618Y840340D01*
D02*
G37*
G36*
X674218D02*
X671982D01*
X669823Y839761D01*
X667887Y838644D01*
X666306Y837063D01*
X665189Y835127D01*
X664610Y832968D01*
Y830732D01*
X665189Y828573D01*
X666306Y826637D01*
X667887Y825056D01*
X669823Y823939D01*
X671982Y823360D01*
X674218D01*
X676377Y823939D01*
X678313Y825056D01*
X679894Y826637D01*
X681011Y828573D01*
X681590Y830732D01*
Y832968D01*
X681011Y835127D01*
X679894Y837063D01*
X678313Y838644D01*
X676377Y839761D01*
X674218Y840340D01*
D02*
G37*
G36*
X648818D02*
X646582D01*
X644423Y839761D01*
X642487Y838644D01*
X640906Y837063D01*
X639789Y835127D01*
X639210Y832968D01*
Y830732D01*
X639789Y828573D01*
X640906Y826637D01*
X642487Y825056D01*
X644423Y823939D01*
X646582Y823360D01*
X648818D01*
X650977Y823939D01*
X652913Y825056D01*
X654494Y826637D01*
X655611Y828573D01*
X656190Y830732D01*
Y832968D01*
X655611Y835127D01*
X654494Y837063D01*
X652913Y838644D01*
X650977Y839761D01*
X648818Y840340D01*
D02*
G37*
G36*
X623418D02*
X621182D01*
X619023Y839761D01*
X617087Y838644D01*
X615506Y837063D01*
X614389Y835127D01*
X613810Y832968D01*
Y830732D01*
X614389Y828573D01*
X615506Y826637D01*
X617087Y825056D01*
X619023Y823939D01*
X621182Y823360D01*
X623418D01*
X625577Y823939D01*
X627513Y825056D01*
X629094Y826637D01*
X630211Y828573D01*
X630790Y830732D01*
Y832968D01*
X630211Y835127D01*
X629094Y837063D01*
X627513Y838644D01*
X625577Y839761D01*
X623418Y840340D01*
D02*
G37*
G36*
X598018D02*
X595782D01*
X593623Y839761D01*
X591687Y838644D01*
X590106Y837063D01*
X588989Y835127D01*
X588410Y832968D01*
Y830732D01*
X588989Y828573D01*
X590106Y826637D01*
X591687Y825056D01*
X593623Y823939D01*
X595782Y823360D01*
X598018D01*
X600177Y823939D01*
X602113Y825056D01*
X603694Y826637D01*
X604811Y828573D01*
X605390Y830732D01*
Y832968D01*
X604811Y835127D01*
X603694Y837063D01*
X602113Y838644D01*
X600177Y839761D01*
X598018Y840340D01*
D02*
G37*
G36*
X572618D02*
X570382D01*
X568223Y839761D01*
X566287Y838644D01*
X564706Y837063D01*
X563589Y835127D01*
X563010Y832968D01*
Y830732D01*
X563589Y828573D01*
X564706Y826637D01*
X566287Y825056D01*
X568223Y823939D01*
X570382Y823360D01*
X572618D01*
X574777Y823939D01*
X576713Y825056D01*
X578294Y826637D01*
X579411Y828573D01*
X579990Y830732D01*
Y832968D01*
X579411Y835127D01*
X578294Y837063D01*
X576713Y838644D01*
X574777Y839761D01*
X572618Y840340D01*
D02*
G37*
G36*
X547218D02*
X544982D01*
X542823Y839761D01*
X540887Y838644D01*
X539306Y837063D01*
X538189Y835127D01*
X537610Y832968D01*
Y830732D01*
X538189Y828573D01*
X539306Y826637D01*
X540887Y825056D01*
X542823Y823939D01*
X544982Y823360D01*
X547218D01*
X549377Y823939D01*
X551313Y825056D01*
X552894Y826637D01*
X554011Y828573D01*
X554590Y830732D01*
Y832968D01*
X554011Y835127D01*
X552894Y837063D01*
X551313Y838644D01*
X549377Y839761D01*
X547218Y840340D01*
D02*
G37*
G36*
X521818D02*
X519582D01*
X517423Y839761D01*
X515487Y838644D01*
X513906Y837063D01*
X512789Y835127D01*
X512210Y832968D01*
Y830732D01*
X512789Y828573D01*
X513906Y826637D01*
X515487Y825056D01*
X517423Y823939D01*
X519582Y823360D01*
X521818D01*
X523977Y823939D01*
X525913Y825056D01*
X527494Y826637D01*
X528611Y828573D01*
X529190Y830732D01*
Y832968D01*
X528611Y835127D01*
X527494Y837063D01*
X525913Y838644D01*
X523977Y839761D01*
X521818Y840340D01*
D02*
G37*
G36*
X496418D02*
X494182D01*
X492023Y839761D01*
X490087Y838644D01*
X488506Y837063D01*
X487389Y835127D01*
X486810Y832968D01*
Y830732D01*
X487389Y828573D01*
X488506Y826637D01*
X490087Y825056D01*
X492023Y823939D01*
X494182Y823360D01*
X496418D01*
X498577Y823939D01*
X500513Y825056D01*
X502094Y826637D01*
X503211Y828573D01*
X503790Y830732D01*
Y832968D01*
X503211Y835127D01*
X502094Y837063D01*
X500513Y838644D01*
X498577Y839761D01*
X496418Y840340D01*
D02*
G37*
G36*
X471018D02*
X468782D01*
X466623Y839761D01*
X464687Y838644D01*
X463106Y837063D01*
X461989Y835127D01*
X461410Y832968D01*
Y830732D01*
X461989Y828573D01*
X463106Y826637D01*
X464687Y825056D01*
X466623Y823939D01*
X468782Y823360D01*
X471018D01*
X473177Y823939D01*
X475113Y825056D01*
X476694Y826637D01*
X477811Y828573D01*
X478390Y830732D01*
Y832968D01*
X477811Y835127D01*
X476694Y837063D01*
X475113Y838644D01*
X473177Y839761D01*
X471018Y840340D01*
D02*
G37*
G36*
X445618D02*
X443382D01*
X441223Y839761D01*
X439287Y838644D01*
X437706Y837063D01*
X436589Y835127D01*
X436010Y832968D01*
Y830732D01*
X436589Y828573D01*
X437706Y826637D01*
X439287Y825056D01*
X441223Y823939D01*
X443382Y823360D01*
X445618D01*
X447777Y823939D01*
X449713Y825056D01*
X451294Y826637D01*
X452411Y828573D01*
X452990Y830732D01*
Y832968D01*
X452411Y835127D01*
X451294Y837063D01*
X449713Y838644D01*
X447777Y839761D01*
X445618Y840340D01*
D02*
G37*
G36*
X420218D02*
X417982D01*
X415823Y839761D01*
X413887Y838644D01*
X412306Y837063D01*
X411189Y835127D01*
X410610Y832968D01*
Y830732D01*
X411189Y828573D01*
X412306Y826637D01*
X413887Y825056D01*
X415823Y823939D01*
X417982Y823360D01*
X420218D01*
X422377Y823939D01*
X424313Y825056D01*
X425894Y826637D01*
X427011Y828573D01*
X427590Y830732D01*
Y832968D01*
X427011Y835127D01*
X425894Y837063D01*
X424313Y838644D01*
X422377Y839761D01*
X420218Y840340D01*
D02*
G37*
G36*
X394818D02*
X392582D01*
X390423Y839761D01*
X388487Y838644D01*
X386906Y837063D01*
X385789Y835127D01*
X385210Y832968D01*
Y830732D01*
X385789Y828573D01*
X386906Y826637D01*
X388487Y825056D01*
X390423Y823939D01*
X392582Y823360D01*
X394818D01*
X396977Y823939D01*
X398913Y825056D01*
X400494Y826637D01*
X401611Y828573D01*
X402190Y830732D01*
Y832968D01*
X401611Y835127D01*
X400494Y837063D01*
X398913Y838644D01*
X396977Y839761D01*
X394818Y840340D01*
D02*
G37*
G36*
X318618D02*
X316382D01*
X314223Y839761D01*
X312287Y838644D01*
X310706Y837063D01*
X309589Y835127D01*
X309010Y832968D01*
Y830732D01*
X309589Y828573D01*
X310706Y826637D01*
X312287Y825056D01*
X314223Y823939D01*
X316382Y823360D01*
X318618D01*
X320777Y823939D01*
X322713Y825056D01*
X324294Y826637D01*
X325411Y828573D01*
X325990Y830732D01*
Y832968D01*
X325411Y835127D01*
X324294Y837063D01*
X322713Y838644D01*
X320777Y839761D01*
X318618Y840340D01*
D02*
G37*
G36*
X293218D02*
X290982D01*
X288823Y839761D01*
X286887Y838644D01*
X285306Y837063D01*
X284189Y835127D01*
X283610Y832968D01*
Y830732D01*
X284189Y828573D01*
X285306Y826637D01*
X286887Y825056D01*
X288823Y823939D01*
X290982Y823360D01*
X293218D01*
X295377Y823939D01*
X297313Y825056D01*
X298894Y826637D01*
X300011Y828573D01*
X300590Y830732D01*
Y832968D01*
X300011Y835127D01*
X298894Y837063D01*
X297313Y838644D01*
X295377Y839761D01*
X293218Y840340D01*
D02*
G37*
G36*
X267818D02*
X265582D01*
X263423Y839761D01*
X261487Y838644D01*
X259906Y837063D01*
X258789Y835127D01*
X258210Y832968D01*
Y830732D01*
X258789Y828573D01*
X259906Y826637D01*
X261487Y825056D01*
X263423Y823939D01*
X265582Y823360D01*
X267818D01*
X269977Y823939D01*
X271913Y825056D01*
X273494Y826637D01*
X274611Y828573D01*
X275190Y830732D01*
Y832968D01*
X274611Y835127D01*
X273494Y837063D01*
X271913Y838644D01*
X269977Y839761D01*
X267818Y840340D01*
D02*
G37*
G36*
X242418D02*
X240182D01*
X238023Y839761D01*
X236087Y838644D01*
X234506Y837063D01*
X233389Y835127D01*
X232810Y832968D01*
Y830732D01*
X233389Y828573D01*
X234506Y826637D01*
X236087Y825056D01*
X238023Y823939D01*
X240182Y823360D01*
X242418D01*
X244577Y823939D01*
X246513Y825056D01*
X248094Y826637D01*
X249211Y828573D01*
X249790Y830732D01*
Y832968D01*
X249211Y835127D01*
X248094Y837063D01*
X246513Y838644D01*
X244577Y839761D01*
X242418Y840340D01*
D02*
G37*
G36*
X217018D02*
X214782D01*
X212623Y839761D01*
X210687Y838644D01*
X209106Y837063D01*
X207989Y835127D01*
X207410Y832968D01*
Y830732D01*
X207989Y828573D01*
X209106Y826637D01*
X210687Y825056D01*
X212623Y823939D01*
X214782Y823360D01*
X217018D01*
X219177Y823939D01*
X221113Y825056D01*
X222694Y826637D01*
X223811Y828573D01*
X224390Y830732D01*
Y832968D01*
X223811Y835127D01*
X222694Y837063D01*
X221113Y838644D01*
X219177Y839761D01*
X217018Y840340D01*
D02*
G37*
G36*
X191618D02*
X189382D01*
X187223Y839761D01*
X185287Y838644D01*
X183706Y837063D01*
X182589Y835127D01*
X182010Y832968D01*
Y830732D01*
X182589Y828573D01*
X183706Y826637D01*
X185287Y825056D01*
X187223Y823939D01*
X189382Y823360D01*
X191618D01*
X193777Y823939D01*
X195713Y825056D01*
X197294Y826637D01*
X198411Y828573D01*
X198990Y830732D01*
Y832968D01*
X198411Y835127D01*
X197294Y837063D01*
X195713Y838644D01*
X193777Y839761D01*
X191618Y840340D01*
D02*
G37*
G36*
X166218D02*
X163982D01*
X161823Y839761D01*
X159887Y838644D01*
X158306Y837063D01*
X157189Y835127D01*
X156610Y832968D01*
Y830732D01*
X157189Y828573D01*
X158306Y826637D01*
X159887Y825056D01*
X161823Y823939D01*
X163982Y823360D01*
X166218D01*
X168377Y823939D01*
X170313Y825056D01*
X171894Y826637D01*
X173011Y828573D01*
X173590Y830732D01*
Y832968D01*
X173011Y835127D01*
X171894Y837063D01*
X170313Y838644D01*
X168377Y839761D01*
X166218Y840340D01*
D02*
G37*
G36*
X140818D02*
X138582D01*
X136423Y839761D01*
X134487Y838644D01*
X132906Y837063D01*
X131789Y835127D01*
X131210Y832968D01*
Y830732D01*
X131789Y828573D01*
X132906Y826637D01*
X134487Y825056D01*
X136423Y823939D01*
X138582Y823360D01*
X140818D01*
X142977Y823939D01*
X144913Y825056D01*
X146494Y826637D01*
X147611Y828573D01*
X148190Y830732D01*
Y832968D01*
X147611Y835127D01*
X146494Y837063D01*
X144913Y838644D01*
X142977Y839761D01*
X140818Y840340D01*
D02*
G37*
G36*
X115418D02*
X113182D01*
X111023Y839761D01*
X109087Y838644D01*
X107506Y837063D01*
X106389Y835127D01*
X105810Y832968D01*
Y830732D01*
X106389Y828573D01*
X107506Y826637D01*
X109087Y825056D01*
X111023Y823939D01*
X113182Y823360D01*
X115418D01*
X117577Y823939D01*
X119513Y825056D01*
X121094Y826637D01*
X122211Y828573D01*
X122790Y830732D01*
Y832968D01*
X122211Y835127D01*
X121094Y837063D01*
X119513Y838644D01*
X117577Y839761D01*
X115418Y840340D01*
D02*
G37*
G36*
X90018D02*
X87782D01*
X85623Y839761D01*
X83687Y838644D01*
X82106Y837063D01*
X80989Y835127D01*
X80410Y832968D01*
Y830732D01*
X80989Y828573D01*
X82106Y826637D01*
X83687Y825056D01*
X85623Y823939D01*
X87782Y823360D01*
X90018D01*
X92177Y823939D01*
X94113Y825056D01*
X95694Y826637D01*
X96811Y828573D01*
X97390Y830732D01*
Y832968D01*
X96811Y835127D01*
X95694Y837063D01*
X94113Y838644D01*
X92177Y839761D01*
X90018Y840340D01*
D02*
G37*
G36*
X732390Y814940D02*
X715410D01*
Y797960D01*
X732390D01*
Y814940D01*
D02*
G37*
G36*
X699618D02*
X697382D01*
X695223Y814361D01*
X693287Y813244D01*
X691706Y811663D01*
X690589Y809727D01*
X690010Y807568D01*
Y805332D01*
X690589Y803173D01*
X691706Y801237D01*
X693287Y799656D01*
X695223Y798539D01*
X697382Y797960D01*
X699618D01*
X701777Y798539D01*
X703713Y799656D01*
X705294Y801237D01*
X706411Y803173D01*
X706990Y805332D01*
Y807568D01*
X706411Y809727D01*
X705294Y811663D01*
X703713Y813244D01*
X701777Y814361D01*
X699618Y814940D01*
D02*
G37*
G36*
X674218D02*
X671982D01*
X669823Y814361D01*
X667887Y813244D01*
X666306Y811663D01*
X665189Y809727D01*
X664610Y807568D01*
Y805332D01*
X665189Y803173D01*
X666306Y801237D01*
X667887Y799656D01*
X669823Y798539D01*
X671982Y797960D01*
X674218D01*
X676377Y798539D01*
X678313Y799656D01*
X679894Y801237D01*
X681011Y803173D01*
X681590Y805332D01*
Y807568D01*
X681011Y809727D01*
X679894Y811663D01*
X678313Y813244D01*
X676377Y814361D01*
X674218Y814940D01*
D02*
G37*
G36*
X648818D02*
X646582D01*
X644423Y814361D01*
X642487Y813244D01*
X640906Y811663D01*
X639789Y809727D01*
X639210Y807568D01*
Y805332D01*
X639789Y803173D01*
X640906Y801237D01*
X642487Y799656D01*
X644423Y798539D01*
X646582Y797960D01*
X648818D01*
X650977Y798539D01*
X652913Y799656D01*
X654494Y801237D01*
X655611Y803173D01*
X656190Y805332D01*
Y807568D01*
X655611Y809727D01*
X654494Y811663D01*
X652913Y813244D01*
X650977Y814361D01*
X648818Y814940D01*
D02*
G37*
G36*
X623418D02*
X621182D01*
X619023Y814361D01*
X617087Y813244D01*
X615506Y811663D01*
X614389Y809727D01*
X613810Y807568D01*
Y805332D01*
X614389Y803173D01*
X615506Y801237D01*
X617087Y799656D01*
X619023Y798539D01*
X621182Y797960D01*
X623418D01*
X625577Y798539D01*
X627513Y799656D01*
X629094Y801237D01*
X630211Y803173D01*
X630790Y805332D01*
Y807568D01*
X630211Y809727D01*
X629094Y811663D01*
X627513Y813244D01*
X625577Y814361D01*
X623418Y814940D01*
D02*
G37*
G36*
X598018D02*
X595782D01*
X593623Y814361D01*
X591687Y813244D01*
X590106Y811663D01*
X588989Y809727D01*
X588410Y807568D01*
Y805332D01*
X588989Y803173D01*
X590106Y801237D01*
X591687Y799656D01*
X593623Y798539D01*
X595782Y797960D01*
X598018D01*
X600177Y798539D01*
X602113Y799656D01*
X603694Y801237D01*
X604811Y803173D01*
X605390Y805332D01*
Y807568D01*
X604811Y809727D01*
X603694Y811663D01*
X602113Y813244D01*
X600177Y814361D01*
X598018Y814940D01*
D02*
G37*
G36*
X572618D02*
X570382D01*
X568223Y814361D01*
X566287Y813244D01*
X564706Y811663D01*
X563589Y809727D01*
X563010Y807568D01*
Y805332D01*
X563589Y803173D01*
X564706Y801237D01*
X566287Y799656D01*
X568223Y798539D01*
X570382Y797960D01*
X572618D01*
X574777Y798539D01*
X576713Y799656D01*
X578294Y801237D01*
X579411Y803173D01*
X579990Y805332D01*
Y807568D01*
X579411Y809727D01*
X578294Y811663D01*
X576713Y813244D01*
X574777Y814361D01*
X572618Y814940D01*
D02*
G37*
G36*
X547218D02*
X544982D01*
X542823Y814361D01*
X540887Y813244D01*
X539306Y811663D01*
X538189Y809727D01*
X537610Y807568D01*
Y805332D01*
X538189Y803173D01*
X539306Y801237D01*
X540887Y799656D01*
X542823Y798539D01*
X544982Y797960D01*
X547218D01*
X549377Y798539D01*
X551313Y799656D01*
X552894Y801237D01*
X554011Y803173D01*
X554590Y805332D01*
Y807568D01*
X554011Y809727D01*
X552894Y811663D01*
X551313Y813244D01*
X549377Y814361D01*
X547218Y814940D01*
D02*
G37*
G36*
X521818D02*
X519582D01*
X517423Y814361D01*
X515487Y813244D01*
X513906Y811663D01*
X512789Y809727D01*
X512210Y807568D01*
Y805332D01*
X512789Y803173D01*
X513906Y801237D01*
X515487Y799656D01*
X517423Y798539D01*
X519582Y797960D01*
X521818D01*
X523977Y798539D01*
X525913Y799656D01*
X527494Y801237D01*
X528611Y803173D01*
X529190Y805332D01*
Y807568D01*
X528611Y809727D01*
X527494Y811663D01*
X525913Y813244D01*
X523977Y814361D01*
X521818Y814940D01*
D02*
G37*
G36*
X496418D02*
X494182D01*
X492023Y814361D01*
X490087Y813244D01*
X488506Y811663D01*
X487389Y809727D01*
X486810Y807568D01*
Y805332D01*
X487389Y803173D01*
X488506Y801237D01*
X490087Y799656D01*
X492023Y798539D01*
X494182Y797960D01*
X496418D01*
X498577Y798539D01*
X500513Y799656D01*
X502094Y801237D01*
X503211Y803173D01*
X503790Y805332D01*
Y807568D01*
X503211Y809727D01*
X502094Y811663D01*
X500513Y813244D01*
X498577Y814361D01*
X496418Y814940D01*
D02*
G37*
G36*
X471018D02*
X468782D01*
X466623Y814361D01*
X464687Y813244D01*
X463106Y811663D01*
X461989Y809727D01*
X461410Y807568D01*
Y805332D01*
X461989Y803173D01*
X463106Y801237D01*
X464687Y799656D01*
X466623Y798539D01*
X468782Y797960D01*
X471018D01*
X473177Y798539D01*
X475113Y799656D01*
X476694Y801237D01*
X477811Y803173D01*
X478390Y805332D01*
Y807568D01*
X477811Y809727D01*
X476694Y811663D01*
X475113Y813244D01*
X473177Y814361D01*
X471018Y814940D01*
D02*
G37*
G36*
X445618D02*
X443382D01*
X441223Y814361D01*
X439287Y813244D01*
X437706Y811663D01*
X436589Y809727D01*
X436010Y807568D01*
Y805332D01*
X436589Y803173D01*
X437706Y801237D01*
X439287Y799656D01*
X441223Y798539D01*
X443382Y797960D01*
X445618D01*
X447777Y798539D01*
X449713Y799656D01*
X451294Y801237D01*
X452411Y803173D01*
X452990Y805332D01*
Y807568D01*
X452411Y809727D01*
X451294Y811663D01*
X449713Y813244D01*
X447777Y814361D01*
X445618Y814940D01*
D02*
G37*
G36*
X420218D02*
X417982D01*
X415823Y814361D01*
X413887Y813244D01*
X412306Y811663D01*
X411189Y809727D01*
X410610Y807568D01*
Y805332D01*
X411189Y803173D01*
X412306Y801237D01*
X413887Y799656D01*
X415823Y798539D01*
X417982Y797960D01*
X420218D01*
X422377Y798539D01*
X424313Y799656D01*
X425894Y801237D01*
X427011Y803173D01*
X427590Y805332D01*
Y807568D01*
X427011Y809727D01*
X425894Y811663D01*
X424313Y813244D01*
X422377Y814361D01*
X420218Y814940D01*
D02*
G37*
G36*
X394818D02*
X392582D01*
X390423Y814361D01*
X388487Y813244D01*
X386906Y811663D01*
X385789Y809727D01*
X385210Y807568D01*
Y805332D01*
X385789Y803173D01*
X386906Y801237D01*
X388487Y799656D01*
X390423Y798539D01*
X392582Y797960D01*
X394818D01*
X396977Y798539D01*
X398913Y799656D01*
X400494Y801237D01*
X401611Y803173D01*
X402190Y805332D01*
Y807568D01*
X401611Y809727D01*
X400494Y811663D01*
X398913Y813244D01*
X396977Y814361D01*
X394818Y814940D01*
D02*
G37*
G36*
X318618D02*
X316382D01*
X314223Y814361D01*
X312287Y813244D01*
X310706Y811663D01*
X309589Y809727D01*
X309010Y807568D01*
Y805332D01*
X309589Y803173D01*
X310706Y801237D01*
X312287Y799656D01*
X314223Y798539D01*
X316382Y797960D01*
X318618D01*
X320777Y798539D01*
X322713Y799656D01*
X324294Y801237D01*
X325411Y803173D01*
X325990Y805332D01*
Y807568D01*
X325411Y809727D01*
X324294Y811663D01*
X322713Y813244D01*
X320777Y814361D01*
X318618Y814940D01*
D02*
G37*
G36*
X293218D02*
X290982D01*
X288823Y814361D01*
X286887Y813244D01*
X285306Y811663D01*
X284189Y809727D01*
X283610Y807568D01*
Y805332D01*
X284189Y803173D01*
X285306Y801237D01*
X286887Y799656D01*
X288823Y798539D01*
X290982Y797960D01*
X293218D01*
X295377Y798539D01*
X297313Y799656D01*
X298894Y801237D01*
X300011Y803173D01*
X300590Y805332D01*
Y807568D01*
X300011Y809727D01*
X298894Y811663D01*
X297313Y813244D01*
X295377Y814361D01*
X293218Y814940D01*
D02*
G37*
G36*
X267818D02*
X265582D01*
X263423Y814361D01*
X261487Y813244D01*
X259906Y811663D01*
X258789Y809727D01*
X258210Y807568D01*
Y805332D01*
X258789Y803173D01*
X259906Y801237D01*
X261487Y799656D01*
X263423Y798539D01*
X265582Y797960D01*
X267818D01*
X269977Y798539D01*
X271913Y799656D01*
X273494Y801237D01*
X274611Y803173D01*
X275190Y805332D01*
Y807568D01*
X274611Y809727D01*
X273494Y811663D01*
X271913Y813244D01*
X269977Y814361D01*
X267818Y814940D01*
D02*
G37*
G36*
X242418D02*
X240182D01*
X238023Y814361D01*
X236087Y813244D01*
X234506Y811663D01*
X233389Y809727D01*
X232810Y807568D01*
Y805332D01*
X233389Y803173D01*
X234506Y801237D01*
X236087Y799656D01*
X238023Y798539D01*
X240182Y797960D01*
X242418D01*
X244577Y798539D01*
X246513Y799656D01*
X248094Y801237D01*
X249211Y803173D01*
X249790Y805332D01*
Y807568D01*
X249211Y809727D01*
X248094Y811663D01*
X246513Y813244D01*
X244577Y814361D01*
X242418Y814940D01*
D02*
G37*
G36*
X217018D02*
X214782D01*
X212623Y814361D01*
X210687Y813244D01*
X209106Y811663D01*
X207989Y809727D01*
X207410Y807568D01*
Y805332D01*
X207989Y803173D01*
X209106Y801237D01*
X210687Y799656D01*
X212623Y798539D01*
X214782Y797960D01*
X217018D01*
X219177Y798539D01*
X221113Y799656D01*
X222694Y801237D01*
X223811Y803173D01*
X224390Y805332D01*
Y807568D01*
X223811Y809727D01*
X222694Y811663D01*
X221113Y813244D01*
X219177Y814361D01*
X217018Y814940D01*
D02*
G37*
G36*
X191618D02*
X189382D01*
X187223Y814361D01*
X185287Y813244D01*
X183706Y811663D01*
X182589Y809727D01*
X182010Y807568D01*
Y805332D01*
X182589Y803173D01*
X183706Y801237D01*
X185287Y799656D01*
X187223Y798539D01*
X189382Y797960D01*
X191618D01*
X193777Y798539D01*
X195713Y799656D01*
X197294Y801237D01*
X198411Y803173D01*
X198990Y805332D01*
Y807568D01*
X198411Y809727D01*
X197294Y811663D01*
X195713Y813244D01*
X193777Y814361D01*
X191618Y814940D01*
D02*
G37*
G36*
X166218D02*
X163982D01*
X161823Y814361D01*
X159887Y813244D01*
X158306Y811663D01*
X157189Y809727D01*
X156610Y807568D01*
Y805332D01*
X157189Y803173D01*
X158306Y801237D01*
X159887Y799656D01*
X161823Y798539D01*
X163982Y797960D01*
X166218D01*
X168377Y798539D01*
X170313Y799656D01*
X171894Y801237D01*
X173011Y803173D01*
X173590Y805332D01*
Y807568D01*
X173011Y809727D01*
X171894Y811663D01*
X170313Y813244D01*
X168377Y814361D01*
X166218Y814940D01*
D02*
G37*
G36*
X140818D02*
X138582D01*
X136423Y814361D01*
X134487Y813244D01*
X132906Y811663D01*
X131789Y809727D01*
X131210Y807568D01*
Y805332D01*
X131789Y803173D01*
X132906Y801237D01*
X134487Y799656D01*
X136423Y798539D01*
X138582Y797960D01*
X140818D01*
X142977Y798539D01*
X144913Y799656D01*
X146494Y801237D01*
X147611Y803173D01*
X148190Y805332D01*
Y807568D01*
X147611Y809727D01*
X146494Y811663D01*
X144913Y813244D01*
X142977Y814361D01*
X140818Y814940D01*
D02*
G37*
G36*
X115418D02*
X113182D01*
X111023Y814361D01*
X109087Y813244D01*
X107506Y811663D01*
X106389Y809727D01*
X105810Y807568D01*
Y805332D01*
X106389Y803173D01*
X107506Y801237D01*
X109087Y799656D01*
X111023Y798539D01*
X113182Y797960D01*
X115418D01*
X117577Y798539D01*
X119513Y799656D01*
X121094Y801237D01*
X122211Y803173D01*
X122790Y805332D01*
Y807568D01*
X122211Y809727D01*
X121094Y811663D01*
X119513Y813244D01*
X117577Y814361D01*
X115418Y814940D01*
D02*
G37*
G36*
X90018D02*
X87782D01*
X85623Y814361D01*
X83687Y813244D01*
X82106Y811663D01*
X80989Y809727D01*
X80410Y807568D01*
Y805332D01*
X80989Y803173D01*
X82106Y801237D01*
X83687Y799656D01*
X85623Y798539D01*
X87782Y797960D01*
X90018D01*
X92177Y798539D01*
X94113Y799656D01*
X95694Y801237D01*
X96811Y803173D01*
X97390Y805332D01*
Y807568D01*
X96811Y809727D01*
X95694Y811663D01*
X94113Y813244D01*
X92177Y814361D01*
X90018Y814940D01*
D02*
G37*
G36*
X725018Y789540D02*
X722782D01*
X720623Y788961D01*
X718687Y787844D01*
X717106Y786263D01*
X715989Y784327D01*
X715410Y782168D01*
Y779932D01*
X715989Y777773D01*
X717106Y775837D01*
X718687Y774256D01*
X720623Y773139D01*
X722782Y772560D01*
X725018D01*
X727177Y773139D01*
X729113Y774256D01*
X730694Y775837D01*
X731811Y777773D01*
X732390Y779932D01*
Y782168D01*
X731811Y784327D01*
X730694Y786263D01*
X729113Y787844D01*
X727177Y788961D01*
X725018Y789540D01*
D02*
G37*
G36*
X699618D02*
X697382D01*
X695223Y788961D01*
X693287Y787844D01*
X691706Y786263D01*
X690589Y784327D01*
X690010Y782168D01*
Y779932D01*
X690589Y777773D01*
X691706Y775837D01*
X693287Y774256D01*
X695223Y773139D01*
X697382Y772560D01*
X699618D01*
X701777Y773139D01*
X703713Y774256D01*
X705294Y775837D01*
X706411Y777773D01*
X706990Y779932D01*
Y782168D01*
X706411Y784327D01*
X705294Y786263D01*
X703713Y787844D01*
X701777Y788961D01*
X699618Y789540D01*
D02*
G37*
G36*
X674218D02*
X671982D01*
X669823Y788961D01*
X667887Y787844D01*
X666306Y786263D01*
X665189Y784327D01*
X664610Y782168D01*
Y779932D01*
X665189Y777773D01*
X666306Y775837D01*
X667887Y774256D01*
X669823Y773139D01*
X671982Y772560D01*
X674218D01*
X676377Y773139D01*
X678313Y774256D01*
X679894Y775837D01*
X681011Y777773D01*
X681590Y779932D01*
Y782168D01*
X681011Y784327D01*
X679894Y786263D01*
X678313Y787844D01*
X676377Y788961D01*
X674218Y789540D01*
D02*
G37*
G36*
X648818D02*
X646582D01*
X644423Y788961D01*
X642487Y787844D01*
X640906Y786263D01*
X639789Y784327D01*
X639210Y782168D01*
Y779932D01*
X639789Y777773D01*
X640906Y775837D01*
X642487Y774256D01*
X644423Y773139D01*
X646582Y772560D01*
X648818D01*
X650977Y773139D01*
X652913Y774256D01*
X654494Y775837D01*
X655611Y777773D01*
X656190Y779932D01*
Y782168D01*
X655611Y784327D01*
X654494Y786263D01*
X652913Y787844D01*
X650977Y788961D01*
X648818Y789540D01*
D02*
G37*
G36*
X623418D02*
X621182D01*
X619023Y788961D01*
X617087Y787844D01*
X615506Y786263D01*
X614389Y784327D01*
X613810Y782168D01*
Y779932D01*
X614389Y777773D01*
X615506Y775837D01*
X617087Y774256D01*
X619023Y773139D01*
X621182Y772560D01*
X623418D01*
X625577Y773139D01*
X627513Y774256D01*
X629094Y775837D01*
X630211Y777773D01*
X630790Y779932D01*
Y782168D01*
X630211Y784327D01*
X629094Y786263D01*
X627513Y787844D01*
X625577Y788961D01*
X623418Y789540D01*
D02*
G37*
G36*
X598018D02*
X595782D01*
X593623Y788961D01*
X591687Y787844D01*
X590106Y786263D01*
X588989Y784327D01*
X588410Y782168D01*
Y779932D01*
X588989Y777773D01*
X590106Y775837D01*
X591687Y774256D01*
X593623Y773139D01*
X595782Y772560D01*
X598018D01*
X600177Y773139D01*
X602113Y774256D01*
X603694Y775837D01*
X604811Y777773D01*
X605390Y779932D01*
Y782168D01*
X604811Y784327D01*
X603694Y786263D01*
X602113Y787844D01*
X600177Y788961D01*
X598018Y789540D01*
D02*
G37*
G36*
X572618D02*
X570382D01*
X568223Y788961D01*
X566287Y787844D01*
X564706Y786263D01*
X563589Y784327D01*
X563010Y782168D01*
Y779932D01*
X563589Y777773D01*
X564706Y775837D01*
X566287Y774256D01*
X568223Y773139D01*
X570382Y772560D01*
X572618D01*
X574777Y773139D01*
X576713Y774256D01*
X578294Y775837D01*
X579411Y777773D01*
X579990Y779932D01*
Y782168D01*
X579411Y784327D01*
X578294Y786263D01*
X576713Y787844D01*
X574777Y788961D01*
X572618Y789540D01*
D02*
G37*
G36*
X547218D02*
X544982D01*
X542823Y788961D01*
X540887Y787844D01*
X539306Y786263D01*
X538189Y784327D01*
X537610Y782168D01*
Y779932D01*
X538189Y777773D01*
X539306Y775837D01*
X540887Y774256D01*
X542823Y773139D01*
X544982Y772560D01*
X547218D01*
X549377Y773139D01*
X551313Y774256D01*
X552894Y775837D01*
X554011Y777773D01*
X554590Y779932D01*
Y782168D01*
X554011Y784327D01*
X552894Y786263D01*
X551313Y787844D01*
X549377Y788961D01*
X547218Y789540D01*
D02*
G37*
G36*
X521818D02*
X519582D01*
X517423Y788961D01*
X515487Y787844D01*
X513906Y786263D01*
X512789Y784327D01*
X512210Y782168D01*
Y779932D01*
X512789Y777773D01*
X513906Y775837D01*
X515487Y774256D01*
X517423Y773139D01*
X519582Y772560D01*
X521818D01*
X523977Y773139D01*
X525913Y774256D01*
X527494Y775837D01*
X528611Y777773D01*
X529190Y779932D01*
Y782168D01*
X528611Y784327D01*
X527494Y786263D01*
X525913Y787844D01*
X523977Y788961D01*
X521818Y789540D01*
D02*
G37*
G36*
X496418D02*
X494182D01*
X492023Y788961D01*
X490087Y787844D01*
X488506Y786263D01*
X487389Y784327D01*
X486810Y782168D01*
Y779932D01*
X487389Y777773D01*
X488506Y775837D01*
X490087Y774256D01*
X492023Y773139D01*
X494182Y772560D01*
X496418D01*
X498577Y773139D01*
X500513Y774256D01*
X502094Y775837D01*
X503211Y777773D01*
X503790Y779932D01*
Y782168D01*
X503211Y784327D01*
X502094Y786263D01*
X500513Y787844D01*
X498577Y788961D01*
X496418Y789540D01*
D02*
G37*
G36*
X471018D02*
X468782D01*
X466623Y788961D01*
X464687Y787844D01*
X463106Y786263D01*
X461989Y784327D01*
X461410Y782168D01*
Y779932D01*
X461989Y777773D01*
X463106Y775837D01*
X464687Y774256D01*
X466623Y773139D01*
X468782Y772560D01*
X471018D01*
X473177Y773139D01*
X475113Y774256D01*
X476694Y775837D01*
X477811Y777773D01*
X478390Y779932D01*
Y782168D01*
X477811Y784327D01*
X476694Y786263D01*
X475113Y787844D01*
X473177Y788961D01*
X471018Y789540D01*
D02*
G37*
G36*
X445618D02*
X443382D01*
X441223Y788961D01*
X439287Y787844D01*
X437706Y786263D01*
X436589Y784327D01*
X436010Y782168D01*
Y779932D01*
X436589Y777773D01*
X437706Y775837D01*
X439287Y774256D01*
X441223Y773139D01*
X443382Y772560D01*
X445618D01*
X447777Y773139D01*
X449713Y774256D01*
X451294Y775837D01*
X452411Y777773D01*
X452990Y779932D01*
Y782168D01*
X452411Y784327D01*
X451294Y786263D01*
X449713Y787844D01*
X447777Y788961D01*
X445618Y789540D01*
D02*
G37*
G36*
X420218D02*
X417982D01*
X415823Y788961D01*
X413887Y787844D01*
X412306Y786263D01*
X411189Y784327D01*
X410610Y782168D01*
Y779932D01*
X411189Y777773D01*
X412306Y775837D01*
X413887Y774256D01*
X415823Y773139D01*
X417982Y772560D01*
X420218D01*
X422377Y773139D01*
X424313Y774256D01*
X425894Y775837D01*
X427011Y777773D01*
X427590Y779932D01*
Y782168D01*
X427011Y784327D01*
X425894Y786263D01*
X424313Y787844D01*
X422377Y788961D01*
X420218Y789540D01*
D02*
G37*
G36*
X394818D02*
X392582D01*
X390423Y788961D01*
X388487Y787844D01*
X386906Y786263D01*
X385789Y784327D01*
X385210Y782168D01*
Y779932D01*
X385789Y777773D01*
X386906Y775837D01*
X388487Y774256D01*
X390423Y773139D01*
X392582Y772560D01*
X394818D01*
X396977Y773139D01*
X398913Y774256D01*
X400494Y775837D01*
X401611Y777773D01*
X402190Y779932D01*
Y782168D01*
X401611Y784327D01*
X400494Y786263D01*
X398913Y787844D01*
X396977Y788961D01*
X394818Y789540D01*
D02*
G37*
G36*
X318618D02*
X316382D01*
X314223Y788961D01*
X312287Y787844D01*
X310706Y786263D01*
X309589Y784327D01*
X309010Y782168D01*
Y779932D01*
X309589Y777773D01*
X310706Y775837D01*
X312287Y774256D01*
X314223Y773139D01*
X316382Y772560D01*
X318618D01*
X320777Y773139D01*
X322713Y774256D01*
X324294Y775837D01*
X325411Y777773D01*
X325990Y779932D01*
Y782168D01*
X325411Y784327D01*
X324294Y786263D01*
X322713Y787844D01*
X320777Y788961D01*
X318618Y789540D01*
D02*
G37*
G36*
X293218D02*
X290982D01*
X288823Y788961D01*
X286887Y787844D01*
X285306Y786263D01*
X284189Y784327D01*
X283610Y782168D01*
Y779932D01*
X284189Y777773D01*
X285306Y775837D01*
X286887Y774256D01*
X288823Y773139D01*
X290982Y772560D01*
X293218D01*
X295377Y773139D01*
X297313Y774256D01*
X298894Y775837D01*
X300011Y777773D01*
X300590Y779932D01*
Y782168D01*
X300011Y784327D01*
X298894Y786263D01*
X297313Y787844D01*
X295377Y788961D01*
X293218Y789540D01*
D02*
G37*
G36*
X267818D02*
X265582D01*
X263423Y788961D01*
X261487Y787844D01*
X259906Y786263D01*
X258789Y784327D01*
X258210Y782168D01*
Y779932D01*
X258789Y777773D01*
X259906Y775837D01*
X261487Y774256D01*
X263423Y773139D01*
X265582Y772560D01*
X267818D01*
X269977Y773139D01*
X271913Y774256D01*
X273494Y775837D01*
X274611Y777773D01*
X275190Y779932D01*
Y782168D01*
X274611Y784327D01*
X273494Y786263D01*
X271913Y787844D01*
X269977Y788961D01*
X267818Y789540D01*
D02*
G37*
G36*
X242418D02*
X240182D01*
X238023Y788961D01*
X236087Y787844D01*
X234506Y786263D01*
X233389Y784327D01*
X232810Y782168D01*
Y779932D01*
X233389Y777773D01*
X234506Y775837D01*
X236087Y774256D01*
X238023Y773139D01*
X240182Y772560D01*
X242418D01*
X244577Y773139D01*
X246513Y774256D01*
X248094Y775837D01*
X249211Y777773D01*
X249790Y779932D01*
Y782168D01*
X249211Y784327D01*
X248094Y786263D01*
X246513Y787844D01*
X244577Y788961D01*
X242418Y789540D01*
D02*
G37*
G36*
X217018D02*
X214782D01*
X212623Y788961D01*
X210687Y787844D01*
X209106Y786263D01*
X207989Y784327D01*
X207410Y782168D01*
Y779932D01*
X207989Y777773D01*
X209106Y775837D01*
X210687Y774256D01*
X212623Y773139D01*
X214782Y772560D01*
X217018D01*
X219177Y773139D01*
X221113Y774256D01*
X222694Y775837D01*
X223811Y777773D01*
X224390Y779932D01*
Y782168D01*
X223811Y784327D01*
X222694Y786263D01*
X221113Y787844D01*
X219177Y788961D01*
X217018Y789540D01*
D02*
G37*
G36*
X191618D02*
X189382D01*
X187223Y788961D01*
X185287Y787844D01*
X183706Y786263D01*
X182589Y784327D01*
X182010Y782168D01*
Y779932D01*
X182589Y777773D01*
X183706Y775837D01*
X185287Y774256D01*
X187223Y773139D01*
X189382Y772560D01*
X191618D01*
X193777Y773139D01*
X195713Y774256D01*
X197294Y775837D01*
X198411Y777773D01*
X198990Y779932D01*
Y782168D01*
X198411Y784327D01*
X197294Y786263D01*
X195713Y787844D01*
X193777Y788961D01*
X191618Y789540D01*
D02*
G37*
G36*
X166218D02*
X163982D01*
X161823Y788961D01*
X159887Y787844D01*
X158306Y786263D01*
X157189Y784327D01*
X156610Y782168D01*
Y779932D01*
X157189Y777773D01*
X158306Y775837D01*
X159887Y774256D01*
X161823Y773139D01*
X163982Y772560D01*
X166218D01*
X168377Y773139D01*
X170313Y774256D01*
X171894Y775837D01*
X173011Y777773D01*
X173590Y779932D01*
Y782168D01*
X173011Y784327D01*
X171894Y786263D01*
X170313Y787844D01*
X168377Y788961D01*
X166218Y789540D01*
D02*
G37*
G36*
X140818D02*
X138582D01*
X136423Y788961D01*
X134487Y787844D01*
X132906Y786263D01*
X131789Y784327D01*
X131210Y782168D01*
Y779932D01*
X131789Y777773D01*
X132906Y775837D01*
X134487Y774256D01*
X136423Y773139D01*
X138582Y772560D01*
X140818D01*
X142977Y773139D01*
X144913Y774256D01*
X146494Y775837D01*
X147611Y777773D01*
X148190Y779932D01*
Y782168D01*
X147611Y784327D01*
X146494Y786263D01*
X144913Y787844D01*
X142977Y788961D01*
X140818Y789540D01*
D02*
G37*
G36*
X115418D02*
X113182D01*
X111023Y788961D01*
X109087Y787844D01*
X107506Y786263D01*
X106389Y784327D01*
X105810Y782168D01*
Y779932D01*
X106389Y777773D01*
X107506Y775837D01*
X109087Y774256D01*
X111023Y773139D01*
X113182Y772560D01*
X115418D01*
X117577Y773139D01*
X119513Y774256D01*
X121094Y775837D01*
X122211Y777773D01*
X122790Y779932D01*
Y782168D01*
X122211Y784327D01*
X121094Y786263D01*
X119513Y787844D01*
X117577Y788961D01*
X115418Y789540D01*
D02*
G37*
G36*
X90018D02*
X87782D01*
X85623Y788961D01*
X83687Y787844D01*
X82106Y786263D01*
X80989Y784327D01*
X80410Y782168D01*
Y779932D01*
X80989Y777773D01*
X82106Y775837D01*
X83687Y774256D01*
X85623Y773139D01*
X87782Y772560D01*
X90018D01*
X92177Y773139D01*
X94113Y774256D01*
X95694Y775837D01*
X96811Y777773D01*
X97390Y779932D01*
Y782168D01*
X96811Y784327D01*
X95694Y786263D01*
X94113Y787844D01*
X92177Y788961D01*
X90018Y789540D01*
D02*
G37*
G36*
X96546Y666000D02*
X94954D01*
X93484Y665391D01*
X92955Y664862D01*
X92125Y664397D01*
X91295Y664862D01*
X90766Y665391D01*
X89296Y666000D01*
X87704D01*
X86234Y665391D01*
X85109Y664266D01*
X84500Y662796D01*
Y661204D01*
X85109Y659734D01*
X85639Y659205D01*
X86103Y658375D01*
X85639Y657545D01*
X85109Y657016D01*
X84500Y655546D01*
Y653954D01*
X85109Y652484D01*
X85639Y651955D01*
X85734Y651784D01*
X85158Y650376D01*
X84456Y650131D01*
X84045Y650361D01*
X83516Y650891D01*
X82046Y651500D01*
X80454D01*
X78984Y650891D01*
X77859Y649766D01*
X77250Y648296D01*
Y646704D01*
X77859Y645234D01*
X78984Y644109D01*
X80454Y643500D01*
X82046D01*
X83516Y644109D01*
X84045Y644639D01*
X84875Y645103D01*
X85705Y644639D01*
X86234Y644109D01*
X87704Y643500D01*
X89296D01*
X90766Y644109D01*
X91295Y644639D01*
X92125Y645103D01*
X92955Y644639D01*
X93484Y644109D01*
X94954Y643500D01*
X96546D01*
X98016Y644109D01*
X99141Y645234D01*
X99750Y646704D01*
Y648296D01*
X99141Y649766D01*
X98611Y650295D01*
X98147Y651125D01*
X98611Y651955D01*
X99141Y652484D01*
X99750Y653954D01*
Y655546D01*
X99141Y657016D01*
X98611Y657545D01*
X98147Y658375D01*
X98611Y659205D01*
X99141Y659734D01*
X99750Y661204D01*
Y662796D01*
X99141Y664266D01*
X98016Y665391D01*
X96546Y666000D01*
D02*
G37*
G36*
X521796Y672000D02*
X520204D01*
X518734Y671391D01*
X517609Y670266D01*
X517000Y668796D01*
Y667204D01*
X517609Y665734D01*
X518734Y664609D01*
X520204Y664000D01*
X521796D01*
X523266Y664609D01*
X524391Y665734D01*
X525000Y667204D01*
Y668796D01*
X524391Y670266D01*
X523266Y671391D01*
X521796Y672000D01*
D02*
G37*
G36*
X43844Y657650D02*
X41756D01*
X39826Y656851D01*
X38349Y655374D01*
X37550Y653444D01*
Y651356D01*
X38349Y649426D01*
X39826Y647949D01*
X41756Y647150D01*
X43844D01*
X45774Y647949D01*
X47251Y649426D01*
X48050Y651356D01*
Y653444D01*
X47251Y655374D01*
X45774Y656851D01*
X43844Y657650D01*
D02*
G37*
G36*
X96546Y603500D02*
X94954D01*
X93484Y602891D01*
X92955Y602362D01*
X92125Y601897D01*
X91295Y602362D01*
X90766Y602891D01*
X89296Y603500D01*
X87704D01*
X86234Y602891D01*
X85705Y602362D01*
X84875Y601897D01*
X84045Y602362D01*
X83516Y602891D01*
X82046Y603500D01*
X80454D01*
X78984Y602891D01*
X77859Y601766D01*
X77250Y600296D01*
Y598704D01*
X77859Y597234D01*
X78984Y596109D01*
X80454Y595500D01*
X82046D01*
X83516Y596109D01*
X84045Y596638D01*
X84456Y596869D01*
X85158Y596624D01*
X85734Y595216D01*
X85639Y595045D01*
X85109Y594516D01*
X84500Y593046D01*
Y591454D01*
X85109Y589984D01*
X85639Y589455D01*
X86103Y588625D01*
X85639Y587795D01*
X85109Y587266D01*
X84500Y585796D01*
Y584204D01*
X85109Y582734D01*
X86234Y581609D01*
X87704Y581000D01*
X89296D01*
X90766Y581609D01*
X91295Y582138D01*
X92125Y582603D01*
X92955Y582138D01*
X93484Y581609D01*
X94954Y581000D01*
X96546D01*
X98016Y581609D01*
X99141Y582734D01*
X99750Y584204D01*
Y585796D01*
X99141Y587266D01*
X98611Y587795D01*
X98147Y588625D01*
X98611Y589455D01*
X99141Y589984D01*
X99750Y591454D01*
Y593046D01*
X99141Y594516D01*
X98611Y595045D01*
X98147Y595875D01*
X98611Y596705D01*
X99141Y597234D01*
X99750Y598704D01*
Y600296D01*
X99141Y601766D01*
X98016Y602891D01*
X96546Y603500D01*
D02*
G37*
G36*
X43844Y599850D02*
X41756D01*
X39826Y599051D01*
X38349Y597574D01*
X37550Y595644D01*
Y593556D01*
X38349Y591626D01*
X39826Y590149D01*
X41756Y589350D01*
X43844D01*
X45774Y590149D01*
X47251Y591626D01*
X48050Y593556D01*
Y595644D01*
X47251Y597574D01*
X45774Y599051D01*
X43844Y599850D01*
D02*
G37*
G36*
X430796Y571500D02*
X429204D01*
X427734Y570891D01*
X427073Y570230D01*
X426250Y569907D01*
X425427Y570230D01*
X424766Y570891D01*
X423296Y571500D01*
X421704D01*
X420234Y570891D01*
X419573Y570230D01*
X418750Y569907D01*
X417927Y570230D01*
X417266Y570891D01*
X415796Y571500D01*
X414204D01*
X412734Y570891D01*
X411609Y569766D01*
X411000Y568296D01*
Y566704D01*
X411609Y565234D01*
X412270Y564573D01*
X412593Y563750D01*
X412270Y562927D01*
X411609Y562266D01*
X411000Y560796D01*
Y559204D01*
X411609Y557734D01*
X412270Y557073D01*
X412593Y556250D01*
X412270Y555427D01*
X411609Y554766D01*
X411000Y553296D01*
Y551704D01*
X411609Y550234D01*
X412270Y549573D01*
X412593Y548750D01*
X412270Y547927D01*
X411609Y547266D01*
X411000Y545796D01*
Y544204D01*
X411609Y542734D01*
X412734Y541609D01*
X414204Y541000D01*
X415796D01*
X417266Y541609D01*
X417927Y542270D01*
X418750Y542593D01*
X419481Y542306D01*
X420036Y541105D01*
X419770Y540427D01*
X419109Y539766D01*
X418500Y538296D01*
Y536704D01*
X419109Y535234D01*
X420234Y534109D01*
X421704Y533500D01*
X423296D01*
X424766Y534109D01*
X425427Y534770D01*
X426250Y535093D01*
X427073Y534770D01*
X427734Y534109D01*
X429204Y533500D01*
X430796D01*
X432266Y534109D01*
X433391Y535234D01*
X434000Y536704D01*
Y538296D01*
X433391Y539766D01*
X432730Y540427D01*
X432407Y541250D01*
X432730Y542073D01*
X433391Y542734D01*
X434000Y544204D01*
Y545796D01*
X433391Y547266D01*
X432730Y547927D01*
X432407Y548750D01*
X432730Y549573D01*
X433391Y550234D01*
X434000Y551704D01*
Y553296D01*
X433391Y554766D01*
X432730Y555427D01*
X432407Y556250D01*
X432730Y557073D01*
X433391Y557734D01*
X434000Y559204D01*
Y560796D01*
X433391Y562266D01*
X432730Y562927D01*
X432407Y563750D01*
X432730Y564573D01*
X433391Y565234D01*
X434000Y566704D01*
Y568296D01*
X433391Y569766D01*
X432266Y570891D01*
X430796Y571500D01*
D02*
G37*
G36*
X545796Y564000D02*
X544204D01*
X542734Y563391D01*
X542073Y562730D01*
X541250Y562407D01*
X540427Y562730D01*
X539766Y563391D01*
X538296Y564000D01*
X536704D01*
X535234Y563391D01*
X534109Y562266D01*
X533500Y560796D01*
Y559204D01*
X534109Y557734D01*
X534770Y557073D01*
X535093Y556250D01*
X534770Y555427D01*
X534109Y554766D01*
X533500Y553296D01*
Y551704D01*
X534109Y550234D01*
X534770Y549573D01*
X535093Y548750D01*
X534770Y547927D01*
X534109Y547266D01*
X533500Y545796D01*
Y544204D01*
X534109Y542734D01*
X534770Y542073D01*
X535093Y541250D01*
X534770Y540427D01*
X534109Y539766D01*
X533500Y538296D01*
Y536704D01*
X534109Y535234D01*
X534770Y534573D01*
X535093Y533750D01*
X534770Y532927D01*
X534573Y532730D01*
X533750Y532407D01*
X532927Y532730D01*
X532266Y533391D01*
X530796Y534000D01*
X529204D01*
X527734Y533391D01*
X526609Y532266D01*
X526000Y530796D01*
Y529204D01*
X526609Y527734D01*
X527270Y527073D01*
X527593Y526250D01*
X527270Y525427D01*
X526609Y524766D01*
X526000Y523296D01*
Y521704D01*
X526609Y520234D01*
X527734Y519109D01*
X529204Y518500D01*
X530796D01*
X532266Y519109D01*
X532927Y519770D01*
X533750Y520093D01*
X534573Y519770D01*
X535234Y519109D01*
X536704Y518500D01*
X538296D01*
X539766Y519109D01*
X540427Y519770D01*
X541250Y520093D01*
X542073Y519770D01*
X542734Y519109D01*
X544204Y518500D01*
X545796D01*
X547266Y519109D01*
X548391Y520234D01*
X549000Y521704D01*
Y523296D01*
X548391Y524766D01*
X547266Y525891D01*
X545796Y526500D01*
X544204D01*
X542734Y525891D01*
X542073Y525230D01*
X541250Y524907D01*
X540519Y525194D01*
X539964Y526395D01*
X540230Y527073D01*
X540891Y527734D01*
X541500Y529204D01*
Y530796D01*
X540891Y532266D01*
X540230Y532927D01*
X539907Y533750D01*
X540230Y534573D01*
X540891Y535234D01*
X541500Y536704D01*
Y538296D01*
X540891Y539766D01*
X540230Y540427D01*
X539907Y541250D01*
X540230Y542073D01*
X540891Y542734D01*
X541500Y544204D01*
Y545796D01*
X540891Y547266D01*
X540230Y547927D01*
X539907Y548750D01*
X540230Y549573D01*
X540427Y549770D01*
X541250Y550093D01*
X542073Y549770D01*
X542734Y549109D01*
X544204Y548500D01*
X545796D01*
X547266Y549109D01*
X548391Y550234D01*
X549000Y551704D01*
Y553296D01*
X548391Y554766D01*
X547730Y555427D01*
X547407Y556250D01*
X547730Y557073D01*
X548391Y557734D01*
X549000Y559204D01*
Y560796D01*
X548391Y562266D01*
X547266Y563391D01*
X545796Y564000D01*
D02*
G37*
G36*
X355761Y509568D02*
X354170D01*
X352699Y508959D01*
X351574Y507834D01*
X350965Y506363D01*
Y504772D01*
X351574Y503302D01*
X352699Y502177D01*
X354170Y501568D01*
X355761D01*
X357231Y502177D01*
X358356Y503302D01*
X358965Y504772D01*
Y506363D01*
X358356Y507834D01*
X357231Y508959D01*
X355761Y509568D01*
D02*
G37*
G36*
X404796Y483000D02*
X403204D01*
X401734Y482391D01*
X400609Y481266D01*
X400000Y479796D01*
Y478204D01*
X400609Y476734D01*
X401734Y475609D01*
X403204Y475000D01*
X404796D01*
X406266Y475609D01*
X407391Y476734D01*
X408000Y478204D01*
Y479796D01*
X407391Y481266D01*
X406266Y482391D01*
X404796Y483000D01*
D02*
G37*
G36*
X380365Y482430D02*
X378774D01*
X377304Y481821D01*
X376179Y480696D01*
X375570Y479226D01*
Y477635D01*
X376179Y476165D01*
X377304Y475039D01*
X378774Y474430D01*
X380365D01*
X381835Y475039D01*
X382961Y476165D01*
X383570Y477635D01*
Y479226D01*
X382961Y480696D01*
X381835Y481821D01*
X380365Y482430D01*
D02*
G37*
G36*
X405346Y472000D02*
X403754D01*
X402284Y471391D01*
X401159Y470266D01*
X400550Y468796D01*
Y467204D01*
X401159Y465734D01*
X402284Y464609D01*
X403754Y464000D01*
X405346D01*
X406816Y464609D01*
X407941Y465734D01*
X408550Y467204D01*
Y468796D01*
X407941Y470266D01*
X406816Y471391D01*
X405346Y472000D01*
D02*
G37*
G36*
X291796Y447250D02*
X290204D01*
X288734Y446641D01*
X287609Y445516D01*
X287000Y444046D01*
Y442454D01*
X287609Y440984D01*
X288734Y439859D01*
X290204Y439250D01*
X291796D01*
X293266Y439859D01*
X294391Y440984D01*
X295000Y442454D01*
Y444046D01*
X294391Y445516D01*
X293266Y446641D01*
X291796Y447250D01*
D02*
G37*
G36*
X206796Y428000D02*
X205204D01*
X203734Y427391D01*
X202609Y426266D01*
X202000Y424796D01*
Y423204D01*
X202609Y421734D01*
X203734Y420609D01*
X205204Y420000D01*
X206796D01*
X208266Y420609D01*
X209391Y421734D01*
X210000Y423204D01*
Y424796D01*
X209391Y426266D01*
X208266Y427391D01*
X206796Y428000D01*
D02*
G37*
G36*
X291796Y413000D02*
X290204D01*
X288734Y412391D01*
X287609Y411266D01*
X287000Y409796D01*
Y408204D01*
X287609Y406734D01*
X288734Y405609D01*
X290204Y405000D01*
X291796D01*
X293266Y405609D01*
X294391Y406734D01*
X295000Y408204D01*
Y409796D01*
X294391Y411266D01*
X293266Y412391D01*
X291796Y413000D01*
D02*
G37*
G36*
X375187Y412750D02*
X373596D01*
X372126Y412141D01*
X371001Y411016D01*
X370392Y409546D01*
Y407954D01*
X371001Y406484D01*
X372126Y405359D01*
X373596Y404750D01*
X375187D01*
X376658Y405359D01*
X377783Y406484D01*
X378392Y407954D01*
Y409546D01*
X377783Y411016D01*
X376658Y412141D01*
X375187Y412750D01*
D02*
G37*
G36*
X384437Y410642D02*
X382846D01*
X381376Y410033D01*
X380251Y408908D01*
X379642Y407437D01*
Y405846D01*
X380251Y404376D01*
X381376Y403251D01*
X382846Y402642D01*
X384437D01*
X385908Y403251D01*
X387033Y404376D01*
X387642Y405846D01*
Y407437D01*
X387033Y408908D01*
X385908Y410033D01*
X384437Y410642D01*
D02*
G37*
G36*
X250796Y410000D02*
X249204D01*
X247734Y409391D01*
X246609Y408266D01*
X246000Y406796D01*
Y405204D01*
X246609Y403734D01*
X247734Y402609D01*
X249204Y402000D01*
X250796D01*
X252266Y402609D01*
X253391Y403734D01*
X254000Y405204D01*
Y406796D01*
X253391Y408266D01*
X252266Y409391D01*
X250796Y410000D01*
D02*
G37*
G36*
X747796Y406000D02*
X746204D01*
X744734Y405391D01*
X743609Y404266D01*
X743000Y402796D01*
Y401204D01*
X743609Y399734D01*
X744734Y398609D01*
X746204Y398000D01*
X747796D01*
X749266Y398609D01*
X750391Y399734D01*
X751000Y401204D01*
Y402796D01*
X750391Y404266D01*
X749266Y405391D01*
X747796Y406000D01*
D02*
G37*
G36*
X352987Y405250D02*
X351013D01*
X349105Y404739D01*
X347395Y403751D01*
X345998Y402355D01*
X345011Y400645D01*
X344500Y398737D01*
Y396763D01*
X345011Y394855D01*
X345998Y393145D01*
X347395Y391749D01*
X349105Y390761D01*
X351013Y390250D01*
X352987D01*
X354895Y390761D01*
X356605Y391749D01*
X358002Y393145D01*
X358989Y394855D01*
X359500Y396763D01*
Y398737D01*
X358989Y400645D01*
X358002Y402355D01*
X356605Y403751D01*
X354895Y404739D01*
X352987Y405250D01*
D02*
G37*
G36*
X553316Y407750D02*
X550684D01*
X548140Y407068D01*
X545860Y405752D01*
X543998Y403890D01*
X542682Y401610D01*
X542000Y399067D01*
Y396433D01*
X542682Y393890D01*
X543998Y391610D01*
X545860Y389748D01*
X548140Y388432D01*
X550684Y387750D01*
X553316D01*
X555860Y388432D01*
X558140Y389748D01*
X560002Y391610D01*
X561319Y393890D01*
X562000Y396433D01*
Y399067D01*
X561319Y401610D01*
X560002Y403890D01*
X558140Y405752D01*
X555860Y407068D01*
X553316Y407750D01*
D02*
G37*
G36*
X399804Y395535D02*
X398213D01*
X396743Y394926D01*
X395617Y393801D01*
X395009Y392331D01*
Y390739D01*
X395617Y389269D01*
X396743Y388144D01*
X398213Y387535D01*
X399804D01*
X401274Y388144D01*
X402399Y389269D01*
X403008Y390739D01*
Y392331D01*
X402399Y393801D01*
X401274Y394926D01*
X399804Y395535D01*
D02*
G37*
G36*
X792796Y378000D02*
X791204D01*
X789734Y377391D01*
X788609Y376266D01*
X788000Y374796D01*
Y373204D01*
X788609Y371734D01*
X789734Y370609D01*
X791204Y370000D01*
X792796D01*
X794266Y370609D01*
X795391Y371734D01*
X796000Y373204D01*
Y374796D01*
X795391Y376266D01*
X794266Y377391D01*
X792796Y378000D01*
D02*
G37*
G36*
X661796Y369500D02*
X660204D01*
X658734Y368891D01*
X657609Y367766D01*
X657000Y366296D01*
Y364704D01*
X657609Y363234D01*
X658734Y362109D01*
X660204Y361500D01*
X661796D01*
X663266Y362109D01*
X664391Y363234D01*
X665000Y364704D01*
Y366296D01*
X664391Y367766D01*
X663266Y368891D01*
X661796Y369500D01*
D02*
G37*
G36*
X788796Y367000D02*
X787204D01*
X785734Y366391D01*
X784609Y365266D01*
X784000Y363796D01*
Y362204D01*
X784609Y360734D01*
X785734Y359609D01*
X787204Y359000D01*
X788796D01*
X790266Y359609D01*
X791391Y360734D01*
X792000Y362204D01*
Y363796D01*
X791391Y365266D01*
X790266Y366391D01*
X788796Y367000D01*
D02*
G37*
G36*
X359296Y366000D02*
X357704D01*
X356234Y365391D01*
X355109Y364266D01*
X354500Y362796D01*
Y361204D01*
X355109Y359734D01*
X356234Y358609D01*
X357704Y358000D01*
X359296D01*
X360766Y358609D01*
X361891Y359734D01*
X362500Y361204D01*
Y362796D01*
X361891Y364266D01*
X360766Y365391D01*
X359296Y366000D01*
D02*
G37*
G36*
X477846Y359862D02*
X476254D01*
X474784Y359253D01*
X473659Y358128D01*
X473050Y356658D01*
Y355066D01*
X473659Y353596D01*
X474784Y352471D01*
X476254Y351862D01*
X477846D01*
X479316Y352471D01*
X480441Y353596D01*
X481050Y355066D01*
Y356658D01*
X480441Y358128D01*
X479316Y359253D01*
X477846Y359862D01*
D02*
G37*
G36*
X493829Y359037D02*
X492237D01*
X490767Y358428D01*
X489642Y357302D01*
X489033Y355832D01*
Y354241D01*
X489642Y352771D01*
X490767Y351646D01*
X492237Y351037D01*
X493829D01*
X495299Y351646D01*
X496424Y352771D01*
X497033Y354241D01*
Y355832D01*
X496424Y357302D01*
X495299Y358428D01*
X493829Y359037D01*
D02*
G37*
G36*
X542296Y359000D02*
X540704D01*
X539234Y358391D01*
X538109Y357266D01*
X537500Y355796D01*
Y354204D01*
X538109Y352734D01*
X539234Y351609D01*
X540704Y351000D01*
X542296D01*
X543766Y351609D01*
X544891Y352734D01*
X545500Y354204D01*
Y355796D01*
X544891Y357266D01*
X543766Y358391D01*
X542296Y359000D01*
D02*
G37*
G36*
X421796Y357000D02*
X420204D01*
X418734Y356391D01*
X417609Y355266D01*
X417000Y353796D01*
Y352204D01*
X417609Y350734D01*
X418734Y349609D01*
X420204Y349000D01*
X421796D01*
X423266Y349609D01*
X424391Y350734D01*
X425000Y352204D01*
Y353796D01*
X424391Y355266D01*
X423266Y356391D01*
X421796Y357000D01*
D02*
G37*
G36*
X417144Y347706D02*
X415553D01*
X414083Y347097D01*
X412957Y345972D01*
X412349Y344502D01*
Y342910D01*
X412957Y341440D01*
X414083Y340315D01*
X415553Y339706D01*
X417144D01*
X418614Y340315D01*
X419739Y341440D01*
X420349Y342910D01*
Y344502D01*
X419739Y345972D01*
X418614Y347097D01*
X417144Y347706D01*
D02*
G37*
G36*
X542296Y338000D02*
X540704D01*
X539234Y337391D01*
X538109Y336266D01*
X537500Y334796D01*
Y333204D01*
X538109Y331734D01*
X539234Y330609D01*
X540704Y330000D01*
X542296D01*
X543766Y330609D01*
X544891Y331734D01*
X545500Y333204D01*
Y334796D01*
X544891Y336266D01*
X543766Y337391D01*
X542296Y338000D01*
D02*
G37*
G36*
X404796Y335255D02*
X403204D01*
X401734Y334646D01*
X400609Y333521D01*
X400000Y332051D01*
Y330459D01*
X400609Y328989D01*
X401734Y327864D01*
X403204Y327255D01*
X404796D01*
X406266Y327864D01*
X407391Y328989D01*
X408000Y330459D01*
Y332051D01*
X407391Y333521D01*
X406266Y334646D01*
X404796Y335255D01*
D02*
G37*
G36*
X388796D02*
X387204D01*
X385734Y334646D01*
X384609Y333521D01*
X384000Y332051D01*
Y330459D01*
X384609Y328989D01*
X385734Y327864D01*
X387204Y327255D01*
X388796D01*
X390266Y327864D01*
X391391Y328989D01*
X392000Y330459D01*
Y332051D01*
X391391Y333521D01*
X390266Y334646D01*
X388796Y335255D01*
D02*
G37*
G36*
X372796D02*
X371204D01*
X369734Y334646D01*
X368609Y333521D01*
X368000Y332051D01*
Y330459D01*
X368609Y328989D01*
X369734Y327864D01*
X371204Y327255D01*
X372796D01*
X374266Y327864D01*
X375391Y328989D01*
X376000Y330459D01*
Y332051D01*
X375391Y333521D01*
X374266Y334646D01*
X372796Y335255D01*
D02*
G37*
G36*
X755796Y209000D02*
X754204D01*
X752734Y208391D01*
X751609Y207266D01*
X751000Y205796D01*
Y204204D01*
X751609Y202734D01*
X752734Y201609D01*
X754204Y201000D01*
X755796D01*
X757266Y201609D01*
X758391Y202734D01*
X759000Y204204D01*
Y205796D01*
X758391Y207266D01*
X757266Y208391D01*
X755796Y209000D01*
D02*
G37*
G36*
Y196500D02*
X754204D01*
X752734Y195891D01*
X751609Y194766D01*
X751000Y193296D01*
Y191704D01*
X751609Y190234D01*
X752734Y189109D01*
X754204Y188500D01*
X755796D01*
X757266Y189109D01*
X758391Y190234D01*
X759000Y191704D01*
Y193296D01*
X758391Y194766D01*
X757266Y195891D01*
X755796Y196500D01*
D02*
G37*
G36*
X414479Y227250D02*
X409521D01*
X404624Y226474D01*
X399908Y224942D01*
X395490Y222691D01*
X391479Y219777D01*
X387973Y216271D01*
X385059Y212260D01*
X382808Y207842D01*
X381276Y203126D01*
X380500Y198229D01*
Y193271D01*
X381276Y188374D01*
X382808Y183658D01*
X385059Y179240D01*
X387973Y175229D01*
X391479Y171723D01*
X395490Y168809D01*
X399908Y166558D01*
X404624Y165026D01*
X409521Y164250D01*
X414479D01*
X419376Y165026D01*
X424092Y166558D01*
X428509Y168809D01*
X432521Y171723D01*
X436027Y175229D01*
X438941Y179240D01*
X441192Y183658D01*
X442724Y188374D01*
X443500Y193271D01*
Y198229D01*
X442724Y203126D01*
X441192Y207842D01*
X438941Y212260D01*
X436027Y216271D01*
X432521Y219777D01*
X428509Y222691D01*
X424092Y224942D01*
X419376Y226474D01*
X414479Y227250D01*
D02*
G37*
G36*
X505796Y69250D02*
X504204D01*
X502734Y68641D01*
X501609Y67516D01*
X501000Y66046D01*
Y64454D01*
X501609Y62984D01*
X502734Y61859D01*
X504204Y61250D01*
X505796D01*
X507266Y61859D01*
X508391Y62984D01*
X509000Y64454D01*
Y66046D01*
X508391Y67516D01*
X507266Y68641D01*
X505796Y69250D01*
D02*
G37*
G36*
X453796D02*
X452204D01*
X450734Y68641D01*
X449609Y67516D01*
X449000Y66046D01*
Y64454D01*
X449609Y62984D01*
X450734Y61859D01*
X452204Y61250D01*
X453796D01*
X455266Y61859D01*
X456391Y62984D01*
X457000Y64454D01*
Y66046D01*
X456391Y67516D01*
X455266Y68641D01*
X453796Y69250D01*
D02*
G37*
G36*
X391796Y30750D02*
X390204D01*
X388734Y30141D01*
X387609Y29016D01*
X387000Y27546D01*
Y25954D01*
X387609Y24484D01*
X388734Y23359D01*
X390204Y22750D01*
X391796D01*
X393266Y23359D01*
X394391Y24484D01*
X395000Y25954D01*
Y27546D01*
X394391Y29016D01*
X393266Y30141D01*
X391796Y30750D01*
D02*
G37*
G36*
X299796Y30000D02*
X298204D01*
X296734Y29391D01*
X295609Y28266D01*
X295000Y26796D01*
Y25204D01*
X295609Y23734D01*
X296734Y22609D01*
X298204Y22000D01*
X299796D01*
X301266Y22609D01*
X302391Y23734D01*
X303000Y25204D01*
Y26796D01*
X302391Y28266D01*
X301266Y29391D01*
X299796Y30000D01*
D02*
G37*
G36*
X189796D02*
X188204D01*
X186734Y29391D01*
X185609Y28266D01*
X185000Y26796D01*
Y25204D01*
X185609Y23734D01*
X186734Y22609D01*
X188204Y22000D01*
X189796D01*
X191266Y22609D01*
X192391Y23734D01*
X193000Y25204D01*
Y26796D01*
X192391Y28266D01*
X191266Y29391D01*
X189796Y30000D01*
D02*
G37*
%LPD*%
D88*
X42800Y652400D02*
D03*
Y594600D02*
D03*
D97*
X6000Y580300D02*
D03*
Y666700D02*
D03*
D98*
X47800Y580300D02*
D03*
Y666700D02*
D03*
D99*
X0Y0D02*
D03*
X38100Y857250D02*
D03*
X800100Y0D02*
D03*
X774700Y857250D02*
D03*
X412000Y195750D02*
D03*
D100*
X342900Y831850D02*
D03*
Y857250D02*
D03*
Y781050D02*
D03*
Y806450D02*
D03*
X368300Y857250D02*
D03*
Y781050D02*
D03*
Y831850D02*
D03*
Y806450D02*
D03*
X190500Y857250D02*
D03*
X673100D02*
D03*
X165100D02*
D03*
X647700Y831850D02*
D03*
X673100D02*
D03*
X647700Y857250D02*
D03*
X165100Y806450D02*
D03*
Y781050D02*
D03*
X88900D02*
D03*
Y806450D02*
D03*
X114300Y781050D02*
D03*
X190500Y806450D02*
D03*
X241300Y781050D02*
D03*
X215900D02*
D03*
Y806450D02*
D03*
X241300D02*
D03*
X266700Y781050D02*
D03*
X317500D02*
D03*
X292100D02*
D03*
X266700Y806450D02*
D03*
X292100D02*
D03*
X190500Y781050D02*
D03*
X139700Y806450D02*
D03*
Y781050D02*
D03*
X114300Y806450D02*
D03*
X393700D02*
D03*
Y781050D02*
D03*
X317500Y806450D02*
D03*
X419100Y781050D02*
D03*
Y806450D02*
D03*
X444500Y781050D02*
D03*
X596900Y806450D02*
D03*
Y781050D02*
D03*
X546100D02*
D03*
Y806450D02*
D03*
X571500Y781050D02*
D03*
X622300D02*
D03*
Y806450D02*
D03*
X520700Y781050D02*
D03*
X571500Y806450D02*
D03*
X495300D02*
D03*
X647700Y781050D02*
D03*
X520700Y806450D02*
D03*
X673100D02*
D03*
X698500Y781050D02*
D03*
Y806450D02*
D03*
X723900Y781050D02*
D03*
X647700Y806450D02*
D03*
X673100Y781050D02*
D03*
X495300D02*
D03*
X469900Y806450D02*
D03*
Y781050D02*
D03*
X444500Y806450D02*
D03*
X88900Y831850D02*
D03*
Y857250D02*
D03*
X114300Y831850D02*
D03*
X241300D02*
D03*
X215900D02*
D03*
Y857250D02*
D03*
X241300D02*
D03*
X266700Y831850D02*
D03*
X317500D02*
D03*
X292100D02*
D03*
X266700Y857250D02*
D03*
X292100D02*
D03*
X190500Y831850D02*
D03*
X139700Y857250D02*
D03*
X165100Y831850D02*
D03*
X139700D02*
D03*
X114300Y857250D02*
D03*
X393700D02*
D03*
Y831850D02*
D03*
X317500Y857250D02*
D03*
X419100Y831850D02*
D03*
Y857250D02*
D03*
X444500Y831850D02*
D03*
X596900Y857250D02*
D03*
Y831850D02*
D03*
X546100D02*
D03*
Y857250D02*
D03*
X571500Y831850D02*
D03*
X622300D02*
D03*
Y857250D02*
D03*
X520700Y831850D02*
D03*
X571500Y857250D02*
D03*
X495300D02*
D03*
X520700D02*
D03*
X698500Y831850D02*
D03*
Y857250D02*
D03*
X723900Y831850D02*
D03*
X495300D02*
D03*
X469900Y857250D02*
D03*
Y831850D02*
D03*
X444500Y857250D02*
D03*
D101*
X352000Y397750D02*
D03*
D102*
X552000D02*
D03*
D103*
X723900Y806450D02*
D03*
Y857250D02*
D03*
D104*
X747000Y402000D02*
D03*
X755000Y192500D02*
D03*
Y205000D02*
D03*
X755500Y242000D02*
D03*
X477050Y355862D02*
D03*
X493033Y355037D02*
D03*
X796000Y352000D02*
D03*
X788000Y363000D02*
D03*
X672000Y344000D02*
D03*
X673000Y424000D02*
D03*
X807000Y299000D02*
D03*
Y455000D02*
D03*
X0Y-23000D02*
D03*
X-16260Y-16264D02*
D03*
X16260D02*
D03*
X-23000Y0D02*
D03*
X-16260Y16264D02*
D03*
X16260D02*
D03*
X0Y23000D02*
D03*
X23000Y0D02*
D03*
X38100Y834250D02*
D03*
X15100Y857250D02*
D03*
X21840Y873513D02*
D03*
Y840986D02*
D03*
X38100Y880250D02*
D03*
X54360Y840986D02*
D03*
Y873513D02*
D03*
X61100Y857250D02*
D03*
X777100Y0D02*
D03*
X783840Y16264D02*
D03*
Y-16264D02*
D03*
X800100Y23000D02*
D03*
Y-23000D02*
D03*
X816360Y16264D02*
D03*
Y-16264D02*
D03*
X823100Y0D02*
D03*
X774700Y834250D02*
D03*
X758440Y840986D02*
D03*
X790960D02*
D03*
X751700Y857250D02*
D03*
X758440Y873513D02*
D03*
X797700Y857250D02*
D03*
X774700Y880250D02*
D03*
X790960Y873513D02*
D03*
X164000Y15000D02*
D03*
X207000Y30000D02*
D03*
X216000Y396000D02*
D03*
X232000Y407000D02*
D03*
X274000Y15000D02*
D03*
X370997Y26750D02*
D03*
X317000Y30000D02*
D03*
X196250Y441000D02*
D03*
X241000Y443000D02*
D03*
X361500Y437500D02*
D03*
X110000Y580000D02*
D03*
X309000Y554500D02*
D03*
X124000Y636000D02*
D03*
X337000Y506000D02*
D03*
X371172Y555139D02*
D03*
X374520Y464068D02*
D03*
X347673Y595952D02*
D03*
X346372Y679000D02*
D03*
X420000Y630000D02*
D03*
Y600000D02*
D03*
Y615000D02*
D03*
X347000Y724500D02*
D03*
X446886Y361077D02*
D03*
X518500Y334000D02*
D03*
X530500Y355000D02*
D03*
X439500Y465500D02*
D03*
X454426Y465861D02*
D03*
X460000Y525000D02*
D03*
X469550Y466000D02*
D03*
X505000Y525000D02*
D03*
X544526Y462752D02*
D03*
X475000Y525000D02*
D03*
Y540000D02*
D03*
X490000Y525000D02*
D03*
Y540000D02*
D03*
X678745Y531000D02*
D03*
X599000Y537000D02*
D03*
X460000Y540000D02*
D03*
X505000Y555000D02*
D03*
X490000D02*
D03*
X450000Y640000D02*
D03*
X475000Y555000D02*
D03*
X465000Y640000D02*
D03*
X525000Y625000D02*
D03*
X540000Y640000D02*
D03*
X623000Y618000D02*
D03*
X540000Y625000D02*
D03*
X495000Y640000D02*
D03*
X480000D02*
D03*
X525000D02*
D03*
X510000D02*
D03*
X435000D02*
D03*
X525000Y655000D02*
D03*
X528132Y686132D02*
D03*
X540000Y655000D02*
D03*
X608000Y711000D02*
D03*
X616000Y703000D02*
D03*
Y711000D02*
D03*
X663000Y620000D02*
D03*
X651000D02*
D03*
Y632000D02*
D03*
X663000D02*
D03*
Y644000D02*
D03*
X685000Y549000D02*
D03*
X675000Y632000D02*
D03*
Y644000D02*
D03*
X680495Y578000D02*
D03*
X687000Y644000D02*
D03*
Y656000D02*
D03*
Y668000D02*
D03*
X624000Y711000D02*
D03*
X687000Y680000D02*
D03*
Y692000D02*
D03*
X78000Y592000D02*
D03*
Y585000D02*
D03*
X79000Y662000D02*
D03*
Y655000D02*
D03*
X64000Y141000D02*
D03*
X116000D02*
D03*
X90000Y123000D02*
D03*
X792000Y374000D02*
D03*
X372000Y331255D02*
D03*
X388000D02*
D03*
X541500Y334000D02*
D03*
X541500Y355000D02*
D03*
X354965Y505568D02*
D03*
X404000Y331255D02*
D03*
X358500Y362000D02*
D03*
X206000Y424000D02*
D03*
X661000Y365500D02*
D03*
X189000Y26000D02*
D03*
X299000D02*
D03*
X391000Y26750D02*
D03*
X453000Y65250D02*
D03*
X505000D02*
D03*
X545000Y560000D02*
D03*
Y552500D02*
D03*
X537500D02*
D03*
Y560000D02*
D03*
Y545000D02*
D03*
Y537500D02*
D03*
Y530000D02*
D03*
Y522500D02*
D03*
X530000D02*
D03*
Y530000D02*
D03*
X545000Y522500D02*
D03*
X521000Y668000D02*
D03*
X430000Y567500D02*
D03*
Y560000D02*
D03*
Y552500D02*
D03*
Y545000D02*
D03*
Y537500D02*
D03*
X422500D02*
D03*
X415000Y545000D02*
D03*
X422500D02*
D03*
X415000Y552500D02*
D03*
X422500D02*
D03*
X415000Y560000D02*
D03*
X422500D02*
D03*
Y567500D02*
D03*
X415000D02*
D03*
X81250Y599500D02*
D03*
X88500D02*
D03*
X95750D02*
D03*
X88500Y592250D02*
D03*
X95750D02*
D03*
X88500Y585000D02*
D03*
X95750D02*
D03*
Y662000D02*
D03*
X88500D02*
D03*
X95750Y654750D02*
D03*
X88500D02*
D03*
X95750Y647500D02*
D03*
X88500D02*
D03*
X81250D02*
D03*
X379570Y478430D02*
D03*
X291000Y443250D02*
D03*
X421000Y353000D02*
D03*
X416348Y343706D02*
D03*
X404550Y468000D02*
D03*
X404000Y479000D02*
D03*
X383642Y406642D02*
D03*
X291000Y409000D02*
D03*
X374392Y408750D02*
D03*
X399008Y391535D02*
D03*
X250000Y406000D02*
D03*
M02*
