M48
;Layer_Color=9474304
;FILE_FORMAT=4:4
METRIC,LZ
;TYPE=PLATED
T01F00S00C0.3000
T03F00S00C0.8900
T04F00S00C3.2000
T05F00S00C3.5000
;TYPE=NON_PLATED
T06F00S00C0.6500
T07F00S00C1.1000
T08F00S00C1.6000
%
T01
X-0001626Y-00016264
X0Y-00023
X0001626Y-00016264
Y00016264
X-0001626
X-00023Y0
X00023
X00164Y00015
X00274
X0078384Y00016264
X007771Y0
X0078384Y-00016264
X008001Y-00023
X0081636Y-00016264
X008231Y0
X0081636Y00016264
X008001Y00023
X00755Y001925
Y00205
X007555Y00242
X00807Y00299
X00796Y00352
X00788Y00363
X00792Y00374
X00747Y00402
X00661Y003655
X00672Y00344
X005415Y00334
X005415Y00355
X005305
X005185Y00334
X00493033Y00355037
X0047705Y00355862
X00446886Y00361077
X00421Y00353
X00453Y0006525
X00505
X00391Y0002675
X00370997
X00317Y0003
X00299Y00026
X00207Y0003
X00189Y00026
X00116Y00141
X0009Y00123
X00064Y00141
X00216Y00396
X00232Y00407
X0025Y00406
X00291Y00409
X00374392Y0040875
X00383642Y00406642
X00399008Y00391535
X00416348Y00343706
X00404Y00331255
X00388
X00372
X003585Y00362
X0Y00023
X00206Y00424
X0019625Y00441
X00241Y00443
X00291Y0044325
X003615Y004375
X0037452Y00464068
X0037957Y0047843
X00404Y00479
X0040455Y00468
X00354965Y00505568
X00337Y00506
X00309Y005545
X00371172Y00555139
X00415Y005525
Y00545
Y0056
Y005675
X00347673Y00595952
X00346372Y00679
X00347Y007245
X00124Y00636
X0009575Y006475
Y0065475
Y00662
X000885
Y0065475
Y006475
X0008125
X00079Y00655
Y00662
X0008125Y005995
X000885
X0009575
Y0059225
X000885
Y00585
X0009575
X00078Y00585
Y00592
X0011Y0058
X004225Y005675
X0043
Y0056
Y005525
Y00545
Y005375
X004225
Y00545
Y005525
Y0056
X0042Y006
Y00615
Y0063
X00435Y0064
X0045
X00465
X0048
X00495
X0051
X00525
Y00625
X0054
Y0064
Y00655
X00525
X00521Y00668
X00528132Y00686132
X00608Y00711
X00616
Y00703
X00624Y00711
X00687Y00692
Y0068
Y00668
Y00656
Y00644
X00675
X00663
Y00632
Y0062
X00651
Y00632
X00675
X00680495Y00578
X00685Y00549
X00678745Y00531
X00599Y00537
X005375Y005375
Y00545
Y005525
X00545
Y0056
X005375
Y0053
Y005225
X0053
Y0053
X00545Y005225
X00505Y00525
X0049
X00475
X0046
Y0054
X00475
X0049
Y00555
X00505
X00475
X0046955Y00466
X00454426Y00465861
X004395Y004655
X00544526Y00462752
X00673Y00424
X00807Y00455
X00623Y00618
X0075844Y00840986
X007747Y0083425
X0079096Y00840986
X007977Y0085725
X0079096Y00873513
X007747Y0088025
X0075844Y00873513
X007517Y0085725
X000611
X0005436Y00840986
X000381Y0083425
Y0088025
X0005436Y00873513
X0002184
X000151Y0085725
X0002184Y00840986
T03
X000889Y0078105
Y0080645
X001143
Y0078105
X001397
X001651
Y0080645
X001905
X002159
Y0078105
X002413
Y0080645
X002667
Y0078105
X002921
X003175
X003429
Y0080645
X003683
Y0078105
X003937
Y0080645
X003175
X002921
X001905Y0078105
X001397Y0080645
X004191
Y0078105
X004445
X004699
X004953
X005207
X005461
Y0080645
X005715
X005969
Y0078105
X005715
X006223
Y0080645
X006477
Y0078105
X006731
Y0080645
X006985
X007239
Y0078105
X006985
X005207Y0080645
X004953
X004699
X004445
Y0083185
X004191
Y0085725
X004445
X004699
X004953
X005207
X005461
Y0083185
X005715
X005969
Y0085725
X006223
X006477
X006731
Y0083185
X006477
X006223
X005715Y0085725
X005207Y0083185
X004953
X004699
X006985
Y0085725
X007239
Y0083185
X003937
X003683
X003429
Y0085725
X003683
X003937
X003175
Y0083185
X002921
X002667
X002413
X002159
Y0085725
X001905
X001651
X001397
Y0083185
X001143
X000889
Y0085725
X001143
X001651Y0083185
X001905
X002413Y0085725
X002667
X002921
T04
X0Y0
X008001
X007747Y0085725
X000381
T05
X00412Y0019575
T06
X000428Y005946
Y006524
T07
X00352Y0039775
T08
X00552Y0039775
M30
