G04*
G04 #@! TF.GenerationSoftware,Altium Limited,Altium Designer,26.2.0 (7)*
G04*
G04 Layer_Color=8388736*
%FSLAX44Y44*%
%MOMM*%
G71*
G04*
G04 #@! TF.SameCoordinates,96A30EBC-B4F8-4BF8-BD66-0BA623D5F1AF*
G04*
G04*
G04 #@! TF.FilePolarity,Negative*
G04*
G01*
G75*
%ADD47R,2.4000X1.3500*%
%ADD48R,1.7000X0.9000*%
%ADD49R,3.1000X2.2000*%
%ADD50R,1.2500X0.4000*%
%ADD51R,1.2500X0.7000*%
%ADD52R,2.1500X0.8500*%
%ADD53R,1.5500X2.8500*%
%ADD54R,2.7500X1.1500*%
%ADD55R,1.3500X1.3500*%
%ADD56R,2.7500X1.6500*%
G04:AMPARAMS|DCode=57|XSize=0.4mm|YSize=1.65mm|CornerRadius=0.0725mm|HoleSize=0mm|Usage=FLASHONLY|Rotation=0.000|XOffset=0mm|YOffset=0mm|HoleType=Round|Shape=RoundedRectangle|*
%AMROUNDEDRECTD57*
21,1,0.4000,1.5050,0,0,0.0*
21,1,0.2550,1.6500,0,0,0.0*
1,1,0.1450,0.1275,-0.7525*
1,1,0.1450,-0.1275,-0.7525*
1,1,0.1450,-0.1275,0.7525*
1,1,0.1450,0.1275,0.7525*
%
%ADD57ROUNDEDRECTD57*%
%ADD58R,1.8500X0.9500*%
%ADD59R,1.2500X1.0500*%
%ADD60R,1.4500X1.0500*%
%ADD61R,0.9000X0.6500*%
%ADD62R,1.0500X1.2500*%
%ADD63R,0.9000X0.6000*%
%ADD64R,1.0750X1.0000*%
%ADD65R,1.0000X1.0750*%
%ADD66R,0.8500X1.2500*%
%ADD67R,0.6500X0.9000*%
%ADD68R,0.7200X1.1000*%
%ADD69R,1.2500X1.7000*%
%ADD70R,1.0500X1.4500*%
%ADD71R,2.3000X1.1000*%
%ADD72R,1.7000X1.2500*%
%ADD73R,1.6700X0.5100*%
G04:AMPARAMS|DCode=74|XSize=0.69mm|YSize=0.34mm|CornerRadius=0.0575mm|HoleSize=0mm|Usage=FLASHONLY|Rotation=0.000|XOffset=0mm|YOffset=0mm|HoleType=Round|Shape=RoundedRectangle|*
%AMROUNDEDRECTD74*
21,1,0.6900,0.2250,0,0,0.0*
21,1,0.5750,0.3400,0,0,0.0*
1,1,0.1150,0.2875,-0.1125*
1,1,0.1150,-0.2875,-0.1125*
1,1,0.1150,-0.2875,0.1125*
1,1,0.1150,0.2875,0.1125*
%
%ADD74ROUNDEDRECTD74*%
%ADD75R,4.1500X3.6500*%
G04:AMPARAMS|DCode=76|XSize=1.3mm|YSize=2.85mm|CornerRadius=0.14mm|HoleSize=0mm|Usage=FLASHONLY|Rotation=0.000|XOffset=0mm|YOffset=0mm|HoleType=Round|Shape=RoundedRectangle|*
%AMROUNDEDRECTD76*
21,1,1.3000,2.5700,0,0,0.0*
21,1,1.0200,2.8500,0,0,0.0*
1,1,0.2800,0.5100,-1.2850*
1,1,0.2800,-0.5100,-1.2850*
1,1,0.2800,-0.5100,1.2850*
1,1,0.2800,0.5100,1.2850*
%
%ADD76ROUNDEDRECTD76*%
G04:AMPARAMS|DCode=77|XSize=0.39mm|YSize=2.49mm|CornerRadius=0.06mm|HoleSize=0mm|Usage=FLASHONLY|Rotation=180.000|XOffset=0mm|YOffset=0mm|HoleType=Round|Shape=RoundedRectangle|*
%AMROUNDEDRECTD77*
21,1,0.3900,2.3700,0,0,180.0*
21,1,0.2700,2.4900,0,0,180.0*
1,1,0.1200,-0.1350,1.1850*
1,1,0.1200,0.1350,1.1850*
1,1,0.1200,0.1350,-1.1850*
1,1,0.1200,-0.1350,-1.1850*
%
%ADD77ROUNDEDRECTD77*%
%ADD78R,1.0500X1.5000*%
%ADD79R,2.3000X3.4000*%
%ADD80C,0.7500*%
G04:AMPARAMS|DCode=81|XSize=1.9mm|YSize=1.1mm|CornerRadius=0.3mm|HoleSize=0mm|Usage=FLASHONLY|Rotation=0.000|XOffset=0mm|YOffset=0mm|HoleType=Round|Shape=RoundedRectangle|*
%AMROUNDEDRECTD81*
21,1,1.9000,0.5000,0,0,0.0*
21,1,1.3000,1.1000,0,0,0.0*
1,1,0.6000,0.6500,-0.2500*
1,1,0.6000,-0.6500,-0.2500*
1,1,0.6000,-0.6500,0.2500*
1,1,0.6000,0.6500,0.2500*
%
%ADD81ROUNDEDRECTD81*%
%ADD82O,2.2000X1.1000*%
%ADD83C,6.1500*%
%ADD84C,1.4980*%
%ADD85C,1.2000*%
%ADD86C,1.7000*%
%ADD87R,1.4980X1.4980*%
%ADD88C,0.6500*%
G36*
X604588Y689076D02*
X604673Y689050D01*
X604751Y689008D01*
X604820Y688952D01*
X604876Y688883D01*
X604918Y688805D01*
X604944Y688720D01*
X604952Y688632D01*
X604952Y685584D01*
X608000D01*
X608088Y685576D01*
X608173Y685550D01*
X608251Y685508D01*
X608320Y685452D01*
X608376Y685383D01*
X608418Y685305D01*
X608443Y685220D01*
X608452Y685132D01*
Y682132D01*
X608443Y682044D01*
X608418Y681959D01*
X608376Y681881D01*
X608320Y681812D01*
X608251Y681756D01*
X608173Y681714D01*
X608088Y681689D01*
X608000Y681680D01*
X602000D01*
X601912Y681689D01*
X601827Y681714D01*
X601749Y681756D01*
X601680Y681812D01*
X601624Y681881D01*
X601582Y681959D01*
X601557Y682044D01*
X601548Y682132D01*
Y688632D01*
X601557Y688720D01*
X601582Y688805D01*
X601624Y688883D01*
X601680Y688952D01*
X601749Y689008D01*
X601827Y689050D01*
X601912Y689076D01*
X602000Y689084D01*
X604500D01*
X604588Y689076D01*
D02*
G37*
G36*
X590088D02*
X590173Y689050D01*
X590251Y689008D01*
X590320Y688952D01*
X590376Y688883D01*
X590418Y688805D01*
X590443Y688720D01*
X590452Y688632D01*
Y682132D01*
X590443Y682044D01*
X590418Y681959D01*
X590376Y681881D01*
X590320Y681812D01*
X590251Y681756D01*
X590173Y681714D01*
X590088Y681689D01*
X590000Y681680D01*
X584000D01*
X583912Y681689D01*
X583827Y681714D01*
X583749Y681756D01*
X583680Y681812D01*
X583624Y681881D01*
X583582Y681959D01*
X583557Y682044D01*
X583548Y682132D01*
Y685132D01*
X583557Y685220D01*
X583582Y685305D01*
X583624Y685383D01*
X583680Y685452D01*
X583749Y685508D01*
X583827Y685550D01*
X583912Y685576D01*
X584000Y685584D01*
X587048D01*
X587048Y688632D01*
X587057Y688720D01*
X587082Y688805D01*
X587124Y688883D01*
X587180Y688952D01*
X587249Y689008D01*
X587327Y689050D01*
X587412Y689076D01*
X587500Y689084D01*
X590000D01*
X590088Y689076D01*
D02*
G37*
G36*
X608088Y671576D02*
X608173Y671550D01*
X608251Y671508D01*
X608320Y671452D01*
X608376Y671383D01*
X608418Y671305D01*
X608443Y671220D01*
X608452Y671132D01*
Y668132D01*
X608443Y668044D01*
X608418Y667959D01*
X608376Y667881D01*
X608320Y667812D01*
X608251Y667756D01*
X608173Y667714D01*
X608088Y667689D01*
X608000Y667680D01*
X604952D01*
X604952Y664632D01*
X604944Y664544D01*
X604918Y664459D01*
X604876Y664381D01*
X604820Y664312D01*
X604751Y664256D01*
X604673Y664214D01*
X604588Y664189D01*
X604500Y664180D01*
X602000D01*
X601912Y664189D01*
X601827Y664214D01*
X601749Y664256D01*
X601680Y664312D01*
X601624Y664381D01*
X601582Y664459D01*
X601557Y664544D01*
X601548Y664632D01*
Y671132D01*
X601557Y671220D01*
X601582Y671305D01*
X601624Y671383D01*
X601680Y671452D01*
X601749Y671508D01*
X601827Y671550D01*
X601912Y671576D01*
X602000Y671584D01*
X608000D01*
X608088Y671576D01*
D02*
G37*
G36*
X590088D02*
X590173Y671550D01*
X590251Y671508D01*
X590320Y671452D01*
X590376Y671383D01*
X590418Y671305D01*
X590443Y671220D01*
X590452Y671132D01*
Y664632D01*
X590443Y664544D01*
X590418Y664459D01*
X590376Y664381D01*
X590320Y664312D01*
X590251Y664256D01*
X590173Y664214D01*
X590088Y664189D01*
X590000Y664180D01*
X587500D01*
X587412Y664189D01*
X587327Y664214D01*
X587249Y664256D01*
X587180Y664312D01*
X587124Y664381D01*
X587082Y664459D01*
X587057Y664544D01*
X587048Y664632D01*
X587048Y667680D01*
X584000D01*
X583912Y667689D01*
X583827Y667714D01*
X583749Y667756D01*
X583680Y667812D01*
X583624Y667881D01*
X583582Y667959D01*
X583557Y668044D01*
X583548Y668132D01*
Y671132D01*
X583557Y671220D01*
X583582Y671305D01*
X583624Y671383D01*
X583680Y671452D01*
X583749Y671508D01*
X583827Y671550D01*
X583912Y671576D01*
X584000Y671584D01*
X590000D01*
X590088Y671576D01*
D02*
G37*
G36*
X794000Y908000D02*
X795083D01*
X797209Y907577D01*
X799211Y906748D01*
X801012Y905544D01*
X802544Y904012D01*
X803748Y902210D01*
X804577Y900209D01*
X805000Y898083D01*
X805000Y897000D01*
X805000D01*
Y691000D01*
X805063Y689726D01*
X805560Y687226D01*
X806535Y684872D01*
X807951Y682753D01*
X809753Y680951D01*
X811872Y679535D01*
X814226Y678560D01*
X816726Y678063D01*
X818000Y678000D01*
X840182D01*
X842500Y677539D01*
X844684Y676634D01*
X846649Y675321D01*
X848321Y673650D01*
X849634Y671684D01*
X850539Y669500D01*
X851000Y667182D01*
Y666000D01*
Y-38000D01*
Y-39280D01*
X850500Y-41792D01*
X849520Y-44158D01*
X848098Y-46287D01*
X846287Y-48098D01*
X844158Y-49521D01*
X841792Y-50500D01*
X839280Y-51000D01*
X687568D01*
X685250Y-50539D01*
X683066Y-49634D01*
X681100Y-48321D01*
X679429Y-46650D01*
X678116Y-44684D01*
X677211Y-42500D01*
X676750Y-40182D01*
Y-34000D01*
X676692Y-32824D01*
X676233Y-30517D01*
X675333Y-28343D01*
X674026Y-26387D01*
X672363Y-24724D01*
X670407Y-23417D01*
X668233Y-22517D01*
X665926Y-22058D01*
X664750Y-22000D01*
X132000Y-22000D01*
X130824Y-22058D01*
X128517Y-22517D01*
X126343Y-23417D01*
X124387Y-24724D01*
X122724Y-26387D01*
X121417Y-28343D01*
X120517Y-30517D01*
X120058Y-32824D01*
X120000Y-34000D01*
X120000D01*
Y-40182D01*
X119539Y-42500D01*
X118634Y-44684D01*
X117321Y-46650D01*
X115649Y-48321D01*
X113684Y-49634D01*
X111500Y-50539D01*
X109182Y-51000D01*
X-39280D01*
X-41792Y-50500D01*
X-44158Y-49521D01*
X-46287Y-48098D01*
X-48098Y-46287D01*
X-49521Y-44158D01*
X-50500Y-41792D01*
X-51000Y-39280D01*
Y-38000D01*
Y115000D01*
Y116182D01*
X-50539Y118500D01*
X-49634Y120684D01*
X-48321Y122649D01*
X-46650Y124321D01*
X-44684Y125634D01*
X-42500Y126539D01*
X-40182Y127000D01*
X-34000Y127000D01*
X-32824Y127058D01*
X-30517Y127517D01*
X-28343Y128417D01*
X-26387Y129724D01*
X-24724Y131387D01*
X-23417Y133343D01*
X-22517Y135517D01*
X-22058Y137824D01*
X-22000Y139000D01*
X-22000D01*
X-22000Y722000D01*
X-22058Y723176D01*
X-22517Y725483D01*
X-23417Y727657D01*
X-24724Y729613D01*
X-26387Y731276D01*
X-28343Y732583D01*
X-30517Y733483D01*
X-32824Y733942D01*
X-34000Y734000D01*
Y734000D01*
X-40182D01*
X-42500Y734461D01*
X-44684Y735366D01*
X-46650Y736679D01*
X-48321Y738351D01*
X-49634Y740316D01*
X-50539Y742500D01*
X-51000Y744818D01*
Y746000D01*
Y896000D01*
Y897182D01*
X-50539Y899500D01*
X-49634Y901684D01*
X-48321Y903650D01*
X-46650Y905321D01*
X-44684Y906634D01*
X-42500Y907539D01*
X-40182Y908000D01*
X75247D01*
X75247Y857250D01*
Y854815D01*
X74611Y849987D01*
X73351Y845284D01*
X71487Y840785D01*
X69053Y836568D01*
X66088Y832705D01*
X62645Y829262D01*
X58782Y826297D01*
X54565Y823863D01*
X50066Y821999D01*
X45363Y820739D01*
X40535Y820103D01*
X38100D01*
Y820103D01*
X-8750D01*
Y820100D01*
X-10446Y820017D01*
X-13772Y819355D01*
X-16905Y818057D01*
X-19725Y816173D01*
X-22123Y813775D01*
X-24007Y810955D01*
X-25305Y807822D01*
X-25967Y804496D01*
X-26050Y802800D01*
Y771889D01*
X-26006Y770562D01*
X-25655Y767932D01*
X-24958Y765371D01*
X-23929Y762925D01*
X-22584Y760636D01*
X-20949Y758546D01*
X-19051Y756691D01*
X-16925Y755104D01*
X-15787Y754419D01*
X-15787Y754419D01*
X-13638Y753221D01*
X-9695Y750278D01*
X-6176Y746838D01*
X-3144Y742963D01*
X-652Y738721D01*
X1257Y734185D01*
X2549Y729437D01*
X3200Y724560D01*
X3200Y722100D01*
X3200D01*
X3200Y722100D01*
X3200Y542900D01*
Y318100D01*
X3200Y138900D01*
X3200Y136440D01*
X2549Y131562D01*
X1257Y126815D01*
X-652Y122279D01*
X-3144Y118037D01*
X-6176Y114162D01*
X-9695Y110722D01*
X-13638Y107779D01*
X-15787Y106581D01*
X-16925Y105896D01*
X-19051Y104309D01*
X-20949Y102454D01*
X-22584Y100364D01*
X-23928Y98075D01*
X-24958Y95629D01*
X-25655Y93068D01*
X-26006Y90438D01*
X-26050Y89111D01*
X-26050D01*
X-26050Y89111D01*
X-26050D01*
X-26050Y54450D01*
X-25952Y52465D01*
X-25178Y48572D01*
X-23659Y44904D01*
X-21453Y41603D01*
X-18647Y38797D01*
X-15346Y36591D01*
X-11678Y35072D01*
X-7785Y34297D01*
X-5800Y34200D01*
Y34200D01*
X100000Y34200D01*
X101970Y34200D01*
X105834Y33431D01*
X109473Y31924D01*
X112749Y29735D01*
X115535Y26949D01*
X117724Y23674D01*
X119231Y20034D01*
X120000Y16170D01*
Y14200D01*
X120000D01*
X120000Y14200D01*
X120000Y14198D01*
X120052Y13141D01*
X120074Y13029D01*
X120465Y11065D01*
X121275Y9109D01*
X122451Y7348D01*
X123948Y5852D01*
X125709Y4675D01*
X127665Y3865D01*
X129741Y3452D01*
X130800Y3400D01*
X669300D01*
X670359Y3452D01*
X672435Y3865D01*
X674391Y4675D01*
X676151Y5852D01*
X677648Y7348D01*
X678825Y9109D01*
X679635Y11065D01*
X680048Y13141D01*
X680100Y14200D01*
X680100Y16170D01*
X680869Y20034D01*
X682376Y23674D01*
X684565Y26949D01*
X687351Y29735D01*
X690626Y31924D01*
X694266Y33431D01*
X698130Y34200D01*
X700100D01*
Y34200D01*
X805900Y34200D01*
X807860Y34296D01*
X811706Y35061D01*
X815328Y36562D01*
X818588Y38740D01*
X821360Y41512D01*
X823538Y44772D01*
X825039Y48394D01*
X825804Y52240D01*
X825900Y54200D01*
X825900Y54200D01*
X825900Y55373D01*
X825900Y634331D01*
X825827Y636043D01*
X825243Y639417D01*
X824092Y642642D01*
X822408Y645623D01*
X820240Y648273D01*
X817652Y650515D01*
X814719Y652282D01*
X811528Y653523D01*
X809865Y653934D01*
X807791Y654354D01*
X803765Y655660D01*
X799914Y657418D01*
X796289Y659602D01*
X792937Y662186D01*
X789901Y665135D01*
X787221Y668411D01*
X784932Y671972D01*
X783064Y675770D01*
X781641Y679756D01*
X780683Y683879D01*
X780200Y688084D01*
Y690200D01*
Y814603D01*
X780094Y815676D01*
X779273Y817659D01*
X777756Y819176D01*
X775773Y819997D01*
X774700Y820103D01*
X772265Y820103D01*
X767438Y820739D01*
X762734Y821999D01*
X758235Y823863D01*
X754018Y826297D01*
X750155Y829262D01*
X746712Y832705D01*
X743747Y836568D01*
X741312Y840785D01*
X739449Y845284D01*
X738189Y849987D01*
X737553Y854815D01*
Y857250D01*
X737553D01*
Y908000D01*
X794000Y908000D01*
D02*
G37*
D47*
X554752Y537999D02*
D03*
D48*
X771000Y179500D02*
D03*
Y192000D02*
D03*
Y204500D02*
D03*
Y217000D02*
D03*
Y229500D02*
D03*
Y242000D02*
D03*
D49*
X800000Y267500D02*
D03*
Y154000D02*
D03*
D50*
X54000Y616000D02*
D03*
Y626000D02*
D03*
Y621000D02*
D03*
Y631000D02*
D03*
Y641000D02*
D03*
Y636000D02*
D03*
Y606000D02*
D03*
Y611000D02*
D03*
D51*
Y599500D02*
D03*
Y647500D02*
D03*
Y591500D02*
D03*
Y655500D02*
D03*
D52*
X812000Y396000D02*
D03*
Y363000D02*
D03*
Y385000D02*
D03*
Y341000D02*
D03*
Y374000D02*
D03*
Y407000D02*
D03*
Y330000D02*
D03*
Y352000D02*
D03*
D53*
X685000Y393000D02*
D03*
Y344000D02*
D03*
D54*
X807000Y309000D02*
D03*
D55*
X684000Y423500D02*
D03*
D56*
X807000Y442500D02*
D03*
D57*
X499500Y450500D02*
D03*
X359500D02*
D03*
X374500D02*
D03*
X447000Y375000D02*
D03*
X439500Y450500D02*
D03*
X454500D02*
D03*
X469500D02*
D03*
X544500D02*
D03*
X362000Y375000D02*
D03*
X542000D02*
D03*
X494500Y450500D02*
D03*
X479500D02*
D03*
X379500D02*
D03*
X509500D02*
D03*
X459500D02*
D03*
X457000Y375000D02*
D03*
X464500Y450500D02*
D03*
X462000Y375000D02*
D03*
X387000D02*
D03*
X382000D02*
D03*
X377000D02*
D03*
X372000D02*
D03*
X367000D02*
D03*
X364500Y450500D02*
D03*
X369500D02*
D03*
X384500D02*
D03*
X389500D02*
D03*
X392000Y375000D02*
D03*
X394500Y450500D02*
D03*
X397000Y375000D02*
D03*
X399500Y450500D02*
D03*
X402000Y375000D02*
D03*
X404500Y450500D02*
D03*
X407000Y375000D02*
D03*
X409500Y450500D02*
D03*
X412000Y375000D02*
D03*
X414500Y450500D02*
D03*
X437000Y375000D02*
D03*
X442000D02*
D03*
X444500Y450500D02*
D03*
X449500D02*
D03*
X452000Y375000D02*
D03*
X467000D02*
D03*
X472000D02*
D03*
X474500Y450500D02*
D03*
X477000Y375000D02*
D03*
X482000D02*
D03*
X484500Y450500D02*
D03*
X487000Y375000D02*
D03*
X489500Y450500D02*
D03*
X492000Y375000D02*
D03*
X497000D02*
D03*
X502000D02*
D03*
X504500Y450500D02*
D03*
X507000Y375000D02*
D03*
X512000D02*
D03*
X514500Y450500D02*
D03*
X517000Y375000D02*
D03*
X519500Y450500D02*
D03*
X522000Y375000D02*
D03*
X524500Y450500D02*
D03*
X527000Y375000D02*
D03*
X529500Y450500D02*
D03*
X532000Y375000D02*
D03*
X534500Y450500D02*
D03*
X537000Y375000D02*
D03*
X539500Y450500D02*
D03*
D58*
X164000Y23750D02*
D03*
X274000D02*
D03*
Y57750D02*
D03*
X164000D02*
D03*
D59*
X207000Y39250D02*
D03*
X216000Y405500D02*
D03*
X317000Y39250D02*
D03*
X216000Y423500D02*
D03*
X317000Y57250D02*
D03*
X207000D02*
D03*
D60*
X370997Y35500D02*
D03*
X309000Y554500D02*
D03*
X383000D02*
D03*
X189000Y35500D02*
D03*
X299000D02*
D03*
X391000D02*
D03*
X453000Y56500D02*
D03*
X505000D02*
D03*
X661000Y374500D02*
D03*
X525000Y56500D02*
D03*
X299000D02*
D03*
X189000D02*
D03*
X473000D02*
D03*
X661000Y395500D02*
D03*
X383000Y575500D02*
D03*
X309000D02*
D03*
X505000Y35500D02*
D03*
X391000Y56500D02*
D03*
X370997D02*
D03*
X453000Y35500D02*
D03*
X473000D02*
D03*
X525000D02*
D03*
D61*
X232000Y414500D02*
D03*
X70000Y658500D02*
D03*
X421000Y590500D02*
D03*
X540000Y583000D02*
D03*
X69000Y588500D02*
D03*
X232000Y425500D02*
D03*
X69000Y599500D02*
D03*
X421000Y579500D02*
D03*
X70000Y647500D02*
D03*
X540000Y572000D02*
D03*
D62*
X206000Y441000D02*
D03*
X337000Y506000D02*
D03*
X668500Y657632D02*
D03*
X355000Y506000D02*
D03*
X650500Y657632D02*
D03*
X224000Y441000D02*
D03*
D63*
X250000Y443500D02*
D03*
Y425500D02*
D03*
X262000Y443500D02*
D03*
Y434500D02*
D03*
Y416500D02*
D03*
Y425500D02*
D03*
X250000Y416500D02*
D03*
Y434500D02*
D03*
D64*
X110500Y588755D02*
D03*
X555000Y630255D02*
D03*
X372000Y331255D02*
D03*
X388000D02*
D03*
X404000D02*
D03*
X388000Y346745D02*
D03*
X404000D02*
D03*
X372000D02*
D03*
X571000Y645495D02*
D03*
Y630005D02*
D03*
X555000Y645745D02*
D03*
X110500Y604245D02*
D03*
D65*
X116000Y636000D02*
D03*
X338745Y679000D02*
D03*
X354000D02*
D03*
X667495Y530735D02*
D03*
X538500Y686132D02*
D03*
X669245Y577735D02*
D03*
X666245Y674632D02*
D03*
X538500Y701500D02*
D03*
X553990D02*
D03*
X556255Y726000D02*
D03*
X553990Y686132D02*
D03*
X571745Y726000D02*
D03*
X650755Y674632D02*
D03*
X652005Y530735D02*
D03*
X100510Y636000D02*
D03*
X653755Y577735D02*
D03*
X323255Y679000D02*
D03*
X369490D02*
D03*
D66*
X339650Y522950D02*
D03*
X352350D02*
D03*
X326950D02*
D03*
X365050Y575050D02*
D03*
X326950D02*
D03*
X365050Y522950D02*
D03*
X352350Y575050D02*
D03*
X339650D02*
D03*
D67*
X342500Y596000D02*
D03*
X353000D02*
D03*
X530500Y355000D02*
D03*
X519500Y560000D02*
D03*
X606000Y702000D02*
D03*
X541500Y355000D02*
D03*
X530500Y560000D02*
D03*
X595000Y702000D02*
D03*
X331500Y596000D02*
D03*
X364000D02*
D03*
D68*
X347000Y724500D02*
D03*
X337000Y699500D02*
D03*
X357000D02*
D03*
D69*
X518500Y334000D02*
D03*
X504706Y542348D02*
D03*
X463500Y554000D02*
D03*
X618500Y723000D02*
D03*
X622500Y630000D02*
D03*
X674000Y693632D02*
D03*
X541500Y334000D02*
D03*
X527706Y542348D02*
D03*
X440500Y554000D02*
D03*
X651000Y693632D02*
D03*
X599500Y630000D02*
D03*
X595500Y723000D02*
D03*
D70*
X599000Y537000D02*
D03*
X673750Y548735D02*
D03*
X532245Y668132D02*
D03*
X553245D02*
D03*
X578000Y537000D02*
D03*
X652750Y548735D02*
D03*
D71*
X441000Y623000D02*
D03*
Y577000D02*
D03*
Y600000D02*
D03*
D72*
X523000Y612500D02*
D03*
Y589500D02*
D03*
D73*
X561800Y574485D02*
D03*
Y561485D02*
D03*
Y554985D02*
D03*
Y567985D02*
D03*
X619200Y574485D02*
D03*
Y567985D02*
D03*
Y561485D02*
D03*
Y554985D02*
D03*
D74*
X605000Y674382D02*
D03*
X587000Y678882D02*
D03*
Y674382D02*
D03*
X605000Y678882D02*
D03*
D75*
X90000Y148000D02*
D03*
Y406000D02*
D03*
D76*
X348500Y442750D02*
D03*
X555500D02*
D03*
D77*
X593500Y676632D02*
D03*
X598500D02*
D03*
D78*
X335000Y613000D02*
D03*
X360000D02*
D03*
X335000Y658500D02*
D03*
X360000D02*
D03*
D79*
X499000Y600000D02*
D03*
D80*
X42800Y652400D02*
D03*
Y594600D02*
D03*
D81*
X6000Y580300D02*
D03*
Y666700D02*
D03*
D82*
X47800Y580300D02*
D03*
Y666700D02*
D03*
D83*
X0Y0D02*
D03*
X38100Y857250D02*
D03*
X800100Y0D02*
D03*
X774700Y857250D02*
D03*
X412000Y195750D02*
D03*
D84*
X342900Y831850D02*
D03*
Y857250D02*
D03*
Y781050D02*
D03*
Y806450D02*
D03*
X368300Y857250D02*
D03*
Y781050D02*
D03*
Y831850D02*
D03*
Y806450D02*
D03*
X190500Y857250D02*
D03*
X673100D02*
D03*
X165100D02*
D03*
X647700Y831850D02*
D03*
X673100D02*
D03*
X647700Y857250D02*
D03*
X165100Y806450D02*
D03*
Y781050D02*
D03*
X88900D02*
D03*
Y806450D02*
D03*
X114300Y781050D02*
D03*
X190500Y806450D02*
D03*
X241300Y781050D02*
D03*
X215900D02*
D03*
Y806450D02*
D03*
X241300D02*
D03*
X266700Y781050D02*
D03*
X317500D02*
D03*
X292100D02*
D03*
X266700Y806450D02*
D03*
X292100D02*
D03*
X190500Y781050D02*
D03*
X139700Y806450D02*
D03*
Y781050D02*
D03*
X114300Y806450D02*
D03*
X393700D02*
D03*
Y781050D02*
D03*
X317500Y806450D02*
D03*
X419100Y781050D02*
D03*
Y806450D02*
D03*
X444500Y781050D02*
D03*
X596900Y806450D02*
D03*
Y781050D02*
D03*
X546100D02*
D03*
Y806450D02*
D03*
X571500Y781050D02*
D03*
X622300D02*
D03*
Y806450D02*
D03*
X520700Y781050D02*
D03*
X571500Y806450D02*
D03*
X495300D02*
D03*
X647700Y781050D02*
D03*
X520700Y806450D02*
D03*
X673100D02*
D03*
X698500Y781050D02*
D03*
Y806450D02*
D03*
X723900Y781050D02*
D03*
X647700Y806450D02*
D03*
X673100Y781050D02*
D03*
X495300D02*
D03*
X469900Y806450D02*
D03*
Y781050D02*
D03*
X444500Y806450D02*
D03*
X88900Y831850D02*
D03*
Y857250D02*
D03*
X114300Y831850D02*
D03*
X241300D02*
D03*
X215900D02*
D03*
Y857250D02*
D03*
X241300D02*
D03*
X266700Y831850D02*
D03*
X317500D02*
D03*
X292100D02*
D03*
X266700Y857250D02*
D03*
X292100D02*
D03*
X190500Y831850D02*
D03*
X139700Y857250D02*
D03*
X165100Y831850D02*
D03*
X139700D02*
D03*
X114300Y857250D02*
D03*
X393700D02*
D03*
Y831850D02*
D03*
X317500Y857250D02*
D03*
X419100Y831850D02*
D03*
Y857250D02*
D03*
X444500Y831850D02*
D03*
X596900Y857250D02*
D03*
Y831850D02*
D03*
X546100D02*
D03*
Y857250D02*
D03*
X571500Y831850D02*
D03*
X622300D02*
D03*
Y857250D02*
D03*
X520700Y831850D02*
D03*
X571500Y857250D02*
D03*
X495300D02*
D03*
X520700D02*
D03*
X698500Y831850D02*
D03*
Y857250D02*
D03*
X723900Y831850D02*
D03*
X495300D02*
D03*
X469900Y857250D02*
D03*
Y831850D02*
D03*
X444500Y857250D02*
D03*
D85*
X352000Y397750D02*
D03*
D86*
X552000D02*
D03*
D87*
X723900Y806450D02*
D03*
Y857250D02*
D03*
D88*
X0Y-23000D02*
D03*
X-16260Y-16264D02*
D03*
X16260D02*
D03*
X-23000Y0D02*
D03*
X-16260Y16264D02*
D03*
X16260D02*
D03*
X0Y23000D02*
D03*
X23000Y0D02*
D03*
X38100Y834250D02*
D03*
X15100Y857250D02*
D03*
X21840Y873513D02*
D03*
Y840986D02*
D03*
X38100Y880250D02*
D03*
X54360Y840986D02*
D03*
Y873513D02*
D03*
X61100Y857250D02*
D03*
X777100Y0D02*
D03*
X783840Y16264D02*
D03*
Y-16264D02*
D03*
X800100Y23000D02*
D03*
Y-23000D02*
D03*
X816360Y16264D02*
D03*
Y-16264D02*
D03*
X823100Y0D02*
D03*
X774700Y834250D02*
D03*
X758440Y840986D02*
D03*
X790960D02*
D03*
X751700Y857250D02*
D03*
X758440Y873513D02*
D03*
X797700Y857250D02*
D03*
X774700Y880250D02*
D03*
X790960Y873513D02*
D03*
M02*
