G04*
G04 #@! TF.GenerationSoftware,Altium Limited,Altium Designer,26.2.0 (7)*
G04*
G04 Layer_Physical_Order=1*
G04 Layer_Color=255*
%FSLAX44Y44*%
%MOMM*%
G71*
G04*
G04 #@! TF.SameCoordinates,96A30EBC-B4F8-4BF8-BD66-0BA623D5F1AF*
G04*
G04*
G04 #@! TF.FilePolarity,Positive*
G04*
G01*
G75*
%ADD10C,0.2000*%
%ADD15R,1.6000X0.8000*%
%ADD16R,3.0000X2.1000*%
%ADD17R,1.1500X0.3000*%
%ADD18R,1.1500X0.6000*%
%ADD19R,2.0000X0.7000*%
%ADD20R,1.4000X2.7000*%
%ADD21R,2.6000X1.0000*%
%ADD22R,1.2000X1.2000*%
%ADD23R,2.6000X1.5000*%
G04:AMPARAMS|DCode=24|XSize=0.3mm|YSize=1.55mm|CornerRadius=0.0225mm|HoleSize=0mm|Usage=FLASHONLY|Rotation=0.000|XOffset=0mm|YOffset=0mm|HoleType=Round|Shape=RoundedRectangle|*
%AMROUNDEDRECTD24*
21,1,0.3000,1.5050,0,0,0.0*
21,1,0.2550,1.5500,0,0,0.0*
1,1,0.0450,0.1275,-0.7525*
1,1,0.0450,-0.1275,-0.7525*
1,1,0.0450,-0.1275,0.7525*
1,1,0.0450,0.1275,0.7525*
%
%ADD24ROUNDEDRECTD24*%
%ADD25R,1.7000X0.8000*%
%ADD26R,1.1000X0.9000*%
%ADD27R,1.3000X0.9000*%
%ADD28R,0.7500X0.5000*%
%ADD29R,0.9000X1.1000*%
%ADD30R,0.8000X0.5000*%
%ADD31R,0.8750X0.8000*%
%ADD32R,0.8000X0.8750*%
%ADD33R,0.7500X1.1500*%
%ADD34R,0.5000X0.7500*%
%ADD35R,0.6200X1.0000*%
%ADD36R,1.1000X1.5500*%
%ADD37R,0.9000X1.3000*%
%ADD38R,2.1500X0.9500*%
%ADD39R,1.5500X1.1000*%
%ADD40R,1.5700X0.4100*%
G04:AMPARAMS|DCode=41|XSize=0.6mm|YSize=0.25mm|CornerRadius=0.0125mm|HoleSize=0mm|Usage=FLASHONLY|Rotation=0.000|XOffset=0mm|YOffset=0mm|HoleType=Round|Shape=RoundedRectangle|*
%AMROUNDEDRECTD41*
21,1,0.6000,0.2250,0,0,0.0*
21,1,0.5750,0.2500,0,0,0.0*
1,1,0.0250,0.2875,-0.1125*
1,1,0.0250,-0.2875,-0.1125*
1,1,0.0250,-0.2875,0.1125*
1,1,0.0250,0.2875,0.1125*
%
%ADD41ROUNDEDRECTD41*%
%ADD42R,4.0000X3.5000*%
G04:AMPARAMS|DCode=43|XSize=1.2mm|YSize=2.75mm|CornerRadius=0.09mm|HoleSize=0mm|Usage=FLASHONLY|Rotation=0.000|XOffset=0mm|YOffset=0mm|HoleType=Round|Shape=RoundedRectangle|*
%AMROUNDEDRECTD43*
21,1,1.2000,2.5700,0,0,0.0*
21,1,1.0200,2.7500,0,0,0.0*
1,1,0.1800,0.5100,-1.2850*
1,1,0.1800,-0.5100,-1.2850*
1,1,0.1800,-0.5100,1.2850*
1,1,0.1800,0.5100,1.2850*
%
%ADD43ROUNDEDRECTD43*%
G04:AMPARAMS|DCode=44|XSize=0.3mm|YSize=2.4mm|CornerRadius=0.015mm|HoleSize=0mm|Usage=FLASHONLY|Rotation=180.000|XOffset=0mm|YOffset=0mm|HoleType=Round|Shape=RoundedRectangle|*
%AMROUNDEDRECTD44*
21,1,0.3000,2.3700,0,0,180.0*
21,1,0.2700,2.4000,0,0,180.0*
1,1,0.0300,-0.1350,1.1850*
1,1,0.0300,0.1350,1.1850*
1,1,0.0300,0.1350,-1.1850*
1,1,0.0300,-0.1350,-1.1850*
%
%ADD44ROUNDEDRECTD44*%
%ADD45R,0.9000X1.3500*%
%ADD46R,2.1500X3.2500*%
%ADD88C,0.6500*%
%AMCUSTOMSHAPE89*
4,1,5,-0.6500,0.6000,-0.6500,-0.6000,0.6500,-0.6000,0.0500,0.0000,0.6500,0.6000,-0.6500,0.6000,0.0*%
%ADD89CUSTOMSHAPE89*%

%AMCUSTOMSHAPE90*
4,1,6,-0.1000,0.4750,-0.1000,0.1250,-0.4500,0.1250,-0.4500,-0.1750,0.1500,-0.1750,0.1500,0.4750,-0.1000,0.4750,0.0*%
%ADD90CUSTOMSHAPE90*%

%AMCUSTOMSHAPE91*
4,1,6,0.1000,-0.4750,0.1000,-0.1250,0.4500,-0.1250,0.4500,0.1750,-0.1500,0.1750,-0.1500,-0.4750,0.1000,-0.4750,0.0*%
%ADD91CUSTOMSHAPE91*%

%AMCUSTOMSHAPE92*
4,1,6,-0.1000,-0.4750,-0.1000,-0.1250,-0.4500,-0.1250,-0.4500,0.1750,0.1500,0.1750,0.1500,-0.4750,-0.1000,-0.4750,0.0*%
%ADD92CUSTOMSHAPE92*%

%AMCUSTOMSHAPE93*
4,1,6,0.1000,0.4750,0.1000,0.1250,0.4500,0.1250,0.4500,-0.1750,-0.1500,-0.1750,-0.1500,0.4750,0.1000,0.4750,0.0*%
%ADD93CUSTOMSHAPE93*%

%AMCUSTOMSHAPE94*
4,1,5,-0.6500,0.0000,-0.0500,0.6000,0.6500,0.6000,0.6500,-0.6000,-0.0500,-0.6000,-0.6500,0.0000,0.0*%
%ADD94CUSTOMSHAPE94*%

%ADD95C,0.2500*%
%ADD96C,0.4000*%
G04:AMPARAMS|DCode=97|XSize=1.8mm|YSize=1mm|CornerRadius=0.25mm|HoleSize=0mm|Usage=FLASHONLY|Rotation=0.000|XOffset=0mm|YOffset=0mm|HoleType=Round|Shape=RoundedRectangle|*
%AMROUNDEDRECTD97*
21,1,1.8000,0.5000,0,0,0.0*
21,1,1.3000,1.0000,0,0,0.0*
1,1,0.5000,0.6500,-0.2500*
1,1,0.5000,-0.6500,-0.2500*
1,1,0.5000,-0.6500,0.2500*
1,1,0.5000,0.6500,0.2500*
%
%ADD97ROUNDEDRECTD97*%
%ADD98O,2.1000X1.0000*%
%ADD99C,6.0000*%
%ADD100C,1.3980*%
%ADD101C,1.1000*%
%ADD102C,1.6000*%
%ADD103R,1.3980X1.3980*%
%ADD104C,0.5000*%
G36*
X698430Y850260D02*
X697443Y850252D01*
X695669Y850127D01*
X694882Y850009D01*
X694161Y849855D01*
X693507Y849665D01*
X692919Y849438D01*
X692398Y849174D01*
X691943Y848874D01*
X691555Y848538D01*
X689788Y850305D01*
X690124Y850693D01*
X690424Y851148D01*
X690688Y851669D01*
X690915Y852257D01*
X691105Y852911D01*
X691259Y853632D01*
X691377Y854419D01*
X691458Y855273D01*
X691510Y857180D01*
X698430Y850260D01*
D02*
G37*
G36*
X197498Y856193D02*
X197623Y854419D01*
X197741Y853632D01*
X197895Y852911D01*
X198085Y852257D01*
X198312Y851669D01*
X198576Y851148D01*
X198876Y850693D01*
X199212Y850305D01*
X197445Y848538D01*
X197057Y848874D01*
X196602Y849174D01*
X196081Y849438D01*
X195493Y849665D01*
X194839Y849855D01*
X194118Y850009D01*
X193331Y850127D01*
X192477Y850208D01*
X190570Y850260D01*
X197490Y857180D01*
X197498Y856193D01*
D02*
G37*
G36*
X172098D02*
X172223Y854419D01*
X172341Y853632D01*
X172495Y852911D01*
X172685Y852257D01*
X172912Y851669D01*
X173176Y851148D01*
X173476Y850693D01*
X173813Y850305D01*
X172045Y848538D01*
X171657Y848874D01*
X171202Y849174D01*
X170681Y849438D01*
X170093Y849665D01*
X169439Y849855D01*
X168718Y850009D01*
X167931Y850127D01*
X167077Y850208D01*
X165170Y850260D01*
X172090Y857180D01*
X172098Y856193D01*
D02*
G37*
G36*
X720476Y850291D02*
X720123Y850273D01*
X719769Y850220D01*
X719415Y850131D01*
X719062Y850008D01*
X718708Y849848D01*
X718355Y849654D01*
X718001Y849424D01*
X717648Y849159D01*
X717294Y848859D01*
X716941Y848523D01*
X715173Y850291D01*
X715509Y850644D01*
X715809Y850998D01*
X716074Y851351D01*
X716304Y851705D01*
X716498Y852058D01*
X716658Y852412D01*
X716781Y852765D01*
X716870Y853119D01*
X716923Y853473D01*
X716941Y853826D01*
X720476Y850291D01*
D02*
G37*
G36*
X575740Y728262D02*
X575815Y728050D01*
X575939Y727862D01*
X576115Y727700D01*
X576339Y727562D01*
X576614Y727450D01*
X576940Y727363D01*
X577314Y727300D01*
X577739Y727262D01*
X578214Y727250D01*
Y724750D01*
X577739Y724737D01*
X577314Y724700D01*
X576940Y724638D01*
X576614Y724550D01*
X576339Y724437D01*
X576115Y724300D01*
X575939Y724137D01*
X575815Y723950D01*
X575740Y723737D01*
X575714Y723500D01*
Y728500D01*
X575740Y728262D01*
D02*
G37*
G36*
X558517Y721630D02*
X558305Y721555D01*
X558117Y721431D01*
X557955Y721255D01*
X557817Y721031D01*
X557705Y720755D01*
X557617Y720431D01*
X557555Y720055D01*
X557518Y719631D01*
X557505Y719156D01*
X555005D01*
X554992Y719631D01*
X554955Y720055D01*
X554893Y720431D01*
X554805Y720755D01*
X554692Y721031D01*
X554555Y721255D01*
X554393Y721431D01*
X554205Y721555D01*
X553993Y721630D01*
X553755Y721656D01*
X558755D01*
X558517Y721630D01*
D02*
G37*
G36*
X557509Y707869D02*
X557619Y706469D01*
X557669Y706245D01*
X557728Y706069D01*
X557796Y705945D01*
X557873Y705870D01*
X557960Y705844D01*
X553755D01*
X553993Y705870D01*
X554205Y705945D01*
X554393Y706069D01*
X554555Y706245D01*
X554692Y706469D01*
X554805Y706745D01*
X554893Y707069D01*
X554955Y707445D01*
X554992Y707869D01*
X555005Y708344D01*
X557505D01*
X557509Y707869D01*
D02*
G37*
G36*
X358262Y706495D02*
X358300Y706069D01*
X358363Y705695D01*
X358450Y705369D01*
X358563Y705095D01*
X358700Y704870D01*
X358862Y704695D01*
X359050Y704569D01*
X359263Y704494D01*
X359500Y704470D01*
X354500D01*
X354738Y704494D01*
X354950Y704569D01*
X355137Y704695D01*
X355300Y704870D01*
X355438Y705095D01*
X355550Y705369D01*
X355638Y705695D01*
X355700Y706069D01*
X355737Y706495D01*
X355750Y706970D01*
X358250D01*
X358262Y706495D01*
D02*
G37*
G36*
X557983Y702838D02*
X558052Y702657D01*
X558168Y702497D01*
X558330Y702358D01*
X558539Y702241D01*
X558793Y702145D01*
X559094Y702070D01*
X559442Y702017D01*
X559836Y701985D01*
X560275Y701974D01*
Y699474D01*
X559836Y699464D01*
X559442Y699432D01*
X559094Y699379D01*
X558793Y699304D01*
X558539Y699208D01*
X558330Y699091D01*
X558168Y698952D01*
X558052Y698792D01*
X557983Y698611D01*
X557960Y698409D01*
Y703040D01*
X557983Y702838D01*
D02*
G37*
G36*
X629000Y706000D02*
X621000Y698000D01*
X602624D01*
Y709327D01*
X609148Y715852D01*
X609624Y717000D01*
Y731000D01*
X629000D01*
Y706000D01*
D02*
G37*
G36*
X360094Y701762D02*
X360169Y701550D01*
X360294Y701363D01*
X360470Y701200D01*
X360695Y701062D01*
X360970Y700950D01*
X361295Y700863D01*
X361670Y700800D01*
X362094Y700762D01*
X362570Y700750D01*
Y698250D01*
X362094Y698238D01*
X361670Y698200D01*
X361295Y698138D01*
X360970Y698050D01*
X360695Y697937D01*
X360470Y697800D01*
X360294Y697637D01*
X360169Y697450D01*
X360094Y697237D01*
X360070Y697000D01*
Y702000D01*
X360094Y701762D01*
D02*
G37*
G36*
X333931Y697000D02*
X333905Y697237D01*
X333830Y697450D01*
X333705Y697637D01*
X333531Y697800D01*
X333306Y697937D01*
X333031Y698050D01*
X332705Y698138D01*
X332331Y698200D01*
X331906Y698238D01*
X331431Y698250D01*
Y700750D01*
X331906Y700762D01*
X332331Y700800D01*
X332705Y700863D01*
X333031Y700950D01*
X333306Y701062D01*
X333531Y701200D01*
X333705Y701363D01*
X333830Y701550D01*
X333905Y701762D01*
X333931Y702000D01*
Y697000D01*
D02*
G37*
G36*
X542496Y701201D02*
X542576Y700821D01*
X542708Y700423D01*
X542894Y700007D01*
X543132Y699574D01*
X543424Y699124D01*
X543769Y698655D01*
X544617Y697665D01*
X545121Y697144D01*
X543342Y695388D01*
X542988Y695724D01*
X542635Y696024D01*
X542281Y696289D01*
X541927Y696519D01*
X541574Y696713D01*
X541220Y696873D01*
X540867Y696996D01*
X540513Y697085D01*
X540160Y697138D01*
X539806Y697156D01*
X542469Y701563D01*
X542496Y701201D01*
D02*
G37*
G36*
X645530Y691132D02*
X645506Y691370D01*
X645431Y691582D01*
X645305Y691770D01*
X645130Y691932D01*
X644905Y692070D01*
X644631Y692182D01*
X644305Y692270D01*
X643931Y692332D01*
X643505Y692370D01*
X643030Y692382D01*
Y694882D01*
X643505Y694895D01*
X643931Y694932D01*
X644305Y694995D01*
X644631Y695082D01*
X644905Y695195D01*
X645130Y695332D01*
X645305Y695495D01*
X645431Y695682D01*
X645506Y695895D01*
X645530Y696132D01*
Y691132D01*
D02*
G37*
G36*
X550374Y691909D02*
X550728Y691608D01*
X551081Y691343D01*
X551435Y691113D01*
X551788Y690919D01*
X552142Y690760D01*
X552495Y690636D01*
X552849Y690547D01*
X553202Y690494D01*
X553556Y690477D01*
X550020Y686941D01*
X550003Y687295D01*
X549950Y687648D01*
X549861Y688002D01*
X549738Y688355D01*
X549579Y688709D01*
X549384Y689062D01*
X549154Y689416D01*
X548889Y689770D01*
X548589Y690123D01*
X548253Y690477D01*
X550020Y692244D01*
X550374Y691909D01*
D02*
G37*
G36*
X530024Y687787D02*
X530149Y687702D01*
X530293Y687627D01*
X530453Y687562D01*
X530633Y687507D01*
X530830Y687462D01*
X531044Y687427D01*
X531277Y687402D01*
X531797Y687382D01*
Y684882D01*
X531528Y684877D01*
X531044Y684837D01*
X530830Y684802D01*
X530633Y684757D01*
X530453Y684702D01*
X530293Y684637D01*
X530149Y684562D01*
X530024Y684477D01*
X529917Y684382D01*
Y687882D01*
X530024Y687787D01*
D02*
G37*
G36*
X534530Y683632D02*
X534506Y683870D01*
X534431Y684082D01*
X534305Y684270D01*
X534131Y684432D01*
X533905Y684570D01*
X533630Y684682D01*
X533306Y684770D01*
X532930Y684832D01*
X532505Y684870D01*
X532030Y684882D01*
Y687382D01*
X532505Y687395D01*
X532930Y687432D01*
X533306Y687495D01*
X533630Y687582D01*
X533905Y687695D01*
X534131Y687832D01*
X534305Y687995D01*
X534431Y688182D01*
X534506Y688395D01*
X534530Y688632D01*
Y683632D01*
D02*
G37*
G36*
X370752Y685369D02*
X370790Y684945D01*
X370853Y684569D01*
X370940Y684245D01*
X371053Y683969D01*
X371190Y683745D01*
X371353Y683569D01*
X371540Y683445D01*
X371753Y683370D01*
X371990Y683344D01*
X366990D01*
X367228Y683370D01*
X367440Y683445D01*
X367627Y683569D01*
X367790Y683745D01*
X367928Y683969D01*
X368040Y684245D01*
X368128Y684569D01*
X368190Y684945D01*
X368228Y685369D01*
X368240Y685844D01*
X370740D01*
X370752Y685369D01*
D02*
G37*
G36*
X324518D02*
X324555Y684945D01*
X324618Y684569D01*
X324705Y684245D01*
X324818Y683969D01*
X324955Y683745D01*
X325117Y683569D01*
X325305Y683445D01*
X325518Y683370D01*
X325755Y683344D01*
X320755D01*
X320993Y683370D01*
X321205Y683445D01*
X321393Y683569D01*
X321555Y683745D01*
X321693Y683969D01*
X321805Y684245D01*
X321893Y684569D01*
X321955Y684945D01*
X321992Y685369D01*
X322005Y685844D01*
X324505D01*
X324518Y685369D01*
D02*
G37*
G36*
X606967Y685132D02*
X610467Y682632D01*
X609992Y682627D01*
X608592Y682515D01*
X608367Y682464D01*
X608192Y682403D01*
X608067Y682333D01*
X607992Y682254D01*
X607967Y682165D01*
X604467Y686382D01*
X606967Y685132D01*
D02*
G37*
G36*
X584033Y682165D02*
X584008Y682254D01*
X583933Y682333D01*
X583808Y682403D01*
X583633Y682464D01*
X583408Y682515D01*
X583133Y682558D01*
X582433Y682614D01*
X581533Y682632D01*
X585033Y685132D01*
X587533Y686382D01*
X584033Y682165D01*
D02*
G37*
G36*
X350031Y680250D02*
X350038Y680250D01*
Y677750D01*
X350031Y677750D01*
Y676500D01*
X350005Y676738D01*
X349930Y676950D01*
X349805Y677138D01*
X349631Y677300D01*
X349406Y677438D01*
X349131Y677550D01*
X348863Y677622D01*
X348694Y677570D01*
X348533Y677505D01*
X348390Y677430D01*
X348265Y677345D01*
X348158Y677250D01*
Y677724D01*
X348005Y677738D01*
X347531Y677750D01*
Y680250D01*
X348005Y680263D01*
X348158Y680276D01*
Y680750D01*
X348265Y680655D01*
X348390Y680570D01*
X348533Y680495D01*
X348694Y680430D01*
X348863Y680378D01*
X349131Y680450D01*
X349406Y680563D01*
X349631Y680700D01*
X349805Y680863D01*
X349930Y681050D01*
X350005Y681263D01*
X350031Y681500D01*
Y680250D01*
D02*
G37*
G36*
X342739Y681263D02*
X342814Y681050D01*
X342939Y680863D01*
X343115Y680700D01*
X343340Y680563D01*
X343615Y680450D01*
X343882Y680378D01*
X344051Y680430D01*
X344212Y680495D01*
X344355Y680570D01*
X344480Y680655D01*
X344587Y680750D01*
Y680276D01*
X344739Y680263D01*
X345215Y680250D01*
Y677750D01*
X344739Y677738D01*
X344587Y677724D01*
Y677250D01*
X344480Y677345D01*
X344355Y677430D01*
X344212Y677505D01*
X344051Y677570D01*
X343882Y677622D01*
X343615Y677550D01*
X343340Y677438D01*
X343115Y677300D01*
X342939Y677138D01*
X342814Y676950D01*
X342739Y676738D01*
X342715Y676500D01*
Y677750D01*
X342707Y677750D01*
Y680250D01*
X342715Y680250D01*
Y681500D01*
X342739Y681263D01*
D02*
G37*
G36*
X608000Y717000D02*
X601000Y710000D01*
Y698000D01*
X595000Y692000D01*
Y676632D01*
X592000D01*
Y692000D01*
X584526Y699474D01*
Y818000D01*
X608000D01*
Y717000D01*
D02*
G37*
G36*
X646786Y672500D02*
X646760Y672738D01*
X646685Y672950D01*
X646561Y673138D01*
X646385Y673300D01*
X646161Y673438D01*
X645885Y673550D01*
X645561Y673637D01*
X645185Y673700D01*
X644761Y673737D01*
X644286Y673750D01*
Y676250D01*
X644761Y676263D01*
X645185Y676300D01*
X645561Y676363D01*
X645885Y676450D01*
X646161Y676562D01*
X646385Y676700D01*
X646561Y676862D01*
X646685Y677050D01*
X646760Y677262D01*
X646786Y677500D01*
Y672500D01*
D02*
G37*
G36*
X325390Y674632D02*
X325204Y674562D01*
X325040Y674445D01*
X324898Y674281D01*
X324778Y674070D01*
X324680Y673812D01*
X324603Y673508D01*
X324549Y673156D01*
X324516Y672758D01*
X324505Y672313D01*
X322005D01*
X321994Y672758D01*
X321961Y673156D01*
X321907Y673508D01*
X321830Y673812D01*
X321732Y674070D01*
X321612Y674281D01*
X321470Y674445D01*
X321306Y674562D01*
X321120Y674632D01*
X320913Y674656D01*
X325597D01*
X325390Y674632D01*
D02*
G37*
G36*
X371753Y674631D02*
X371540Y674556D01*
X371353Y674430D01*
X371190Y674256D01*
X371053Y674031D01*
X370940Y673755D01*
X370853Y673430D01*
X370790Y673055D01*
X370752Y672630D01*
X370740Y672156D01*
X368240D01*
X368228Y672630D01*
X368190Y673055D01*
X368128Y673430D01*
X368040Y673755D01*
X367928Y674031D01*
X367790Y674256D01*
X367627Y674430D01*
X367440Y674556D01*
X367228Y674631D01*
X366990Y674656D01*
X371990D01*
X371753Y674631D01*
D02*
G37*
G36*
X690000Y640000D02*
X664000Y614000D01*
X610000D01*
Y642000D01*
X653000D01*
X658000Y647000D01*
Y656000D01*
X657000Y657000D01*
X656500D01*
Y664632D01*
X644500D01*
Y660594D01*
X644460Y660583D01*
X644225Y660544D01*
X643913Y660516D01*
X643488Y660505D01*
X642938Y660260D01*
X642870Y660232D01*
X638445D01*
X627456Y671221D01*
X626613Y671784D01*
X625618Y671982D01*
X611137D01*
X610734Y672234D01*
X610614Y672206D01*
X610501Y672255D01*
X609649Y672273D01*
X609055Y672321D01*
X609048Y672322D01*
X609010Y672337D01*
X609004Y672348D01*
X608922Y672374D01*
X608848Y672404D01*
X608761Y672515D01*
X608507Y672545D01*
X608000Y672756D01*
X602000D01*
Y675998D01*
X602125Y676100D01*
X607875D01*
X608509Y676227D01*
X608592Y676282D01*
X629041D01*
X632162Y673161D01*
X633005Y672598D01*
X634000Y672400D01*
X643625D01*
X643693Y672372D01*
X644243Y672127D01*
X644668Y672116D01*
X644980Y672088D01*
X645215Y672049D01*
X645255Y672038D01*
Y668757D01*
X656255D01*
Y671757D01*
X659000Y674502D01*
Y700000D01*
X664000Y705000D01*
X690000D01*
Y640000D01*
D02*
G37*
G36*
X607992Y671010D02*
X608067Y670931D01*
X608192Y670861D01*
X608367Y670800D01*
X608592Y670749D01*
X608867Y670707D01*
X609567Y670651D01*
X610467Y670632D01*
X606967Y668132D01*
X604467Y666882D01*
X607967Y671099D01*
X607992Y671010D01*
D02*
G37*
G36*
X522799Y669755D02*
X522926Y669676D01*
X523071Y669607D01*
X523234Y669548D01*
X523414Y669497D01*
X523612Y669456D01*
X523828Y669424D01*
X524314Y669387D01*
X524583Y669382D01*
X524736Y666882D01*
X524468Y666877D01*
X523985Y666834D01*
X523772Y666796D01*
X523577Y666748D01*
X523400Y666689D01*
X523241Y666620D01*
X523101Y666540D01*
X522979Y666449D01*
X522875Y666347D01*
X522690Y669842D01*
X522799Y669755D01*
D02*
G37*
G36*
X527775Y665632D02*
X527751Y665870D01*
X527676Y666082D01*
X527551Y666270D01*
X527375Y666432D01*
X527150Y666570D01*
X526875Y666682D01*
X526550Y666770D01*
X526175Y666832D01*
X525751Y666870D01*
X525275Y666882D01*
Y669382D01*
X525751Y669395D01*
X526175Y669432D01*
X526550Y669495D01*
X526875Y669582D01*
X527150Y669695D01*
X527375Y669832D01*
X527551Y669995D01*
X527676Y670182D01*
X527751Y670395D01*
X527775Y670632D01*
Y665632D01*
D02*
G37*
G36*
X557739Y670263D02*
X557814Y670050D01*
X557939Y669863D01*
X558115Y669700D01*
X558340Y669563D01*
X558615Y669450D01*
X558940Y669362D01*
X559314Y669300D01*
X559739Y669262D01*
X560215Y669250D01*
Y666750D01*
X559739Y666738D01*
X559314Y666700D01*
X558940Y666637D01*
X558615Y666550D01*
X558340Y666438D01*
X558115Y666300D01*
X557939Y666137D01*
X557814Y665950D01*
X557739Y665738D01*
X557715Y665500D01*
Y670500D01*
X557739Y670263D01*
D02*
G37*
G36*
X589967Y664665D02*
X589926Y664640D01*
X589889Y664565D01*
X589856Y664440D01*
X589828Y664265D01*
X589804Y664040D01*
X589759Y663065D01*
X589750Y662165D01*
X587250Y665665D01*
X586000Y668165D01*
X589967Y664665D01*
D02*
G37*
G36*
X366237Y665219D02*
X365901Y664866D01*
X365601Y664512D01*
X365336Y664159D01*
X365106Y663805D01*
X364911Y663452D01*
X364752Y663098D01*
X364629Y662745D01*
X364540Y662391D01*
X364487Y662038D01*
X364469Y661684D01*
X360934Y665219D01*
X361287Y665237D01*
X361641Y665290D01*
X361995Y665379D01*
X362348Y665502D01*
X362702Y665661D01*
X363055Y665856D01*
X363409Y666086D01*
X363762Y666351D01*
X364116Y666651D01*
X364469Y666987D01*
X366237Y665219D01*
D02*
G37*
G36*
X330702Y666651D02*
X331056Y666351D01*
X331409Y666086D01*
X331763Y665856D01*
X332117Y665661D01*
X332470Y665502D01*
X332824Y665379D01*
X333177Y665290D01*
X333531Y665237D01*
X333884Y665219D01*
X330531Y661502D01*
X330513Y661856D01*
X330460Y662209D01*
X330371Y662563D01*
X330248Y662916D01*
X330089Y663270D01*
X329894Y663624D01*
X329664Y663977D01*
X329399Y664331D01*
X329099Y664684D01*
X328763Y665038D01*
X330349Y666987D01*
X330702Y666651D01*
D02*
G37*
G36*
X646031Y655132D02*
X646005Y655370D01*
X645930Y655582D01*
X645806Y655770D01*
X645630Y655932D01*
X645406Y656070D01*
X645130Y656182D01*
X644806Y656270D01*
X644430Y656332D01*
X644006Y656370D01*
X643531Y656382D01*
Y658882D01*
X644006Y658895D01*
X644430Y658932D01*
X644806Y658995D01*
X645130Y659082D01*
X645406Y659195D01*
X645630Y659332D01*
X645806Y659495D01*
X645930Y659682D01*
X646005Y659895D01*
X646031Y660132D01*
Y655132D01*
D02*
G37*
G36*
X83376Y666000D02*
Y652124D01*
X48250D01*
Y659834D01*
X55834D01*
X62000Y666000D01*
X83376D01*
X83376Y666000D01*
D02*
G37*
G36*
X99000Y644500D02*
X48250D01*
Y650500D01*
X85000D01*
Y666000D01*
X99000D01*
Y644500D01*
D02*
G37*
G36*
X575369Y649165D02*
X575444Y648953D01*
X575569Y648765D01*
X575745Y648603D01*
X575970Y648465D01*
X576245Y648353D01*
X576570Y648265D01*
X576945Y648203D01*
X577369Y648165D01*
X577845Y648153D01*
Y645653D01*
X577369Y645640D01*
X576945Y645603D01*
X576570Y645540D01*
X576245Y645453D01*
X575970Y645340D01*
X575745Y645203D01*
X575569Y645040D01*
X575444Y644853D01*
X575369Y644640D01*
X575345Y644403D01*
Y649403D01*
X575369Y649165D01*
D02*
G37*
G36*
X566656Y643245D02*
X566631Y643483D01*
X566555Y643695D01*
X566431Y643883D01*
X566255Y644045D01*
X566031Y644183D01*
X565756Y644295D01*
X565430Y644382D01*
X565056Y644445D01*
X564631Y644482D01*
X564156Y644495D01*
Y646995D01*
X564631Y647008D01*
X565056Y647045D01*
X565430Y647107D01*
X565756Y647195D01*
X566031Y647308D01*
X566255Y647445D01*
X566431Y647607D01*
X566555Y647795D01*
X566631Y648008D01*
X566656Y648245D01*
Y643245D01*
D02*
G37*
G36*
X559370Y648008D02*
X559445Y647795D01*
X559570Y647607D01*
X559744Y647445D01*
X559969Y647308D01*
X560244Y647195D01*
X560569Y647107D01*
X560945Y647045D01*
X561370Y647008D01*
X561844Y646995D01*
Y644495D01*
X561370Y644482D01*
X560945Y644445D01*
X560569Y644382D01*
X560244Y644295D01*
X559969Y644183D01*
X559744Y644045D01*
X559570Y643883D01*
X559445Y643695D01*
X559370Y643483D01*
X559344Y643245D01*
Y648245D01*
X559370Y648008D01*
D02*
G37*
G36*
X59745Y637428D02*
X59819Y637391D01*
X59945Y637358D01*
X60120Y637329D01*
X60345Y637305D01*
X61319Y637259D01*
X62220Y637250D01*
Y634750D01*
X61744Y634748D01*
X59945Y634642D01*
X59819Y634609D01*
X59745Y634572D01*
X59720Y634530D01*
Y637469D01*
X59745Y637428D01*
D02*
G37*
G36*
X119994Y638262D02*
X120070Y638050D01*
X120195Y637863D01*
X120370Y637700D01*
X120595Y637562D01*
X120870Y637450D01*
X121194Y637363D01*
X121339Y637338D01*
X121500Y637375D01*
X121679Y637430D01*
X121840Y637495D01*
X121983Y637570D01*
X122108Y637655D01*
X122215Y637750D01*
Y637257D01*
X122470Y637250D01*
Y634750D01*
X122215Y634743D01*
Y634250D01*
X122108Y634345D01*
X121983Y634430D01*
X121840Y634505D01*
X121679Y634570D01*
X121500Y634625D01*
X121339Y634662D01*
X121194Y634637D01*
X120870Y634550D01*
X120595Y634437D01*
X120370Y634300D01*
X120195Y634137D01*
X120070Y633950D01*
X119994Y633737D01*
X119970Y633500D01*
Y638500D01*
X119994Y638262D01*
D02*
G37*
G36*
X96540Y633500D02*
X96516Y633737D01*
X96440Y633950D01*
X96315Y634137D01*
X96140Y634300D01*
X95915Y634437D01*
X95640Y634550D01*
X95316Y634637D01*
X94941Y634700D01*
X94515Y634738D01*
X94040Y634750D01*
Y637250D01*
X94515Y637262D01*
X94941Y637300D01*
X95316Y637363D01*
X95640Y637450D01*
X95915Y637562D01*
X96140Y637700D01*
X96315Y637863D01*
X96440Y638050D01*
X96516Y638262D01*
X96540Y638500D01*
Y633500D01*
D02*
G37*
G36*
X59741Y632380D02*
X59804Y632300D01*
X59909Y632230D01*
X60057Y632169D01*
X60246Y632117D01*
X60478Y632075D01*
X60752Y632042D01*
X61426Y632005D01*
X61827Y632000D01*
Y629500D01*
X59720Y629530D01*
Y632470D01*
X59741Y632380D01*
D02*
G37*
G36*
X575369Y632267D02*
X575444Y632055D01*
X575569Y631867D01*
X575745Y631705D01*
X575970Y631567D01*
X576245Y631455D01*
X576570Y631367D01*
X576945Y631305D01*
X577369Y631268D01*
X577845Y631255D01*
Y628755D01*
X577369Y628742D01*
X576945Y628705D01*
X576570Y628643D01*
X576245Y628555D01*
X575970Y628442D01*
X575745Y628305D01*
X575569Y628143D01*
X575444Y627955D01*
X575369Y627743D01*
X575345Y627505D01*
Y632505D01*
X575369Y632267D01*
D02*
G37*
G36*
X48281Y624530D02*
X48256Y624572D01*
X48180Y624609D01*
X48056Y624642D01*
X47881Y624671D01*
X47656Y624695D01*
X46680Y624741D01*
X45781Y624750D01*
Y627250D01*
X46255Y627252D01*
X48056Y627358D01*
X48180Y627391D01*
X48256Y627428D01*
X48281Y627469D01*
Y624530D01*
D02*
G37*
G36*
X59733Y622103D02*
X59775Y622081D01*
X59843Y622062D01*
X59940Y622046D01*
X60064Y622032D01*
X60601Y622005D01*
X61096Y622000D01*
Y619500D01*
X59720Y619530D01*
Y622127D01*
X59733Y622103D01*
D02*
G37*
G36*
X69128Y623675D02*
X69203Y623250D01*
X69328Y622875D01*
X69503Y622550D01*
X69728Y622275D01*
X70003Y622050D01*
X70328Y621875D01*
X70703Y621750D01*
X71128Y621675D01*
X71603Y621650D01*
X67853Y619150D01*
X64103Y621650D01*
X64578Y621675D01*
X65003Y621750D01*
X65378Y621875D01*
X65703Y622050D01*
X65978Y622275D01*
X66203Y622550D01*
X66378Y622875D01*
X66503Y623250D01*
X66578Y623675D01*
X66603Y624150D01*
X69103D01*
X69128Y623675D01*
D02*
G37*
G36*
X61096Y615000D02*
X60835Y614999D01*
X59843Y614938D01*
X59775Y614919D01*
X59733Y614897D01*
X59720Y614873D01*
Y617469D01*
X61096Y617500D01*
Y615000D01*
D02*
G37*
G36*
X48281Y614530D02*
X48256Y614572D01*
X48180Y614609D01*
X48056Y614642D01*
X47881Y614671D01*
X47656Y614695D01*
X46680Y614741D01*
X45781Y614750D01*
Y617250D01*
X46255Y617252D01*
X48056Y617358D01*
X48180Y617391D01*
X48256Y617428D01*
X48281Y617469D01*
Y614530D01*
D02*
G37*
G36*
X559375Y651245D02*
X549125D01*
Y640245D01*
X559375D01*
Y611000D01*
X559000D01*
Y598000D01*
X569650Y587350D01*
Y572435D01*
X552361D01*
X546148Y578648D01*
X545000Y579124D01*
X535672D01*
X534124Y580672D01*
Y595000D01*
X533648Y596148D01*
X531148Y598648D01*
X530000Y599124D01*
X518172D01*
X516624Y600672D01*
Y605500D01*
X516148Y606648D01*
X515374Y606969D01*
Y611000D01*
Y618031D01*
X516148Y618352D01*
X516624Y619500D01*
Y627500D01*
X516148Y628648D01*
X515000Y629124D01*
X492500D01*
X491352Y628648D01*
X481352Y618648D01*
X480876Y617500D01*
Y611000D01*
X436635D01*
X431885Y606250D01*
X428750D01*
Y593750D01*
X430250D01*
Y584624D01*
X414000D01*
Y632000D01*
X428000Y646000D01*
X505000D01*
X518284Y659284D01*
X559375D01*
Y651245D01*
D02*
G37*
G36*
X59745Y607428D02*
X59819Y607391D01*
X59945Y607358D01*
X60120Y607329D01*
X60345Y607305D01*
X61319Y607259D01*
X62220Y607250D01*
Y604750D01*
X61744Y604748D01*
X59945Y604642D01*
X59819Y604609D01*
X59745Y604572D01*
X59720Y604530D01*
Y607469D01*
X59745Y607428D01*
D02*
G37*
G36*
X364412Y606255D02*
X364361Y606180D01*
X364316Y606055D01*
X364277Y605881D01*
X364244Y605656D01*
X364196Y605056D01*
X364169Y603781D01*
X361669D01*
X361656Y604255D01*
X361619Y604680D01*
X361556Y605056D01*
X361469Y605381D01*
X361356Y605656D01*
X361219Y605881D01*
X361056Y606055D01*
X360869Y606180D01*
X360656Y606255D01*
X360419Y606281D01*
X364469D01*
X364412Y606255D01*
D02*
G37*
G36*
X334275D02*
X334062Y606180D01*
X333875Y606055D01*
X333712Y605881D01*
X333575Y605656D01*
X333462Y605381D01*
X333375Y605056D01*
X333312Y604680D01*
X333275Y604255D01*
X333262Y603781D01*
X330762D01*
X330760Y604255D01*
X330649Y606055D01*
X330614Y606180D01*
X330574Y606255D01*
X330531Y606281D01*
X334512D01*
X334275Y606255D01*
D02*
G37*
G36*
X106156Y603500D02*
X106131Y603737D01*
X106055Y603950D01*
X105931Y604137D01*
X105756Y604300D01*
X105531Y604437D01*
X105255Y604550D01*
X104930Y604637D01*
X104556Y604700D01*
X104130Y604738D01*
X103656Y604750D01*
Y607250D01*
X104130Y607260D01*
X104930Y607337D01*
X105255Y607404D01*
X105531Y607491D01*
X105756Y607597D01*
X105931Y607723D01*
X106055Y607867D01*
X106131Y608031D01*
X106156Y608214D01*
Y603500D01*
D02*
G37*
G36*
X364181Y601744D02*
X364219Y601320D01*
X364281Y600945D01*
X364369Y600620D01*
X364481Y600345D01*
X364619Y600120D01*
X364781Y599944D01*
X364969Y599819D01*
X365181Y599744D01*
X365419Y599720D01*
X361530D01*
X361557Y599744D01*
X361580Y599819D01*
X361601Y599944D01*
X361619Y600120D01*
X361656Y600945D01*
X361669Y602220D01*
X364169D01*
X364181Y601744D01*
D02*
G37*
G36*
X333269D02*
X333326Y600945D01*
X333375Y600620D01*
X333439Y600345D01*
X333517Y600120D01*
X333609Y599944D01*
X333715Y599819D01*
X333835Y599744D01*
X333969Y599720D01*
X329512D01*
X329750Y599744D01*
X329962Y599819D01*
X330150Y599944D01*
X330312Y600120D01*
X330450Y600345D01*
X330562Y600620D01*
X330650Y600945D01*
X330712Y601320D01*
X330750Y601744D01*
X330762Y602220D01*
X333262D01*
X333269Y601744D01*
D02*
G37*
G36*
X350531Y597298D02*
X350556Y597294D01*
X350789Y597269D01*
X351310Y597250D01*
X351365Y594750D01*
X351096Y594745D01*
X350613Y594704D01*
X350531Y594690D01*
Y593500D01*
X350505Y593737D01*
X350430Y593950D01*
X350305Y594137D01*
X350131Y594300D01*
X349906Y594437D01*
X349818Y594473D01*
X349722Y594421D01*
X349598Y594334D01*
X349492Y594236D01*
X349485Y594589D01*
X349305Y594637D01*
X348931Y594700D01*
X348506Y594738D01*
X348031Y594750D01*
Y597250D01*
X348506Y597262D01*
X348931Y597300D01*
X349305Y597363D01*
X349431Y597396D01*
X349424Y597736D01*
X349532Y597644D01*
X349658Y597561D01*
X349767Y597506D01*
X349906Y597562D01*
X350131Y597700D01*
X350305Y597863D01*
X350430Y598050D01*
X350505Y598262D01*
X350531Y598500D01*
Y597298D01*
D02*
G37*
G36*
X344995Y598262D02*
X345070Y598050D01*
X345195Y597863D01*
X345369Y597700D01*
X345594Y597562D01*
X345648Y597541D01*
X345688Y597561D01*
X345814Y597644D01*
X345922Y597736D01*
X345916Y597438D01*
X346194Y597363D01*
X346570Y597300D01*
X346995Y597262D01*
X347469Y597250D01*
Y594750D01*
X346995Y594738D01*
X346570Y594700D01*
X346194Y594637D01*
X345869Y594550D01*
X345860Y594546D01*
X345854Y594236D01*
X345748Y594334D01*
X345625Y594421D01*
X345595Y594437D01*
X345594Y594437D01*
X345369Y594300D01*
X345195Y594137D01*
X345070Y593950D01*
X344995Y593737D01*
X344969Y593500D01*
Y594663D01*
X344948Y594668D01*
X344733Y594704D01*
X344250Y594745D01*
X343981Y594750D01*
X344037Y597250D01*
X344557Y597269D01*
X344790Y597294D01*
X344969Y597322D01*
Y598500D01*
X344995Y598262D01*
D02*
G37*
G36*
X365066Y592281D02*
X364712Y592263D01*
X364359Y592210D01*
X364005Y592121D01*
X363652Y591998D01*
X363298Y591838D01*
X362945Y591644D01*
X362591Y591414D01*
X362238Y591149D01*
X361884Y590849D01*
X361530Y590513D01*
X359763Y592281D01*
X360099Y592634D01*
X360399Y592988D01*
X360664Y593341D01*
X360894Y593695D01*
X361089Y594048D01*
X361248Y594402D01*
X361371Y594755D01*
X361460Y595109D01*
X361513Y595462D01*
X361530Y595816D01*
X365066Y592281D01*
D02*
G37*
G36*
X333987Y595462D02*
X334040Y595109D01*
X334129Y594755D01*
X334252Y594402D01*
X334411Y594048D01*
X334606Y593695D01*
X334836Y593341D01*
X335101Y592988D01*
X335401Y592634D01*
X335737Y592281D01*
X333969Y590513D01*
X333616Y590849D01*
X333262Y591149D01*
X332909Y591414D01*
X332555Y591644D01*
X332202Y591838D01*
X331848Y591998D01*
X331495Y592121D01*
X331141Y592210D01*
X330788Y592263D01*
X330434Y592281D01*
X333969Y595816D01*
X333987Y595462D01*
D02*
G37*
G36*
X112262Y584761D02*
X112050Y584686D01*
X111862Y584561D01*
X111700Y584385D01*
X111562Y584160D01*
X111450Y583885D01*
X111362Y583560D01*
X111300Y583186D01*
X111286Y583024D01*
X111295Y582912D01*
X111330Y582697D01*
X111375Y582500D01*
X111430Y582321D01*
X111495Y582160D01*
X111570Y582017D01*
X111655Y581892D01*
X111750Y581785D01*
X108250D01*
X108345Y581892D01*
X108430Y582017D01*
X108505Y582160D01*
X108570Y582321D01*
X108625Y582500D01*
X108670Y582697D01*
X108705Y582912D01*
X108715Y583010D01*
X108700Y583186D01*
X108638Y583560D01*
X108550Y583885D01*
X108438Y584160D01*
X108300Y584385D01*
X108138Y584561D01*
X107950Y584686D01*
X107738Y584761D01*
X107500Y584785D01*
X112500D01*
X112262Y584761D01*
D02*
G37*
G36*
X99000Y581000D02*
X85000D01*
Y596500D01*
X48250D01*
Y602500D01*
X99000D01*
Y581000D01*
D02*
G37*
G36*
X83376Y581000D02*
X83376Y581000D01*
X62000D01*
X55834Y587166D01*
X48250D01*
Y594876D01*
X83376D01*
Y581000D01*
D02*
G37*
G36*
X353611Y582657D02*
X353643Y582261D01*
X353697Y581912D01*
X353773Y581609D01*
X353870Y581352D01*
X353989Y581142D01*
X354129Y580979D01*
X354291Y580863D01*
X354475Y580793D01*
X354680Y580770D01*
X350019D01*
X350225Y580793D01*
X350409Y580863D01*
X350571Y580979D01*
X350711Y581142D01*
X350830Y581352D01*
X350927Y581609D01*
X351003Y581912D01*
X351057Y582261D01*
X351089Y582657D01*
X351100Y583100D01*
X353600D01*
X353611Y582657D01*
D02*
G37*
G36*
X340913Y582794D02*
X340950Y582369D01*
X341012Y581995D01*
X341100Y581670D01*
X341213Y581395D01*
X341350Y581170D01*
X341512Y580994D01*
X341700Y580869D01*
X341912Y580794D01*
X342150Y580770D01*
X337150D01*
X337388Y580794D01*
X337600Y580869D01*
X337788Y580994D01*
X337950Y581170D01*
X338088Y581395D01*
X338200Y581670D01*
X338288Y581995D01*
X338350Y582369D01*
X338387Y582794D01*
X338400Y583270D01*
X340900D01*
X340913Y582794D01*
D02*
G37*
G36*
X678710Y576250D02*
X678603Y576345D01*
X678478Y576430D01*
X678335Y576505D01*
X678174Y576570D01*
X677995Y576625D01*
X677798Y576670D01*
X677583Y576705D01*
X677350Y576730D01*
X676830Y576750D01*
Y579250D01*
X677099Y579255D01*
X677583Y579295D01*
X677798Y579330D01*
X677995Y579375D01*
X678174Y579430D01*
X678335Y579495D01*
X678478Y579570D01*
X678603Y579655D01*
X678710Y579750D01*
Y576250D01*
D02*
G37*
G36*
X673240Y580262D02*
X673315Y580050D01*
X673439Y579863D01*
X673615Y579700D01*
X673839Y579562D01*
X674115Y579450D01*
X674439Y579362D01*
X674815Y579300D01*
X675239Y579263D01*
X675714Y579250D01*
Y576750D01*
X675239Y576738D01*
X674815Y576700D01*
X674439Y576637D01*
X674115Y576550D01*
X673839Y576437D01*
X673615Y576300D01*
X673439Y576138D01*
X673315Y575950D01*
X673240Y575737D01*
X673214Y575500D01*
Y580500D01*
X673240Y580262D01*
D02*
G37*
G36*
X649786Y575235D02*
X649761Y575472D01*
X649686Y575685D01*
X649560Y575872D01*
X649386Y576035D01*
X649161Y576172D01*
X648885Y576285D01*
X648560Y576372D01*
X648186Y576435D01*
X647760Y576472D01*
X647286Y576485D01*
Y578985D01*
X647760Y578997D01*
X648186Y579035D01*
X648560Y579097D01*
X648885Y579185D01*
X649161Y579297D01*
X649386Y579435D01*
X649560Y579597D01*
X649686Y579785D01*
X649761Y579997D01*
X649786Y580235D01*
Y575235D01*
D02*
G37*
G36*
X323231Y573000D02*
X323205Y573237D01*
X323130Y573450D01*
X323005Y573638D01*
X322831Y573800D01*
X322606Y573937D01*
X322331Y574050D01*
X322006Y574137D01*
X321631Y574200D01*
X321205Y574238D01*
X320731Y574250D01*
Y576750D01*
X321205Y576763D01*
X321631Y576800D01*
X322006Y576862D01*
X322331Y576950D01*
X322606Y577062D01*
X322831Y577200D01*
X323005Y577363D01*
X323130Y577550D01*
X323205Y577762D01*
X323231Y578000D01*
Y573000D01*
D02*
G37*
G36*
X315494Y577762D02*
X315569Y577550D01*
X315695Y577363D01*
X315870Y577200D01*
X316094Y577062D01*
X316369Y576950D01*
X316695Y576862D01*
X317069Y576800D01*
X317495Y576763D01*
X317969Y576750D01*
Y574250D01*
X317495Y574238D01*
X317069Y574200D01*
X316695Y574137D01*
X316369Y574050D01*
X316094Y573937D01*
X315870Y573800D01*
X315695Y573638D01*
X315569Y573450D01*
X315494Y573237D01*
X315469Y573000D01*
Y578000D01*
X315494Y577762D01*
D02*
G37*
G36*
X376530Y572550D02*
X376506Y572788D01*
X376431Y573000D01*
X376306Y573187D01*
X376130Y573350D01*
X375905Y573488D01*
X375630Y573600D01*
X375305Y573688D01*
X374930Y573750D01*
X374506Y573787D01*
X374030Y573800D01*
Y576300D01*
X374506Y576312D01*
X374930Y576350D01*
X375305Y576413D01*
X375630Y576500D01*
X375905Y576613D01*
X376130Y576750D01*
X376306Y576912D01*
X376431Y577100D01*
X376506Y577313D01*
X376530Y577550D01*
Y572550D01*
D02*
G37*
G36*
X368795Y577313D02*
X368870Y577100D01*
X368994Y576912D01*
X369170Y576750D01*
X369394Y576613D01*
X369669Y576500D01*
X369995Y576413D01*
X370369Y576350D01*
X370794Y576312D01*
X371269Y576300D01*
Y573800D01*
X370794Y573787D01*
X370369Y573750D01*
X369995Y573688D01*
X369669Y573600D01*
X369394Y573488D01*
X369170Y573350D01*
X368994Y573187D01*
X368870Y573000D01*
X368795Y572788D01*
X368769Y572550D01*
Y577550D01*
X368795Y577313D01*
D02*
G37*
G36*
X627044Y576358D02*
X627119Y576227D01*
X627244Y576112D01*
X627420Y576012D01*
X627645Y575927D01*
X627920Y575858D01*
X628245Y575804D01*
X628619Y575765D01*
X629520Y575735D01*
Y573235D01*
X629044Y573227D01*
X628245Y573166D01*
X627920Y573112D01*
X627645Y573042D01*
X627420Y572958D01*
X627244Y572858D01*
X627119Y572742D01*
X627044Y572612D01*
X627020Y572465D01*
Y576504D01*
X627044Y576358D01*
D02*
G37*
G36*
X330687Y572513D02*
X330740Y572159D01*
X330829Y571805D01*
X330952Y571452D01*
X331111Y571098D01*
X331306Y570745D01*
X331536Y570391D01*
X331801Y570038D01*
X332101Y569684D01*
X332437Y569330D01*
X330670Y567563D01*
X330316Y567899D01*
X329962Y568199D01*
X329609Y568464D01*
X329255Y568694D01*
X328902Y568889D01*
X328548Y569048D01*
X328195Y569171D01*
X327841Y569260D01*
X327487Y569313D01*
X327134Y569330D01*
X330670Y572866D01*
X330687Y572513D01*
D02*
G37*
G36*
X611381Y565965D02*
X611356Y566111D01*
X611281Y566242D01*
X611156Y566358D01*
X610980Y566458D01*
X610756Y566542D01*
X610480Y566612D01*
X610155Y566665D01*
X609781Y566704D01*
X608881Y566735D01*
Y569235D01*
X609356Y569242D01*
X610155Y569304D01*
X610480Y569358D01*
X610756Y569427D01*
X610980Y569512D01*
X611156Y569612D01*
X611281Y569727D01*
X611356Y569858D01*
X611381Y570004D01*
Y565965D01*
D02*
G37*
G36*
X515000Y619500D02*
X513750D01*
Y605500D01*
X515000D01*
Y600000D01*
X517500Y597500D01*
X530000D01*
X532500Y595000D01*
Y580000D01*
X535000Y577500D01*
X545000D01*
X552465Y570035D01*
X563723D01*
Y565935D01*
X454624D01*
Y583000D01*
X454148Y584148D01*
X453000Y584624D01*
X431874D01*
Y593750D01*
X431398Y594898D01*
X430374Y595322D01*
Y604626D01*
X431885D01*
X433033Y605102D01*
X437308Y609376D01*
X480876D01*
X482024Y609852D01*
X482500Y611000D01*
Y617500D01*
X492500Y627500D01*
X515000D01*
Y619500D01*
D02*
G37*
G36*
X627044Y563358D02*
X627119Y563227D01*
X627244Y563112D01*
X627420Y563012D01*
X627645Y562927D01*
X627920Y562858D01*
X628245Y562804D01*
X628619Y562766D01*
X629520Y562735D01*
Y560235D01*
X629044Y560227D01*
X628245Y560165D01*
X627920Y560112D01*
X627645Y560042D01*
X627420Y559958D01*
X627244Y559858D01*
X627119Y559742D01*
X627044Y559612D01*
X627020Y559465D01*
Y563504D01*
X627044Y563358D01*
D02*
G37*
G36*
X376530Y552639D02*
X376506Y552876D01*
X376431Y553089D01*
X376306Y553276D01*
X376130Y553439D01*
X375905Y553576D01*
X375630Y553689D01*
X375305Y553776D01*
X374930Y553839D01*
X374506Y553876D01*
X374484Y553877D01*
X374084Y553844D01*
X373869Y553809D01*
X373672Y553764D01*
X373493Y553709D01*
X373332Y553644D01*
X373189Y553569D01*
X373064Y553484D01*
X372957Y553389D01*
Y556889D01*
X373064Y556794D01*
X373189Y556709D01*
X373332Y556634D01*
X373493Y556569D01*
X373672Y556514D01*
X373869Y556469D01*
X374084Y556434D01*
X374317Y556409D01*
X374507Y556401D01*
X374930Y556439D01*
X375305Y556501D01*
X375630Y556589D01*
X375905Y556701D01*
X376130Y556839D01*
X376306Y557001D01*
X376431Y557189D01*
X376506Y557401D01*
X376530Y557639D01*
Y552639D01*
D02*
G37*
G36*
X627044Y556858D02*
X627119Y556727D01*
X627244Y556612D01*
X627420Y556512D01*
X627645Y556427D01*
X627920Y556358D01*
X628245Y556304D01*
X628619Y556265D01*
X629520Y556235D01*
Y553735D01*
X629044Y553727D01*
X628245Y553666D01*
X627920Y553612D01*
X627645Y553542D01*
X627420Y553458D01*
X627244Y553358D01*
X627119Y553242D01*
X627044Y553111D01*
X627020Y552965D01*
Y557004D01*
X627044Y556858D01*
D02*
G37*
G36*
X648634Y556636D02*
X648988Y556336D01*
X649341Y556071D01*
X649695Y555841D01*
X650048Y555646D01*
X650402Y555487D01*
X650755Y555363D01*
X651109Y555275D01*
X651462Y555222D01*
X651816Y555204D01*
X648280Y551669D01*
X648263Y552022D01*
X648210Y552376D01*
X648121Y552729D01*
X647998Y553083D01*
X647839Y553437D01*
X647644Y553790D01*
X647414Y554144D01*
X647149Y554497D01*
X646849Y554851D01*
X646513Y555204D01*
X648280Y556972D01*
X648634Y556636D01*
D02*
G37*
G36*
X683215Y547250D02*
X683108Y547345D01*
X682983Y547430D01*
X682840Y547505D01*
X682679Y547570D01*
X682500Y547625D01*
X682303Y547670D01*
X682088Y547705D01*
X681855Y547730D01*
X681335Y547750D01*
Y550250D01*
X681604Y550255D01*
X682088Y550295D01*
X682303Y550330D01*
X682500Y550375D01*
X682679Y550430D01*
X682840Y550495D01*
X682983Y550570D01*
X683108Y550655D01*
X683215Y550750D01*
Y547250D01*
D02*
G37*
G36*
X678244Y551263D02*
X678319Y551050D01*
X678445Y550863D01*
X678620Y550700D01*
X678845Y550563D01*
X679119Y550450D01*
X679445Y550363D01*
X679819Y550300D01*
X680245Y550262D01*
X680720Y550250D01*
Y547750D01*
X680245Y547738D01*
X679819Y547700D01*
X679445Y547637D01*
X679119Y547550D01*
X678845Y547438D01*
X678620Y547300D01*
X678445Y547137D01*
X678319Y546950D01*
X678244Y546738D01*
X678220Y546500D01*
Y551500D01*
X678244Y551263D01*
D02*
G37*
G36*
X573531Y534500D02*
X573506Y534738D01*
X573430Y534950D01*
X573306Y535137D01*
X573130Y535300D01*
X572906Y535438D01*
X572631Y535550D01*
X572305Y535638D01*
X571931Y535700D01*
X571506Y535737D01*
X571031Y535750D01*
Y538250D01*
X571506Y538262D01*
X571931Y538300D01*
X572305Y538363D01*
X572631Y538450D01*
X572906Y538563D01*
X573130Y538700D01*
X573306Y538862D01*
X573430Y539050D01*
X573506Y539263D01*
X573531Y539500D01*
Y534500D01*
D02*
G37*
G36*
X600000Y661000D02*
X607000Y654000D01*
Y571000D01*
X588935Y552935D01*
X566000D01*
Y539240D01*
X566067Y539050D01*
X566192Y538862D01*
X566367Y538700D01*
X566592Y538563D01*
X566867Y538450D01*
X567192Y538363D01*
X567567Y538300D01*
X567992Y538262D01*
X568467Y538250D01*
Y535750D01*
X567992Y535737D01*
X567567Y535700D01*
X567192Y535638D01*
X566867Y535550D01*
X566592Y535438D01*
X566367Y535300D01*
X566192Y535137D01*
X566067Y534950D01*
X566000Y534760D01*
Y532000D01*
X559540D01*
Y557035D01*
X573035D01*
X585000Y569000D01*
Y648000D01*
X597000Y660000D01*
Y681294D01*
X600000D01*
Y661000D01*
D02*
G37*
G36*
X676960Y529250D02*
X676853Y529345D01*
X676728Y529430D01*
X676585Y529505D01*
X676424Y529570D01*
X676245Y529625D01*
X676048Y529670D01*
X675833Y529705D01*
X675600Y529730D01*
X675080Y529750D01*
Y532250D01*
X675349Y532255D01*
X675833Y532295D01*
X676048Y532330D01*
X676245Y532375D01*
X676424Y532430D01*
X676585Y532495D01*
X676728Y532570D01*
X676853Y532655D01*
X676960Y532750D01*
Y529250D01*
D02*
G37*
G36*
X328213Y530695D02*
X328250Y530270D01*
X328312Y529894D01*
X328400Y529570D01*
X328512Y529295D01*
X328650Y529070D01*
X328812Y528895D01*
X329000Y528769D01*
X329212Y528694D01*
X329450Y528670D01*
X324450D01*
X324688Y528694D01*
X324900Y528769D01*
X325088Y528895D01*
X325250Y529070D01*
X325387Y529295D01*
X325500Y529570D01*
X325588Y529894D01*
X325650Y530270D01*
X325687Y530695D01*
X325700Y531170D01*
X328200D01*
X328213Y530695D01*
D02*
G37*
G36*
X671489Y533262D02*
X671564Y533050D01*
X671690Y532863D01*
X671864Y532700D01*
X672089Y532562D01*
X672365Y532450D01*
X672690Y532363D01*
X673064Y532300D01*
X673490Y532262D01*
X673964Y532250D01*
Y529750D01*
X673490Y529738D01*
X673064Y529700D01*
X672690Y529637D01*
X672365Y529550D01*
X672089Y529437D01*
X671864Y529300D01*
X671690Y529137D01*
X671564Y528950D01*
X671489Y528737D01*
X671464Y528500D01*
Y533500D01*
X671489Y533262D01*
D02*
G37*
G36*
X648036Y528235D02*
X648010Y528472D01*
X647935Y528685D01*
X647811Y528872D01*
X647635Y529035D01*
X647411Y529172D01*
X647135Y529285D01*
X646811Y529372D01*
X646435Y529435D01*
X646011Y529472D01*
X645536Y529485D01*
Y531985D01*
X646011Y531997D01*
X646435Y532035D01*
X646811Y532097D01*
X647135Y532185D01*
X647411Y532297D01*
X647635Y532435D01*
X647811Y532597D01*
X647935Y532785D01*
X648010Y532997D01*
X648036Y533235D01*
Y528235D01*
D02*
G37*
G36*
X453000Y564000D02*
Y522500D01*
X432925D01*
X410000Y545425D01*
Y583000D01*
X453000D01*
Y564000D01*
D02*
G37*
G36*
X368795Y525213D02*
X368870Y525000D01*
X368994Y524813D01*
X369170Y524650D01*
X369394Y524512D01*
X369669Y524400D01*
X369995Y524313D01*
X370369Y524250D01*
X370794Y524212D01*
X371269Y524200D01*
Y521700D01*
X370794Y521688D01*
X370369Y521650D01*
X369995Y521587D01*
X369669Y521500D01*
X369394Y521387D01*
X369170Y521250D01*
X368994Y521087D01*
X368870Y520900D01*
X368795Y520687D01*
X368769Y520450D01*
Y525450D01*
X368795Y525213D01*
D02*
G37*
G36*
X564712Y563466D02*
Y559435D01*
X554435D01*
X553535Y558535D01*
X552450D01*
Y557450D01*
X550000Y555000D01*
Y520000D01*
X522000D01*
Y549500D01*
X525000Y552500D01*
Y564311D01*
X563723D01*
X564712Y563466D01*
D02*
G37*
G36*
X523376Y553172D02*
X521802Y551598D01*
X520706D01*
Y550296D01*
X520376Y549500D01*
Y520000D01*
X454203D01*
X453950Y521270D01*
X454148Y521352D01*
X454624Y522500D01*
Y564311D01*
X523376D01*
Y553172D01*
D02*
G37*
G36*
X356100Y514730D02*
X353600D01*
X353587Y515205D01*
X353550Y515630D01*
X353488Y516006D01*
X353400Y516330D01*
X353288Y516605D01*
X353150Y516830D01*
X352988Y517006D01*
X352800Y517131D01*
X352588Y517206D01*
X352350Y517230D01*
X356069D01*
X356100Y514730D01*
D02*
G37*
G36*
X341912Y517206D02*
X341700Y517131D01*
X341512Y517006D01*
X341350Y516830D01*
X341213Y516605D01*
X341100Y516330D01*
X341012Y516006D01*
X340950Y515630D01*
X340913Y515205D01*
X340900Y514730D01*
X338400D01*
X338387Y515205D01*
X338350Y515630D01*
X338288Y516006D01*
X338200Y516330D01*
X338088Y516605D01*
X337950Y516830D01*
X337788Y517006D01*
X337600Y517131D01*
X337388Y517206D01*
X337150Y517230D01*
X342150D01*
X341912Y517206D01*
D02*
G37*
G36*
X356113Y513494D02*
X356150Y513069D01*
X356213Y512695D01*
X356300Y512369D01*
X356413Y512094D01*
X356550Y511870D01*
X356712Y511694D01*
X356900Y511570D01*
X357113Y511494D01*
X357350Y511469D01*
X352350D01*
X352588Y511494D01*
X352800Y511570D01*
X352988Y511694D01*
X353150Y511870D01*
X353288Y512094D01*
X353400Y512369D01*
X353488Y512695D01*
X353550Y513069D01*
X353587Y513494D01*
X353600Y513969D01*
X356100D01*
X356113Y513494D01*
D02*
G37*
G36*
X340906D02*
X340991Y512369D01*
X341042Y512094D01*
X341105Y511870D01*
X341179Y511694D01*
X341264Y511570D01*
X341361Y511494D01*
X341469Y511469D01*
X337150D01*
X337388Y511494D01*
X337600Y511570D01*
X337788Y511694D01*
X337950Y511870D01*
X338088Y512094D01*
X338200Y512369D01*
X338288Y512695D01*
X338350Y513069D01*
X338387Y513494D01*
X338400Y513969D01*
X340900D01*
X340906Y513494D01*
D02*
G37*
G36*
X356105Y509027D02*
X356148Y508544D01*
X356185Y508330D01*
X356233Y508135D01*
X356291Y507958D01*
X356360Y507799D01*
X356440Y507658D01*
X356530Y507536D01*
X356631Y507432D01*
X353135Y507271D01*
X353223Y507379D01*
X353302Y507506D01*
X353372Y507651D01*
X353433Y507813D01*
X353484Y507993D01*
X353526Y508191D01*
X353558Y508407D01*
X353595Y508893D01*
X353600Y509162D01*
X356100Y509295D01*
X356105Y509027D01*
D02*
G37*
G36*
X340475Y507708D02*
X340276Y507506D01*
X339608Y506736D01*
X339540Y506630D01*
X339494Y506540D01*
X339469Y506466D01*
X339467Y506408D01*
X337408Y508466D01*
X337466Y508469D01*
X337540Y508494D01*
X337630Y508540D01*
X337736Y508608D01*
X337858Y508698D01*
X338150Y508944D01*
X338506Y509276D01*
X338708Y509476D01*
X340475Y507708D01*
D02*
G37*
G36*
X403975Y476500D02*
X403832Y476492D01*
X403684Y476463D01*
X403530Y476415D01*
X403370Y476347D01*
X403204Y476260D01*
X403033Y476152D01*
X402856Y476025D01*
X402674Y475878D01*
X402292Y475525D01*
X400524Y477292D01*
X400711Y477486D01*
X401025Y477856D01*
X401152Y478033D01*
X401260Y478204D01*
X401347Y478370D01*
X401415Y478530D01*
X401463Y478684D01*
X401492Y478832D01*
X401500Y478975D01*
X403975Y476500D01*
D02*
G37*
G36*
X381225Y476538D02*
X381140Y476413D01*
X381065Y476270D01*
X381000Y476109D01*
X380945Y475930D01*
X380900Y475733D01*
X380865Y475518D01*
X380840Y475285D01*
X380820Y474765D01*
X378320D01*
X378315Y475034D01*
X378275Y475518D01*
X378240Y475733D01*
X378195Y475930D01*
X378140Y476109D01*
X378075Y476270D01*
X378000Y476413D01*
X377915Y476538D01*
X377820Y476645D01*
X381320D01*
X381225Y476538D01*
D02*
G37*
G36*
X406282Y466197D02*
X406186Y466091D01*
X406100Y465966D01*
X406023Y465824D01*
X405957Y465663D01*
X405902Y465485D01*
X405856Y465288D01*
X405821Y465073D01*
X405795Y464840D01*
X405775Y464321D01*
X403275Y464350D01*
X403270Y464619D01*
X403231Y465103D01*
X403196Y465318D01*
X403152Y465515D01*
X403098Y465695D01*
X403033Y465856D01*
X402960Y465999D01*
X402876Y466125D01*
X402782Y466232D01*
X406282Y466197D01*
D02*
G37*
G36*
X471282Y464197D02*
X471186Y464091D01*
X471100Y463966D01*
X471023Y463824D01*
X470957Y463663D01*
X470902Y463484D01*
X470856Y463288D01*
X470821Y463073D01*
X470795Y462840D01*
X470775Y462321D01*
X468275Y462350D01*
X468270Y462619D01*
X468231Y463103D01*
X468196Y463318D01*
X468152Y463515D01*
X468098Y463694D01*
X468033Y463856D01*
X467960Y463999D01*
X467876Y464125D01*
X467782Y464232D01*
X471282Y464197D01*
D02*
G37*
G36*
X456109Y463994D02*
X456026Y463869D01*
X455952Y463725D01*
X455889Y463563D01*
X455835Y463384D01*
X455791Y463187D01*
X455757Y462971D01*
X455732Y462738D01*
X455713Y462218D01*
X453213Y462175D01*
X453208Y462444D01*
X453167Y462927D01*
X453131Y463142D01*
X453085Y463338D01*
X453029Y463517D01*
X452963Y463677D01*
X452886Y463820D01*
X452799Y463944D01*
X452702Y464050D01*
X456202Y464102D01*
X456109Y463994D01*
D02*
G37*
G36*
X441155Y463608D02*
X441070Y463483D01*
X440995Y463340D01*
X440930Y463179D01*
X440875Y463000D01*
X440830Y462803D01*
X440795Y462588D01*
X440770Y462355D01*
X440750Y461835D01*
X438250D01*
X438245Y462104D01*
X438205Y462588D01*
X438170Y462803D01*
X438125Y463000D01*
X438070Y463179D01*
X438005Y463340D01*
X437930Y463483D01*
X437845Y463608D01*
X437750Y463715D01*
X441250D01*
X441155Y463608D01*
D02*
G37*
G36*
X546267Y460958D02*
X546171Y460851D01*
X546086Y460726D01*
X546010Y460583D01*
X545944Y460423D01*
X545889Y460244D01*
X545844Y460047D01*
X545808Y459832D01*
X545798Y459734D01*
X545893Y458212D01*
X545924Y458174D01*
X543076D01*
X543112Y458213D01*
X543143Y458301D01*
X543172Y458437D01*
X543196Y458621D01*
X543233Y459133D01*
X543241Y459569D01*
X543218Y459848D01*
X543184Y460063D01*
X543139Y460260D01*
X543084Y460439D01*
X543020Y460600D01*
X542946Y460743D01*
X542861Y460869D01*
X542767Y460976D01*
X546267Y460958D01*
D02*
G37*
G36*
X510752Y460262D02*
X510891Y458213D01*
X510924Y458174D01*
X508076D01*
X508109Y458213D01*
X508139Y458299D01*
X508165Y458435D01*
X508187Y458618D01*
X508222Y459131D01*
X508250Y460736D01*
X510750D01*
X510752Y460262D01*
D02*
G37*
G36*
X505752D02*
X505891Y458213D01*
X505924Y458174D01*
X503076D01*
X503109Y458213D01*
X503139Y458299D01*
X503165Y458435D01*
X503187Y458618D01*
X503222Y459131D01*
X503250Y460736D01*
X505750D01*
X505752Y460262D01*
D02*
G37*
G36*
X495752D02*
X495891Y458213D01*
X495924Y458174D01*
X493076D01*
X493109Y458213D01*
X493139Y458299D01*
X493165Y458435D01*
X493187Y458618D01*
X493222Y459131D01*
X493250Y460736D01*
X495750D01*
X495752Y460262D01*
D02*
G37*
G36*
X490752D02*
X490891Y458213D01*
X490924Y458174D01*
X488076D01*
X488109Y458213D01*
X488139Y458299D01*
X488165Y458435D01*
X488187Y458618D01*
X488222Y459131D01*
X488250Y460736D01*
X490750D01*
X490752Y460262D01*
D02*
G37*
G36*
X485752D02*
X485891Y458213D01*
X485924Y458174D01*
X483076D01*
X483109Y458213D01*
X483139Y458299D01*
X483165Y458435D01*
X483187Y458618D01*
X483222Y459131D01*
X483250Y460736D01*
X485750D01*
X485752Y460262D01*
D02*
G37*
G36*
X470776Y460260D02*
X470896Y458211D01*
X470924Y458174D01*
X468076D01*
X468114Y458214D01*
X468148Y458303D01*
X468177Y458439D01*
X468203Y458623D01*
X468243Y459136D01*
X468275Y460736D01*
X470775D01*
X470776Y460260D01*
D02*
G37*
G36*
X465752Y460262D02*
X465891Y458213D01*
X465924Y458174D01*
X463076D01*
X463109Y458213D01*
X463139Y458299D01*
X463165Y458435D01*
X463187Y458618D01*
X463222Y459131D01*
X463250Y460736D01*
X465750D01*
X465752Y460262D01*
D02*
G37*
G36*
X460752D02*
X460891Y458213D01*
X460924Y458174D01*
X458076D01*
X458109Y458213D01*
X458139Y458299D01*
X458165Y458435D01*
X458187Y458618D01*
X458222Y459131D01*
X458250Y460736D01*
X460750D01*
X460752Y460262D01*
D02*
G37*
G36*
X455715Y460265D02*
X455848Y458304D01*
X455884Y458215D01*
X455924Y458174D01*
X453076D01*
X453102Y458210D01*
X453125Y458294D01*
X453146Y458428D01*
X453164Y458610D01*
X453200Y459450D01*
X453213Y460731D01*
X455713Y460736D01*
X455715Y460265D01*
D02*
G37*
G36*
X440752Y460262D02*
X440891Y458213D01*
X440924Y458174D01*
X438076D01*
X438109Y458213D01*
X438139Y458299D01*
X438165Y458435D01*
X438187Y458618D01*
X438222Y459131D01*
X438250Y460736D01*
X440750D01*
X440752Y460262D01*
D02*
G37*
G36*
X405776Y460260D02*
X405896Y458211D01*
X405924Y458174D01*
X403076D01*
X403114Y458214D01*
X403148Y458303D01*
X403177Y458439D01*
X403203Y458623D01*
X403243Y459136D01*
X403275Y460736D01*
X405775D01*
X405776Y460260D01*
D02*
G37*
G36*
X400752Y460262D02*
X400891Y458213D01*
X400924Y458174D01*
X398076D01*
X398109Y458213D01*
X398139Y458299D01*
X398165Y458435D01*
X398187Y458618D01*
X398222Y459131D01*
X398250Y460736D01*
X400750D01*
X400752Y460262D01*
D02*
G37*
G36*
X380752D02*
X380891Y458213D01*
X380924Y458174D01*
X378076D01*
X378109Y458213D01*
X378139Y458299D01*
X378165Y458435D01*
X378187Y458618D01*
X378222Y459131D01*
X378250Y460736D01*
X380750D01*
X380752Y460262D01*
D02*
G37*
G36*
X376263Y462276D02*
X376167Y462169D01*
X376082Y462045D01*
X376006Y461902D01*
X375941Y461741D01*
X375886Y461562D01*
X375840Y461365D01*
X375805Y461151D01*
X375780Y460918D01*
X375761Y460426D01*
X375761Y460261D01*
X375893Y458212D01*
X375924Y458174D01*
X373076D01*
X373111Y458213D01*
X373142Y458301D01*
X373170Y458436D01*
X373194Y458620D01*
X373230Y459133D01*
X373257Y460572D01*
X373255Y460678D01*
X373215Y461162D01*
X373180Y461377D01*
X373135Y461574D01*
X373081Y461753D01*
X373016Y461914D01*
X372942Y462058D01*
X372857Y462183D01*
X372763Y462290D01*
X376263Y462276D01*
D02*
G37*
G36*
X808655Y453108D02*
X808570Y452983D01*
X808495Y452840D01*
X808430Y452679D01*
X808375Y452500D01*
X808330Y452303D01*
X808295Y452088D01*
X808273Y451880D01*
X808300Y451570D01*
X808363Y451194D01*
X808450Y450869D01*
X808562Y450594D01*
X808700Y450369D01*
X808863Y450195D01*
X809050Y450070D01*
X809262Y449995D01*
X809500Y449969D01*
X804500D01*
X804737Y449995D01*
X804950Y450070D01*
X805137Y450195D01*
X805300Y450369D01*
X805437Y450594D01*
X805550Y450869D01*
X805638Y451194D01*
X805700Y451570D01*
X805725Y451850D01*
X805705Y452088D01*
X805670Y452303D01*
X805625Y452500D01*
X805570Y452679D01*
X805505Y452840D01*
X805430Y452983D01*
X805345Y453108D01*
X805250Y453215D01*
X808750D01*
X808655Y453108D01*
D02*
G37*
G36*
X226005Y448519D02*
X226085Y447380D01*
X226133Y447102D01*
X226191Y446874D01*
X226260Y446697D01*
X226339Y446571D01*
X226430Y446495D01*
X226530Y446469D01*
X221469D01*
X221570Y446495D01*
X221660Y446571D01*
X221740Y446697D01*
X221809Y446874D01*
X221867Y447102D01*
X221915Y447380D01*
X221952Y447709D01*
X221995Y448519D01*
X222000Y449000D01*
X226000D01*
X226005Y448519D01*
D02*
G37*
G36*
X246031Y441031D02*
X246005Y441215D01*
X245931Y441380D01*
X245805Y441525D01*
X245630Y441651D01*
X245406Y441758D01*
X245131Y441845D01*
X244806Y441913D01*
X244431Y441961D01*
X244279Y441972D01*
X244042Y441949D01*
X243830Y441910D01*
X243637Y441859D01*
X243462Y441797D01*
X243306Y441724D01*
X243169Y441640D01*
X243051Y441544D01*
X242951Y441437D01*
X242601Y444920D01*
X242711Y444840D01*
X242838Y444769D01*
X242984Y444706D01*
X243147Y444651D01*
X243328Y444605D01*
X243526Y444567D01*
X243743Y444538D01*
X244051Y444516D01*
X244431Y444550D01*
X244806Y444613D01*
X245131Y444700D01*
X245406Y444813D01*
X245630Y444950D01*
X245805Y445112D01*
X245931Y445300D01*
X246005Y445513D01*
X246031Y445750D01*
Y441031D01*
D02*
G37*
G36*
X201530Y438500D02*
X201506Y438737D01*
X201430Y438950D01*
X201306Y439137D01*
X201131Y439300D01*
X200905Y439437D01*
X200630Y439550D01*
X200306Y439637D01*
X199930Y439700D01*
X199529Y439735D01*
X199162Y439705D01*
X198947Y439670D01*
X198750Y439625D01*
X198571Y439570D01*
X198410Y439505D01*
X198267Y439430D01*
X198142Y439345D01*
X198035Y439250D01*
Y442750D01*
X198142Y442655D01*
X198267Y442570D01*
X198410Y442495D01*
X198571Y442430D01*
X198750Y442375D01*
X198947Y442330D01*
X199162Y442295D01*
X199395Y442270D01*
X199531Y442265D01*
X199930Y442300D01*
X200306Y442363D01*
X200630Y442450D01*
X200905Y442562D01*
X201131Y442700D01*
X201306Y442863D01*
X201430Y443050D01*
X201506Y443262D01*
X201530Y443500D01*
Y438500D01*
D02*
G37*
G36*
X289129Y441591D02*
X289026Y441693D01*
X288904Y441783D01*
X288763Y441864D01*
X288604Y441933D01*
X288427Y441992D01*
X288232Y442040D01*
X288018Y442077D01*
X287786Y442104D01*
X287267Y442125D01*
X287412Y444625D01*
X287682Y444630D01*
X288167Y444667D01*
X288383Y444699D01*
X288581Y444740D01*
X288761Y444791D01*
X288924Y444851D01*
X289069Y444921D01*
X289195Y444999D01*
X289304Y445087D01*
X289129Y441591D01*
D02*
G37*
G36*
X265994Y445638D02*
X266070Y445425D01*
X266194Y445238D01*
X266369Y445075D01*
X266595Y444938D01*
X266870Y444825D01*
X267194Y444738D01*
X267570Y444675D01*
X267994Y444637D01*
X268470Y444625D01*
Y442125D01*
X267994Y442114D01*
X267570Y442081D01*
X267194Y442026D01*
X266870Y441950D01*
X266595Y441851D01*
X266369Y441731D01*
X266194Y441589D01*
X266070Y441424D01*
X265994Y441238D01*
X265970Y441031D01*
Y445875D01*
X265994Y445638D01*
D02*
G37*
G36*
X500891Y442788D02*
X500861Y442701D01*
X500835Y442565D01*
X500813Y442382D01*
X500778Y441869D01*
X500750Y440265D01*
X498250D01*
X498248Y440738D01*
X498109Y442788D01*
X498076Y442826D01*
X500924D01*
X500891Y442788D01*
D02*
G37*
G36*
X475891D02*
X475861Y442701D01*
X475835Y442565D01*
X475813Y442382D01*
X475778Y441869D01*
X475750Y440265D01*
X473250D01*
X473248Y440738D01*
X473109Y442788D01*
X473076Y442826D01*
X475924D01*
X475891Y442788D01*
D02*
G37*
G36*
X385891D02*
X385861Y442701D01*
X385835Y442565D01*
X385813Y442382D01*
X385778Y441869D01*
X385750Y440265D01*
X383250D01*
X383248Y440738D01*
X383109Y442788D01*
X383076Y442826D01*
X385924D01*
X385891Y442788D01*
D02*
G37*
G36*
X360891D02*
X360861Y442701D01*
X360835Y442565D01*
X360813Y442382D01*
X360778Y441869D01*
X360750Y440265D01*
X358250D01*
X358248Y440738D01*
X358109Y442788D01*
X358076Y442826D01*
X360924D01*
X360891Y442788D01*
D02*
G37*
G36*
X265994Y436738D02*
X266070Y436530D01*
X266194Y436348D01*
X266369Y436189D01*
X266595Y436055D01*
X266870Y435945D01*
X267194Y435860D01*
X267570Y435799D01*
X267994Y435762D01*
X268470Y435750D01*
Y433250D01*
X267994Y433238D01*
X267570Y433201D01*
X267194Y433140D01*
X266870Y433055D01*
X266595Y432945D01*
X266369Y432811D01*
X266194Y432652D01*
X266070Y432469D01*
X265994Y432262D01*
X265970Y432030D01*
Y436969D01*
X265994Y436738D01*
D02*
G37*
G36*
X246031Y432030D02*
X245991Y432120D01*
X245870Y432200D01*
X245671Y432270D01*
X245390Y432331D01*
X245030Y432383D01*
X244070Y432458D01*
X242031Y432500D01*
Y436500D01*
X242791Y436505D01*
X245390Y436669D01*
X245671Y436730D01*
X245870Y436800D01*
X245991Y436880D01*
X246031Y436969D01*
Y432030D01*
D02*
G37*
G36*
X210530Y421500D02*
X210506Y421738D01*
X210431Y421950D01*
X210306Y422137D01*
X210131Y422300D01*
X209905Y422438D01*
X209631Y422550D01*
X209305Y422637D01*
X208930Y422700D01*
X208899Y422703D01*
X208697Y422670D01*
X208500Y422625D01*
X208321Y422570D01*
X208160Y422505D01*
X208017Y422430D01*
X207892Y422345D01*
X207785Y422250D01*
Y425750D01*
X207892Y425655D01*
X208017Y425570D01*
X208160Y425495D01*
X208321Y425430D01*
X208500Y425375D01*
X208697Y425330D01*
X208899Y425297D01*
X208930Y425300D01*
X209305Y425363D01*
X209631Y425450D01*
X209905Y425563D01*
X210131Y425700D01*
X210306Y425863D01*
X210431Y426050D01*
X210506Y426263D01*
X210530Y426500D01*
Y421500D01*
D02*
G37*
G36*
X678030D02*
X678006Y421738D01*
X677931Y421950D01*
X677805Y422137D01*
X677630Y422300D01*
X677405Y422438D01*
X677131Y422550D01*
X676805Y422637D01*
X676431Y422700D01*
X676151Y422725D01*
X675912Y422705D01*
X675697Y422670D01*
X675500Y422625D01*
X675321Y422570D01*
X675160Y422505D01*
X675017Y422430D01*
X674892Y422345D01*
X674785Y422250D01*
Y425750D01*
X674892Y425655D01*
X675017Y425570D01*
X675160Y425495D01*
X675321Y425430D01*
X675500Y425375D01*
X675697Y425330D01*
X675912Y425295D01*
X676121Y425273D01*
X676431Y425300D01*
X676805Y425363D01*
X677131Y425450D01*
X677405Y425563D01*
X677630Y425700D01*
X677805Y425863D01*
X677931Y426050D01*
X678006Y426263D01*
X678030Y426500D01*
Y421500D01*
D02*
G37*
G36*
X91020Y426710D02*
X91080Y426030D01*
X91180Y425429D01*
X91320Y424910D01*
X91500Y424469D01*
X91720Y424109D01*
X91980Y423829D01*
X92280Y423629D01*
X92620Y423509D01*
X93000Y423470D01*
X85000D01*
X85380Y423509D01*
X85720Y423629D01*
X86020Y423829D01*
X86280Y424109D01*
X86500Y424469D01*
X86680Y424910D01*
X86820Y425429D01*
X86920Y426030D01*
X86980Y426710D01*
X87000Y427469D01*
X91000D01*
X91020Y426710D01*
D02*
G37*
G36*
X265994Y427738D02*
X266070Y427531D01*
X266194Y427348D01*
X266369Y427189D01*
X266595Y427055D01*
X266870Y426945D01*
X267194Y426860D01*
X267570Y426799D01*
X267994Y426762D01*
X268470Y426750D01*
Y424250D01*
X267994Y424238D01*
X267570Y424201D01*
X267194Y424140D01*
X266870Y424055D01*
X266595Y423945D01*
X266369Y423811D01*
X266194Y423652D01*
X266070Y423470D01*
X265994Y423262D01*
X265970Y423031D01*
Y427970D01*
X265994Y427738D01*
D02*
G37*
G36*
X246031Y423031D02*
X246005Y423262D01*
X245931Y423470D01*
X245805Y423652D01*
X245630Y423811D01*
X245406Y423945D01*
X245131Y424055D01*
X244806Y424140D01*
X244431Y424201D01*
X244006Y424238D01*
X243531Y424250D01*
Y426750D01*
X244006Y426762D01*
X244431Y426799D01*
X244806Y426860D01*
X245131Y426945D01*
X245406Y427055D01*
X245630Y427189D01*
X245805Y427348D01*
X245931Y427531D01*
X246005Y427738D01*
X246031Y427970D01*
Y423031D01*
D02*
G37*
G36*
X235744Y427738D02*
X235819Y427531D01*
X235944Y427348D01*
X236119Y427189D01*
X236345Y427055D01*
X236619Y426945D01*
X236945Y426860D01*
X237320Y426799D01*
X237745Y426762D01*
X238220Y426750D01*
Y424250D01*
X237745Y424238D01*
X237320Y424201D01*
X236945Y424140D01*
X236619Y424055D01*
X236345Y423945D01*
X236119Y423811D01*
X235944Y423652D01*
X235819Y423470D01*
X235744Y423262D01*
X235720Y423031D01*
Y427970D01*
X235744Y427738D01*
D02*
G37*
G36*
X228281Y423031D02*
X228256Y423262D01*
X228181Y423470D01*
X228055Y423652D01*
X227880Y423811D01*
X227656Y423945D01*
X227381Y424055D01*
X227055Y424140D01*
X226681Y424201D01*
X226255Y424238D01*
X225781Y424250D01*
Y426750D01*
X226255Y426762D01*
X226681Y426799D01*
X227055Y426860D01*
X227381Y426945D01*
X227656Y427055D01*
X227880Y427189D01*
X228055Y427348D01*
X228181Y427531D01*
X228256Y427738D01*
X228281Y427970D01*
Y423031D01*
D02*
G37*
G36*
X221495Y427738D02*
X221569Y427531D01*
X221695Y427348D01*
X221870Y427189D01*
X222094Y427055D01*
X222369Y426945D01*
X222694Y426860D01*
X223069Y426799D01*
X223494Y426762D01*
X223969Y426750D01*
Y424250D01*
X223494Y424238D01*
X223069Y424200D01*
X222694Y424137D01*
X222369Y424050D01*
X222094Y423937D01*
X221870Y423800D01*
X221695Y423638D01*
X221569Y423450D01*
X221495Y423237D01*
X221469Y423000D01*
Y427970D01*
X221495Y427738D01*
D02*
G37*
G36*
X265994Y418738D02*
X266070Y418531D01*
X266194Y418348D01*
X266369Y418189D01*
X266595Y418055D01*
X266870Y417945D01*
X267194Y417860D01*
X267570Y417799D01*
X267994Y417762D01*
X268470Y417750D01*
Y415250D01*
X267994Y415238D01*
X267570Y415201D01*
X267194Y415140D01*
X266870Y415055D01*
X266595Y414945D01*
X266369Y414811D01*
X266194Y414652D01*
X266070Y414469D01*
X265994Y414262D01*
X265970Y414030D01*
Y418969D01*
X265994Y418738D01*
D02*
G37*
G36*
X252262Y414006D02*
X252050Y413931D01*
X251863Y413806D01*
X251700Y413630D01*
X251562Y413405D01*
X251450Y413130D01*
X251362Y412805D01*
X251300Y412430D01*
X251262Y412006D01*
X251250Y411530D01*
X248750D01*
X248738Y412006D01*
X248700Y412430D01*
X248638Y412805D01*
X248550Y413130D01*
X248438Y413405D01*
X248300Y413630D01*
X248137Y413806D01*
X247950Y413931D01*
X247738Y414006D01*
X247500Y414030D01*
X252500D01*
X252262Y414006D01*
D02*
G37*
G36*
X289486Y412289D02*
X289856Y411975D01*
X290033Y411848D01*
X290204Y411740D01*
X290370Y411653D01*
X290529Y411585D01*
X290684Y411537D01*
X290832Y411508D01*
X290975Y411500D01*
X288500Y409025D01*
X288492Y409168D01*
X288463Y409316D01*
X288415Y409470D01*
X288347Y409630D01*
X288260Y409796D01*
X288152Y409967D01*
X288025Y410144D01*
X287878Y410326D01*
X287525Y410708D01*
X289292Y412476D01*
X289486Y412289D01*
D02*
G37*
G36*
X234263Y412006D02*
X234050Y411931D01*
X233862Y411805D01*
X233700Y411631D01*
X233563Y411405D01*
X233450Y411130D01*
X233363Y410806D01*
X233300Y410430D01*
X233275Y410150D01*
X233295Y409912D01*
X233330Y409697D01*
X233375Y409500D01*
X233430Y409321D01*
X233495Y409160D01*
X233570Y409017D01*
X233655Y408892D01*
X233750Y408785D01*
X230250D01*
X230345Y408892D01*
X230430Y409017D01*
X230505Y409160D01*
X230570Y409321D01*
X230625Y409500D01*
X230670Y409697D01*
X230705Y409912D01*
X230727Y410121D01*
X230700Y410430D01*
X230637Y410806D01*
X230550Y411130D01*
X230438Y411405D01*
X230300Y411631D01*
X230138Y411805D01*
X229950Y411931D01*
X229737Y412006D01*
X229500Y412030D01*
X234500D01*
X234263Y412006D01*
D02*
G37*
G36*
X251255Y409396D02*
X251295Y408912D01*
X251330Y408697D01*
X251375Y408500D01*
X251430Y408321D01*
X251495Y408160D01*
X251570Y408017D01*
X251655Y407892D01*
X251750Y407785D01*
X248250D01*
X248345Y407892D01*
X248430Y408017D01*
X248505Y408160D01*
X248570Y408321D01*
X248625Y408500D01*
X248670Y408697D01*
X248705Y408912D01*
X248730Y409145D01*
X248750Y409665D01*
X251250D01*
X251255Y409396D01*
D02*
G37*
G36*
X376900Y408582D02*
X376928Y408434D01*
X376977Y408279D01*
X377044Y408120D01*
X377132Y407954D01*
X377239Y407783D01*
X377367Y407606D01*
X377514Y407424D01*
X377867Y407042D01*
X376100Y405275D01*
X375906Y405461D01*
X375535Y405775D01*
X375359Y405902D01*
X375187Y406010D01*
X375022Y406097D01*
X374862Y406165D01*
X374708Y406213D01*
X374560Y406242D01*
X374417Y406250D01*
X376892Y408725D01*
X376900Y408582D01*
D02*
G37*
G36*
X386073Y405994D02*
X386078Y405844D01*
X386105Y405689D01*
X386155Y405527D01*
X386227Y405361D01*
X386323Y405189D01*
X386441Y405011D01*
X386581Y404828D01*
X386744Y404639D01*
X386930Y404445D01*
X384757Y403082D01*
X384563Y403272D01*
X384029Y403736D01*
X383867Y403855D01*
X383570Y404040D01*
X383434Y404105D01*
X383307Y404153D01*
X383188Y404183D01*
X386091Y406139D01*
X386073Y405994D01*
D02*
G37*
G36*
X745486Y405289D02*
X745856Y404975D01*
X746033Y404848D01*
X746204Y404740D01*
X746370Y404653D01*
X746529Y404585D01*
X746684Y404537D01*
X746832Y404508D01*
X746975Y404500D01*
X744500Y402025D01*
X744492Y402168D01*
X744463Y402316D01*
X744415Y402471D01*
X744347Y402630D01*
X744260Y402796D01*
X744152Y402967D01*
X744025Y403144D01*
X743878Y403326D01*
X743524Y403708D01*
X745292Y405476D01*
X745486Y405289D01*
D02*
G37*
G36*
X218263Y401006D02*
X218050Y400930D01*
X217862Y400806D01*
X217700Y400630D01*
X217563Y400406D01*
X217450Y400131D01*
X217362Y399805D01*
X217300Y399431D01*
X217275Y399151D01*
X217295Y398912D01*
X217330Y398697D01*
X217375Y398500D01*
X217430Y398321D01*
X217495Y398160D01*
X217570Y398017D01*
X217655Y397892D01*
X217750Y397785D01*
X214250D01*
X214345Y397892D01*
X214430Y398017D01*
X214505Y398160D01*
X214570Y398321D01*
X214625Y398500D01*
X214670Y398697D01*
X214705Y398912D01*
X214727Y399120D01*
X214700Y399431D01*
X214638Y399805D01*
X214550Y400131D01*
X214438Y400406D01*
X214300Y400630D01*
X214137Y400806D01*
X213950Y400930D01*
X213738Y401006D01*
X213500Y401031D01*
X218500D01*
X218263Y401006D01*
D02*
G37*
G36*
X802030Y393500D02*
X802005Y393737D01*
X801930Y393950D01*
X801805Y394137D01*
X801630Y394300D01*
X801405Y394437D01*
X801131Y394550D01*
X800806Y394637D01*
X800431Y394700D01*
X800005Y394738D01*
X799530Y394750D01*
Y397250D01*
X800005Y397262D01*
X800431Y397300D01*
X800806Y397363D01*
X801131Y397450D01*
X801405Y397562D01*
X801630Y397700D01*
X801805Y397863D01*
X801930Y398050D01*
X802005Y398262D01*
X802030Y398500D01*
Y393500D01*
D02*
G37*
G36*
X654530Y393000D02*
X654505Y393237D01*
X654430Y393450D01*
X654305Y393638D01*
X654130Y393800D01*
X653905Y393937D01*
X653631Y394050D01*
X653306Y394137D01*
X652931Y394200D01*
X652505Y394238D01*
X652030Y394250D01*
Y396750D01*
X652505Y396763D01*
X652931Y396800D01*
X653306Y396862D01*
X653631Y396950D01*
X653905Y397062D01*
X654130Y397200D01*
X654305Y397363D01*
X654430Y397550D01*
X654505Y397762D01*
X654530Y398000D01*
Y393000D01*
D02*
G37*
G36*
X678030Y392500D02*
X678006Y392738D01*
X677931Y392950D01*
X677805Y393138D01*
X677630Y393300D01*
X677405Y393438D01*
X677131Y393550D01*
X676805Y393638D01*
X676431Y393700D01*
X676005Y393737D01*
X675530Y393750D01*
Y396250D01*
X676005Y396263D01*
X676431Y396300D01*
X676805Y396362D01*
X677131Y396450D01*
X677405Y396562D01*
X677630Y396700D01*
X677805Y396862D01*
X677931Y397050D01*
X678006Y397262D01*
X678030Y397500D01*
Y392500D01*
D02*
G37*
G36*
X667495Y397262D02*
X667570Y397050D01*
X667694Y396862D01*
X667869Y396700D01*
X668094Y396562D01*
X668370Y396450D01*
X668695Y396362D01*
X669070Y396300D01*
X669494Y396263D01*
X669969Y396250D01*
Y393750D01*
X669494Y393737D01*
X669070Y393700D01*
X668695Y393638D01*
X668370Y393550D01*
X668094Y393438D01*
X667869Y393300D01*
X667694Y393138D01*
X667570Y392950D01*
X667495Y392738D01*
X667469Y392500D01*
Y397500D01*
X667495Y397262D01*
D02*
G37*
G36*
X401462Y390980D02*
X401471Y390830D01*
X401503Y390673D01*
X401556Y390511D01*
X401632Y390344D01*
X401729Y390172D01*
X401849Y389994D01*
X401990Y389811D01*
X402154Y389622D01*
X402340Y389428D01*
X400251Y387981D01*
X400057Y388170D01*
X399519Y388630D01*
X399355Y388747D01*
X399199Y388846D01*
X399050Y388927D01*
X398909Y388989D01*
X398775Y389034D01*
X398649Y389061D01*
X401475Y391126D01*
X401462Y390980D01*
D02*
G37*
G36*
X453252Y384762D02*
X453391Y382713D01*
X453424Y382674D01*
X450576D01*
X450609Y382713D01*
X450639Y382799D01*
X450665Y382935D01*
X450687Y383118D01*
X450722Y383631D01*
X450750Y385236D01*
X453250D01*
X453252Y384762D01*
D02*
G37*
G36*
X443252D02*
X443391Y382713D01*
X443424Y382674D01*
X440576D01*
X440609Y382713D01*
X440639Y382799D01*
X440665Y382935D01*
X440687Y383118D01*
X440722Y383631D01*
X440750Y385236D01*
X443250D01*
X443252Y384762D01*
D02*
G37*
G36*
X403252D02*
X403391Y382713D01*
X403424Y382674D01*
X400576D01*
X400609Y382713D01*
X400639Y382799D01*
X400665Y382935D01*
X400687Y383118D01*
X400722Y383631D01*
X400750Y385236D01*
X403250D01*
X403252Y384762D01*
D02*
G37*
G36*
X393252D02*
X393391Y382713D01*
X393424Y382674D01*
X390576D01*
X390609Y382713D01*
X390639Y382799D01*
X390665Y382935D01*
X390687Y383118D01*
X390722Y383631D01*
X390750Y385236D01*
X393250D01*
X393252Y384762D01*
D02*
G37*
G36*
X388252D02*
X388391Y382713D01*
X388424Y382674D01*
X385576D01*
X385609Y382713D01*
X385639Y382799D01*
X385665Y382935D01*
X385687Y383118D01*
X385722Y383631D01*
X385750Y385236D01*
X388250D01*
X388252Y384762D01*
D02*
G37*
G36*
X378252D02*
X378391Y382713D01*
X378424Y382674D01*
X375576D01*
X375609Y382713D01*
X375639Y382799D01*
X375665Y382935D01*
X375687Y383118D01*
X375722Y383631D01*
X375750Y385236D01*
X378250D01*
X378252Y384762D01*
D02*
G37*
G36*
X802030Y382500D02*
X802005Y382738D01*
X801930Y382950D01*
X801805Y383138D01*
X801630Y383300D01*
X801405Y383438D01*
X801131Y383550D01*
X800806Y383638D01*
X800431Y383700D01*
X800005Y383737D01*
X799530Y383750D01*
Y386250D01*
X800005Y386263D01*
X800431Y386300D01*
X800806Y386362D01*
X801131Y386450D01*
X801405Y386562D01*
X801630Y386700D01*
X801805Y386862D01*
X801930Y387050D01*
X802005Y387262D01*
X802030Y387500D01*
Y382500D01*
D02*
G37*
G36*
X793892Y375655D02*
X794017Y375570D01*
X794160Y375495D01*
X794321Y375430D01*
X794500Y375375D01*
X794697Y375330D01*
X794912Y375295D01*
X795145Y375270D01*
X795665Y375250D01*
Y372750D01*
X795396Y372745D01*
X794912Y372705D01*
X794697Y372670D01*
X794500Y372625D01*
X794321Y372570D01*
X794160Y372505D01*
X794017Y372430D01*
X793892Y372345D01*
X793785Y372250D01*
Y375750D01*
X793892Y375655D01*
D02*
G37*
G36*
X802030Y371500D02*
X802005Y371738D01*
X801930Y371950D01*
X801805Y372137D01*
X801630Y372300D01*
X801405Y372438D01*
X801131Y372550D01*
X800806Y372637D01*
X800431Y372700D01*
X800005Y372738D01*
X799530Y372750D01*
Y375250D01*
X800005Y375262D01*
X800431Y375300D01*
X800806Y375363D01*
X801131Y375450D01*
X801405Y375563D01*
X801630Y375700D01*
X801805Y375863D01*
X801930Y376050D01*
X802005Y376263D01*
X802030Y376500D01*
Y371500D01*
D02*
G37*
G36*
X663262Y370005D02*
X663050Y369930D01*
X662862Y369805D01*
X662700Y369631D01*
X662562Y369406D01*
X662450Y369131D01*
X662363Y368806D01*
X662300Y368430D01*
X662297Y368399D01*
X662330Y368197D01*
X662375Y368000D01*
X662430Y367821D01*
X662495Y367660D01*
X662570Y367517D01*
X662655Y367392D01*
X662750Y367285D01*
X659250D01*
X659345Y367392D01*
X659430Y367517D01*
X659505Y367660D01*
X659570Y367821D01*
X659625Y368000D01*
X659670Y368197D01*
X659703Y368399D01*
X659700Y368430D01*
X659638Y368806D01*
X659550Y369131D01*
X659437Y369406D01*
X659300Y369631D01*
X659137Y369805D01*
X658950Y369930D01*
X658737Y370005D01*
X658500Y370031D01*
X663500D01*
X663262Y370005D01*
D02*
G37*
G36*
X363391Y367295D02*
X363361Y367230D01*
X363335Y367132D01*
X363313Y366999D01*
X363293Y366834D01*
X363257Y366134D01*
X363250Y365500D01*
X360750D01*
X360748Y365834D01*
X360665Y367132D01*
X360639Y367230D01*
X360609Y367295D01*
X360576Y367326D01*
X363424D01*
X363391Y367295D01*
D02*
G37*
G36*
X498343Y367274D02*
X498271Y367188D01*
X498208Y367067D01*
X498153Y366912D01*
X498106Y366723D01*
X498068Y366500D01*
X498038Y366242D01*
X498004Y365625D01*
X498000Y365265D01*
X496000D01*
X495996Y365625D01*
X495932Y366500D01*
X495894Y366723D01*
X495847Y366912D01*
X495792Y367067D01*
X495729Y367188D01*
X495657Y367274D01*
X495576Y367326D01*
X498424D01*
X498343Y367274D01*
D02*
G37*
G36*
X493343D02*
X493271Y367188D01*
X493208Y367067D01*
X493153Y366912D01*
X493106Y366723D01*
X493068Y366500D01*
X493038Y366242D01*
X493004Y365625D01*
X493000Y365265D01*
X491000D01*
X490996Y365625D01*
X490932Y366500D01*
X490894Y366723D01*
X490847Y366912D01*
X490792Y367067D01*
X490729Y367188D01*
X490657Y367274D01*
X490576Y367326D01*
X493424D01*
X493343Y367274D01*
D02*
G37*
G36*
X488343D02*
X488271Y367188D01*
X488208Y367067D01*
X488153Y366912D01*
X488106Y366723D01*
X488068Y366500D01*
X488038Y366242D01*
X488004Y365625D01*
X488000Y365265D01*
X486000D01*
X485996Y365625D01*
X485932Y366500D01*
X485894Y366723D01*
X485847Y366912D01*
X485792Y367067D01*
X485729Y367188D01*
X485657Y367274D01*
X485576Y367326D01*
X488424D01*
X488343Y367274D01*
D02*
G37*
G36*
X483343D02*
X483271Y367188D01*
X483208Y367067D01*
X483153Y366912D01*
X483106Y366723D01*
X483068Y366500D01*
X483038Y366242D01*
X483004Y365625D01*
X483000Y365265D01*
X481000D01*
X480996Y365625D01*
X480932Y366500D01*
X480894Y366723D01*
X480847Y366912D01*
X480792Y367067D01*
X480729Y367188D01*
X480657Y367274D01*
X480576Y367326D01*
X483424D01*
X483343Y367274D01*
D02*
G37*
G36*
X543391Y367288D02*
X543361Y367201D01*
X543335Y367065D01*
X543313Y366882D01*
X543278Y366369D01*
X543250Y364765D01*
X540750D01*
X540748Y365238D01*
X540609Y367288D01*
X540576Y367326D01*
X543424D01*
X543391Y367288D01*
D02*
G37*
G36*
X473391D02*
X473361Y367201D01*
X473335Y367065D01*
X473313Y366882D01*
X473278Y366369D01*
X473250Y364765D01*
X470750D01*
X470748Y365238D01*
X470609Y367288D01*
X470576Y367326D01*
X473424D01*
X473391Y367288D01*
D02*
G37*
G36*
X468391D02*
X468361Y367201D01*
X468335Y367065D01*
X468313Y366882D01*
X468278Y366369D01*
X468250Y364765D01*
X465750D01*
X465748Y365238D01*
X465609Y367288D01*
X465576Y367326D01*
X468424D01*
X468391Y367288D01*
D02*
G37*
G36*
X448380Y367283D02*
X448341Y367193D01*
X448306Y367055D01*
X448276Y366870D01*
X448230Y366358D01*
X448195Y365234D01*
X448193Y364765D01*
X445693Y364778D01*
X445576Y367326D01*
X448424D01*
X448380Y367283D01*
D02*
G37*
G36*
X413391Y367288D02*
X413361Y367201D01*
X413335Y367065D01*
X413313Y366882D01*
X413278Y366369D01*
X413250Y364765D01*
X410750D01*
X410748Y365238D01*
X410609Y367288D01*
X410576Y367326D01*
X413424D01*
X413391Y367288D01*
D02*
G37*
G36*
X408391D02*
X408361Y367201D01*
X408335Y367065D01*
X408313Y366882D01*
X408278Y366369D01*
X408250Y364765D01*
X405750D01*
X405748Y365238D01*
X405609Y367288D01*
X405576Y367326D01*
X408424D01*
X408391Y367288D01*
D02*
G37*
G36*
X393391D02*
X393361Y367201D01*
X393335Y367065D01*
X393313Y366882D01*
X393278Y366369D01*
X393250Y364765D01*
X390750D01*
X390748Y365238D01*
X390609Y367288D01*
X390576Y367326D01*
X393424D01*
X393391Y367288D01*
D02*
G37*
G36*
X388391D02*
X388361Y367201D01*
X388335Y367065D01*
X388313Y366882D01*
X388278Y366369D01*
X388250Y364765D01*
X385750D01*
X385748Y365238D01*
X385609Y367288D01*
X385576Y367326D01*
X388424D01*
X388391Y367288D01*
D02*
G37*
G36*
X378391D02*
X378361Y367201D01*
X378335Y367065D01*
X378313Y366882D01*
X378278Y366369D01*
X378250Y364765D01*
X375750D01*
X375748Y365238D01*
X375609Y367288D01*
X375576Y367326D01*
X378424D01*
X378391Y367288D01*
D02*
G37*
G36*
X373343Y367269D02*
X373271Y367168D01*
X373208Y367022D01*
X373153Y366832D01*
X373106Y366598D01*
X373068Y366320D01*
X373017Y365630D01*
X373000Y364765D01*
X370500D01*
X370576Y367326D01*
X373424D01*
X373343Y367269D01*
D02*
G37*
G36*
X448193Y364708D02*
X448198Y364439D01*
X448236Y363954D01*
X448270Y363739D01*
X448314Y363541D01*
X448367Y363361D01*
X448430Y363200D01*
X448502Y363056D01*
X448584Y362930D01*
X448676Y362822D01*
X445177Y362902D01*
X445275Y363007D01*
X445363Y363131D01*
X445440Y363273D01*
X445507Y363433D01*
X445564Y363611D01*
X445610Y363807D01*
X445646Y364022D01*
X445672Y364254D01*
X445693Y364774D01*
X448193Y364708D01*
D02*
G37*
G36*
X361976Y363708D02*
X361789Y363514D01*
X361475Y363144D01*
X361348Y362967D01*
X361240Y362796D01*
X361153Y362630D01*
X361085Y362471D01*
X361037Y362316D01*
X361008Y362168D01*
X361000Y362025D01*
X358525Y364500D01*
X358668Y364508D01*
X358816Y364537D01*
X358970Y364585D01*
X359130Y364653D01*
X359296Y364740D01*
X359467Y364848D01*
X359644Y364975D01*
X359826Y365122D01*
X360208Y365476D01*
X361976Y363708D01*
D02*
G37*
G36*
X789892Y364655D02*
X790017Y364570D01*
X790160Y364495D01*
X790321Y364430D01*
X790500Y364375D01*
X790697Y364330D01*
X790912Y364295D01*
X791145Y364270D01*
X791665Y364250D01*
Y361750D01*
X791396Y361745D01*
X790912Y361705D01*
X790697Y361670D01*
X790500Y361625D01*
X790321Y361570D01*
X790160Y361505D01*
X790017Y361430D01*
X789892Y361345D01*
X789785Y361250D01*
Y364750D01*
X789892Y364655D01*
D02*
G37*
G36*
X802030Y360500D02*
X802005Y360737D01*
X801930Y360950D01*
X801805Y361138D01*
X801630Y361300D01*
X801405Y361437D01*
X801131Y361550D01*
X800806Y361637D01*
X800431Y361700D01*
X800005Y361738D01*
X799530Y361750D01*
Y364250D01*
X800005Y364263D01*
X800431Y364300D01*
X800806Y364362D01*
X801131Y364450D01*
X801405Y364562D01*
X801630Y364700D01*
X801805Y364863D01*
X801930Y365050D01*
X802005Y365262D01*
X802030Y365500D01*
Y360500D01*
D02*
G37*
G36*
X543257Y360745D02*
X543315Y359944D01*
X543365Y359619D01*
X543430Y359344D01*
X543509Y359119D01*
X543602Y358945D01*
X543711Y358820D01*
X543833Y358745D01*
X543969Y358719D01*
X541439D01*
X543250Y358285D01*
X543253Y358013D01*
X543302Y357307D01*
X543330Y357109D01*
X543408Y356769D01*
X543456Y356627D01*
X543511Y356504D01*
X543572Y356399D01*
X540142Y357099D01*
X540258Y357188D01*
X540361Y357296D01*
X540452Y357425D01*
X540531Y357574D01*
X540598Y357742D01*
X540653Y357931D01*
X540695Y358139D01*
X540726Y358368D01*
X540744Y358616D01*
X540746Y358719D01*
X539500D01*
X539738Y358745D01*
X539950Y358820D01*
X540137Y358945D01*
X540300Y359119D01*
X540438Y359344D01*
X540550Y359619D01*
X540638Y359944D01*
X540700Y360320D01*
X540737Y360745D01*
X540750Y361219D01*
X543250D01*
X543257Y360745D01*
D02*
G37*
G36*
X480438Y357836D02*
X480267Y357655D01*
X480115Y357470D01*
X479981Y357283D01*
X479865Y357093D01*
X479767Y356899D01*
X479687Y356703D01*
X479625Y356503D01*
X479582Y356301D01*
X479557Y356096D01*
X479550Y355887D01*
X477075Y358362D01*
X477284Y358369D01*
X477489Y358394D01*
X477691Y358438D01*
X477891Y358499D01*
X478087Y358579D01*
X478281Y358677D01*
X478471Y358793D01*
X478658Y358927D01*
X478843Y359079D01*
X479024Y359250D01*
X480438Y357836D01*
D02*
G37*
G36*
X491241Y358254D02*
X491425Y358101D01*
X491612Y357967D01*
X491802Y357851D01*
X491996Y357753D01*
X492192Y357673D01*
X492392Y357612D01*
X492594Y357569D01*
X492799Y357543D01*
X493008Y357536D01*
X490533Y355062D01*
X490526Y355270D01*
X490501Y355476D01*
X490458Y355678D01*
X490396Y355877D01*
X490316Y356074D01*
X490219Y356267D01*
X490102Y356457D01*
X489968Y356645D01*
X489816Y356829D01*
X489645Y357010D01*
X491059Y358424D01*
X491241Y358254D01*
D02*
G37*
G36*
X802030Y349500D02*
X802005Y349738D01*
X801930Y349950D01*
X801805Y350137D01*
X801630Y350300D01*
X801405Y350438D01*
X801131Y350550D01*
X800806Y350638D01*
X800431Y350700D01*
X800005Y350737D01*
X799586Y350748D01*
X799396Y350745D01*
X798912Y350705D01*
X798697Y350670D01*
X798500Y350625D01*
X798321Y350570D01*
X798160Y350505D01*
X798017Y350430D01*
X797892Y350345D01*
X797785Y350250D01*
X797785Y353750D01*
X797892Y353655D01*
X798017Y353570D01*
X798160Y353495D01*
X798321Y353430D01*
X798500Y353375D01*
X798697Y353330D01*
X798912Y353295D01*
X799145Y353270D01*
X799610Y353252D01*
X800005Y353262D01*
X800431Y353300D01*
X800806Y353363D01*
X801131Y353450D01*
X801405Y353563D01*
X801630Y353700D01*
X801805Y353862D01*
X801930Y354050D01*
X802005Y354263D01*
X802030Y354500D01*
Y349500D01*
D02*
G37*
G36*
X419486Y356289D02*
X419856Y355975D01*
X420033Y355848D01*
X420204Y355740D01*
X420370Y355653D01*
X420530Y355585D01*
X420684Y355537D01*
X420832Y355508D01*
X420975Y355500D01*
X418500Y353025D01*
X418492Y353168D01*
X418463Y353316D01*
X418415Y353470D01*
X418347Y353630D01*
X418260Y353796D01*
X418152Y353967D01*
X418025Y354144D01*
X417878Y354326D01*
X417524Y354708D01*
X419292Y356475D01*
X419486Y356289D01*
D02*
G37*
G36*
X388262Y352739D02*
X388300Y352314D01*
X388363Y351940D01*
X388450Y351614D01*
X388563Y351339D01*
X388700Y351115D01*
X388862Y350939D01*
X389050Y350815D01*
X389263Y350740D01*
X389500Y350714D01*
X384500D01*
X384738Y350740D01*
X384950Y350815D01*
X385137Y350939D01*
X385300Y351115D01*
X385438Y351339D01*
X385550Y351614D01*
X385638Y351940D01*
X385700Y352314D01*
X385737Y352739D01*
X385750Y353214D01*
X388250D01*
X388262Y352739D01*
D02*
G37*
G36*
X543511Y353496D02*
X543456Y353373D01*
X543408Y353231D01*
X543330Y352891D01*
X543302Y352693D01*
X543253Y351987D01*
X543250Y351715D01*
X541733Y351351D01*
X541439Y351281D01*
X543969D01*
X543833Y351255D01*
X543711Y351180D01*
X543602Y351055D01*
X543509Y350881D01*
X543430Y350656D01*
X543365Y350381D01*
X543315Y350056D01*
X543279Y349680D01*
X543250Y348781D01*
X540750D01*
X540737Y349255D01*
X540700Y349680D01*
X540638Y350056D01*
X540550Y350381D01*
X540438Y350656D01*
X540300Y350881D01*
X540137Y351055D01*
X539950Y351180D01*
X539738Y351255D01*
X539500Y351281D01*
X540746D01*
X540744Y351384D01*
X540726Y351632D01*
X540695Y351861D01*
X540653Y352069D01*
X540598Y352258D01*
X540531Y352426D01*
X540452Y352575D01*
X540361Y352704D01*
X540258Y352812D01*
X540142Y352901D01*
X543572Y353601D01*
X543511Y353496D01*
D02*
G37*
G36*
X400009Y352146D02*
X400363Y351846D01*
X400716Y351581D01*
X401070Y351351D01*
X401423Y351156D01*
X401777Y350997D01*
X402130Y350874D01*
X402484Y350785D01*
X402837Y350732D01*
X403191Y350714D01*
X399655Y347179D01*
X399638Y347533D01*
X399585Y347886D01*
X399496Y348240D01*
X399373Y348593D01*
X399214Y348947D01*
X399019Y349300D01*
X398789Y349654D01*
X398524Y350007D01*
X398224Y350361D01*
X397888Y350714D01*
X399655Y352482D01*
X400009Y352146D01*
D02*
G37*
G36*
X678030Y341500D02*
X678006Y341738D01*
X677931Y341950D01*
X677805Y342137D01*
X677630Y342300D01*
X677405Y342438D01*
X677131Y342550D01*
X676805Y342637D01*
X676431Y342700D01*
X676005Y342738D01*
X675586Y342748D01*
X675396Y342745D01*
X674912Y342705D01*
X674697Y342670D01*
X674500Y342625D01*
X674321Y342570D01*
X674160Y342505D01*
X674017Y342430D01*
X673892Y342345D01*
X673785Y342250D01*
Y345750D01*
X673892Y345655D01*
X674017Y345570D01*
X674160Y345495D01*
X674321Y345430D01*
X674500Y345375D01*
X674697Y345330D01*
X674912Y345295D01*
X675145Y345270D01*
X675610Y345252D01*
X676005Y345262D01*
X676431Y345300D01*
X676805Y345363D01*
X677131Y345450D01*
X677405Y345563D01*
X677630Y345700D01*
X677805Y345863D01*
X677931Y346050D01*
X678006Y346263D01*
X678030Y346500D01*
Y341500D01*
D02*
G37*
G36*
X543262Y343745D02*
X543300Y343320D01*
X543363Y342944D01*
X543450Y342620D01*
X543563Y342345D01*
X543700Y342119D01*
X543862Y341945D01*
X544050Y341819D01*
X544263Y341744D01*
X544500Y341720D01*
X539500D01*
X539738Y341744D01*
X539950Y341819D01*
X540137Y341945D01*
X540300Y342119D01*
X540438Y342345D01*
X540550Y342620D01*
X540638Y342944D01*
X540700Y343320D01*
X540737Y343745D01*
X540750Y344220D01*
X543250D01*
X543262Y343745D01*
D02*
G37*
G36*
X802030Y338424D02*
X802005Y338662D01*
X801930Y338874D01*
X801805Y339062D01*
X801630Y339224D01*
X801405Y339362D01*
X801131Y339474D01*
X800806Y339562D01*
X800431Y339624D01*
X800005Y339662D01*
X799530Y339674D01*
Y342174D01*
X800005Y342187D01*
X800431Y342224D01*
X800806Y342287D01*
X801131Y342374D01*
X801405Y342487D01*
X801630Y342624D01*
X801805Y342787D01*
X801930Y342974D01*
X802005Y343187D01*
X802030Y343424D01*
Y338424D01*
D02*
G37*
G36*
X543250Y337285D02*
X543253Y337013D01*
X543302Y336307D01*
X543330Y336109D01*
X543408Y335769D01*
X543456Y335627D01*
X543511Y335504D01*
X543572Y335399D01*
X540142Y336099D01*
X540258Y336188D01*
X540361Y336296D01*
X540452Y336425D01*
X540531Y336573D01*
X540598Y336742D01*
X540653Y336931D01*
X540695Y337139D01*
X540726Y337368D01*
X540744Y337616D01*
X540750Y337885D01*
X543250Y337285D01*
D02*
G37*
G36*
X809262Y304006D02*
X809050Y303930D01*
X808863Y303806D01*
X808700Y303631D01*
X808562Y303405D01*
X808450Y303130D01*
X808363Y302806D01*
X808300Y302430D01*
X808275Y302150D01*
X808295Y301912D01*
X808330Y301697D01*
X808375Y301500D01*
X808430Y301321D01*
X808495Y301160D01*
X808570Y301017D01*
X808655Y300892D01*
X808750Y300785D01*
X805250D01*
X805345Y300892D01*
X805430Y301017D01*
X805505Y301160D01*
X805570Y301321D01*
X805625Y301500D01*
X805670Y301697D01*
X805705Y301912D01*
X805727Y302120D01*
X805700Y302430D01*
X805638Y302806D01*
X805550Y303130D01*
X805437Y303405D01*
X805300Y303631D01*
X805137Y303806D01*
X804950Y303930D01*
X804737Y304006D01*
X804500Y304030D01*
X809500D01*
X809262Y304006D01*
D02*
G37*
G36*
X757392Y243655D02*
X757517Y243570D01*
X757660Y243495D01*
X757821Y243430D01*
X758000Y243375D01*
X758197Y243330D01*
X758412Y243295D01*
X758645Y243270D01*
X759165Y243250D01*
Y240750D01*
X758896Y240745D01*
X758412Y240705D01*
X758197Y240670D01*
X758000Y240625D01*
X757821Y240570D01*
X757660Y240505D01*
X757517Y240430D01*
X757392Y240345D01*
X757285Y240250D01*
Y243750D01*
X757392Y243655D01*
D02*
G37*
G36*
X763030Y239500D02*
X763006Y239737D01*
X762931Y239950D01*
X762805Y240138D01*
X762630Y240300D01*
X762405Y240438D01*
X762131Y240550D01*
X761805Y240637D01*
X761431Y240700D01*
X761005Y240737D01*
X760530Y240750D01*
Y243250D01*
X761005Y243263D01*
X761431Y243300D01*
X761805Y243363D01*
X762131Y243450D01*
X762405Y243563D01*
X762630Y243700D01*
X762805Y243862D01*
X762931Y244050D01*
X763006Y244263D01*
X763030Y244500D01*
Y239500D01*
D02*
G37*
G36*
Y227500D02*
X763010Y227690D01*
X762951Y227860D01*
X762850Y228010D01*
X762710Y228140D01*
X762531Y228250D01*
X762310Y228340D01*
X762050Y228410D01*
X761750Y228460D01*
X761411Y228490D01*
X761031Y228500D01*
Y230500D01*
X761411Y230510D01*
X761750Y230540D01*
X762050Y230590D01*
X762310Y230660D01*
X762531Y230750D01*
X762710Y230860D01*
X762850Y230990D01*
X762951Y231140D01*
X763010Y231310D01*
X763030Y231500D01*
Y227500D01*
D02*
G37*
G36*
Y215000D02*
X763010Y215190D01*
X762951Y215360D01*
X762850Y215510D01*
X762710Y215640D01*
X762531Y215750D01*
X762310Y215840D01*
X762050Y215910D01*
X761750Y215960D01*
X761411Y215990D01*
X761031Y216000D01*
Y218000D01*
X761411Y218010D01*
X761750Y218040D01*
X762050Y218090D01*
X762310Y218160D01*
X762531Y218250D01*
X762710Y218360D01*
X762850Y218490D01*
X762951Y218640D01*
X763010Y218810D01*
X763030Y219000D01*
Y215000D01*
D02*
G37*
G36*
X756892Y206655D02*
X757017Y206570D01*
X757160Y206495D01*
X757321Y206430D01*
X757500Y206375D01*
X757697Y206330D01*
X757912Y206295D01*
X758145Y206270D01*
X758665Y206250D01*
Y203750D01*
X758396Y203745D01*
X757912Y203705D01*
X757697Y203670D01*
X757500Y203625D01*
X757321Y203570D01*
X757160Y203505D01*
X757017Y203430D01*
X756892Y203345D01*
X756785Y203250D01*
Y206750D01*
X756892Y206655D01*
D02*
G37*
G36*
X763030Y202500D02*
X763006Y202738D01*
X762931Y202950D01*
X762805Y203137D01*
X762630Y203300D01*
X762405Y203438D01*
X762131Y203550D01*
X761805Y203638D01*
X761431Y203700D01*
X761005Y203738D01*
X760530Y203750D01*
Y206250D01*
X761005Y206262D01*
X761431Y206300D01*
X761805Y206362D01*
X762131Y206450D01*
X762405Y206562D01*
X762630Y206700D01*
X762805Y206863D01*
X762931Y207050D01*
X763006Y207262D01*
X763030Y207500D01*
Y202500D01*
D02*
G37*
G36*
X756892Y194155D02*
X757017Y194070D01*
X757160Y193995D01*
X757321Y193930D01*
X757500Y193875D01*
X757697Y193830D01*
X757912Y193795D01*
X758145Y193770D01*
X758665Y193750D01*
Y191250D01*
X758396Y191245D01*
X757912Y191205D01*
X757697Y191170D01*
X757500Y191125D01*
X757321Y191070D01*
X757160Y191005D01*
X757017Y190930D01*
X756892Y190845D01*
X756785Y190750D01*
Y194250D01*
X756892Y194155D01*
D02*
G37*
G36*
X763030Y190000D02*
X763006Y190238D01*
X762931Y190450D01*
X762805Y190637D01*
X762630Y190800D01*
X762405Y190938D01*
X762131Y191050D01*
X761805Y191138D01*
X761431Y191200D01*
X761005Y191238D01*
X760530Y191250D01*
Y193750D01*
X761005Y193762D01*
X761431Y193800D01*
X761805Y193862D01*
X762131Y193950D01*
X762405Y194062D01*
X762630Y194200D01*
X762805Y194363D01*
X762931Y194550D01*
X763006Y194762D01*
X763030Y195000D01*
Y190000D01*
D02*
G37*
G36*
X70030Y138500D02*
X70005Y138737D01*
X69931Y138950D01*
X69805Y139137D01*
X69630Y139300D01*
X69405Y139438D01*
X69131Y139550D01*
X68805Y139637D01*
X68431Y139700D01*
X68005Y139738D01*
X67586Y139748D01*
X67396Y139745D01*
X66912Y139705D01*
X66697Y139670D01*
X66500Y139625D01*
X66321Y139570D01*
X66160Y139505D01*
X66017Y139430D01*
X65892Y139345D01*
X65785Y139250D01*
Y142750D01*
X65892Y142655D01*
X66017Y142570D01*
X66160Y142495D01*
X66321Y142430D01*
X66500Y142375D01*
X66697Y142330D01*
X66912Y142295D01*
X67145Y142270D01*
X67610Y142252D01*
X68005Y142262D01*
X68431Y142300D01*
X68805Y142362D01*
X69131Y142450D01*
X69405Y142563D01*
X69630Y142700D01*
X69805Y142863D01*
X69931Y143050D01*
X70005Y143263D01*
X70030Y143500D01*
Y138500D01*
D02*
G37*
G36*
X109994Y143263D02*
X110070Y143050D01*
X110195Y142863D01*
X110370Y142700D01*
X110595Y142563D01*
X110870Y142450D01*
X111194Y142362D01*
X111569Y142300D01*
X111994Y142262D01*
X112414Y142252D01*
X112604Y142255D01*
X113088Y142295D01*
X113303Y142330D01*
X113500Y142375D01*
X113679Y142430D01*
X113840Y142495D01*
X113983Y142570D01*
X114108Y142655D01*
X114215Y142750D01*
Y139250D01*
X114108Y139345D01*
X113983Y139430D01*
X113840Y139505D01*
X113679Y139570D01*
X113500Y139625D01*
X113303Y139670D01*
X113088Y139705D01*
X112855Y139730D01*
X112390Y139748D01*
X111994Y139738D01*
X111569Y139700D01*
X111194Y139637D01*
X110870Y139550D01*
X110595Y139438D01*
X110370Y139300D01*
X110195Y139137D01*
X110070Y138950D01*
X109994Y138737D01*
X109970Y138500D01*
Y143500D01*
X109994Y143263D01*
D02*
G37*
G36*
X92262Y130506D02*
X92050Y130430D01*
X91862Y130306D01*
X91700Y130131D01*
X91562Y129906D01*
X91450Y129630D01*
X91362Y129305D01*
X91300Y128931D01*
X91263Y128505D01*
X91250Y128031D01*
X88750D01*
X88737Y128505D01*
X88700Y128931D01*
X88638Y129305D01*
X88550Y129630D01*
X88438Y129906D01*
X88300Y130131D01*
X88138Y130306D01*
X87950Y130430D01*
X87738Y130506D01*
X87500Y130531D01*
X92500D01*
X92262Y130506D01*
D02*
G37*
G36*
X91255Y126396D02*
X91295Y125912D01*
X91330Y125697D01*
X91375Y125500D01*
X91430Y125321D01*
X91495Y125160D01*
X91570Y125017D01*
X91655Y124892D01*
X91750Y124785D01*
X88250D01*
X88345Y124892D01*
X88430Y125017D01*
X88505Y125160D01*
X88570Y125321D01*
X88625Y125500D01*
X88670Y125697D01*
X88705Y125912D01*
X88730Y126145D01*
X88750Y126665D01*
X91250D01*
X91255Y126396D01*
D02*
G37*
G36*
X318263Y63745D02*
X318300Y63320D01*
X318363Y62944D01*
X318450Y62620D01*
X318563Y62344D01*
X318700Y62119D01*
X318862Y61944D01*
X319050Y61820D01*
X319263Y61744D01*
X319500Y61719D01*
X314500D01*
X314737Y61744D01*
X314950Y61820D01*
X315138Y61944D01*
X315300Y62119D01*
X315438Y62344D01*
X315550Y62620D01*
X315637Y62944D01*
X315700Y63320D01*
X315737Y63745D01*
X315750Y64219D01*
X318250D01*
X318263Y63745D01*
D02*
G37*
G36*
X526263Y62994D02*
X526300Y62569D01*
X526362Y62194D01*
X526450Y61870D01*
X526562Y61595D01*
X526700Y61370D01*
X526862Y61195D01*
X527050Y61069D01*
X527262Y60995D01*
X527500Y60970D01*
X522500D01*
X522738Y60995D01*
X522950Y61069D01*
X523138Y61195D01*
X523300Y61370D01*
X523438Y61595D01*
X523550Y61870D01*
X523638Y62194D01*
X523700Y62569D01*
X523737Y62994D01*
X523750Y63470D01*
X526250D01*
X526263Y62994D01*
D02*
G37*
G36*
X506250Y63465D02*
X506750D01*
X506655Y63358D01*
X506570Y63233D01*
X506495Y63090D01*
X506430Y62929D01*
X506375Y62750D01*
X506330Y62553D01*
X506317Y62470D01*
X506362Y62194D01*
X506450Y61870D01*
X506562Y61595D01*
X506700Y61370D01*
X506862Y61195D01*
X507050Y61069D01*
X507262Y60995D01*
X507500Y60970D01*
X502500D01*
X502738Y60995D01*
X502950Y61069D01*
X503138Y61195D01*
X503300Y61370D01*
X503438Y61595D01*
X503550Y61870D01*
X503638Y62194D01*
X503683Y62470D01*
X503670Y62553D01*
X503625Y62750D01*
X503570Y62929D01*
X503505Y63090D01*
X503430Y63233D01*
X503345Y63358D01*
X503250Y63465D01*
X503750D01*
X503750Y63470D01*
X506250D01*
X506250Y63465D01*
D02*
G37*
G36*
X474263Y62994D02*
X474300Y62569D01*
X474362Y62194D01*
X474450Y61870D01*
X474562Y61595D01*
X474700Y61370D01*
X474863Y61195D01*
X475050Y61069D01*
X475262Y60995D01*
X475500Y60970D01*
X470500D01*
X470737Y60995D01*
X470950Y61069D01*
X471138Y61195D01*
X471300Y61370D01*
X471437Y61595D01*
X471550Y61870D01*
X471637Y62194D01*
X471700Y62569D01*
X471738Y62994D01*
X471750Y63470D01*
X474250D01*
X474263Y62994D01*
D02*
G37*
G36*
X454250Y63465D02*
X454750D01*
X454655Y63358D01*
X454570Y63233D01*
X454495Y63090D01*
X454430Y62929D01*
X454375Y62750D01*
X454330Y62553D01*
X454316Y62470D01*
X454362Y62194D01*
X454450Y61870D01*
X454562Y61595D01*
X454700Y61370D01*
X454863Y61195D01*
X455050Y61069D01*
X455262Y60995D01*
X455500Y60970D01*
X450500D01*
X450737Y60995D01*
X450950Y61069D01*
X451138Y61195D01*
X451300Y61370D01*
X451437Y61595D01*
X451550Y61870D01*
X451637Y62194D01*
X451683Y62470D01*
X451670Y62553D01*
X451625Y62750D01*
X451570Y62929D01*
X451505Y63090D01*
X451430Y63233D01*
X451345Y63358D01*
X451250Y63465D01*
X451750D01*
X451750Y63470D01*
X454250D01*
X454250Y63465D01*
D02*
G37*
G36*
X214237Y62719D02*
X213901Y62366D01*
X213601Y62012D01*
X213336Y61659D01*
X213106Y61305D01*
X212911Y60952D01*
X212752Y60598D01*
X212629Y60245D01*
X212540Y59891D01*
X212487Y59538D01*
X212470Y59184D01*
X207934Y61719D01*
X208288Y61737D01*
X208641Y61790D01*
X208995Y61879D01*
X209348Y62002D01*
X209702Y62161D01*
X210055Y62356D01*
X210409Y62586D01*
X210762Y62851D01*
X211116Y63151D01*
X211469Y63487D01*
X214237Y62719D01*
D02*
G37*
G36*
X311530Y55250D02*
X311506Y55487D01*
X311430Y55700D01*
X311306Y55887D01*
X311131Y56050D01*
X310905Y56188D01*
X310630Y56300D01*
X310306Y56388D01*
X309930Y56450D01*
X309506Y56487D01*
X309030Y56500D01*
Y59000D01*
X309506Y59012D01*
X309930Y59050D01*
X310306Y59113D01*
X310630Y59200D01*
X310905Y59313D01*
X311131Y59450D01*
X311306Y59612D01*
X311430Y59800D01*
X311506Y60012D01*
X311530Y60250D01*
Y55250D01*
D02*
G37*
G36*
X305494Y60012D02*
X305569Y59800D01*
X305695Y59612D01*
X305870Y59450D01*
X306094Y59313D01*
X306369Y59200D01*
X306695Y59113D01*
X307069Y59050D01*
X307495Y59012D01*
X307969Y59000D01*
Y56500D01*
X307495Y56487D01*
X307069Y56450D01*
X306695Y56388D01*
X306369Y56300D01*
X306094Y56188D01*
X305870Y56050D01*
X305695Y55887D01*
X305569Y55700D01*
X305494Y55487D01*
X305469Y55250D01*
Y60250D01*
X305494Y60012D01*
D02*
G37*
G36*
X292530Y55250D02*
X292505Y55487D01*
X292430Y55700D01*
X292306Y55887D01*
X292131Y56050D01*
X291905Y56188D01*
X291630Y56300D01*
X291306Y56388D01*
X290931Y56450D01*
X290506Y56487D01*
X290030Y56500D01*
Y59000D01*
X290506Y59012D01*
X290931Y59050D01*
X291306Y59113D01*
X291630Y59200D01*
X291905Y59313D01*
X292131Y59450D01*
X292306Y59612D01*
X292430Y59800D01*
X292505Y60012D01*
X292530Y60250D01*
Y55250D01*
D02*
G37*
G36*
X282495Y60012D02*
X282570Y59800D01*
X282694Y59612D01*
X282869Y59450D01*
X283095Y59313D01*
X283370Y59200D01*
X283694Y59113D01*
X284069Y59050D01*
X284494Y59012D01*
X284970Y59000D01*
Y56500D01*
X284494Y56487D01*
X284069Y56450D01*
X283694Y56388D01*
X283370Y56300D01*
X283095Y56188D01*
X282869Y56050D01*
X282694Y55887D01*
X282570Y55700D01*
X282495Y55487D01*
X282470Y55250D01*
Y60250D01*
X282495Y60012D01*
D02*
G37*
G36*
X201530Y55250D02*
X201506Y55487D01*
X201430Y55700D01*
X201306Y55887D01*
X201131Y56050D01*
X200905Y56188D01*
X200630Y56300D01*
X200306Y56388D01*
X199930Y56450D01*
X199506Y56487D01*
X199030Y56500D01*
Y59000D01*
X199506Y59012D01*
X199930Y59050D01*
X200306Y59113D01*
X200630Y59200D01*
X200905Y59313D01*
X201131Y59450D01*
X201306Y59612D01*
X201430Y59800D01*
X201506Y60012D01*
X201530Y60250D01*
Y55250D01*
D02*
G37*
G36*
X195494Y60012D02*
X195569Y59800D01*
X195695Y59612D01*
X195870Y59450D01*
X196094Y59313D01*
X196369Y59200D01*
X196695Y59113D01*
X197069Y59050D01*
X197495Y59012D01*
X197969Y59000D01*
Y56500D01*
X197495Y56487D01*
X197069Y56450D01*
X196695Y56388D01*
X196369Y56300D01*
X196094Y56188D01*
X195870Y56050D01*
X195695Y55887D01*
X195569Y55700D01*
X195494Y55487D01*
X195469Y55250D01*
Y60250D01*
X195494Y60012D01*
D02*
G37*
G36*
X182530Y55250D02*
X182505Y55487D01*
X182430Y55700D01*
X182306Y55887D01*
X182131Y56050D01*
X181905Y56188D01*
X181630Y56300D01*
X181306Y56388D01*
X180931Y56450D01*
X180506Y56487D01*
X180030Y56500D01*
Y59000D01*
X180506Y59012D01*
X180931Y59050D01*
X181306Y59113D01*
X181630Y59200D01*
X181905Y59313D01*
X182131Y59450D01*
X182306Y59612D01*
X182430Y59800D01*
X182505Y60012D01*
X182530Y60250D01*
Y55250D01*
D02*
G37*
G36*
X172495Y60012D02*
X172570Y59800D01*
X172694Y59612D01*
X172869Y59450D01*
X173095Y59313D01*
X173370Y59200D01*
X173694Y59113D01*
X174069Y59050D01*
X174494Y59012D01*
X174970Y59000D01*
Y56500D01*
X174494Y56487D01*
X174069Y56450D01*
X173694Y56388D01*
X173370Y56300D01*
X173095Y56188D01*
X172869Y56050D01*
X172694Y55887D01*
X172570Y55700D01*
X172495Y55487D01*
X172470Y55250D01*
Y60250D01*
X172495Y60012D01*
D02*
G37*
G36*
X384530Y54000D02*
X384506Y54237D01*
X384431Y54450D01*
X384305Y54637D01*
X384131Y54800D01*
X383905Y54938D01*
X383630Y55050D01*
X383306Y55138D01*
X382930Y55200D01*
X382505Y55237D01*
X382030Y55250D01*
Y57750D01*
X382505Y57762D01*
X382930Y57800D01*
X383306Y57863D01*
X383630Y57950D01*
X383905Y58063D01*
X384131Y58200D01*
X384305Y58362D01*
X384431Y58550D01*
X384506Y58762D01*
X384530Y59000D01*
Y54000D01*
D02*
G37*
G36*
X377492Y58762D02*
X377567Y58550D01*
X377692Y58362D01*
X377867Y58200D01*
X378092Y58063D01*
X378367Y57950D01*
X378692Y57863D01*
X379067Y57800D01*
X379492Y57762D01*
X379967Y57750D01*
Y55250D01*
X379492Y55237D01*
X379067Y55200D01*
X378692Y55138D01*
X378367Y55050D01*
X378092Y54938D01*
X377867Y54800D01*
X377692Y54637D01*
X377567Y54450D01*
X377492Y54237D01*
X377467Y54000D01*
Y59000D01*
X377492Y58762D01*
D02*
G37*
G36*
X794000Y908000D02*
X795083D01*
X797209Y907577D01*
X799211Y906748D01*
X801012Y905544D01*
X802544Y904012D01*
X803748Y902210D01*
X804577Y900209D01*
X805000Y898083D01*
X805000Y897000D01*
X805000D01*
Y691000D01*
X805063Y689726D01*
X805560Y687226D01*
X806535Y684872D01*
X807951Y682753D01*
X809753Y680951D01*
X811872Y679535D01*
X814226Y678560D01*
X816726Y678063D01*
X818000Y678000D01*
X840182D01*
X842500Y677539D01*
X844684Y676634D01*
X846649Y675321D01*
X848321Y673650D01*
X849634Y671684D01*
X850539Y669500D01*
X851000Y667182D01*
Y666000D01*
Y-38000D01*
Y-39280D01*
X850500Y-41792D01*
X849520Y-44158D01*
X848098Y-46287D01*
X846287Y-48098D01*
X844158Y-49521D01*
X841792Y-50500D01*
X839280Y-51000D01*
X687568D01*
X685250Y-50539D01*
X683066Y-49634D01*
X681100Y-48321D01*
X679429Y-46650D01*
X678116Y-44684D01*
X677211Y-42500D01*
X676750Y-40182D01*
Y-34000D01*
X676692Y-32824D01*
X676233Y-30517D01*
X675333Y-28343D01*
X674026Y-26387D01*
X672363Y-24724D01*
X670407Y-23417D01*
X668233Y-22517D01*
X665926Y-22058D01*
X664750Y-22000D01*
X132000Y-22000D01*
X130824Y-22058D01*
X128517Y-22517D01*
X126343Y-23417D01*
X124387Y-24724D01*
X122724Y-26387D01*
X121417Y-28343D01*
X120517Y-30517D01*
X120058Y-32824D01*
X120000Y-34000D01*
X120000D01*
Y-40182D01*
X119539Y-42500D01*
X118634Y-44684D01*
X117321Y-46650D01*
X115649Y-48321D01*
X113684Y-49634D01*
X111500Y-50539D01*
X109182Y-51000D01*
X-39280D01*
X-41792Y-50500D01*
X-44158Y-49521D01*
X-46287Y-48098D01*
X-48098Y-46287D01*
X-49521Y-44158D01*
X-50500Y-41792D01*
X-51000Y-39280D01*
Y-38000D01*
Y115000D01*
Y116182D01*
X-50539Y118500D01*
X-49634Y120684D01*
X-48321Y122649D01*
X-46650Y124321D01*
X-44684Y125634D01*
X-42500Y126539D01*
X-40182Y127000D01*
X-34000Y127000D01*
X-32824Y127058D01*
X-30517Y127517D01*
X-28343Y128417D01*
X-26387Y129724D01*
X-24724Y131387D01*
X-23417Y133343D01*
X-22517Y135517D01*
X-22058Y137824D01*
X-22000Y139000D01*
X-22000D01*
X-22000Y722000D01*
X-22058Y723176D01*
X-22517Y725483D01*
X-23417Y727657D01*
X-24724Y729613D01*
X-26387Y731276D01*
X-28343Y732583D01*
X-30517Y733483D01*
X-32824Y733942D01*
X-34000Y734000D01*
Y734000D01*
X-40182D01*
X-42500Y734461D01*
X-44684Y735366D01*
X-46650Y736679D01*
X-48321Y738351D01*
X-49634Y740316D01*
X-50539Y742500D01*
X-51000Y744818D01*
Y746000D01*
Y896000D01*
Y897182D01*
X-50539Y899500D01*
X-49634Y901684D01*
X-48321Y903650D01*
X-46650Y905321D01*
X-44684Y906634D01*
X-42500Y907539D01*
X-40182Y908000D01*
X75247D01*
X75247Y857250D01*
Y854815D01*
X74611Y849987D01*
X73351Y845284D01*
X71487Y840785D01*
X69053Y836568D01*
X66088Y832705D01*
X62645Y829262D01*
X58782Y826297D01*
X54565Y823863D01*
X50066Y821999D01*
X45363Y820739D01*
X40535Y820103D01*
X38100D01*
Y820103D01*
X-8750D01*
Y820100D01*
X-10446Y820017D01*
X-13772Y819355D01*
X-16905Y818057D01*
X-19725Y816173D01*
X-22123Y813775D01*
X-24007Y810955D01*
X-25305Y807822D01*
X-25967Y804496D01*
X-26050Y802800D01*
Y771889D01*
X-26006Y770562D01*
X-25655Y767932D01*
X-24958Y765371D01*
X-23929Y762925D01*
X-22584Y760636D01*
X-20949Y758546D01*
X-19051Y756691D01*
X-16925Y755104D01*
X-15787Y754419D01*
X-15787Y754419D01*
X-13638Y753221D01*
X-9695Y750278D01*
X-6176Y746838D01*
X-3144Y742963D01*
X-652Y738721D01*
X1257Y734185D01*
X2549Y729437D01*
X3200Y724560D01*
X3200Y722100D01*
X3200D01*
X3200Y722100D01*
X3200Y542900D01*
Y318100D01*
X3200Y138900D01*
X3200Y136440D01*
X2549Y131562D01*
X1257Y126815D01*
X-652Y122279D01*
X-3144Y118037D01*
X-6176Y114162D01*
X-9695Y110722D01*
X-13638Y107779D01*
X-15787Y106581D01*
X-16925Y105896D01*
X-19051Y104309D01*
X-20949Y102454D01*
X-22584Y100364D01*
X-23928Y98075D01*
X-24958Y95629D01*
X-25655Y93068D01*
X-26006Y90438D01*
X-26050Y89111D01*
X-26050D01*
Y89111D01*
X-26050D01*
X-26050Y54450D01*
X-25952Y52465D01*
X-25178Y48572D01*
X-23659Y44904D01*
X-21453Y41603D01*
X-18647Y38797D01*
X-15346Y36591D01*
X-11678Y35072D01*
X-7785Y34297D01*
X-5800Y34200D01*
Y34200D01*
X100000Y34200D01*
X101970Y34200D01*
X105834Y33431D01*
X109473Y31924D01*
X112749Y29735D01*
X115535Y26949D01*
X117724Y23674D01*
X119231Y20034D01*
X120000Y16170D01*
Y14200D01*
X120000D01*
X120000Y14200D01*
X120000Y14198D01*
X120052Y13141D01*
X120074Y13029D01*
X120465Y11065D01*
X121275Y9109D01*
X122451Y7348D01*
X123948Y5852D01*
X125709Y4675D01*
X127665Y3865D01*
X129741Y3452D01*
X130800Y3400D01*
X669300D01*
X670359Y3452D01*
X672435Y3865D01*
X674391Y4675D01*
X676151Y5852D01*
X677648Y7348D01*
X678825Y9109D01*
X679635Y11065D01*
X680048Y13141D01*
X680100Y14200D01*
X680100Y16170D01*
X680869Y20034D01*
X682376Y23674D01*
X684565Y26949D01*
X687351Y29735D01*
X690626Y31924D01*
X694266Y33431D01*
X698130Y34200D01*
X700100D01*
Y34200D01*
X805900Y34200D01*
X807860Y34296D01*
X811706Y35061D01*
X815328Y36562D01*
X818588Y38740D01*
X821360Y41512D01*
X823538Y44772D01*
X825039Y48394D01*
X825804Y52240D01*
X825900Y54200D01*
X825900Y634331D01*
X825827Y636043D01*
X825243Y639417D01*
X824092Y642642D01*
X822408Y645623D01*
X820240Y648273D01*
X817652Y650515D01*
X814719Y652282D01*
X811528Y653523D01*
X809865Y653934D01*
X807791Y654354D01*
X803765Y655660D01*
X799914Y657418D01*
X796289Y659602D01*
X792937Y662186D01*
X789901Y665135D01*
X787221Y668411D01*
X784932Y671972D01*
X783064Y675770D01*
X781641Y679756D01*
X780683Y683879D01*
X780200Y688084D01*
Y690200D01*
Y814603D01*
X780094Y815676D01*
X779273Y817659D01*
X777756Y819176D01*
X775773Y819997D01*
X774700Y820103D01*
X772265Y820103D01*
X767438Y820739D01*
X762734Y821999D01*
X758235Y823863D01*
X754018Y826297D01*
X750155Y829262D01*
X746712Y832705D01*
X743747Y836568D01*
X741312Y840785D01*
X739449Y845284D01*
X738189Y849987D01*
X737553Y854815D01*
Y857250D01*
X737553D01*
Y908000D01*
X794000Y908000D01*
D02*
G37*
G36*
X518531Y33000D02*
X518506Y33238D01*
X518430Y33450D01*
X518306Y33637D01*
X518130Y33800D01*
X517906Y33937D01*
X517631Y34050D01*
X517305Y34137D01*
X516931Y34200D01*
X516506Y34237D01*
X516031Y34250D01*
Y36750D01*
X516506Y36762D01*
X516931Y36800D01*
X517305Y36862D01*
X517631Y36950D01*
X517906Y37062D01*
X518130Y37200D01*
X518306Y37362D01*
X518430Y37550D01*
X518506Y37762D01*
X518531Y38000D01*
Y33000D01*
D02*
G37*
G36*
X511494Y37762D02*
X511570Y37550D01*
X511694Y37362D01*
X511870Y37200D01*
X512094Y37062D01*
X512369Y36950D01*
X512695Y36862D01*
X513069Y36800D01*
X513494Y36762D01*
X513969Y36750D01*
Y34250D01*
X513494Y34237D01*
X513069Y34200D01*
X512695Y34137D01*
X512369Y34050D01*
X512094Y33937D01*
X511870Y33800D01*
X511694Y33637D01*
X511570Y33450D01*
X511494Y33238D01*
X511469Y33000D01*
Y38000D01*
X511494Y37762D01*
D02*
G37*
G36*
X466530Y33000D02*
X466506Y33238D01*
X466431Y33450D01*
X466306Y33637D01*
X466130Y33800D01*
X465905Y33937D01*
X465630Y34050D01*
X465305Y34137D01*
X464930Y34200D01*
X464506Y34237D01*
X464030Y34250D01*
Y36750D01*
X464506Y36762D01*
X464930Y36800D01*
X465305Y36862D01*
X465630Y36950D01*
X465905Y37062D01*
X466130Y37200D01*
X466306Y37362D01*
X466431Y37550D01*
X466506Y37762D01*
X466530Y38000D01*
Y33000D01*
D02*
G37*
G36*
X459495Y37762D02*
X459570Y37550D01*
X459695Y37362D01*
X459869Y37200D01*
X460094Y37062D01*
X460369Y36950D01*
X460695Y36862D01*
X461069Y36800D01*
X461494Y36762D01*
X461969Y36750D01*
Y34250D01*
X461494Y34237D01*
X461069Y34200D01*
X460695Y34137D01*
X460369Y34050D01*
X460094Y33937D01*
X459869Y33800D01*
X459695Y33637D01*
X459570Y33450D01*
X459495Y33238D01*
X459469Y33000D01*
Y38000D01*
X459495Y37762D01*
D02*
G37*
G36*
X319263Y34755D02*
X319050Y34681D01*
X318862Y34555D01*
X318700Y34381D01*
X318563Y34155D01*
X318450Y33881D01*
X318363Y33556D01*
X318300Y33180D01*
X318286Y33021D01*
X318295Y32912D01*
X318330Y32697D01*
X318375Y32500D01*
X318430Y32321D01*
X318495Y32160D01*
X318570Y32017D01*
X318655Y31892D01*
X318750Y31785D01*
X315250D01*
X315345Y31892D01*
X315430Y32017D01*
X315505Y32160D01*
X315570Y32321D01*
X315625Y32500D01*
X315670Y32697D01*
X315705Y32912D01*
X315715Y33008D01*
X315700Y33180D01*
X315637Y33556D01*
X315550Y33881D01*
X315438Y34155D01*
X315300Y34381D01*
X315138Y34555D01*
X314950Y34681D01*
X314737Y34755D01*
X314500Y34780D01*
X319500D01*
X319263Y34755D01*
D02*
G37*
G36*
X209263D02*
X209050Y34681D01*
X208862Y34555D01*
X208700Y34381D01*
X208563Y34155D01*
X208450Y33881D01*
X208363Y33556D01*
X208300Y33180D01*
X208286Y33021D01*
X208295Y32912D01*
X208330Y32697D01*
X208375Y32500D01*
X208430Y32321D01*
X208495Y32160D01*
X208570Y32017D01*
X208655Y31892D01*
X208750Y31785D01*
X205250D01*
X205345Y31892D01*
X205430Y32017D01*
X205505Y32160D01*
X205570Y32321D01*
X205625Y32500D01*
X205670Y32697D01*
X205705Y32912D01*
X205715Y33008D01*
X205700Y33180D01*
X205637Y33556D01*
X205550Y33881D01*
X205438Y34155D01*
X205300Y34381D01*
X205138Y34555D01*
X204950Y34681D01*
X204737Y34755D01*
X204500Y34780D01*
X209500D01*
X209263Y34755D01*
D02*
G37*
G36*
X393262Y31005D02*
X393050Y30931D01*
X392863Y30805D01*
X392700Y30631D01*
X392562Y30405D01*
X392450Y30131D01*
X392363Y29806D01*
X392317Y29530D01*
X392330Y29447D01*
X392375Y29250D01*
X392430Y29071D01*
X392495Y28910D01*
X392570Y28767D01*
X392655Y28642D01*
X392750Y28535D01*
X392250D01*
X392250Y28530D01*
X389750D01*
X389750Y28535D01*
X389250D01*
X389345Y28642D01*
X389430Y28767D01*
X389505Y28910D01*
X389570Y29071D01*
X389625Y29250D01*
X389670Y29447D01*
X389683Y29530D01*
X389637Y29806D01*
X389550Y30131D01*
X389437Y30405D01*
X389300Y30631D01*
X389137Y30805D01*
X388950Y30931D01*
X388737Y31005D01*
X388500Y31030D01*
X393500D01*
X393262Y31005D01*
D02*
G37*
G36*
X373260D02*
X373047Y30931D01*
X372860Y30805D01*
X372697Y30631D01*
X372560Y30405D01*
X372447Y30131D01*
X372360Y29806D01*
X372314Y29530D01*
X372327Y29447D01*
X372372Y29250D01*
X372427Y29071D01*
X372492Y28910D01*
X372567Y28767D01*
X372652Y28642D01*
X372747Y28535D01*
X372247D01*
X372247Y28530D01*
X369747D01*
X369747Y28535D01*
X369247D01*
X369342Y28642D01*
X369427Y28767D01*
X369502Y28910D01*
X369567Y29071D01*
X369622Y29250D01*
X369667Y29447D01*
X369681Y29530D01*
X369635Y29806D01*
X369547Y30131D01*
X369435Y30405D01*
X369297Y30631D01*
X369135Y30805D01*
X368947Y30931D01*
X368735Y31005D01*
X368497Y31030D01*
X373497D01*
X373260Y31005D01*
D02*
G37*
G36*
X301262D02*
X301050Y30931D01*
X300863Y30805D01*
X300700Y30631D01*
X300562Y30405D01*
X300450Y30131D01*
X300362Y29806D01*
X300300Y29430D01*
X300275Y29151D01*
X300295Y28912D01*
X300330Y28697D01*
X300375Y28500D01*
X300430Y28321D01*
X300495Y28160D01*
X300570Y28017D01*
X300655Y27892D01*
X300750Y27785D01*
X297250D01*
X297345Y27892D01*
X297430Y28017D01*
X297505Y28160D01*
X297570Y28321D01*
X297625Y28500D01*
X297670Y28697D01*
X297705Y28912D01*
X297727Y29121D01*
X297700Y29430D01*
X297638Y29806D01*
X297550Y30131D01*
X297437Y30405D01*
X297300Y30631D01*
X297138Y30805D01*
X296950Y30931D01*
X296737Y31005D01*
X296500Y31030D01*
X301500D01*
X301262Y31005D01*
D02*
G37*
G36*
X191262D02*
X191050Y30931D01*
X190863Y30805D01*
X190700Y30631D01*
X190562Y30405D01*
X190450Y30131D01*
X190362Y29806D01*
X190300Y29430D01*
X190275Y29151D01*
X190295Y28912D01*
X190330Y28697D01*
X190375Y28500D01*
X190430Y28321D01*
X190495Y28160D01*
X190570Y28017D01*
X190655Y27892D01*
X190750Y27785D01*
X187250D01*
X187345Y27892D01*
X187430Y28017D01*
X187505Y28160D01*
X187570Y28321D01*
X187625Y28500D01*
X187670Y28697D01*
X187705Y28912D01*
X187727Y29121D01*
X187700Y29430D01*
X187638Y29806D01*
X187550Y30131D01*
X187437Y30405D01*
X187300Y30631D01*
X187138Y30805D01*
X186950Y30931D01*
X186737Y31005D01*
X186500Y31030D01*
X191500D01*
X191262Y31005D01*
D02*
G37*
G36*
X276262Y19756D02*
X276050Y19681D01*
X275863Y19555D01*
X275700Y19381D01*
X275562Y19155D01*
X275450Y18880D01*
X275362Y18556D01*
X275300Y18181D01*
X275286Y18021D01*
X275295Y17912D01*
X275330Y17697D01*
X275375Y17500D01*
X275430Y17321D01*
X275495Y17160D01*
X275570Y17017D01*
X275655Y16892D01*
X275750Y16785D01*
X272250D01*
X272345Y16892D01*
X272430Y17017D01*
X272505Y17160D01*
X272570Y17321D01*
X272625Y17500D01*
X272670Y17697D01*
X272705Y17912D01*
X272715Y18008D01*
X272700Y18181D01*
X272638Y18556D01*
X272550Y18880D01*
X272437Y19155D01*
X272300Y19381D01*
X272138Y19555D01*
X271950Y19681D01*
X271737Y19756D01*
X271500Y19780D01*
X276500D01*
X276262Y19756D01*
D02*
G37*
G36*
X166262D02*
X166050Y19681D01*
X165863Y19555D01*
X165700Y19381D01*
X165562Y19155D01*
X165450Y18880D01*
X165362Y18556D01*
X165300Y18181D01*
X165286Y18021D01*
X165295Y17912D01*
X165330Y17697D01*
X165375Y17500D01*
X165430Y17321D01*
X165495Y17160D01*
X165570Y17017D01*
X165655Y16892D01*
X165750Y16785D01*
X162250D01*
X162345Y16892D01*
X162430Y17017D01*
X162505Y17160D01*
X162570Y17321D01*
X162625Y17500D01*
X162670Y17697D01*
X162705Y17912D01*
X162715Y18008D01*
X162700Y18181D01*
X162638Y18556D01*
X162550Y18880D01*
X162437Y19155D01*
X162300Y19381D01*
X162138Y19555D01*
X161950Y19681D01*
X161737Y19756D01*
X161500Y19780D01*
X166500D01*
X166262Y19756D01*
D02*
G37*
D10*
X508460Y317876D02*
X596837Y229500D01*
X771000D01*
X508460Y317876D02*
Y351064D01*
X497000Y362525D02*
X508460Y351064D01*
X500000Y307500D02*
Y354858D01*
Y307500D02*
X590500Y217000D01*
X771000D01*
X497000Y362525D02*
Y375000D01*
X492000Y362858D02*
X500000Y354858D01*
X492000Y362858D02*
Y375000D01*
X477050Y355862D02*
X482000Y360812D01*
Y375000D01*
X487000Y361070D02*
Y375000D01*
Y361070D02*
X493033Y355037D01*
D15*
X771000Y179500D02*
D03*
Y192000D02*
D03*
Y204500D02*
D03*
Y217000D02*
D03*
Y229500D02*
D03*
Y242000D02*
D03*
D16*
X800000Y267500D02*
D03*
Y154000D02*
D03*
D17*
X54000Y616000D02*
D03*
Y626000D02*
D03*
Y621000D02*
D03*
Y631000D02*
D03*
Y641000D02*
D03*
Y636000D02*
D03*
Y606000D02*
D03*
Y611000D02*
D03*
D18*
Y599500D02*
D03*
Y647500D02*
D03*
Y591500D02*
D03*
Y655500D02*
D03*
D19*
X812000Y396000D02*
D03*
Y363000D02*
D03*
Y385000D02*
D03*
Y341000D02*
D03*
Y374000D02*
D03*
Y407000D02*
D03*
Y330000D02*
D03*
Y352000D02*
D03*
D20*
X685000Y393000D02*
D03*
Y344000D02*
D03*
D21*
X807000Y309000D02*
D03*
D22*
X684000Y423500D02*
D03*
D23*
X807000Y442500D02*
D03*
D24*
X499500Y450500D02*
D03*
X359500D02*
D03*
X374500D02*
D03*
X447000Y375000D02*
D03*
X439500Y450500D02*
D03*
X454500D02*
D03*
X469500D02*
D03*
X544500D02*
D03*
X362000Y375000D02*
D03*
X542000D02*
D03*
X494500Y450500D02*
D03*
X479500D02*
D03*
X379500D02*
D03*
X509500D02*
D03*
X459500D02*
D03*
X457000Y375000D02*
D03*
X464500Y450500D02*
D03*
X462000Y375000D02*
D03*
X387000D02*
D03*
X382000D02*
D03*
X377000D02*
D03*
X372000D02*
D03*
X367000D02*
D03*
X364500Y450500D02*
D03*
X369500D02*
D03*
X384500D02*
D03*
X389500D02*
D03*
X392000Y375000D02*
D03*
X394500Y450500D02*
D03*
X397000Y375000D02*
D03*
X399500Y450500D02*
D03*
X402000Y375000D02*
D03*
X404500Y450500D02*
D03*
X407000Y375000D02*
D03*
X409500Y450500D02*
D03*
X412000Y375000D02*
D03*
X414500Y450500D02*
D03*
X437000Y375000D02*
D03*
X442000D02*
D03*
X444500Y450500D02*
D03*
X449500D02*
D03*
X452000Y375000D02*
D03*
X467000D02*
D03*
X472000D02*
D03*
X474500Y450500D02*
D03*
X477000Y375000D02*
D03*
X482000D02*
D03*
X484500Y450500D02*
D03*
X487000Y375000D02*
D03*
X489500Y450500D02*
D03*
X492000Y375000D02*
D03*
X497000D02*
D03*
X502000D02*
D03*
X504500Y450500D02*
D03*
X507000Y375000D02*
D03*
X512000D02*
D03*
X514500Y450500D02*
D03*
X517000Y375000D02*
D03*
X519500Y450500D02*
D03*
X522000Y375000D02*
D03*
X524500Y450500D02*
D03*
X527000Y375000D02*
D03*
X529500Y450500D02*
D03*
X532000Y375000D02*
D03*
X534500Y450500D02*
D03*
X537000Y375000D02*
D03*
X539500Y450500D02*
D03*
D25*
X164000Y23750D02*
D03*
X274000D02*
D03*
Y57750D02*
D03*
X164000D02*
D03*
D26*
X207000Y39250D02*
D03*
X216000Y405500D02*
D03*
X317000Y39250D02*
D03*
X216000Y423500D02*
D03*
X317000Y57250D02*
D03*
X207000D02*
D03*
D27*
X370997Y35500D02*
D03*
X309000Y554500D02*
D03*
X383000D02*
D03*
X189000Y35500D02*
D03*
X299000D02*
D03*
X391000D02*
D03*
X453000Y56500D02*
D03*
X505000D02*
D03*
X661000Y374500D02*
D03*
X525000Y56500D02*
D03*
X299000D02*
D03*
X189000D02*
D03*
X473000D02*
D03*
X661000Y395500D02*
D03*
X383000Y575500D02*
D03*
X309000D02*
D03*
X505000Y35500D02*
D03*
X391000Y56500D02*
D03*
X370997D02*
D03*
X453000Y35500D02*
D03*
X473000D02*
D03*
X525000D02*
D03*
D28*
X232000Y414500D02*
D03*
X70000Y658500D02*
D03*
X421000Y590500D02*
D03*
X540000Y583000D02*
D03*
X69000Y588500D02*
D03*
X232000Y425500D02*
D03*
X69000Y599500D02*
D03*
X421000Y579500D02*
D03*
X70000Y647500D02*
D03*
X540000Y572000D02*
D03*
D29*
X206000Y441000D02*
D03*
X337000Y506000D02*
D03*
X668500Y657632D02*
D03*
X355000Y506000D02*
D03*
X650500Y657632D02*
D03*
X224000Y441000D02*
D03*
D30*
X250000Y443500D02*
D03*
Y425500D02*
D03*
X262000Y443500D02*
D03*
Y434500D02*
D03*
Y416500D02*
D03*
Y425500D02*
D03*
X250000Y416500D02*
D03*
Y434500D02*
D03*
D31*
X110500Y588755D02*
D03*
X555000Y630255D02*
D03*
X372000Y331255D02*
D03*
X388000D02*
D03*
X404000D02*
D03*
X388000Y346745D02*
D03*
X404000D02*
D03*
X372000D02*
D03*
X571000Y645495D02*
D03*
Y630005D02*
D03*
X555000Y645745D02*
D03*
X110500Y604245D02*
D03*
D32*
X116000Y636000D02*
D03*
X338745Y679000D02*
D03*
X354000D02*
D03*
X667495Y530735D02*
D03*
X538500Y686132D02*
D03*
X669245Y577735D02*
D03*
X666245Y674632D02*
D03*
X538500Y701500D02*
D03*
X553990D02*
D03*
X556255Y726000D02*
D03*
X553990Y686132D02*
D03*
X571745Y726000D02*
D03*
X650755Y674632D02*
D03*
X652005Y530735D02*
D03*
X100510Y636000D02*
D03*
X653755Y577735D02*
D03*
X323255Y679000D02*
D03*
X369490D02*
D03*
D33*
X339650Y522950D02*
D03*
X352350D02*
D03*
X326950D02*
D03*
X365050Y575050D02*
D03*
X326950D02*
D03*
X365050Y522950D02*
D03*
X352350Y575050D02*
D03*
X339650D02*
D03*
D34*
X342500Y596000D02*
D03*
X353000D02*
D03*
X530500Y355000D02*
D03*
X519500Y560000D02*
D03*
X606000Y702000D02*
D03*
X541500Y355000D02*
D03*
X530500Y560000D02*
D03*
X595000Y702000D02*
D03*
X331500Y596000D02*
D03*
X364000D02*
D03*
D35*
X347000Y724500D02*
D03*
X337000Y699500D02*
D03*
X357000D02*
D03*
D36*
X518500Y334000D02*
D03*
X504706Y542348D02*
D03*
X463500Y554000D02*
D03*
X618500Y723000D02*
D03*
X622500Y630000D02*
D03*
X674000Y693632D02*
D03*
X541500Y334000D02*
D03*
X527706Y542348D02*
D03*
X440500Y554000D02*
D03*
X651000Y693632D02*
D03*
X599500Y630000D02*
D03*
X595500Y723000D02*
D03*
D37*
X599000Y537000D02*
D03*
X673750Y548735D02*
D03*
X532245Y668132D02*
D03*
X553245D02*
D03*
X578000Y537000D02*
D03*
X652750Y548735D02*
D03*
D38*
X441000Y623000D02*
D03*
Y577000D02*
D03*
Y600000D02*
D03*
D39*
X523000Y612500D02*
D03*
Y589500D02*
D03*
D40*
X561800Y574485D02*
D03*
Y561485D02*
D03*
Y554985D02*
D03*
Y567985D02*
D03*
X619200Y574485D02*
D03*
Y567985D02*
D03*
Y561485D02*
D03*
Y554985D02*
D03*
D41*
X605000Y674382D02*
D03*
X587000Y678882D02*
D03*
Y674382D02*
D03*
X605000Y678882D02*
D03*
D42*
X90000Y148000D02*
D03*
Y406000D02*
D03*
D43*
X348500Y442750D02*
D03*
X555500D02*
D03*
D44*
X593500Y676632D02*
D03*
X598500D02*
D03*
D45*
X335000Y613000D02*
D03*
X360000D02*
D03*
X335000Y658500D02*
D03*
X360000D02*
D03*
D46*
X499000Y600000D02*
D03*
D88*
X42800Y652400D02*
D03*
Y594600D02*
D03*
D89*
X550000Y538000D02*
D03*
D90*
X588500Y683882D02*
D03*
D91*
X603500Y669382D02*
D03*
D92*
X588500D02*
D03*
D93*
X603500Y683882D02*
D03*
D94*
X559500Y538000D02*
D03*
D95*
X466000Y758000D02*
X480878Y772878D01*
Y837253D01*
X489738Y846113D01*
X467574Y754200D02*
X484678Y771304D01*
Y835679D02*
X491312Y842313D01*
X484678Y771304D02*
Y835679D01*
X357000Y699500D02*
Y746200D01*
X476800Y117200D02*
X525000Y69000D01*
Y56500D02*
Y69000D01*
X476800Y117200D02*
Y332574D01*
X636422Y437000D02*
X712000D01*
X747000Y402000D01*
X770500Y192500D02*
X771000Y192000D01*
X755000Y192500D02*
X770500D01*
X755000Y205000D02*
X770500D01*
X771000Y204500D01*
X755000Y242500D02*
X755500Y242000D01*
X771000D01*
X474500Y430500D02*
Y450500D01*
Y430500D02*
X490000Y415000D01*
X585000D01*
X604500Y395500D01*
X661000D01*
X796000Y352000D02*
X812000D01*
X796000Y352000D02*
X796000Y352000D01*
X811924Y340924D02*
X812000Y341000D01*
X793076Y340924D02*
X811924D01*
X782000Y352000D02*
X793076Y340924D01*
X782000Y352000D02*
Y392000D01*
X788000Y363000D02*
X812000D01*
X693600Y480400D02*
X782000Y392000D01*
X812000Y363000D02*
X812000Y363000D01*
X625872Y426450D02*
X636422Y437000D01*
X499500Y438465D02*
Y450500D01*
X511515Y426450D02*
X625872D01*
X499500Y438465D02*
X511515Y426450D01*
X672000Y344000D02*
X685000D01*
X673000Y424000D02*
X683500D01*
X807000Y299000D02*
Y309000D01*
Y442500D02*
Y455000D01*
X683500Y424000D02*
X684000Y423500D01*
X164000Y15000D02*
Y23750D01*
X207000Y30000D02*
Y39250D01*
X216000Y396000D02*
Y405500D01*
X232000Y407000D02*
Y414500D01*
X274000Y15000D02*
Y23750D01*
X317000Y30000D02*
Y39250D01*
X370997Y26750D02*
Y35500D01*
X196250Y441000D02*
X206000D01*
X241000Y443000D02*
X241250Y443250D01*
X249750D01*
X359500Y440119D02*
X361500Y438119D01*
X359500Y440119D02*
Y450500D01*
X361500Y437500D02*
Y438119D01*
X249750Y443250D02*
X250000Y443500D01*
X374510Y450677D02*
X374520Y450667D01*
X374510Y450677D02*
Y464059D01*
X110000Y580000D02*
Y588255D01*
X110500Y588755D01*
X124000Y636000D02*
X124000Y636000D01*
X116000Y636000D02*
X124000D01*
X339650Y508650D02*
Y522950D01*
X337000Y506000D02*
X339650Y508650D01*
X342500Y596000D02*
X353000D01*
X374510Y464059D02*
X374520Y464068D01*
X382361Y555139D02*
X383000Y554500D01*
X371172Y555139D02*
X382361D01*
X338745Y679000D02*
X354000D01*
X446886Y361077D02*
X446943Y361134D01*
Y374943D01*
X447000Y375000D01*
X454463Y450537D02*
X454500Y450500D01*
X469500D02*
X469525Y450525D01*
X544500Y450500D02*
X544513Y450513D01*
Y462739D01*
X439500Y450500D02*
Y465500D01*
X454463Y450537D02*
Y465824D01*
X454426Y465861D02*
X454463Y465824D01*
X469525Y465975D02*
X469550Y466000D01*
X469525Y450525D02*
Y465975D01*
X544513Y462739D02*
X544526Y462752D01*
X667760Y531000D02*
X678745D01*
X667495Y530735D02*
X667760Y531000D01*
X528000Y686000D02*
X528132Y686132D01*
X538500D01*
X669245Y577735D02*
X669510Y578000D01*
X673750Y548735D02*
X674015Y549000D01*
X685000D01*
X669510Y578000D02*
X680495D01*
X64000Y141000D02*
X83000D01*
X90000Y148000D01*
X97000Y141000D01*
X116000D01*
X90000Y123000D02*
Y148000D01*
X792000Y374000D02*
X812000D01*
X812000Y374000D01*
X352350Y522950D02*
X354850Y520450D01*
X542000Y331000D02*
Y375000D01*
X354850Y506150D02*
Y520450D01*
Y506150D02*
X355000Y506000D01*
X358500Y362000D02*
X362000Y365500D01*
Y375000D01*
X218000Y425500D02*
X250000D01*
X216000Y423500D02*
X218000Y425500D01*
X215500Y424000D02*
X216000Y423500D01*
X206000Y424000D02*
X215500D01*
X661000Y365500D02*
Y374500D01*
X189000Y26000D02*
Y35500D01*
X299000Y26000D02*
Y35500D01*
X391000Y26750D02*
Y35500D01*
X453000Y56500D02*
Y65250D01*
X505000Y56500D02*
Y65250D01*
X521132Y668132D02*
X532245D01*
X521000Y668000D02*
X521132Y668132D01*
X275000Y125250D02*
Y265145D01*
X371750Y361894D01*
X207000Y57250D02*
X275000Y125250D01*
X708963Y842313D02*
X723900Y857250D01*
X491312Y842313D02*
X708963D01*
X698000Y488000D02*
X790000Y396000D01*
X812000D01*
X695800Y484200D02*
X795000Y385000D01*
X812000D01*
X665000Y395000D02*
X685000D01*
X494500Y467500D02*
X515000Y488000D01*
X494500Y450500D02*
Y467500D01*
X515000Y488000D02*
X698000D01*
X379570Y461977D02*
Y478430D01*
X379500Y461907D02*
X379570Y461977D01*
X379500Y450500D02*
Y461907D01*
X54250Y630750D02*
X61827D01*
X67853Y620400D02*
Y624724D01*
X61827Y630750D02*
X67853Y624724D01*
X54000Y631000D02*
X54250Y630750D01*
X67853Y620400D02*
X134100D01*
X43000Y626000D02*
X54000D01*
X40000Y618957D02*
X42957Y616000D01*
X40000Y618957D02*
Y623000D01*
X42957Y616000D02*
X54000D01*
X40000Y623000D02*
X43000Y626000D01*
X54000Y621000D02*
X54250Y620750D01*
X108745Y606000D02*
X110500Y604245D01*
X54000Y606000D02*
X108745D01*
X578903Y646903D02*
X588500Y656500D01*
X572408Y646903D02*
X578903D01*
X571000Y645495D02*
X572408Y646903D01*
X588500Y656500D02*
Y669382D01*
X571000Y645495D02*
Y645745D01*
X555000D02*
X571000D01*
X594000Y630000D02*
Y630005D01*
X571000D02*
X594000D01*
X538500Y701125D02*
Y701500D01*
Y701125D02*
X541250Y698375D01*
X542122D01*
X553990Y686507D01*
Y686132D02*
Y686507D01*
X556255Y703765D02*
Y726000D01*
X553990Y701500D02*
X556255Y703765D01*
X589891Y726000D02*
X590000Y726109D01*
X571745Y726000D02*
X589891D01*
X603500Y669382D02*
X625618D01*
X637368Y657632D01*
X650500D01*
X650387Y675000D02*
X650755Y674632D01*
X634000Y675000D02*
X650387D01*
X630118Y678882D02*
X634000Y675000D01*
X605000Y678882D02*
X630118D01*
X625632Y693632D02*
X651000D01*
X615882Y683882D02*
X625632Y693632D01*
X603500Y683882D02*
X615882D01*
X553990Y701500D02*
X554766Y700724D01*
X560275D01*
X577118Y683882D01*
X588500D01*
X553990Y686132D02*
X557990D01*
X558122Y686000D01*
X568000D01*
X575118Y678882D01*
X587000D01*
X553245Y668132D02*
X553377Y668000D01*
X568000D01*
X574382Y674382D01*
X587000D01*
X459500Y450500D02*
Y476126D01*
X365050Y522950D02*
X412676D01*
X459500Y476126D01*
X469374Y477000D02*
X474892D01*
X484500Y467392D01*
Y450500D02*
Y467392D01*
X470948Y480800D02*
X476466D01*
X404750Y546998D02*
X470948Y480800D01*
X404750Y546998D02*
Y553750D01*
X388250Y570250D02*
X404750Y553750D01*
X388250Y570250D02*
Y572250D01*
X385000Y575500D02*
X388250Y572250D01*
X383000Y575500D02*
X385000D01*
X382550Y575050D02*
X383000Y575500D01*
X365050Y575050D02*
X382550D01*
X326950Y573050D02*
Y575050D01*
Y573050D02*
X356805Y543195D01*
X403179D01*
X469374Y477000D01*
X476466Y480800D02*
X489500Y467766D01*
Y450500D02*
Y467766D01*
X379250Y418750D02*
X392000Y406000D01*
X310250Y418750D02*
X379250D01*
X294500Y434500D02*
X310250Y418750D01*
X292250Y425500D02*
X307750Y410000D01*
X262000Y425500D02*
X292250D01*
X307750Y410000D02*
X366000D01*
X262000Y434500D02*
X294500D01*
X290875Y443375D02*
X291000Y443250D01*
X262125Y443375D02*
X290875D01*
X262000Y443500D02*
X262125Y443375D01*
X559500Y537000D02*
Y538000D01*
Y537000D02*
X578000D01*
X595000Y567500D02*
Y567985D01*
X619200D01*
X645500Y530735D02*
X652005D01*
X638500Y537735D02*
X645500Y530735D01*
X638500Y537735D02*
Y547735D01*
X631250Y554985D02*
X638500Y547735D01*
X619200Y554985D02*
X631250D01*
X652750Y548735D02*
Y550735D01*
X642000Y561485D02*
X652750Y550735D01*
X619200Y561485D02*
X642000D01*
X636500Y577735D02*
X653755D01*
X633250Y574485D02*
X636500Y577735D01*
X619200Y574485D02*
X633250D01*
X504500Y471500D02*
X517200Y484200D01*
X695800D01*
X504500Y450500D02*
Y471500D01*
X509500Y450500D02*
Y470500D01*
X519400Y480400D02*
X693600D01*
X509500Y470500D02*
X519400Y480400D01*
X412000Y362000D02*
X421000Y353000D01*
X414000Y346000D02*
X416000Y344000D01*
X414000Y346000D02*
Y353000D01*
X407000Y360000D02*
X414000Y353000D01*
X407000Y360000D02*
Y375000D01*
X412000Y362000D02*
Y375000D01*
X317000Y57250D02*
Y199000D01*
X299000Y57750D02*
X316500D01*
X317000Y199000D02*
X428000Y310000D01*
Y384000D01*
X274000Y57750D02*
X299000D01*
X384500Y427500D02*
X428000Y384000D01*
X369250Y450750D02*
X369500Y450500D01*
X356574Y481800D02*
X368900Y469474D01*
X369250Y450750D02*
Y459464D01*
X368900Y459814D02*
X369250Y459464D01*
X368900Y459814D02*
Y469474D01*
X134100Y620400D02*
X272700Y481800D01*
X356574D01*
X61446Y620400D02*
X67853D01*
X54250Y620750D02*
X61096D01*
X61446Y620400D01*
X364750Y450750D02*
Y459464D01*
X355000Y478000D02*
X365100Y467900D01*
X364750Y459464D02*
X365100Y459814D01*
Y467900D01*
X364500Y450500D02*
X364750Y450750D01*
X61446Y616600D02*
X132526D01*
X271126Y478000D01*
X355000D01*
X54250Y616250D02*
X61096D01*
X61446Y616600D01*
X54000Y616000D02*
X54250Y616250D01*
X404525Y450525D02*
Y467975D01*
X404550Y468000D01*
X404500Y450500D02*
X404525Y450525D01*
X399500Y474500D02*
X404000Y479000D01*
X399500Y450500D02*
Y474500D01*
X384500Y427500D02*
Y450500D01*
X189000Y57750D02*
X206500D01*
X164000D02*
X189000D01*
X371750Y361894D02*
Y374750D01*
X372000Y375000D01*
X206500Y57750D02*
X207000Y57250D01*
X316500Y57750D02*
X317000Y57250D01*
X472000Y337374D02*
X476800Y332574D01*
X472000Y337374D02*
Y375000D01*
X467000Y337000D02*
X473000Y331000D01*
X467000Y337000D02*
Y375000D01*
X473000Y56500D02*
Y331000D01*
X505000Y35500D02*
X525000D01*
X453000D02*
X473000D01*
X370997Y56500D02*
X391000D01*
X423000Y425626D02*
Y470000D01*
Y425626D02*
X442000Y406626D01*
Y375000D02*
Y406626D01*
X405374Y493000D02*
X426800Y471574D01*
Y427200D02*
Y471574D01*
Y427200D02*
X452000Y402000D01*
X302000Y493000D02*
X405374D01*
X300426Y489200D02*
X403800D01*
X423000Y470000D01*
X260000Y535000D02*
Y679264D01*
X205000Y734264D02*
X260000Y679264D01*
X205000Y734264D02*
Y842750D01*
X178959Y754931D02*
X256200Y677690D01*
Y533426D02*
Y677690D01*
Y533426D02*
X300426Y489200D01*
X54000Y636000D02*
X100510D01*
X178959Y754931D02*
Y843391D01*
X260000Y535000D02*
X302000Y493000D01*
X663928Y393928D02*
X665000Y395000D01*
X452000Y375000D02*
Y402000D01*
X190500Y857250D02*
X205000Y842750D01*
X383642Y405965D02*
X387000Y402607D01*
Y375000D02*
Y402607D01*
X383642Y405965D02*
Y406642D01*
X387000Y347745D02*
X388000Y346745D01*
X387000Y347745D02*
Y375000D01*
X165100Y857250D02*
X178959Y843391D01*
X392000Y375000D02*
Y406000D01*
X392000Y375000D02*
X392000Y375000D01*
X403625Y346745D02*
X404000D01*
X392000Y358370D02*
X403625Y346745D01*
X392000Y358370D02*
Y375000D01*
X283500Y416500D02*
X291000Y409000D01*
X262000Y416500D02*
X283500D01*
X374392Y408750D02*
X382697Y400445D01*
Y382965D02*
Y400445D01*
X382250Y382518D02*
X382697Y382965D01*
X382250Y375250D02*
Y382518D01*
X382000Y375000D02*
X382250Y375250D01*
X366000Y410000D02*
X377000Y399000D01*
Y351370D02*
Y375000D01*
Y399000D01*
X372375Y346745D02*
X377000Y351370D01*
X372000Y346745D02*
X372375D01*
X334395Y539395D02*
X401605D01*
X464500Y476500D01*
X326950Y531950D02*
X334395Y539395D01*
X464500Y450500D02*
Y476500D01*
X326950Y522950D02*
Y531950D01*
X399000Y391000D02*
X402000Y388000D01*
Y375000D02*
Y388000D01*
X250000Y416500D02*
X250000Y416500D01*
X250000Y406000D02*
Y416500D01*
X326500Y575500D02*
X326950Y575050D01*
X309000Y575500D02*
X326500D01*
X489738Y846113D02*
X687363D01*
X357000Y746200D02*
X365000Y754200D01*
X337000Y701400D02*
X338850Y703250D01*
X340750D02*
X353200Y715700D01*
X363426Y758000D02*
X466000D01*
X353200Y715700D02*
Y747774D01*
X363426Y758000D01*
X337000Y699500D02*
Y701400D01*
X338850Y703250D02*
X340750D01*
X328500Y699500D02*
X337000D01*
X365000Y754200D02*
X467574D01*
X687363Y846113D02*
X698500Y857250D01*
X364729Y699500D02*
X369490Y694739D01*
Y679000D02*
Y694739D01*
X359000Y699500D02*
X364729D01*
X369490Y670240D02*
Y679000D01*
X323255D02*
Y694255D01*
X328500Y699500D01*
X323255Y672313D02*
Y679000D01*
X331568Y664000D02*
X331750D01*
X323255Y672313D02*
X331568Y664000D01*
X360000Y658500D02*
Y660750D01*
X369490Y670240D01*
X335000Y658500D02*
Y660750D01*
X331750Y664000D02*
X335000Y660750D01*
X362919Y597081D02*
Y610081D01*
X360000Y613000D02*
X362919Y610081D01*
Y597081D02*
X364000Y596000D01*
X352350Y575050D02*
Y583100D01*
X364000Y594750D01*
X332012Y610012D02*
X335000Y613000D01*
X332012Y596512D02*
Y610012D01*
X331500Y596000D02*
X332012Y596512D01*
X364000Y594750D02*
Y596000D01*
X331500Y594750D02*
Y596000D01*
Y594750D02*
X339650Y586600D01*
Y575050D02*
Y586600D01*
D96*
X215000Y458000D02*
X224000Y449000D01*
X89000Y437000D02*
X110000Y458000D01*
X215000D01*
X89000Y407000D02*
X90000Y406000D01*
X89000Y407000D02*
Y437000D01*
X224000Y441000D02*
Y449000D01*
Y440000D02*
X229500Y434500D01*
X250000D01*
D97*
X6000Y580300D02*
D03*
Y666700D02*
D03*
D98*
X47800Y580300D02*
D03*
Y666700D02*
D03*
D99*
X0Y0D02*
D03*
X38100Y857250D02*
D03*
X800100Y0D02*
D03*
X774700Y857250D02*
D03*
X412000Y195750D02*
D03*
D100*
X342900Y831850D02*
D03*
Y857250D02*
D03*
Y781050D02*
D03*
Y806450D02*
D03*
X368300Y857250D02*
D03*
Y781050D02*
D03*
Y831850D02*
D03*
Y806450D02*
D03*
X190500Y857250D02*
D03*
X673100D02*
D03*
X165100D02*
D03*
X647700Y831850D02*
D03*
X673100D02*
D03*
X647700Y857250D02*
D03*
X165100Y806450D02*
D03*
Y781050D02*
D03*
X88900D02*
D03*
Y806450D02*
D03*
X114300Y781050D02*
D03*
X190500Y806450D02*
D03*
X241300Y781050D02*
D03*
X215900D02*
D03*
Y806450D02*
D03*
X241300D02*
D03*
X266700Y781050D02*
D03*
X317500D02*
D03*
X292100D02*
D03*
X266700Y806450D02*
D03*
X292100D02*
D03*
X190500Y781050D02*
D03*
X139700Y806450D02*
D03*
Y781050D02*
D03*
X114300Y806450D02*
D03*
X393700D02*
D03*
Y781050D02*
D03*
X317500Y806450D02*
D03*
X419100Y781050D02*
D03*
Y806450D02*
D03*
X444500Y781050D02*
D03*
X596900Y806450D02*
D03*
Y781050D02*
D03*
X546100D02*
D03*
Y806450D02*
D03*
X571500Y781050D02*
D03*
X622300D02*
D03*
Y806450D02*
D03*
X520700Y781050D02*
D03*
X571500Y806450D02*
D03*
X495300D02*
D03*
X647700Y781050D02*
D03*
X520700Y806450D02*
D03*
X673100D02*
D03*
X698500Y781050D02*
D03*
Y806450D02*
D03*
X723900Y781050D02*
D03*
X647700Y806450D02*
D03*
X673100Y781050D02*
D03*
X495300D02*
D03*
X469900Y806450D02*
D03*
Y781050D02*
D03*
X444500Y806450D02*
D03*
X88900Y831850D02*
D03*
Y857250D02*
D03*
X114300Y831850D02*
D03*
X241300D02*
D03*
X215900D02*
D03*
Y857250D02*
D03*
X241300D02*
D03*
X266700Y831850D02*
D03*
X317500D02*
D03*
X292100D02*
D03*
X266700Y857250D02*
D03*
X292100D02*
D03*
X190500Y831850D02*
D03*
X139700Y857250D02*
D03*
X165100Y831850D02*
D03*
X139700D02*
D03*
X114300Y857250D02*
D03*
X393700D02*
D03*
Y831850D02*
D03*
X317500Y857250D02*
D03*
X419100Y831850D02*
D03*
Y857250D02*
D03*
X444500Y831850D02*
D03*
X596900Y857250D02*
D03*
Y831850D02*
D03*
X546100D02*
D03*
Y857250D02*
D03*
X571500Y831850D02*
D03*
X622300D02*
D03*
Y857250D02*
D03*
X520700Y831850D02*
D03*
X571500Y857250D02*
D03*
X495300D02*
D03*
X520700D02*
D03*
X698500Y831850D02*
D03*
Y857250D02*
D03*
X723900Y831850D02*
D03*
X495300D02*
D03*
X469900Y857250D02*
D03*
Y831850D02*
D03*
X444500Y857250D02*
D03*
D101*
X352000Y397750D02*
D03*
D102*
X552000D02*
D03*
D103*
X723900Y806450D02*
D03*
Y857250D02*
D03*
D104*
X747000Y402000D02*
D03*
X755000Y192500D02*
D03*
Y205000D02*
D03*
X755500Y242000D02*
D03*
X477050Y355862D02*
D03*
X493033Y355037D02*
D03*
X796000Y352000D02*
D03*
X788000Y363000D02*
D03*
X672000Y344000D02*
D03*
X673000Y424000D02*
D03*
X807000Y299000D02*
D03*
Y455000D02*
D03*
X0Y-23000D02*
D03*
X-16260Y-16264D02*
D03*
X16260D02*
D03*
X-23000Y0D02*
D03*
X-16260Y16264D02*
D03*
X16260D02*
D03*
X0Y23000D02*
D03*
X23000Y0D02*
D03*
X38100Y834250D02*
D03*
X15100Y857250D02*
D03*
X21840Y873513D02*
D03*
Y840986D02*
D03*
X38100Y880250D02*
D03*
X54360Y840986D02*
D03*
Y873513D02*
D03*
X61100Y857250D02*
D03*
X777100Y0D02*
D03*
X783840Y16264D02*
D03*
Y-16264D02*
D03*
X800100Y23000D02*
D03*
Y-23000D02*
D03*
X816360Y16264D02*
D03*
Y-16264D02*
D03*
X823100Y0D02*
D03*
X774700Y834250D02*
D03*
X758440Y840986D02*
D03*
X790960D02*
D03*
X751700Y857250D02*
D03*
X758440Y873513D02*
D03*
X797700Y857250D02*
D03*
X774700Y880250D02*
D03*
X790960Y873513D02*
D03*
X164000Y15000D02*
D03*
X207000Y30000D02*
D03*
X216000Y396000D02*
D03*
X232000Y407000D02*
D03*
X274000Y15000D02*
D03*
X370997Y26750D02*
D03*
X317000Y30000D02*
D03*
X196250Y441000D02*
D03*
X241000Y443000D02*
D03*
X361500Y437500D02*
D03*
X110000Y580000D02*
D03*
X309000Y554500D02*
D03*
X124000Y636000D02*
D03*
X337000Y506000D02*
D03*
X371172Y555139D02*
D03*
X374520Y464068D02*
D03*
X347673Y595952D02*
D03*
X346372Y679000D02*
D03*
X420000Y630000D02*
D03*
Y600000D02*
D03*
Y615000D02*
D03*
X347000Y724500D02*
D03*
X446886Y361077D02*
D03*
X518500Y334000D02*
D03*
X530500Y355000D02*
D03*
X439500Y465500D02*
D03*
X454426Y465861D02*
D03*
X460000Y525000D02*
D03*
X469550Y466000D02*
D03*
X505000Y525000D02*
D03*
X544526Y462752D02*
D03*
X475000Y525000D02*
D03*
Y540000D02*
D03*
X490000Y525000D02*
D03*
Y540000D02*
D03*
X678745Y531000D02*
D03*
X599000Y537000D02*
D03*
X460000Y540000D02*
D03*
X505000Y555000D02*
D03*
X490000D02*
D03*
X450000Y640000D02*
D03*
X475000Y555000D02*
D03*
X465000Y640000D02*
D03*
X525000Y625000D02*
D03*
X540000Y640000D02*
D03*
X623000Y618000D02*
D03*
X540000Y625000D02*
D03*
X495000Y640000D02*
D03*
X480000D02*
D03*
X525000D02*
D03*
X510000D02*
D03*
X435000D02*
D03*
X525000Y655000D02*
D03*
X528132Y686132D02*
D03*
X540000Y655000D02*
D03*
X608000Y711000D02*
D03*
X616000Y703000D02*
D03*
Y711000D02*
D03*
X663000Y620000D02*
D03*
X651000D02*
D03*
Y632000D02*
D03*
X663000D02*
D03*
Y644000D02*
D03*
X685000Y549000D02*
D03*
X675000Y632000D02*
D03*
Y644000D02*
D03*
X680495Y578000D02*
D03*
X687000Y644000D02*
D03*
Y656000D02*
D03*
Y668000D02*
D03*
X624000Y711000D02*
D03*
X687000Y680000D02*
D03*
Y692000D02*
D03*
X78000Y592000D02*
D03*
Y585000D02*
D03*
X79000Y662000D02*
D03*
Y655000D02*
D03*
X64000Y141000D02*
D03*
X116000D02*
D03*
X90000Y123000D02*
D03*
X792000Y374000D02*
D03*
X372000Y331255D02*
D03*
X388000D02*
D03*
X541500Y334000D02*
D03*
X541500Y355000D02*
D03*
X354965Y505568D02*
D03*
X404000Y331255D02*
D03*
X358500Y362000D02*
D03*
X206000Y424000D02*
D03*
X661000Y365500D02*
D03*
X189000Y26000D02*
D03*
X299000D02*
D03*
X391000Y26750D02*
D03*
X453000Y65250D02*
D03*
X505000D02*
D03*
X545000Y560000D02*
D03*
Y552500D02*
D03*
X537500D02*
D03*
Y560000D02*
D03*
Y545000D02*
D03*
Y537500D02*
D03*
Y530000D02*
D03*
Y522500D02*
D03*
X530000D02*
D03*
Y530000D02*
D03*
X545000Y522500D02*
D03*
X521000Y668000D02*
D03*
X430000Y567500D02*
D03*
Y560000D02*
D03*
Y552500D02*
D03*
Y545000D02*
D03*
Y537500D02*
D03*
X422500D02*
D03*
X415000Y545000D02*
D03*
X422500D02*
D03*
X415000Y552500D02*
D03*
X422500D02*
D03*
X415000Y560000D02*
D03*
X422500D02*
D03*
Y567500D02*
D03*
X415000D02*
D03*
X81250Y599500D02*
D03*
X88500D02*
D03*
X95750D02*
D03*
X88500Y592250D02*
D03*
X95750D02*
D03*
X88500Y585000D02*
D03*
X95750D02*
D03*
Y662000D02*
D03*
X88500D02*
D03*
X95750Y654750D02*
D03*
X88500D02*
D03*
X95750Y647500D02*
D03*
X88500D02*
D03*
X81250D02*
D03*
X379570Y478430D02*
D03*
X291000Y443250D02*
D03*
X421000Y353000D02*
D03*
X416348Y343706D02*
D03*
X404550Y468000D02*
D03*
X404000Y479000D02*
D03*
X383642Y406642D02*
D03*
X291000Y409000D02*
D03*
X374392Y408750D02*
D03*
X399008Y391535D02*
D03*
X250000Y406000D02*
D03*
M02*
